<svg width="123" height="199" viewBox="0 0 123 199" fill="none" xmlns="http://www.w3.org/2000/svg">
<path d="M4.97895 176.49C4.97895 172.139 6.64694 169.503 8.45394 167.908C8.45394 160.75 8.45394 147.628 8.45394 132.086C8.45394 124.414 6.06817 125.243 6.06817 120.163C6.06817 115.08 8.45394 115.909 8.45394 108.236C8.45394 100.921 8.45394 93.4831 8.45394 86.1999C8.45394 78.5248 6.06817 79.354 6.06817 74.2738C6.06817 69.1912 8.45394 70.0227 8.45394 62.3476C8.45394 49.8588 8.45394 39.1036 8.45394 31.9958C10.3407 33.668 14.0139 36.2378 20.5218 38.6389V85.4093C21.7979 85.7169 23.1537 86.0199 24.6052 86.2979C25.7195 86.5188 26.8839 86.7216 28.0939 86.897V40.9581C29.6001 41.3408 31.2043 41.7076 32.9179 42.0493V87.5713C35.4267 87.8789 38.0563 88.1113 40.7816 88.3505C42.2741 88.4462 43.7895 88.5418 45.3253 88.6421C46.8612 88.7059 48.4198 88.7605 49.9875 88.8494C53.1162 88.961 56.2903 89.0316 59.5261 89.0248C62.7026 89.0726 65.9132 89.0567 69.051 88.9724C70.5754 88.9314 72.0839 88.8904 73.5765 88.8425V44.7512C74.9619 44.7398 76.2927 44.7239 77.571 44.7056V88.6648C77.8012 88.6534 78.0404 88.6466 78.2705 88.633C81.2556 88.4416 84.1381 88.2548 86.8634 87.9723C89.5842 87.6716 92.1614 87.3845 94.5198 86.9995C96.058 86.7557 97.4958 86.4983 98.8425 86.2318C97.5095 86.6191 96.1263 87.0086 94.6657 87.2979C93.2005 87.5964 91.7216 88.0133 90.1585 88.2457C88.6021 88.51 87.0116 88.7787 85.3937 89.0521C83.7599 89.2526 82.101 89.4577 80.4194 89.665C79.5785 89.7629 78.7308 89.8631 77.8786 89.9634C77.0241 90.0294 76.1627 90.0955 75.2991 90.1616C73.5696 90.296 71.8264 90.4304 70.0764 90.5648C68.3195 90.6309 66.5558 90.6992 64.7921 90.7653C61.2738 90.9316 57.7282 90.9635 54.2418 90.9453C50.7782 90.9157 47.3511 90.8223 44.047 90.6241C42.3949 90.5238 40.7679 90.4304 39.1842 90.2709C37.596 90.1456 36.0465 89.9793 34.5403 89.7902C31.5279 89.4394 28.7 88.961 26.1023 88.4553C23.5138 87.9108 21.153 87.3458 19.0999 86.717C17.0332 86.1224 15.2786 85.4663 13.8339 84.915C12.4029 84.3341 11.2954 83.8283 10.5435 83.4684C9.8029 83.0879 9.40642 82.8875 9.40642 82.8875C9.40642 82.8875 9.7756 83.1381 10.466 83.6074C11.1633 84.0675 12.2092 84.7122 13.6106 85.4116C15.0051 86.1224 16.7552 86.8742 18.8106 87.601C19.3574 87.8037 19.9294 87.9997 20.5218 88.1887V131.455C21.7979 131.763 23.1537 132.066 24.6052 132.344C25.7195 132.565 26.8839 132.768 28.0939 132.943V90.1866C29.632 90.5238 31.2453 90.8428 32.9179 91.1321V133.617C35.4267 133.925 38.0563 134.157 40.7816 134.396C42.2741 134.492 43.7895 134.59 45.3253 134.688C46.8612 134.752 48.4198 134.807 49.9875 134.895C53.1162 135.007 56.2903 135.078 59.5261 135.071C62.7026 135.119 65.9132 135.103 69.051 135.018C70.5754 134.977 72.0839 134.939 73.5765 134.889V93.4877C74.2191 93.4649 74.8662 93.4399 75.5065 93.4171C76.197 93.392 76.8851 93.3669 77.571 93.3419V134.711C77.8012 134.699 78.0404 134.695 78.2705 134.681C81.2556 134.49 84.1381 134.301 86.8634 134.021C89.5842 133.718 92.1614 133.431 94.5198 133.046C96.058 132.802 97.4958 132.544 98.8425 132.278C97.5095 132.665 96.1263 133.055 94.6657 133.344C93.2005 133.645 91.7216 134.062 90.1585 134.292C88.6021 134.556 87.0116 134.825 85.3937 135.098C83.7599 135.299 82.101 135.504 80.4194 135.711C79.5785 135.809 78.7308 135.909 77.8786 136.009C77.0241 136.075 76.1627 136.142 75.2991 136.208C73.5696 136.342 71.8264 136.476 70.0764 136.611C68.3195 136.677 66.5558 136.745 64.7921 136.814C61.2738 136.978 57.7282 137.009 54.2418 136.991C50.7782 136.964 47.3511 136.868 44.047 136.67C42.3949 136.572 40.7679 136.476 39.1842 136.317C37.596 136.192 36.0465 136.025 34.5403 135.836C31.5279 135.488 28.7 135.007 26.1023 134.501C23.5138 133.957 21.153 133.392 19.0999 132.763C17.0332 132.168 15.2786 131.512 13.8339 130.961C12.4029 130.38 11.2954 129.874 10.5435 129.514C9.8029 129.134 9.40642 128.933 9.40642 128.933C9.40642 128.933 9.7756 129.184 10.466 129.653C11.1633 130.114 12.2092 130.758 13.6106 131.458C15.0051 132.168 16.7552 132.92 18.8106 133.647C19.3574 133.852 19.9294 134.046 20.5218 134.235V175.396C21.766 175.749 23.0876 176.098 24.5027 176.424C25.6489 176.69 26.8429 176.957 28.0939 177.178V136.233C29.632 136.572 31.2453 136.891 32.9179 137.178V178.009C35.3788 178.385 37.9561 178.681 40.629 178.978C42.1169 179.13 43.6368 179.224 45.1704 179.356C46.7085 179.445 48.2648 179.536 49.8325 179.629C52.9634 179.775 56.1309 179.873 59.3803 179.866C62.559 179.925 65.7856 179.905 68.9302 179.823C70.4957 179.78 72.0452 179.741 73.5765 179.691V139.534C74.2191 139.511 74.8662 139.486 75.5065 139.463C76.197 139.438 76.8851 139.413 77.571 139.388V179.513C77.7715 179.504 77.9789 179.499 78.1771 179.488C81.169 179.299 84.063 179.105 86.7951 178.83C89.5227 178.524 92.109 178.242 94.4743 177.854C96.1628 177.59 97.7373 177.303 99.198 177.009C95.0622 178.198 90.343 179.164 85.3071 179.916C82.0418 180.372 78.6511 180.775 75.1852 181.051C71.7216 181.338 68.1896 181.536 64.6485 181.652C62.8621 181.7 61.1348 181.773 59.3529 181.768C57.5846 181.768 55.8027 181.823 54.0755 181.764C50.6096 181.714 47.1756 181.577 43.8715 181.315C42.2172 181.192 40.5925 181.055 39.0088 180.859C37.4205 180.702 35.8756 180.481 34.3717 180.256C31.3638 179.816 28.5473 179.244 25.9679 178.636C23.393 178 21.0573 177.321 19.0202 176.615C16.9762 175.936 15.2399 175.214 13.8088 174.613C10.9719 173.362 9.40642 172.489 9.40642 172.489C9.40642 172.489 9.77331 172.745 10.4615 173.221C11.1565 173.69 12.191 174.358 13.5719 175.1C14.9436 175.857 16.6686 176.674 18.6966 177.485C19.2777 177.727 19.8906 177.959 20.5218 178.187V188.753C10.3065 185.737 4.97895 181.418 4.97895 176.49V176.49ZM1.97338 20.8329C1.9597 20.5937 1.95513 20.4707 1.95513 20.4707C1.95513 20.4707 1.97335 20.5937 2.00753 20.8306C2.02349 20.949 2.04628 21.0949 2.07363 21.268C2.13059 21.4343 2.19664 21.6256 2.26956 21.8444C2.59769 22.7032 3.41121 23.8036 4.7488 24.8584C7.44676 26.9725 12.0907 28.7836 17.7874 30.2348C23.5001 31.6814 30.3133 32.7886 37.6575 33.5313C41.3308 33.914 45.1408 34.1532 49.0122 34.3583C52.8997 34.5519 56.8008 34.6385 60.7748 34.6271C64.6987 34.6408 68.6522 34.5519 72.5214 34.3606C76.3952 34.1578 80.2029 33.9163 83.8761 33.5336C91.2203 32.7932 98.0336 31.6837 103.749 30.2394C109.445 28.7859 114.087 26.9748 116.787 24.8584C118.122 23.8059 118.938 22.7009 119.264 21.8444C119.339 21.6279 119.405 21.4366 119.462 21.2725C119.487 21.0971 119.51 20.949 119.528 20.8306C119.563 20.5937 119.579 20.4707 119.579 20.4707C119.579 20.4707 119.574 20.5937 119.563 20.8329C119.556 20.9536 119.547 21.1017 119.537 21.2794C119.496 21.4548 119.446 21.6576 119.392 21.8854C119.136 22.7898 118.421 24.0473 117.097 25.2274C114.449 27.5808 109.862 29.8566 104.136 31.6085C98.4073 33.39 91.5371 34.7797 84.1222 35.7069C80.4103 36.158 76.5661 36.543 72.649 36.7572C68.7297 36.9804 64.7602 37.0989 60.7589 37.1148C56.8099 37.1011 52.7857 36.9804 48.8846 36.7595C44.9676 36.5499 41.1234 36.1603 37.4137 35.7092C29.9966 34.7843 23.1264 33.3946 17.3978 31.6108C11.6692 29.8612 7.08442 27.583 4.43659 25.2274C3.11268 24.0473 2.39721 22.7875 2.142 21.8877C2.08731 21.6599 2.03943 21.4571 1.99841 21.2839C1.98702 21.104 1.98021 20.9559 1.97338 20.8329ZM71.4482 6.04084C71.4482 6.04084 73.9091 5.68088 77.6075 5.56697C79.4555 5.5009 81.6134 5.49636 83.9217 5.58521C85.0747 5.649 86.2733 5.67404 87.481 5.79022C88.691 5.90185 89.9214 6.00438 91.1497 6.14791C93.5992 6.46457 96.0488 6.84728 98.3161 7.37809C99.4554 7.6059 100.538 7.92715 101.568 8.20737C102.593 8.51264 103.555 8.81561 104.428 9.15278C105.309 9.45577 106.096 9.8066 106.788 10.1142C107.486 10.4126 108.071 10.7452 108.554 10.9867C109.493 11.5266 110.013 11.8638 110.013 11.8638C110.013 11.8638 109.413 11.7112 108.365 11.4401C107.319 11.2008 105.843 10.8523 104.049 10.5242C102.258 10.1893 100.169 9.84309 97.9173 9.52643C96.7985 9.33962 95.625 9.23936 94.4469 9.05255C93.262 8.90447 92.0588 8.73819 90.8511 8.61744C89.648 8.45114 88.4381 8.31897 87.2486 8.18228C86.0568 8.0661 84.8878 7.89528 83.7508 7.76998C81.4789 7.51027 79.3575 7.24825 77.5345 6.99537C75.7116 6.76072 74.1917 6.51472 73.1253 6.34613C72.0589 6.16616 71.4482 6.04084 71.4482 6.04084V6.04084ZM40.834 6.7516C39.8633 6.9498 38.4779 7.23232 36.8281 7.52164C36.001 7.66744 35.1054 7.82237 34.1598 7.98867C33.2141 8.14814 32.2183 8.31672 31.1861 8.48986C30.1516 8.63338 29.1011 8.87032 28.0187 9.0184C26.9409 9.20065 25.8472 9.38291 24.7625 9.59478C22.5772 9.95473 20.4261 10.4263 18.4072 10.8545C17.4092 11.1074 16.4316 11.3125 15.5247 11.5676C14.6087 11.8046 13.7633 12.078 12.9726 12.3149C12.1978 12.586 11.4755 12.8206 10.858 13.0826C10.2222 13.3172 9.70494 13.5861 9.25376 13.782C8.38558 14.2194 7.88199 14.5019 7.88199 14.5019C7.88199 14.5019 7.97769 14.3971 8.1577 14.2035C8.34683 14.0189 8.59067 13.6931 8.97577 13.3742C9.36087 13.0575 9.80749 12.6224 10.3977 12.2465C10.9673 11.8296 11.6441 11.4173 12.4051 11.0049C13.1662 10.6063 14.0002 10.162 14.9208 9.81119C15.83 9.42163 16.803 9.06397 17.8261 8.74047C18.8538 8.44431 19.9066 8.07978 21.0027 7.85424C22.0942 7.59225 23.2061 7.36442 24.3227 7.14799C26.5626 6.77665 28.8071 6.46685 30.9217 6.31877C33.0341 6.14791 35.0097 6.09097 36.7073 6.10464C38.405 6.10464 39.8155 6.18208 40.8021 6.26182C41.7888 6.33699 42.3562 6.40309 42.3562 6.40309C42.3562 6.40309 41.8025 6.54656 40.834 6.7516V6.7516ZM42.0714 20.3978C42.0919 20.3545 42.0418 20.2884 42.019 20.2246C41.8914 19.9421 41.4971 19.6027 41.0801 19.3134C40.6381 19.0354 40.1595 18.7871 39.6651 18.5798C38.6784 18.172 37.678 17.8576 36.7415 17.6184C34.8639 17.1332 33.2369 16.8689 32.1021 16.7026C30.9537 16.5409 30.2974 16.4474 30.2974 16.4474C30.2974 16.4474 30.4637 16.4315 30.7714 16.3996C31.0835 16.3723 31.5324 16.3039 32.1158 16.2857C33.2825 16.2196 34.955 16.1809 36.9671 16.436C37.972 16.559 39.0635 16.7436 40.2051 17.1127C40.777 17.2927 41.3604 17.5227 41.9552 17.8257C42.5408 18.1606 43.1697 18.557 43.6505 19.3589C43.8761 19.7462 44.0401 20.3294 43.933 20.8351C43.9148 20.9263 43.9308 20.9605 43.8852 21.0994C43.8396 21.2407 43.7872 21.3819 43.7257 21.5209C43.5958 21.8353 43.4591 21.9674 43.3247 22.1496C42.7618 22.8103 42.1169 23.225 41.4721 23.5416C40.1778 24.1954 38.8402 24.5554 37.5003 24.8584C34.8069 25.3892 32.093 25.5395 29.5682 25.4074C28.3263 25.3641 27.0731 25.2206 25.9406 25.036C24.7944 24.8697 23.7211 24.6101 22.7481 24.323C21.7706 24.0542 20.8979 23.6919 20.1504 23.3297C19.3985 22.9766 18.7969 22.5346 18.3525 22.1268C17.8968 21.7191 17.6871 21.2543 17.6028 20.9513C17.5527 20.6347 17.5664 20.4707 17.5664 20.4707C17.5664 20.4707 17.5983 20.6415 17.7099 20.9149C17.858 21.1769 18.1384 21.5095 18.6123 21.8011C19.5512 22.3888 21.112 22.8445 23.0147 23.1475C23.9695 23.291 25.0109 23.4049 26.1183 23.4755C27.2371 23.5507 28.3697 23.5644 29.5979 23.5552C30.8101 23.5575 32.0543 23.455 33.3098 23.3571C34.5677 23.2454 35.8369 23.0723 37.0719 22.8012C38.3001 22.5506 39.5375 22.2294 40.5697 21.7259C41.0915 21.4822 41.5473 21.1769 41.8298 20.8898C41.8913 20.8238 41.9825 20.7281 41.9643 20.7395C41.9711 20.7372 41.9848 20.7372 42.0076 20.7349C42.0326 20.7326 42.0395 20.6005 42.0577 20.5413L42.0782 20.4319C42.0759 20.4205 42.0714 20.4091 42.0714 20.3978V20.3978ZM73.5765 184.354C74.1803 184.334 74.7887 184.327 75.388 184.299C76.1218 184.272 76.8418 184.217 77.571 184.179V192.66C76.2699 192.756 74.9391 192.838 73.5765 192.909V184.354ZM28.0939 180.488C29.632 180.88 31.243 181.251 32.9179 181.588V191.394C31.2362 191.143 29.6275 190.867 28.0939 190.571V180.488ZM116.391 77.0668C116.135 78.1193 115.641 79.0579 115.288 79.9623C114.925 80.8713 114.698 81.819 114.556 82.8054C114.29 84.7738 114.372 86.8742 114.367 88.977C114.372 93.1916 114.374 97.4699 114.381 101.751C114.372 103.892 114.367 106.031 114.36 108.164C114.363 110.259 114.497 112.349 115.199 114.228C115.532 115.167 116.062 116.117 116.352 117.203C116.648 118.288 116.717 119.395 116.696 120.45C116.682 121.516 116.53 122.616 116.17 123.639C115.81 124.666 115.329 125.537 115.028 126.446C114.417 128.273 114.281 130.191 114.251 132.114C114.233 134.043 114.217 135.934 114.199 137.773C114.164 141.452 114.133 144.928 114.103 148.141C113.905 160.98 113.77 169.542 113.77 169.542C113.77 169.542 113.638 160.98 113.437 148.141C113.408 144.928 113.376 141.452 113.344 137.773C113.326 135.934 113.31 134.043 113.292 132.114C113.292 130.189 113.362 128.102 114.025 126.109C114.353 125.108 114.848 124.188 115.151 123.288C115.461 122.384 115.591 121.425 115.6 120.429C115.611 119.424 115.538 118.436 115.276 117.504C115.026 116.568 114.52 115.668 114.135 114.624C113.346 112.544 113.201 110.314 113.182 108.164C113.175 106.031 113.169 103.892 113.162 101.751C113.166 97.4699 113.171 93.1916 113.175 88.977C113.198 86.872 113.118 84.776 113.417 82.6437C113.574 81.5889 113.836 80.5295 114.235 79.5454C114.634 78.5589 115.096 77.6933 115.315 76.7889C115.554 75.889 115.614 74.923 115.602 73.9867C115.589 72.9934 115.475 72.1369 115.19 71.2575C114.916 70.3986 114.461 69.5466 114.132 68.6125C113.793 67.6876 113.599 66.7263 113.474 65.7899C113.241 63.9105 113.305 62.0925 113.321 60.3725C113.342 58.6411 113.362 56.9689 113.38 55.3628C113.522 42.5232 113.77 33.9619 113.77 33.9619C113.77 33.9619 114.021 42.5232 114.162 55.3628C114.18 56.9689 114.201 58.6411 114.221 60.3725C114.249 62.1084 114.221 63.8831 114.477 65.6532C114.609 66.5349 114.814 67.4052 115.124 68.2526C115.425 69.1024 115.882 69.9407 116.208 70.9226C116.539 71.8749 116.68 72.9752 116.694 73.9526C116.712 74.9823 116.657 76.0211 116.391 77.0668V77.0668ZM122.224 20.1403C122.224 12.8707 116.11 7.65379 104.054 4.63524C94.2236 2.17256 79.7744 0.924122 61.112 0.924122C42.4496 0.924122 28.0028 2.17256 18.1702 4.63524C6.11371 7.65379 0 12.8707 0 20.1403C0 25.0816 1.75003 27.82 3.47499 29.6311V62.3476C3.47499 65.5302 3.05345 66.487 2.52024 67.6944C1.91639 69.0682 1.08922 70.9454 1.08922 74.2738C1.08922 77.5999 1.91639 79.4793 2.52024 80.8508C3.05345 82.0605 3.47499 83.015 3.47499 86.1999V108.236C3.47499 111.419 3.05345 112.374 2.52024 113.583C1.91639 114.955 1.08922 116.834 1.08922 120.163C1.08922 123.489 1.91639 125.368 2.52024 126.74C3.05345 127.949 3.47499 128.904 3.47499 132.086V165.931C1.64749 168.184 0 171.576 0 176.49C0 190.284 22.2741 198.196 61.112 198.196C99.9499 198.196 122.224 190.284 122.224 176.49C122.224 171.576 120.579 168.184 118.749 165.931V132.086C118.749 128.904 119.171 127.949 119.704 126.74C120.308 125.368 121.135 123.489 121.135 120.163C121.135 116.834 120.308 114.955 119.704 113.583C119.171 112.374 118.749 111.419 118.749 108.236V86.1999C118.749 83.015 119.171 82.0605 119.704 80.8508C120.308 79.4793 121.135 77.5999 121.135 74.2738C121.135 70.9454 120.308 69.0682 119.704 67.6944C119.171 66.487 118.749 65.5302 118.749 62.3476V29.6311C120.474 27.82 122.224 25.0816 122.224 20.1403" fill="#FFEB85"/>
</svg>
