<svg width="150" height="141" viewBox="0 0 150 141" fill="none" xmlns="http://www.w3.org/2000/svg">
<path d="M147.435 72.9838C146.405 73.8996 144.624 74.7835 142.397 75.4624C140.171 76.1573 137.503 76.6949 134.62 77.0571C133.178 77.2325 131.685 77.3806 130.163 77.4649C128.641 77.5515 127.096 77.5971 125.542 77.6039C124.008 77.5993 122.445 77.5515 120.927 77.4649C119.806 77.4057 118.708 77.3009 117.626 77.1824C117.906 76.9227 118.177 76.6539 118.435 76.3714C119.271 76.4329 120.119 76.4876 120.978 76.5331C122.488 76.6083 124.004 76.6402 125.549 76.6357C127.073 76.6425 128.609 76.6083 130.113 76.5331C131.617 76.4557 133.098 76.36 134.524 76.2119C137.38 75.9249 140.027 75.4943 142.247 74.9316C144.462 74.3666 146.264 73.6627 147.315 72.8403C147.832 72.4325 148.151 72.0019 148.276 71.6693C148.306 71.585 148.331 71.5121 148.354 71.4483C148.363 71.38 148.372 71.323 148.379 71.2752C148.393 71.184 148.399 71.1362 148.399 71.1362C148.399 71.1362 148.397 71.184 148.392 71.2775C148.39 71.323 148.386 71.3823 148.383 71.4506C148.365 71.5189 148.347 71.5964 148.326 71.6852C148.226 72.0361 147.948 72.5259 147.435 72.9838ZM147.073 111.225C146.934 111.624 146.747 111.963 146.631 112.316C146.392 113.025 146.339 113.772 146.328 114.519C146.321 115.269 146.314 116.002 146.307 116.717C146.296 118.146 146.282 119.499 146.271 120.745C146.194 125.734 146.141 129.063 146.141 129.063C146.141 129.063 146.091 125.734 146.011 120.745C146.002 119.499 145.988 118.146 145.975 116.717C145.968 116.002 145.963 115.269 145.954 114.519C145.954 113.77 145.984 112.959 146.241 112.184C146.367 111.797 146.56 111.439 146.679 111.088C146.8 110.737 146.85 110.366 146.852 109.979C146.857 109.587 146.829 109.202 146.727 108.842C146.629 108.477 146.433 108.127 146.282 107.723C145.977 106.915 145.92 106.047 145.913 105.211C145.911 104.384 145.909 103.552 145.904 102.721C145.906 101.057 145.909 99.3944 145.911 97.7564C145.92 96.9386 145.888 96.123 146.004 95.296C146.066 94.8859 146.166 94.4736 146.321 94.0909C146.476 93.7081 146.656 93.371 146.743 93.0201C146.834 92.6716 146.857 92.2957 146.852 91.9312C146.848 91.5462 146.804 91.2113 146.693 90.8696C146.585 90.5369 146.41 90.2066 146.282 89.8421C146.15 89.4844 146.075 89.1108 146.027 88.7463C145.936 88.015 145.961 87.3088 145.968 86.6413C145.975 85.9692 145.982 85.3177 145.991 84.6935C146.045 79.7043 146.141 76.3782 146.141 76.3782C146.141 76.3782 146.239 79.7043 146.294 84.6935C146.301 85.3177 146.308 85.9692 146.317 86.6413C146.328 87.3156 146.317 88.0059 146.415 88.6939C146.467 89.0356 146.547 89.3751 146.668 89.7031C146.784 90.0335 146.961 90.3592 147.089 90.7397C147.217 91.111 147.271 91.5393 147.278 91.9175C147.285 92.3185 147.265 92.7217 147.16 93.1272C147.062 93.5373 146.868 93.9018 146.731 94.2526C146.59 94.6057 146.501 94.9748 146.446 95.3575C146.344 96.123 146.376 96.9386 146.374 97.7564C146.376 99.3944 146.376 101.057 146.378 102.721C146.376 103.552 146.374 104.384 146.371 105.211C146.371 106.026 146.424 106.837 146.697 107.568C146.827 107.933 147.032 108.302 147.144 108.723C147.26 109.145 147.287 109.575 147.278 109.986C147.274 110.4 147.214 110.828 147.073 111.225V111.225ZM135.08 133.093C133.813 133.271 132.494 133.428 131.147 133.535C129.803 133.646 128.429 133.722 127.055 133.767C126.36 133.785 125.688 133.815 124.995 133.813C124.309 133.813 123.616 133.833 122.944 133.81C121.597 133.792 120.264 133.738 118.979 133.637C118.337 133.589 117.705 133.537 117.09 133.46C116.473 133.398 115.873 133.314 115.29 133.225C114.121 133.054 113.025 132.833 112.022 132.596C111.022 132.348 110.115 132.084 109.324 131.81C108.529 131.546 107.855 131.266 107.299 131.031C106.196 130.546 105.587 130.209 105.587 130.209C105.587 130.209 105.731 130.307 105.998 130.491C106.266 130.673 106.67 130.933 107.205 131.222C107.738 131.516 108.411 131.833 109.199 132.15C109.422 132.243 109.662 132.332 109.908 132.421V136.528C105.938 135.355 103.867 133.676 103.867 131.762C103.867 130.072 104.516 129.047 105.218 128.427C105.218 125.646 105.218 120.547 105.218 114.508C105.218 111.526 104.291 111.849 104.291 109.874C104.291 107.899 105.218 108.222 105.218 105.24C105.218 102.397 105.218 99.5083 105.218 96.6766C105.218 93.6945 104.291 94.018 104.291 92.0428C104.291 90.0677 105.218 90.3911 105.218 87.409C105.218 85.7642 105.218 84.2014 105.218 82.7388C106.307 82.5338 108.01 82.1534 109.908 81.5041V96.369C110.402 96.4898 110.931 96.6082 111.494 96.7153C111.927 96.8019 112.38 96.8793 112.85 96.9477V80.3149C113.396 80.0574 113.941 79.7772 114.477 79.4697C114.561 79.4856 114.638 79.5038 114.723 79.5221V97.2096C115.7 97.3304 116.721 97.4193 117.781 97.5127C118.359 97.5491 118.947 97.5878 119.544 97.6266C120.141 97.6493 120.747 97.6721 121.356 97.7063C122.573 97.7496 123.805 97.7769 125.063 97.7746C126.298 97.7928 127.545 97.786 128.764 97.7541C129.356 97.7382 129.942 97.7222 130.523 97.704V80.57C131.061 80.5655 131.578 80.5609 132.075 80.5541V97.6357C132.164 97.6311 132.257 97.6288 132.348 97.622C133.506 97.5491 134.627 97.4762 135.687 97.3669C136.744 97.2484 137.744 97.1368 138.66 96.9887C139.257 96.893 139.818 96.7927 140.342 96.6902C139.822 96.8406 139.285 96.9909 138.717 97.1026C138.148 97.221 137.573 97.3828 136.965 97.4716C136.361 97.5742 135.743 97.679 135.115 97.786C134.481 97.8635 133.834 97.9432 133.182 98.023C132.854 98.0617 132.526 98.1004 132.196 98.1391C131.863 98.1642 131.528 98.1915 131.193 98.2166C130.521 98.269 129.844 98.3214 129.163 98.3738C128.481 98.3988 127.795 98.4262 127.11 98.4513C125.742 98.515 124.364 98.5287 123.01 98.5196C121.664 98.5105 120.333 98.474 119.048 98.3966C118.407 98.3578 117.774 98.3214 117.159 98.2599C116.541 98.2098 115.939 98.146 115.354 98.0708C114.183 97.9364 113.084 97.7496 112.075 97.5536C111.07 97.3418 110.152 97.1231 109.354 96.877C108.552 96.647 107.868 96.3918 107.308 96.1776C106.752 95.9521 106.321 95.7562 106.029 95.6149C105.742 95.4691 105.587 95.3894 105.587 95.3894C105.587 95.3894 105.731 95.4874 106 95.6696C106.271 95.8473 106.677 96.0979 107.221 96.3713C107.764 96.647 108.443 96.9386 109.242 97.221C109.454 97.3008 109.678 97.376 109.908 97.4489V114.262C110.402 114.382 110.931 114.501 111.494 114.608C111.927 114.694 112.38 114.772 112.85 114.84V98.2257C113.447 98.3578 114.073 98.4809 114.723 98.5925V115.102C115.7 115.223 116.721 115.312 117.781 115.405C118.359 115.442 118.947 115.48 119.544 115.519C120.141 115.542 120.747 115.565 121.356 115.599C122.573 115.642 123.805 115.67 125.063 115.667C126.298 115.685 127.545 115.679 128.764 115.647C129.356 115.631 129.942 115.615 130.523 115.597V99.5083C130.774 99.4992 131.024 99.4901 131.273 99.481C131.542 99.4718 131.808 99.4627 132.075 99.4513V115.528C132.164 115.524 132.257 115.521 132.348 115.515C133.506 115.442 134.627 115.369 135.687 115.259C136.744 115.141 137.744 115.029 138.66 114.881C139.257 114.786 139.818 114.685 140.342 114.583C139.822 114.733 139.285 114.884 138.717 114.995C138.148 115.114 137.573 115.275 136.965 115.364C136.361 115.467 135.743 115.572 135.115 115.679C134.481 115.756 133.834 115.836 133.182 115.916C132.854 115.954 132.526 115.993 132.196 116.032C131.863 116.057 131.528 116.084 131.193 116.109C130.521 116.162 129.844 116.214 129.163 116.266C128.481 116.291 127.795 116.319 127.11 116.344C125.742 116.408 124.364 116.419 123.01 116.412C121.664 116.403 120.333 116.367 119.048 116.289C118.407 116.25 117.774 116.214 117.159 116.152C116.541 116.102 115.939 116.039 115.354 115.963C114.183 115.829 113.084 115.642 112.075 115.446C111.07 115.234 110.152 115.016 109.354 114.77C108.552 114.54 107.868 114.284 107.308 114.07C106.752 113.845 106.321 113.649 106.029 113.508C105.742 113.362 105.587 113.282 105.587 113.282C105.587 113.282 105.731 113.38 106 113.562C106.271 113.74 106.677 113.991 107.221 114.264C107.764 114.54 108.443 114.831 109.242 115.114C109.454 115.193 109.678 115.269 109.908 115.341V131.336C110.391 131.475 110.904 131.61 111.453 131.735C111.899 131.84 112.364 131.945 112.85 132.029V116.118C113.447 116.25 114.073 116.373 114.723 116.487V132.352C115.68 132.498 116.682 132.614 117.719 132.728C118.298 132.788 118.888 132.824 119.485 132.874C120.082 132.911 120.686 132.945 121.297 132.981C122.513 133.038 123.744 133.077 125.006 133.075C126.241 133.097 127.497 133.088 128.718 133.056C129.324 133.04 129.928 133.024 130.523 133.006V117.401C130.774 117.392 131.024 117.383 131.273 117.374C131.542 117.364 131.808 117.355 132.075 117.344V132.938C132.152 132.933 132.234 132.931 132.312 132.927C133.474 132.854 134.597 132.778 135.659 132.671C136.719 132.553 137.724 132.441 138.644 132.293C139.298 132.188 139.911 132.079 140.479 131.965C138.872 132.425 137.038 132.801 135.08 133.093V133.093ZM132.075 138.046C131.569 138.082 131.052 138.114 130.523 138.141V134.817C130.758 134.808 130.995 134.806 131.227 134.797C131.512 134.785 131.792 134.765 132.075 134.749V138.046ZM114.723 137.553C114.071 137.455 113.444 137.348 112.85 137.235V133.316C113.447 133.469 114.073 133.612 114.723 133.742V137.553ZM101.251 70.6692C100.558 70.6874 99.8861 70.7148 99.1934 70.7125C98.5053 70.7148 97.8148 70.7353 97.1426 70.7125C95.7959 70.692 94.4629 70.6396 93.1777 70.5371C92.5351 70.4892 91.9039 70.4368 91.2887 70.3616C90.6712 70.3001 90.0695 70.2135 89.4862 70.1247C88.3172 69.9538 87.2235 69.7329 86.2209 69.4959C85.2205 69.2476 84.3136 68.9856 83.5206 68.7123C82.7254 68.4457 82.0509 68.1655 81.4972 67.9331C80.3943 67.4456 79.7859 67.1084 79.7859 67.1084C79.7859 67.1084 79.9294 67.2064 80.196 67.3909C80.4649 67.5732 80.8682 67.8329 81.4037 68.1222C81.9369 68.4161 82.6069 68.735 83.3953 69.0494C83.6209 69.1428 83.8602 69.2339 84.104 69.3228V73.428C80.1345 72.257 78.0655 70.5781 78.0655 68.6621C78.0655 66.9718 78.7126 65.9466 79.4144 65.3269C79.4144 62.5453 79.4144 57.4468 79.4144 51.4074C79.4144 48.4253 78.487 48.7488 78.487 46.7736C78.487 44.8008 79.4144 45.122 79.4144 42.1399C79.4144 39.299 79.4144 36.408 79.4144 33.5763C79.4144 30.5965 78.487 30.9177 78.487 28.9426C78.487 26.9674 79.4144 27.2909 79.4144 24.3088C79.4144 19.4563 79.4144 15.2759 79.4144 12.5148C80.1482 13.1641 81.5746 14.1642 84.104 15.096V33.2711C84.6007 33.3895 85.1271 33.508 85.6922 33.6151C86.1252 33.7016 86.5763 33.7814 87.0457 33.8474V15.9981C87.6336 16.1462 88.2557 16.2874 88.9211 16.4219V34.1117C89.8964 34.2301 90.9195 34.319 91.9768 34.4124C92.5579 34.4511 93.1458 34.4876 93.7428 34.5263C94.3398 34.5514 94.946 34.5719 95.5544 34.6083C96.7689 34.6493 98.004 34.6767 99.2595 34.6744C100.495 34.6926 101.743 34.688 102.962 34.6539C103.555 34.6379 104.14 34.6242 104.722 34.6037V17.4721C105.259 17.4675 105.777 17.4606 106.273 17.4538V34.5354C106.362 34.5309 106.456 34.5286 106.544 34.524C107.704 34.4489 108.825 34.3759 109.883 34.2666C110.94 34.1504 111.943 34.0365 112.859 33.8884C113.456 33.7927 114.014 33.6925 114.538 33.59C114.021 33.7403 113.483 33.8907 112.916 34.0046C112.346 34.1208 111.772 34.2825 111.163 34.3714C110.56 34.4739 109.942 34.5787 109.313 34.6858C108.677 34.7632 108.032 34.843 107.381 34.9227C107.053 34.9614 106.724 35.0002 106.392 35.0389C106.059 35.0662 105.726 35.0913 105.389 35.1163C104.717 35.1687 104.04 35.2212 103.361 35.2736C102.678 35.2986 101.992 35.3259 101.308 35.351C99.9408 35.417 98.5622 35.4285 97.2087 35.4216C95.862 35.4102 94.5289 35.3738 93.246 35.2963C92.6034 35.2576 91.9723 35.2212 91.357 35.1597C90.7395 35.1118 90.1379 35.0457 89.5523 34.9728C88.381 34.8361 87.2827 34.6493 86.2733 34.4534C85.2684 34.2415 84.3501 34.0228 83.5526 33.7791C82.7482 33.5467 82.0668 33.2915 81.5062 33.0774C80.9502 32.8519 80.5196 32.6559 80.2279 32.517C79.9385 32.3689 79.7859 32.2892 79.7859 32.2892C79.7859 32.2892 79.9294 32.3871 80.196 32.5694C80.4672 32.7493 80.8751 33 81.4197 33.2711C81.962 33.5467 82.6411 33.8406 83.4386 34.1208C83.6528 34.2005 83.8738 34.2757 84.104 34.3509V51.1636C84.6007 51.2821 85.1271 51.4006 85.6922 51.5076C86.1252 51.5942 86.5763 51.674 87.0457 51.7423V35.1277C87.645 35.2576 88.2717 35.3829 88.9211 35.4945V52.0043C89.8964 52.1228 90.9195 52.2116 91.9768 52.305C92.5579 52.3437 93.1458 52.3802 93.7428 52.4189C94.3398 52.444 94.946 52.4645 95.5544 52.4986C96.7689 52.5419 98.004 52.5715 99.2595 52.567C100.495 52.5852 101.743 52.5807 102.962 52.5465C103.555 52.5305 104.14 52.5169 104.722 52.4964V36.4103C104.97 36.3989 105.223 36.3898 105.471 36.3807C105.738 36.3716 106.007 36.3625 106.273 36.3534V52.428C106.362 52.4235 106.456 52.4212 106.544 52.4166C107.704 52.3414 108.825 52.2685 109.883 52.1592C110.94 52.043 111.943 51.9291 112.859 51.781C113.456 51.6853 114.014 51.5851 114.538 51.4826C114.021 51.6329 113.483 51.7833 112.916 51.8972C112.346 52.0134 111.772 52.1751 111.163 52.2663C110.56 52.3665 109.942 52.4713 109.313 52.5784C108.677 52.6558 108.032 52.7356 107.381 52.8176C107.053 52.854 106.724 52.8928 106.392 52.9315C106.059 52.9588 105.726 52.9839 105.389 53.0089C104.717 53.0613 104.04 53.1137 103.361 53.1661C102.678 53.1912 101.992 53.2185 101.308 53.2436C99.9408 53.3097 98.5622 53.3211 97.2087 53.3142C95.862 53.3028 94.5289 53.2664 93.246 53.1889C92.6034 53.1502 91.9723 53.1137 91.357 53.0522C90.7395 53.0044 90.1379 52.9383 89.5523 52.8654C88.381 52.7287 87.2827 52.5419 86.2733 52.346C85.2684 52.1341 84.3501 51.9154 83.5526 51.6694C82.7482 51.4393 82.0668 51.1842 81.5062 50.97C80.9502 50.7445 80.5196 50.5486 80.2279 50.4073C79.9385 50.2615 79.7859 50.1818 79.7859 50.1818C79.7859 50.1818 79.9294 50.2797 80.196 50.462C80.4672 50.642 80.8751 50.8925 81.4197 51.1636C81.962 51.4393 82.6411 51.7332 83.4386 52.0134C83.6528 52.0931 83.8738 52.1683 84.104 52.2435V68.2361C84.5871 68.3751 85.102 68.5095 85.6512 68.6371C86.0978 68.7396 86.5604 68.8444 87.0457 68.9287V53.0203C87.645 53.1502 88.2717 53.2755 88.9211 53.3871V69.2522C89.8781 69.398 90.8785 69.5142 91.9176 69.6281C92.4964 69.6873 93.0866 69.726 93.6813 69.7762C94.2806 69.8103 94.8844 69.8468 95.4951 69.8809C96.7119 69.9379 97.9424 69.9766 99.2048 69.9744C100.44 69.9971 101.693 69.988 102.915 69.9584C103.523 69.9402 104.124 69.9265 104.722 69.906V54.3007C104.97 54.2915 105.223 54.2824 105.471 54.2756C105.738 54.2642 106.007 54.2551 106.273 54.246V69.8376C106.351 69.8331 106.431 69.8308 106.508 69.8263C107.67 69.7534 108.796 69.6782 109.858 69.5711C110.917 69.4527 111.922 69.3433 112.84 69.1929C113.497 69.0904 114.11 68.9788 114.677 68.8649C113.071 69.3251 111.236 69.701 109.279 69.9949C108.01 70.1703 106.693 70.3274 105.346 70.4345C103.999 70.5461 102.627 70.6236 101.251 70.6692V70.6692ZM96.1081 111.225C95.9668 111.624 95.7799 111.963 95.6637 112.316C95.4268 113.025 95.3743 113.772 95.3607 114.519C95.3538 115.269 95.3493 116.002 95.3425 116.717C95.3288 118.146 95.3151 119.499 95.3037 120.745C95.2262 125.734 95.1761 129.063 95.1761 129.063C95.1761 129.063 95.1237 125.734 95.0462 120.745C95.0348 119.499 95.0211 118.146 95.0097 116.717C95.0029 116.002 94.9961 115.269 94.9893 114.519C94.9893 113.77 95.0166 112.959 95.2741 112.184C95.4017 111.797 95.5931 111.439 95.7116 111.088C95.8324 110.737 95.8825 110.366 95.887 109.979C95.8916 109.587 95.862 109.202 95.7617 108.842C95.6637 108.477 95.4655 108.127 95.3174 107.723C95.0098 106.915 94.9528 106.047 94.946 105.211C94.9437 104.384 94.9414 103.552 94.9391 102.721C94.9414 101.057 94.9414 99.3944 94.9437 97.7564C94.9528 96.9386 94.9209 96.123 95.0371 95.296C95.0986 94.8859 95.2011 94.4736 95.3561 94.0909C95.511 93.7081 95.6888 93.371 95.7754 93.0201C95.8688 92.6716 95.8916 92.2957 95.887 91.9312C95.8825 91.5462 95.8369 91.2113 95.7253 90.8696C95.6204 90.5369 95.4427 90.2066 95.3151 89.8421C95.1829 89.4844 95.1078 89.1108 95.0599 88.7463C94.9688 88.015 94.9938 87.3088 95.0007 86.6413C95.0075 85.9692 95.0166 85.3177 95.0234 84.6935C95.0644 80.9619 95.1283 78.1597 95.1602 76.9842C95.1693 76.9865 95.1806 76.9865 95.192 76.9865C95.2217 78.162 95.2855 80.9619 95.3265 84.6935C95.3333 85.3177 95.3424 85.9692 95.3492 86.6413C95.3606 87.3156 95.3516 88.0059 95.4496 88.6939C95.502 89.0356 95.5794 89.3751 95.7002 89.7031C95.8187 90.0335 95.9964 90.3592 96.1218 90.7397C96.2516 91.111 96.3063 91.5393 96.3109 91.9175C96.3177 92.3185 96.2972 92.7217 96.1947 93.1272C96.0944 93.5373 95.903 93.9018 95.764 94.2526C95.625 94.6057 95.5361 94.9748 95.4792 95.3575C95.3766 96.123 95.4085 96.9386 95.4062 97.7564C95.4085 99.3944 95.4108 101.057 95.4108 102.721C95.4085 103.552 95.4062 104.384 95.4039 105.211C95.4039 106.026 95.4587 106.837 95.7298 107.568C95.8597 107.933 96.0648 108.302 96.1787 108.723C96.2927 109.145 96.32 109.575 96.3132 109.986C96.3063 110.4 96.2471 110.828 96.1081 111.225V111.225ZM84.1154 133.093C82.8462 133.271 81.5291 133.428 80.1824 133.535C78.8357 133.646 77.4639 133.722 76.0876 133.767C75.3926 133.785 74.7226 133.815 74.0299 133.813C73.3418 133.813 72.649 133.833 71.9791 133.81C70.6324 133.792 69.2971 133.738 68.0142 133.637C67.3716 133.589 66.7404 133.537 66.1251 133.46C65.5076 133.398 64.906 133.314 64.3227 133.225C63.1537 133.054 62.06 132.833 61.0573 132.596C60.057 132.348 59.1478 132.084 58.3571 131.81C57.5619 131.546 56.8873 131.266 56.3313 131.031C55.2307 130.546 54.6223 130.209 54.6223 130.209C54.6223 130.209 54.7636 130.307 55.0325 130.491C55.3014 130.673 55.7024 130.933 56.2402 131.222C56.7734 131.516 57.4434 131.833 58.2318 132.15C58.4574 132.243 58.6944 132.332 58.9405 132.421V136.528C54.971 135.355 52.902 133.676 52.902 131.762C52.902 130.072 53.5491 129.047 54.2509 128.427C54.2509 125.646 54.2509 120.547 54.2509 114.508C54.2509 111.526 53.3235 111.849 53.3235 109.874C53.3235 107.899 54.2509 108.222 54.2509 105.24C54.2509 102.397 54.2509 99.5083 54.2509 96.6766C54.2509 93.6945 53.3235 94.018 53.3235 92.0428C53.3235 90.0677 54.2509 90.3911 54.2509 87.409C54.2509 85.7574 54.2509 84.19 54.2509 82.7229C55.3607 82.5133 57.0583 82.1237 58.9405 81.4745V96.369C59.4372 96.4898 59.9636 96.6082 60.5264 96.7153C60.9594 96.8019 61.4128 96.8793 61.8822 96.9477V80.2762C62.4086 80.0256 62.935 79.7522 63.45 79.456C63.5525 79.4765 63.6505 79.4993 63.7576 79.5221V97.2096C64.7329 97.3304 65.7537 97.4193 66.8133 97.5127C67.3921 97.5491 67.9823 97.5878 68.5793 97.6266C69.1763 97.6493 69.7802 97.6721 70.3909 97.7063C71.6054 97.7496 72.8405 97.7769 74.096 97.7746C75.3311 97.7928 76.5798 97.786 77.7989 97.7541C78.3891 97.7382 78.9769 97.7222 79.5557 97.704V80.57C80.0958 80.5655 80.6107 80.5609 81.1098 80.5541V97.6357C81.1986 97.6311 81.2921 97.6288 81.381 97.622C82.5408 97.5491 83.6619 97.4762 84.7192 97.3669C85.7765 97.2484 86.7792 97.1368 87.6952 96.9887C88.2922 96.893 88.8504 96.7927 89.3745 96.6902C88.8573 96.8406 88.3195 96.9909 87.7522 97.1026C87.1825 97.221 86.6083 97.3828 85.9999 97.4716C85.3937 97.5742 84.7762 97.679 84.1495 97.786C83.5138 97.8635 82.8689 97.9432 82.2149 98.023C81.8891 98.0617 81.5587 98.1004 81.2283 98.1391C80.8956 98.1642 80.5606 98.1915 80.2257 98.2166C79.5534 98.269 78.8767 98.3214 78.1976 98.3738C77.514 98.3988 76.8282 98.4262 76.1445 98.4513C74.7773 98.515 73.3987 98.5287 72.0429 98.5196C70.6985 98.5105 69.3654 98.474 68.0825 98.3966C67.4399 98.3578 66.8087 98.3214 66.1912 98.2599C65.576 98.2098 64.9721 98.146 64.3888 98.0708C63.2176 97.9364 62.1192 97.7496 61.1097 97.5536C60.1026 97.3418 59.1865 97.1231 58.389 96.877C57.5846 96.647 56.9033 96.3918 56.3427 96.1776C55.7867 95.9521 55.3561 95.7562 55.0644 95.6149C54.775 95.4691 54.6223 95.3894 54.6223 95.3894C54.6223 95.3894 54.7659 95.4874 55.0325 95.6696C55.3037 95.8473 55.7116 96.0979 56.2539 96.3713C56.7962 96.647 57.4775 96.9386 58.2751 97.221C58.4893 97.3008 58.7103 97.376 58.9405 97.4489V114.262C59.4372 114.382 59.9636 114.501 60.5264 114.608C60.9594 114.694 61.4128 114.772 61.8822 114.84V98.2257C62.4815 98.3578 63.1082 98.4809 63.7576 98.5925V115.102C64.7329 115.223 65.7537 115.312 66.8133 115.405C67.3921 115.442 67.9823 115.48 68.5793 115.519C69.1763 115.542 69.7802 115.565 70.3909 115.599C71.6054 115.642 72.8405 115.67 74.096 115.667C75.3311 115.685 76.5798 115.679 77.7989 115.647C78.3891 115.631 78.9769 115.615 79.5557 115.597V99.5083C79.8064 99.4992 80.0571 99.4901 80.3054 99.481C80.5743 99.4718 80.8431 99.4627 81.1098 99.4513V115.528C81.1986 115.524 81.2921 115.521 81.381 115.515C82.5408 115.442 83.6619 115.369 84.7192 115.259C85.7765 115.141 86.7792 115.029 87.6952 114.881C88.2922 114.786 88.8504 114.685 89.3745 114.583C88.8573 114.733 88.3195 114.884 87.7522 114.995C87.1825 115.114 86.6083 115.275 85.9999 115.364C85.3937 115.467 84.7762 115.572 84.1495 115.679C83.5138 115.756 82.8689 115.836 82.2149 115.916C81.8891 115.954 81.5587 115.993 81.2283 116.032C80.8956 116.057 80.5606 116.084 80.2257 116.109C79.5534 116.162 78.8767 116.214 78.1976 116.266C77.514 116.291 76.8282 116.319 76.1445 116.344C74.7773 116.408 73.3987 116.419 72.0429 116.412C70.6985 116.403 69.3654 116.367 68.0825 116.289C67.4399 116.25 66.8087 116.214 66.1912 116.152C65.576 116.102 64.9721 116.039 64.3888 115.963C63.2176 115.829 62.1192 115.642 61.1097 115.446C60.1026 115.234 59.1865 115.016 58.389 114.77C57.5846 114.54 56.9033 114.284 56.3427 114.07C55.7867 113.845 55.3561 113.649 55.0644 113.508C54.775 113.362 54.6223 113.282 54.6223 113.282C54.6223 113.282 54.7659 113.38 55.0325 113.562C55.3037 113.74 55.7116 113.991 56.2539 114.264C56.7962 114.54 57.4775 114.831 58.2751 115.114C58.4893 115.193 58.7103 115.269 58.9405 115.341V131.336C59.4236 131.475 59.9385 131.61 60.4877 131.735C60.932 131.84 61.3969 131.945 61.8822 132.029V116.118C62.4815 116.25 63.1082 116.373 63.7576 116.487V132.352C64.7146 132.498 65.715 132.614 66.754 132.728C67.3306 132.788 67.923 132.824 68.5177 132.874C69.117 132.911 69.7209 132.945 70.3293 132.981C71.5462 133.038 72.7789 133.077 74.0413 133.075C75.2763 133.097 76.5296 133.088 77.751 133.056C78.3594 133.04 78.961 133.024 79.5557 133.006V117.401C79.8064 117.392 80.0571 117.383 80.3054 117.374C80.5743 117.364 80.8431 117.355 81.1098 117.344V132.938C81.1872 132.933 81.267 132.931 81.3445 132.927C82.5066 132.854 83.6323 132.778 84.6941 132.671C85.7537 132.553 86.7586 132.441 87.6769 132.293C88.3332 132.188 88.9462 132.079 89.5136 131.965C87.9048 132.425 86.0705 132.801 84.1154 133.093V133.093ZM81.1098 138.046C80.6039 138.082 80.0867 138.114 79.5557 138.141V134.817C79.7904 134.808 80.0274 134.806 80.2598 134.797C80.5446 134.785 80.8249 134.765 81.1098 134.749V138.046ZM63.7576 137.553C63.1036 137.455 62.4793 137.348 61.8822 137.235V133.316C62.4793 133.469 63.1059 133.612 63.7576 133.742V137.553ZM49.9944 70.6692C49.2994 70.6874 48.6271 70.7148 47.9367 70.7125C47.2485 70.7148 46.5558 70.7353 45.8859 70.7125C44.5369 70.692 43.2038 70.6396 41.9209 70.5371C41.2784 70.4892 40.6449 70.4368 40.0297 70.3616C39.4122 70.3001 38.8128 70.2135 38.2295 70.1247C37.0605 69.9538 35.9645 69.7329 34.9618 69.4959C33.9638 69.2476 33.0546 68.9856 32.2639 68.7123C31.4686 68.4457 30.7941 68.1655 30.2381 67.9331C29.1352 67.4456 28.5268 67.1084 28.5268 67.1084C28.5268 67.1084 28.6704 67.2064 28.937 67.3909C29.2082 67.5732 29.6092 67.8329 30.1447 68.1222C30.6802 68.4161 31.3501 68.735 32.1386 69.0494C32.3619 69.1428 32.6012 69.2339 32.8473 69.3228V73.428C28.8778 72.257 26.8065 70.5781 26.8065 68.6621C26.8065 66.9718 27.4559 65.9466 28.1577 65.3269C28.1577 62.5453 28.1577 57.4468 28.1577 51.4074C28.1577 48.4253 27.2303 48.7488 27.2303 46.7736C27.2303 44.8008 28.1577 45.122 28.1577 42.1399C28.1577 39.299 28.1577 36.408 28.1577 33.5763C28.1577 30.5965 27.2303 30.9177 27.2303 28.9426C27.2303 26.9674 28.1577 27.2909 28.1577 24.3088C28.1577 19.4563 28.1577 15.2759 28.1577 12.5148C28.8892 13.1641 30.3179 14.1642 32.8473 15.096V33.2711C33.3417 33.3895 33.8704 33.508 34.4332 33.6151C34.8662 33.7016 35.3196 33.7814 35.789 33.8474V15.9981C36.3746 16.1462 36.9967 16.2874 37.6621 16.4219V34.1117C38.6397 34.2301 39.6605 34.319 40.7201 34.4124C41.2989 34.4511 41.889 34.4876 42.4838 34.5263C43.0831 34.5514 43.687 34.5719 44.2954 34.6083C45.5122 34.6493 46.745 34.6767 48.0028 34.6744C49.2378 34.6926 50.4843 34.688 51.7034 34.6539C52.2958 34.6379 52.8837 34.6242 53.4625 34.6037V17.4721C54.0003 17.4675 54.5175 17.4606 55.0143 17.4538V34.5354C55.1054 34.5309 55.1989 34.5286 55.2877 34.524C56.4453 34.4489 57.5664 34.3759 58.626 34.2666C59.6833 34.1504 60.6837 34.0365 61.602 33.8884C62.199 33.7927 62.7572 33.6925 63.2813 33.59C62.7618 33.7403 62.224 33.8907 61.6567 34.0046C61.087 34.1208 60.5128 34.2825 59.9066 34.3714C59.3005 34.4739 58.683 34.5787 58.054 34.6858C57.4206 34.7632 56.7757 34.843 56.1217 34.9227C55.7936 34.9614 55.4654 35.0002 55.135 35.0389C54.8023 35.0662 54.4674 35.0913 54.1324 35.1163C53.4602 35.1687 52.7835 35.2212 52.1021 35.2736C51.4208 35.2986 50.7349 35.3259 50.0491 35.351C48.6818 35.417 47.3032 35.4285 45.9497 35.4216C44.603 35.4102 43.2722 35.3738 41.987 35.2963C41.3467 35.2576 40.7132 35.2212 40.098 35.1597C39.4805 35.1118 38.8789 35.0457 38.2956 34.9728C37.1221 34.8361 36.0238 34.6493 35.0143 34.4534C34.0094 34.2415 33.091 34.0228 32.2935 33.7791C31.4914 33.5467 30.8078 33.2915 30.2473 33.0774C29.6913 32.8519 29.2606 32.6559 28.9689 32.517C28.6818 32.3689 28.5268 32.2892 28.5268 32.2892C28.5268 32.2892 28.6704 32.3871 28.9393 32.5694C29.2105 32.7493 29.6161 33 30.1607 33.2711C30.703 33.5467 31.382 33.8406 32.1819 34.1208C32.3938 34.2005 32.6171 34.2757 32.8473 34.3509V51.1636C33.3417 51.2821 33.8704 51.4006 34.4332 51.5076C34.8662 51.5942 35.3196 51.674 35.789 51.7423V35.1277C36.386 35.2576 37.0127 35.3829 37.6621 35.4945V52.0043C38.6397 52.1228 39.6605 52.2116 40.7201 52.305C41.2989 52.3437 41.889 52.3802 42.4838 52.4189C43.0831 52.444 43.687 52.4645 44.2954 52.4986C45.5122 52.5419 46.745 52.5715 48.0028 52.567C49.2378 52.5852 50.4843 52.5807 51.7034 52.5465C52.2958 52.5305 52.8837 52.5169 53.4625 52.4964V36.4103C53.7132 36.3989 53.9638 36.3898 54.2122 36.3807C54.4811 36.3716 54.7477 36.3625 55.0143 36.3534V52.428C55.1054 52.4235 55.1989 52.4212 55.2877 52.4166C56.4453 52.3414 57.5664 52.2685 58.626 52.1592C59.6833 52.043 60.6837 51.9291 61.602 51.781C62.199 51.6853 62.7572 51.5851 63.2813 51.4826C62.7618 51.6329 62.224 51.7833 61.6567 51.8972C61.087 52.0134 60.5128 52.1751 59.9066 52.2663C59.3005 52.3665 58.683 52.4713 58.054 52.5784C57.4206 52.6558 56.7757 52.7356 56.1217 52.8176C55.7936 52.854 55.4654 52.8928 55.135 52.9315C54.8023 52.9588 54.4674 52.9839 54.1324 53.0089C53.4602 53.0613 52.7835 53.1137 52.1021 53.1661C51.4208 53.1912 50.7349 53.2185 50.0491 53.2436C48.6818 53.3097 47.3032 53.3211 45.9497 53.3142C44.603 53.3028 43.2722 53.2664 41.987 53.1889C41.3467 53.1502 40.7132 53.1137 40.098 53.0522C39.4805 53.0044 38.8789 52.9383 38.2956 52.8654C37.1221 52.7287 36.0238 52.5419 35.0143 52.346C34.0094 52.1341 33.091 51.9154 32.2935 51.6694C31.4914 51.4393 30.8078 51.1842 30.2473 50.97C29.6913 50.7445 29.2606 50.5486 28.9689 50.4073C28.6818 50.2615 28.5268 50.1818 28.5268 50.1818C28.5268 50.1818 28.6704 50.2797 28.9393 50.462C29.2105 50.642 29.6161 50.8925 30.1607 51.1636C30.703 51.4393 31.382 51.7332 32.1819 52.0134C32.3938 52.0931 32.6171 52.1683 32.8473 52.2435V68.2361C33.3303 68.3751 33.843 68.5095 34.3944 68.6371C34.8388 68.7396 35.3037 68.8444 35.789 68.9287V53.0203C36.386 53.1502 37.0127 53.2755 37.6621 53.3871V69.2522C38.6191 69.398 39.6217 69.5142 40.6608 69.6281C41.2373 69.6873 41.8298 69.726 42.4245 69.7762C43.0215 69.8103 43.6277 69.8468 44.2361 69.8809C45.4529 69.9379 46.6834 69.9766 47.9458 69.9744C49.1809 69.9971 50.4364 69.988 51.6578 69.9584C52.2662 69.9402 52.8678 69.9265 53.4625 69.906V54.3007C53.7132 54.2915 53.9638 54.2824 54.2122 54.2756C54.4811 54.2642 54.7477 54.2551 55.0143 54.246V69.8376C55.0917 69.8331 55.1738 69.8308 55.2512 69.8263C56.4134 69.7534 57.5368 69.6782 58.5987 69.5711C59.6605 69.4527 60.6631 69.3433 61.5837 69.1929C62.24 69.0904 62.8507 68.9788 63.4181 68.8649C61.8116 69.3251 59.9773 69.701 58.0199 69.9949C56.7529 70.1703 55.4336 70.3274 54.0869 70.4345C52.7424 70.5461 51.3684 70.6236 49.9944 70.6692V70.6692ZM45.1408 111.225C45.0018 111.624 44.8149 111.963 44.6987 112.316C44.4594 113.025 44.407 113.772 44.3956 114.519C44.3888 115.269 44.3819 116.002 44.3751 116.717C44.3614 118.146 44.35 119.499 44.3387 120.745C44.2612 125.734 44.2088 129.063 44.2088 129.063C44.2088 129.063 44.1563 125.734 44.0789 120.745C44.0675 119.499 44.0561 118.146 44.0424 116.717C44.0356 116.002 44.0287 115.269 44.0219 114.519C44.0219 113.77 44.0515 112.959 44.309 112.184C44.4343 111.797 44.6281 111.439 44.7443 111.088C44.865 110.737 44.9175 110.366 44.9197 109.979C44.9243 109.587 44.8947 109.202 44.7944 108.842C44.6964 108.477 44.5005 108.127 44.3501 107.723C44.0447 106.915 43.9877 106.047 43.9809 105.211C43.9786 104.384 43.974 103.552 43.9718 102.721C43.974 101.057 43.9763 99.3944 43.9786 97.7564C43.9854 96.9386 43.9559 96.123 44.0721 95.296C44.1336 94.8859 44.2338 94.4736 44.3888 94.0909C44.5437 93.7081 44.7238 93.371 44.8104 93.0201C44.9015 92.6716 44.9243 92.2957 44.9197 91.9312C44.9152 91.5462 44.8718 91.2113 44.7602 90.8696C44.6531 90.5369 44.4777 90.2066 44.3501 89.8421C44.2179 89.4844 44.1427 89.1108 44.0925 88.7463C44.0037 88.015 44.0287 87.3088 44.0333 86.6413C44.0424 85.9692 44.0493 85.3177 44.0584 84.6935C44.0971 80.9755 44.1632 78.1825 44.1928 77.0002C44.2042 77.0002 44.2133 77.0002 44.2247 77.0002C44.2566 78.1848 44.3204 80.9755 44.3614 84.6935C44.3682 85.3177 44.3751 85.9692 44.3842 86.6413C44.3956 87.3156 44.3842 88.0059 44.4822 88.6939C44.5346 89.0356 44.6144 89.3751 44.7351 89.7031C44.8514 90.0335 45.0291 90.3592 45.1567 90.7397C45.2843 91.111 45.339 91.5393 45.3458 91.9175C45.3527 92.3185 45.3299 92.7217 45.2273 93.1272C45.1271 93.5373 44.9357 93.9018 44.799 94.2526C44.6577 94.6057 44.5688 94.9748 44.5141 95.3575C44.4116 96.123 44.4435 96.9386 44.4412 97.7564C44.4412 99.3944 44.4435 101.057 44.4457 102.721C44.4435 103.552 44.4412 104.384 44.4366 105.211C44.4389 106.026 44.4913 106.837 44.7647 107.568C44.8923 107.933 45.0998 108.302 45.2114 108.723C45.3276 109.145 45.3527 109.575 45.3458 109.986C45.339 110.4 45.282 110.828 45.1408 111.225V111.225ZM33.148 133.093C31.8788 133.271 30.5617 133.428 29.215 133.535C27.8683 133.646 26.4965 133.722 25.1225 133.767C24.4275 133.785 23.7553 133.815 23.0626 133.813C22.3767 133.813 21.684 133.833 21.0117 133.81C19.665 133.792 18.332 133.738 17.0469 133.637C16.4043 133.589 15.7731 133.537 15.1578 133.46C14.5403 133.398 13.941 133.314 13.3554 133.225C12.1887 133.054 11.0926 132.833 10.09 132.596C9.08968 132.348 8.18274 132.084 7.39204 131.81C6.59678 131.546 5.92231 131.266 5.36631 131.031C4.26343 130.546 3.65502 130.209 3.65502 130.209C3.65502 130.209 3.79859 130.307 4.06519 130.491C4.33408 130.673 4.73742 130.933 5.27291 131.222C5.80612 131.516 6.47605 131.833 7.26447 132.15C7.49006 132.243 7.72929 132.332 7.97311 132.421V136.528C4.00365 135.355 1.9346 133.676 1.9346 131.762C1.9346 130.072 2.58407 129.047 3.2859 128.427C3.2859 125.646 3.2859 120.547 3.2859 114.508C3.2859 111.526 2.35846 111.849 2.35846 109.874C2.35846 107.899 3.2859 108.222 3.2859 105.24C3.2859 102.397 3.2859 99.5083 3.2859 96.6766C3.2859 93.6945 2.35846 94.018 2.35846 92.0428C2.35846 90.0677 3.2859 90.3911 3.2859 87.409C3.2859 82.5566 3.2859 78.3762 3.2859 75.615C4.01736 76.2643 5.44605 77.2622 7.97311 78.1962V96.369C8.46987 96.4898 8.99624 96.6082 9.56135 96.7153C9.9943 96.8019 10.4455 96.8793 10.9172 96.9477V79.0983C11.5028 79.2464 12.1249 79.3877 12.7903 79.5221V97.2096C13.7656 97.3304 14.7887 97.4193 15.8483 97.5127C16.427 97.5491 17.0149 97.5878 17.612 97.6266C18.209 97.6493 18.8151 97.6721 19.4235 97.7063C20.6403 97.7496 21.8731 97.7769 23.1309 97.7746C24.366 97.7928 25.6124 97.786 26.8315 97.7541C27.424 97.7382 28.0096 97.7222 28.5906 97.704V80.57C29.1284 80.5655 29.6457 80.5609 30.1424 80.5541V97.6357C30.2313 97.6311 30.3247 97.6288 30.4136 97.622C31.5734 97.5491 32.6946 97.4762 33.7542 97.3669C34.8115 97.2484 35.8118 97.1368 36.7278 96.9887C37.3248 96.893 37.8854 96.7927 38.4095 96.6902C37.89 96.8406 37.3522 96.9909 36.7848 97.1026C36.2151 97.221 35.6409 97.3828 35.0325 97.4716C34.4286 97.5742 33.8111 97.679 33.1822 97.786C32.5488 97.8635 31.9016 97.9432 31.2499 98.023C30.9218 98.0617 30.5936 98.1004 30.2632 98.1391C29.9305 98.1642 29.5956 98.1915 29.2583 98.2166C28.5884 98.269 27.9093 98.3214 27.2303 98.3738C26.5467 98.3988 25.8631 98.4262 25.1772 98.4513C23.81 98.515 22.4314 98.5287 21.0778 98.5196C19.7311 98.5105 18.4004 98.474 17.1152 98.3966C16.4726 98.3578 15.8414 98.3214 15.2262 98.2599C14.6087 98.2098 14.0071 98.146 13.4215 98.0708C12.2502 97.9364 11.1519 97.7496 10.1424 97.5536C9.13753 97.3418 8.21923 97.1231 7.42169 96.877C6.61959 96.647 5.93599 96.3918 5.37544 96.1776C4.81944 95.9521 4.38874 95.7562 4.09707 95.6149C3.80996 95.4691 3.65502 95.3894 3.65502 95.3894C3.65502 95.3894 3.79859 95.4874 4.06747 95.6696C4.33636 95.8473 4.74421 96.0979 5.28882 96.3713C5.83114 96.647 6.51022 96.9386 7.31004 97.221C7.52195 97.3008 7.74525 97.376 7.97311 97.4489V114.262C8.46987 114.382 8.99624 114.501 9.56135 114.608C9.9943 114.694 10.4455 114.772 10.9172 114.84V98.2257C11.5142 98.3578 12.1409 98.4809 12.7903 98.5925V115.102C13.7656 115.223 14.7887 115.312 15.8483 115.405C16.427 115.442 17.0149 115.48 17.612 115.519C18.209 115.542 18.8151 115.565 19.4235 115.599C20.6403 115.642 21.8731 115.67 23.1309 115.667C24.366 115.685 25.6124 115.679 26.8315 115.647C27.424 115.631 28.0096 115.615 28.5906 115.597V99.5083C28.839 99.4992 29.092 99.4901 29.3403 99.481C29.6092 99.4718 29.8758 99.4627 30.1424 99.4513V115.528C30.2313 115.524 30.3247 115.521 30.4136 115.515C31.5734 115.442 32.6946 115.369 33.7542 115.259C34.8115 115.141 35.8118 115.029 36.7278 114.881C37.3248 114.786 37.8854 114.685 38.4095 114.583C37.89 114.733 37.3522 114.884 36.7848 114.995C36.2151 115.114 35.6409 115.275 35.0325 115.364C34.4286 115.467 33.8111 115.572 33.1822 115.679C32.5488 115.756 31.9016 115.836 31.2499 115.916C30.9218 115.954 30.5936 115.993 30.2632 116.032C29.9305 116.057 29.5956 116.084 29.2583 116.109C28.5884 116.162 27.9093 116.214 27.2303 116.266C26.5467 116.291 25.8631 116.319 25.1772 116.344C23.81 116.408 22.4314 116.419 21.0778 116.412C19.7311 116.403 18.4004 116.367 17.1152 116.289C16.4726 116.25 15.8414 116.214 15.2262 116.152C14.6087 116.102 14.0071 116.039 13.4215 115.963C12.2502 115.829 11.1519 115.642 10.1424 115.446C9.13753 115.234 8.21923 115.016 7.42169 114.77C6.61959 114.54 5.93599 114.284 5.37544 114.07C4.81944 113.845 4.38874 113.649 4.09707 113.508C3.80996 113.362 3.65502 113.282 3.65502 113.282C3.65502 113.282 3.79859 113.38 4.06747 113.562C4.33636 113.74 4.74421 113.991 5.28882 114.264C5.83114 114.54 6.51022 114.831 7.31004 115.114C7.52195 115.193 7.74525 115.269 7.97311 115.341V131.336C8.45847 131.475 8.97119 131.61 9.52035 131.735C9.96697 131.84 10.4319 131.945 10.9172 132.029V116.118C11.5142 116.25 12.1409 116.373 12.7903 116.487V132.352C13.7473 132.498 14.7499 132.614 15.7867 132.728C16.3655 132.788 16.9557 132.824 17.5527 132.874C18.1497 132.911 18.7536 132.945 19.3643 132.981C20.5811 133.038 21.8116 133.077 23.074 133.075C24.309 133.097 25.5623 133.088 26.7859 133.056C27.3921 133.04 27.9959 133.024 28.5906 133.006V117.401C28.839 117.392 29.092 117.383 29.3403 117.374C29.6092 117.364 29.8758 117.355 30.1424 117.344V132.938C30.2199 132.933 30.2997 132.931 30.3772 132.927C31.5416 132.854 32.6649 132.778 33.7268 132.671C34.7864 132.553 35.7913 132.441 36.7119 132.293C37.3659 132.188 37.9789 132.079 38.5463 131.965C36.9398 132.425 35.1054 132.801 33.148 133.093V133.093ZM30.1424 138.046C29.6366 138.082 29.1193 138.114 28.5906 138.141V134.817C28.8253 134.808 29.0601 134.806 29.2948 134.797C29.5796 134.785 29.8599 134.765 30.1424 134.749V138.046ZM12.7903 137.553C12.1386 137.455 11.5119 137.348 10.9172 137.235V133.316C11.5142 133.469 12.1409 133.612 12.7903 133.742V137.553ZM35.789 74.1342V70.2158C36.386 70.3685 37.0127 70.512 37.6621 70.6441V74.4532C37.0104 74.3552 36.386 74.2504 35.789 74.1342ZM0.831753 71.6875C0.811245 71.5987 0.793018 71.5189 0.777067 71.4506C0.77251 71.3823 0.767941 71.323 0.765662 71.2775C0.761105 71.184 0.75882 71.1362 0.75882 71.1362C0.75882 71.1362 0.765676 71.184 0.779348 71.2752C0.786184 71.3207 0.795267 71.3777 0.804382 71.446C0.827169 71.5098 0.852255 71.585 0.881877 71.6693C1.00948 72.0019 1.32622 72.4302 1.84576 72.8403C2.89395 73.6627 4.69866 74.3666 6.91127 74.9316C9.13298 75.492 11.7785 75.9226 14.6337 76.2119C16.0602 76.36 17.5413 76.4534 19.0453 76.5331C20.556 76.6083 22.0714 76.6402 23.6163 76.6357C25.1408 76.6425 26.6766 76.6083 28.1805 76.5331C29.6845 76.4557 31.1656 76.36 32.592 76.2119C33.3896 76.1322 34.1689 76.0388 34.93 75.9363C35.6181 76.0798 36.3405 76.2097 37.0924 76.3258C35.707 76.6174 34.2304 76.8635 32.6877 77.0571C31.2453 77.2325 29.7528 77.3806 28.2307 77.4649C26.7062 77.5515 25.1635 77.5971 23.6095 77.6039C22.0759 77.5993 20.5105 77.5515 18.9951 77.4649C17.473 77.3829 15.9804 77.2325 14.538 77.0571C11.6555 76.6972 8.98717 76.1573 6.76089 75.4647C4.53462 74.7858 2.75266 73.8996 1.7227 72.9838C1.20999 72.5259 0.932015 72.0361 0.831753 71.6875V71.6875ZM3.16969 68.7008C3.2426 68.6279 3.33828 68.5027 3.4864 68.3774C3.63679 68.2566 3.81223 68.0858 4.0401 67.94C4.26114 67.7782 4.5255 67.6187 4.81945 67.457C5.11568 67.3021 5.44148 67.1312 5.79696 66.9945C6.15016 66.8419 6.52846 66.7029 6.92723 66.5776C7.326 66.4637 7.73387 66.3202 8.16226 66.2336C8.5861 66.1311 9.01675 66.0445 9.45198 65.958C10.3202 65.8145 11.1929 65.6937 12.0155 65.6367C12.8358 65.5707 13.6038 65.5479 14.2646 65.5547C14.9231 65.5547 15.4723 65.5844 15.8551 65.614C16.2379 65.6436 16.4589 65.6709 16.4589 65.6709C16.4589 65.6709 16.2448 65.7256 15.8665 65.8053C15.4905 65.8828 14.9527 65.9921 14.3101 66.1038C13.9889 66.1607 13.6402 66.2222 13.2733 66.286C12.9065 66.3475 12.5191 66.4136 12.118 66.4797C11.717 66.5366 11.3068 66.6277 10.8876 66.687C10.4683 66.7576 10.0444 66.8282 9.62288 66.9102C8.77293 67.0492 7.93669 67.2337 7.15282 67.4C6.76544 67.498 6.38487 67.5777 6.03167 67.6757C5.6762 67.7691 5.3481 67.8739 5.04048 67.9673C4.73969 68.0721 4.45939 68.1632 4.21785 68.2657C3.97175 68.3569 3.77123 68.4617 3.59577 68.5368C3.25853 68.7077 3.06254 68.817 3.06254 68.817C3.06254 68.817 3.09905 68.776 3.16969 68.7008V68.7008ZM16.9625 70.7034C17.0491 70.8537 17.113 71.0815 17.0719 71.2775C17.0651 71.3139 17.0696 71.3253 17.0537 71.38C17.0355 71.4346 17.0149 71.4893 16.9899 71.544C16.9398 71.667 16.8874 71.7171 16.8349 71.7878C16.6162 72.0452 16.3655 72.2069 16.1148 72.33C15.6113 72.5828 15.0917 72.7241 14.5722 72.8403C13.524 73.0476 12.4713 73.1045 11.4892 73.0544C11.0061 73.0384 10.5207 72.9815 10.0809 72.9109C9.63427 72.8448 9.21729 72.7446 8.83903 72.6329C8.45848 72.5281 8.12126 72.3892 7.82958 72.2479C7.53791 72.109 7.30319 71.9381 7.13229 71.7809C6.95456 71.6214 6.87252 71.4415 6.84061 71.323C6.82011 71.2 6.82465 71.1362 6.82465 71.1362C6.82465 71.1362 6.83832 71.2023 6.88162 71.3094C6.93858 71.4119 7.04797 71.5394 7.23254 71.6534C7.59713 71.8812 8.20326 72.0588 8.94384 72.175C9.31526 72.232 9.7186 72.2753 10.1493 72.3049C10.5822 72.3322 11.0243 72.3391 11.5005 72.3345C11.9722 72.3345 12.4553 72.2958 12.9429 72.257C13.4329 72.2138 13.925 72.1477 14.4058 72.0429C14.8821 71.9449 15.3629 71.8197 15.7639 71.6237C15.9667 71.5303 16.1445 71.4096 16.2539 71.2979C16.2789 71.2729 16.3131 71.2364 16.3063 71.241C16.3086 71.2387 16.3154 71.2387 16.3245 71.2387C16.3336 71.2387 16.3359 71.1863 16.3427 71.1635L16.3496 71.1202C16.3496 71.1157 16.3473 71.1111 16.3473 71.1066C16.3564 71.0906 16.3359 71.0656 16.3268 71.0405C16.279 70.9312 16.124 70.799 15.9622 70.6851C15.7913 70.5781 15.6045 70.4824 15.4131 70.4027C15.0302 70.2432 14.6406 70.1202 14.276 70.0267C13.5468 69.8399 12.9156 69.7351 12.4735 69.6713C12.0269 69.6098 11.774 69.5734 11.774 69.5734C11.774 69.5734 11.8378 69.5665 11.9585 69.5529C12.077 69.5438 12.2525 69.5164 12.4804 69.5096C12.9338 69.4845 13.5832 69.4686 14.3648 69.5688C14.7545 69.6167 15.1783 69.6873 15.6227 69.8308C15.8437 69.9015 16.0716 69.9903 16.304 70.1088C16.5296 70.2386 16.7757 70.3912 16.9625 70.7034V70.7034ZM25.7059 8.58726C25.6831 8.49841 25.6648 8.41867 25.6489 8.3526C25.6443 8.28198 25.642 8.22502 25.6398 8.17718C25.6352 8.08378 25.6329 8.03596 25.6329 8.03596C25.6329 8.03596 25.6398 8.08378 25.6512 8.17718C25.658 8.22274 25.6671 8.2797 25.6785 8.34576C25.699 8.40955 25.7263 8.48472 25.7537 8.56902C25.8813 8.9039 26.198 9.33223 26.7176 9.7423C27.7658 10.5624 29.5705 11.2664 31.7831 11.8313C34.0048 12.3918 36.6527 12.8224 39.5056 13.1117C40.932 13.2598 42.4131 13.3532 43.9171 13.4329C45.4278 13.5081 46.9432 13.5422 48.4881 13.5377C50.0126 13.5422 51.5484 13.5081 53.0523 13.4329C54.5586 13.3554 56.0374 13.2598 57.4661 13.1117C60.319 12.8246 62.9669 12.394 65.1863 11.8313C67.4012 11.2686 69.2037 10.5647 70.2541 9.7423C70.7737 9.33223 71.0904 8.90391 71.2157 8.5713C71.2453 8.487 71.2704 8.41183 71.2932 8.34804C71.3023 8.2797 71.3114 8.22274 71.3183 8.17718C71.3319 8.08378 71.3388 8.03596 71.3388 8.03596C71.3388 8.03596 71.3365 8.08378 71.3319 8.17718C71.3297 8.22502 71.3251 8.28198 71.3228 8.35032C71.3069 8.41867 71.2864 8.49841 71.2658 8.58726C71.1656 8.93809 70.8876 9.42561 70.3749 9.88579C69.3449 10.7993 67.563 11.6833 65.3367 12.3645C63.1104 13.057 60.4421 13.5969 57.5596 13.9569C56.1195 14.1323 54.6246 14.2827 53.1025 14.3647C51.5803 14.4512 50.0354 14.4968 48.4813 14.5036C46.9477 14.4991 45.3846 14.4512 43.867 14.3647C42.3448 14.2849 40.8522 14.1323 39.4098 13.9569C36.5273 13.5992 33.859 13.0593 31.6327 12.3645C29.4064 11.6856 27.6245 10.7993 26.5968 9.88579C26.0818 9.42561 25.8038 8.93809 25.7059 8.58726V8.58726ZM28.0415 5.60063C28.1167 5.53001 28.2101 5.4024 28.3605 5.27938C28.5086 5.15636 28.6841 4.98779 28.912 4.84199C29.1353 4.67796 29.3973 4.51847 29.6913 4.359C29.9875 4.2018 30.3134 4.03099 30.6688 3.8943C31.022 3.74394 31.4026 3.60496 31.799 3.47738C32.1978 3.36347 32.608 3.22223 33.0341 3.13338C33.4579 3.03086 33.8909 2.9443 34.3238 2.86001C35.1943 2.71421 36.0648 2.59343 36.8874 2.53647C37.71 2.47041 38.4756 2.44766 39.1364 2.45449C39.7972 2.45449 40.3441 2.48411 40.7269 2.51601C41.112 2.54562 41.3308 2.57068 41.3308 2.57068C41.3308 2.57068 41.1166 2.62532 40.7406 2.70506C40.3623 2.78251 39.8246 2.89188 39.182 3.00579C38.8607 3.06046 38.5144 3.12198 38.1452 3.18577C37.7783 3.24728 37.3909 3.31337 36.9899 3.38172C36.5889 3.43639 36.1809 3.52977 35.7594 3.58673C35.3424 3.65735 34.9163 3.72797 34.4948 3.80998C33.6448 3.95123 32.8085 4.13346 32.0246 4.29976C31.6373 4.39772 31.2567 4.47751 30.9058 4.57775C30.5481 4.66887 30.2199 4.77589 29.9123 4.86702C29.6115 4.97181 29.3313 5.06523 29.092 5.16547C28.8436 5.2566 28.643 5.36138 28.4676 5.43656C28.1303 5.60742 27.9344 5.71682 27.9344 5.71682C27.9344 5.71682 27.9731 5.67581 28.0415 5.60063V5.60063ZM41.8344 7.60308C41.921 7.75572 41.9848 7.98126 41.9438 8.17718C41.9369 8.21363 41.9437 8.22729 41.9255 8.28197C41.9073 8.33436 41.8868 8.39136 41.864 8.44376C41.8116 8.56678 41.7592 8.61686 41.7068 8.68976C41.488 8.94492 41.2374 9.10669 40.9867 9.22971C40.4854 9.48487 39.9659 9.62383 39.444 9.7423C38.3981 9.94733 37.3431 10.0065 36.3633 9.95415C35.8802 9.9382 35.3926 9.88128 34.9528 9.81065C34.5061 9.74459 34.0914 9.64436 33.7108 9.53273C33.3303 9.43021 32.9931 9.28892 32.7037 9.14768C32.4097 9.01099 32.1773 8.83784 32.0041 8.68064C31.8264 8.52117 31.7444 8.34125 31.7125 8.22279C31.6943 8.09977 31.6988 8.03596 31.6988 8.03596C31.6988 8.03596 31.7102 8.10431 31.7535 8.20911C31.8105 8.31162 31.9198 8.44148 32.1044 8.55311C32.469 8.78092 33.0751 8.95863 33.8157 9.0771C34.1871 9.13177 34.5904 9.17729 35.0211 9.20463C35.4563 9.23425 35.8961 9.23883 36.3747 9.23427C36.8441 9.23427 37.3271 9.19553 37.817 9.1568C38.3047 9.11579 38.7969 9.04746 39.2777 8.94266C39.7562 8.8447 40.2347 8.71939 40.6381 8.52346C40.8409 8.43006 41.0163 8.31161 41.128 8.19998C41.1508 8.17265 41.1872 8.13619 41.1781 8.14075C41.1827 8.13847 41.1872 8.13847 41.1963 8.13847C41.2055 8.13847 41.2078 8.08605 41.2146 8.06327L41.2237 8.02228C41.2214 8.01773 41.2192 8.01316 41.2214 8.0086C41.2283 7.99037 41.2077 7.9653 41.2009 7.94024C41.1508 7.83089 40.9958 7.6988 40.8363 7.58718C40.6631 7.47782 40.4786 7.38214 40.2849 7.30241C39.902 7.14294 39.5124 7.02216 39.1501 6.92648C38.4209 6.73967 37.7875 6.63719 37.3477 6.57113C36.901 6.50962 36.6458 6.47313 36.6458 6.47313C36.6458 6.47313 36.7096 6.46633 36.8304 6.45494C36.9512 6.44355 37.1266 6.41617 37.3522 6.40933C37.8057 6.38427 38.4551 6.37061 39.2367 6.46857C39.6263 6.51641 40.0524 6.58706 40.4945 6.73059C40.7178 6.80121 40.9457 6.89233 41.1758 7.00852C41.4037 7.13837 41.6475 7.29325 41.8344 7.60308V7.60308ZM55.0279 2.24486C55.748 2.2198 56.5843 2.21753 57.4821 2.25171C57.931 2.27677 58.3959 2.2859 58.8653 2.33146C59.337 2.37475 59.8132 2.41578 60.2917 2.47045C61.2442 2.59348 62.1944 2.7438 63.0763 2.94883C63.5183 3.03768 63.9399 3.16296 64.3387 3.27231C64.7374 3.39078 65.1111 3.50699 65.4506 3.63912C65.7947 3.75531 66.1001 3.89197 66.369 4.01271C66.6401 4.1289 66.8657 4.25653 67.0548 4.34993C67.4194 4.55952 67.6222 4.69165 67.6222 4.69165C67.6222 4.69165 67.3875 4.63237 66.9796 4.52758C66.574 4.43417 66.0021 4.2998 65.3026 4.17223C64.6076 4.04009 63.7964 3.90792 62.9213 3.7849C62.4861 3.712 62.0303 3.67103 61.5723 3.60041C61.112 3.54118 60.6449 3.47739 60.1755 3.42955C59.7084 3.36576 59.2367 3.31336 58.7764 3.26097C58.3115 3.2154 57.8581 3.14929 57.416 3.10145C56.5341 3.00121 55.7093 2.89874 55.0006 2.80078C54.292 2.70965 53.7018 2.61394 53.2871 2.54788C52.8723 2.47725 52.6353 2.42941 52.6353 2.42941C52.6353 2.42941 53.5924 2.28815 55.0279 2.24486V2.24486ZM55.0143 74.9453C54.5084 74.9817 53.9934 75.0159 53.4625 75.0432V71.7171C53.6972 71.7103 53.9342 71.708 54.1666 71.6966C54.4514 71.6875 54.7317 71.6647 55.0143 71.6488V74.9453ZM69.6321 27.7716C69.5272 27.439 69.3495 27.1063 69.2219 26.7441C69.0897 26.3842 69.0145 26.0106 68.9667 25.6461C68.8755 24.9148 68.9006 24.2086 68.9074 23.5411C68.9143 22.869 68.9234 22.2197 68.9302 21.5955C68.9849 16.6041 69.0806 13.278 69.0806 13.278C69.0806 13.278 69.1786 16.6041 69.2333 21.5955C69.2401 22.2197 69.2469 22.869 69.256 23.5411C69.2674 24.2154 69.2561 24.9057 69.3563 25.5937C69.4065 25.9354 69.4862 26.2748 69.607 26.6052C69.7232 26.9332 69.9009 27.259 70.0285 27.6418C70.1561 28.0108 70.2109 28.4391 70.2177 28.8173C70.2245 29.2182 70.204 29.6215 70.0992 30.0293C70.0012 30.437 69.8075 30.8015 69.6708 31.1524C69.5295 31.5055 69.4406 31.8745 69.3859 32.2595C69.2834 33.0227 69.3153 33.8406 69.313 34.6561C69.3153 36.2941 69.3153 37.9572 69.3176 39.6202C69.3153 40.4518 69.3131 41.2833 69.3108 42.1125C69.3108 42.9258 69.3632 43.7391 69.6366 44.4682C69.7665 44.8327 69.9716 45.2017 70.0855 45.6255C70.1994 46.0469 70.2268 46.4752 70.2177 46.8875C70.2131 47.2999 70.1539 47.7282 70.0126 48.1246C69.8736 48.5255 69.6867 48.8627 69.5705 49.2158C69.3313 49.9266 69.2788 50.6716 69.2674 51.4188C69.2606 52.1683 69.2538 52.9019 69.247 53.6172C69.2356 55.0479 69.2219 56.3989 69.2105 57.645C69.133 62.6364 69.0806 65.9625 69.0806 65.9625C69.0806 65.9625 69.0305 62.6364 68.953 57.645C68.9416 56.3989 68.9279 55.0479 68.9142 53.6172C68.9097 52.9019 68.9029 52.1683 68.896 51.4188C68.896 50.6716 68.9234 49.8605 69.1809 49.086C69.3085 48.6964 69.4999 48.3387 69.6184 47.9902C69.7391 47.6371 69.7893 47.2657 69.7915 46.8785C69.7961 46.4866 69.7687 46.1039 69.6662 45.7417C69.5682 45.3772 69.3723 45.0286 69.2219 44.6231C68.9165 43.8143 68.8596 42.9486 68.8528 42.1125C68.8505 41.2833 68.8482 40.4518 68.8459 39.6202C68.8459 37.9572 68.8482 36.2941 68.8505 34.6561C68.8596 33.8383 68.8277 33.025 68.9439 32.1958C69.0054 31.7857 69.1079 31.3734 69.2629 30.9929C69.4155 30.6079 69.5956 30.273 69.6822 29.9199C69.7733 29.5713 69.7984 29.1954 69.7938 28.8309C69.787 28.4459 69.7437 28.1133 69.6321 27.7716V27.7716ZM87.0457 74.1342V70.2158C87.645 70.3685 88.2717 70.512 88.9211 70.6441V74.4532C88.2671 74.3552 87.6428 74.2504 87.0457 74.1342ZM74.5813 76.6357C76.1081 76.6425 77.6439 76.6083 79.1478 76.5331C80.6518 76.4557 82.1329 76.36 83.5593 76.2119C84.4184 76.1254 85.2547 76.0251 86.0705 75.9112C86.7427 76.0525 87.4468 76.1823 88.1828 76.3008C86.7609 76.6038 85.2433 76.8566 83.6551 77.0571C82.2127 77.2325 80.7178 77.3806 79.1957 77.4649C77.6735 77.5515 76.1308 77.5971 74.5768 77.6039C73.041 77.5993 71.4778 77.5515 69.9624 77.4649C68.814 77.4034 67.6906 77.2963 66.5854 77.1756C66.8634 76.9159 67.1346 76.647 67.3898 76.3646C68.2534 76.4283 69.1262 76.4853 70.0126 76.5331C71.5233 76.6083 73.0387 76.6402 74.5813 76.6357V76.6357ZM120.827 49.2158C120.59 49.9266 120.538 50.6716 120.526 51.4188C120.52 52.1683 120.513 52.9019 120.506 53.6172C120.492 55.0479 120.481 56.3989 120.469 57.645C120.392 62.6364 120.34 65.9625 120.34 65.9625C120.34 65.9625 120.287 62.6364 120.21 57.645C120.198 56.3989 120.187 55.0479 120.173 53.6172C120.166 52.9019 120.16 52.1683 120.153 51.4188C120.153 50.6716 120.18 49.8605 120.438 49.086C120.565 48.6964 120.759 48.3387 120.875 47.9902C120.996 47.6371 121.046 47.2657 121.051 46.8785C121.055 46.4866 121.025 46.1039 120.925 45.7417C120.827 45.3772 120.629 45.0286 120.481 44.6231C120.173 43.8143 120.116 42.9486 120.112 42.1125C120.107 41.2833 120.105 40.4518 120.103 39.6202C120.105 37.9572 120.107 36.2941 120.107 34.6561C120.116 33.8383 120.087 33.025 120.201 32.1958C120.262 31.7857 120.365 31.3734 120.52 30.9929C120.675 30.6079 120.855 30.273 120.939 29.9199C121.032 29.5713 121.055 29.1954 121.051 28.8309C121.046 28.4459 121 28.1133 120.891 27.7716C120.784 27.439 120.606 27.1063 120.479 26.7441C120.349 26.3842 120.274 26.0106 120.223 25.6461C120.135 24.9148 120.16 24.2086 120.164 23.5411C120.173 22.869 120.18 22.2197 120.187 21.5955C120.242 16.6041 120.34 13.278 120.34 13.278C120.34 13.278 120.435 16.6041 120.49 21.5955C120.499 22.2197 120.506 22.869 120.515 23.5411C120.524 24.2154 120.515 24.9057 120.613 25.5937C120.665 25.9354 120.745 26.2748 120.866 26.6052C120.982 26.9332 121.16 27.259 121.288 27.6418C121.415 28.0108 121.47 28.4391 121.474 28.8173C121.481 29.2182 121.461 29.6215 121.358 30.0293C121.258 30.437 121.066 30.8015 120.927 31.1524C120.788 31.5055 120.7 31.8745 120.645 32.2595C120.54 33.0227 120.572 33.8406 120.57 34.6561C120.572 36.2941 120.574 37.9572 120.577 39.6202C120.572 40.4518 120.57 41.2833 120.567 42.1125C120.57 42.9258 120.622 43.7391 120.893 44.4682C121.023 44.8327 121.231 45.2017 121.342 45.6255C121.456 46.0469 121.484 46.4752 121.477 46.8875C121.47 47.2999 121.411 47.7282 121.272 48.1246C121.133 48.5255 120.946 48.8627 120.827 49.2158V49.2158ZM104.722 75.0432V71.7171C104.956 71.7103 105.191 71.708 105.423 71.6966C105.71 71.6875 105.988 71.6647 106.273 71.6488V74.9453C105.767 74.9817 105.25 75.0159 104.722 75.0432V75.0432ZM76.9626 8.58726C76.9421 8.49841 76.9238 8.41867 76.9056 8.3526C76.9033 8.28198 76.8987 8.22502 76.8965 8.17718C76.8919 8.08378 76.8896 8.03596 76.8896 8.03596C76.8896 8.03596 76.8965 8.08378 76.9102 8.17718C76.917 8.22274 76.9261 8.2797 76.9352 8.34576C76.958 8.40955 76.9831 8.48472 77.0127 8.56902C77.1403 8.9039 77.4547 9.33223 77.9743 9.7423C79.0248 10.5624 80.8272 11.2664 83.0421 11.8313C85.2615 12.3918 87.9094 12.8224 90.7646 13.1117C92.191 13.2598 93.6699 13.3532 95.1761 13.4329C96.6868 13.5081 98.2022 13.5422 99.7471 13.5377C101.272 13.5422 102.807 13.5081 104.311 13.4329C105.815 13.3554 107.296 13.2598 108.723 13.1117C111.576 12.8246 114.224 12.394 116.445 11.8313C118.658 11.2686 120.463 10.5647 121.511 9.7423C122.03 9.33223 122.347 8.90391 122.475 8.5713C122.502 8.487 122.529 8.41183 122.55 8.34804C122.561 8.2797 122.568 8.22274 122.577 8.17718C122.589 8.08378 122.595 8.03596 122.595 8.03596C122.595 8.03596 122.593 8.08378 122.589 8.17718C122.586 8.22502 122.584 8.28198 122.58 8.35032C122.564 8.41867 122.545 8.49841 122.523 8.58726C122.425 8.93809 122.147 9.42561 121.632 9.88579C120.604 10.7993 118.82 11.6833 116.596 12.3645C114.369 13.057 111.699 13.5969 108.819 13.9569C107.376 14.1323 105.884 14.2827 104.361 14.3647C102.837 14.4512 101.294 14.4968 99.7403 14.5036C98.2044 14.4991 96.6413 14.4512 95.1259 14.3647C93.6038 14.2849 92.109 14.1323 90.6689 13.9569C87.7863 13.5992 85.1157 13.0593 82.8894 12.3645C80.6654 11.6856 78.8835 10.7993 77.8536 9.88579C77.3386 9.42561 77.0628 8.93809 76.9626 8.58726ZM79.3005 5.60063C79.3734 5.53001 79.4691 5.4024 79.6173 5.27938C79.7677 5.15636 79.9408 4.98779 80.171 4.84199C80.392 4.67796 80.654 4.51847 80.9503 4.359C81.2465 4.2018 81.5701 4.03099 81.9278 3.8943C82.281 3.74394 82.6593 3.60496 83.058 3.47738C83.4568 3.36347 83.8647 3.22223 84.2908 3.13338C84.7147 3.03086 85.1476 2.9443 85.5806 2.86001C86.451 2.71421 87.3238 2.59343 88.1464 2.53647C88.9667 2.47041 89.7346 2.44766 90.3931 2.45449C91.0539 2.45449 91.6008 2.48411 91.9859 2.51601C92.3687 2.54562 92.5898 2.57068 92.5898 2.57068C92.5898 2.57068 92.3733 2.62532 91.9973 2.70506C91.6213 2.78251 91.0813 2.89188 90.441 3.00579C90.1197 3.06046 89.7711 3.12198 89.4042 3.18577C89.0373 3.24728 88.6499 3.31337 88.2489 3.38172C87.8478 3.43639 87.4377 3.52977 87.0184 3.58673C86.5991 3.65735 86.1753 3.72797 85.7537 3.80998C84.9038 3.95123 84.0675 4.13346 83.2836 4.29976C82.8963 4.39772 82.5157 4.47751 82.1625 4.57775C81.8071 4.66887 81.4789 4.77589 81.1713 4.86702C80.8705 4.97181 80.588 5.06523 80.3487 5.16547C80.1026 5.2566 79.9021 5.36138 79.7266 5.43656C79.3894 5.60742 79.1934 5.71682 79.1934 5.71682C79.1934 5.71682 79.2299 5.67581 79.3005 5.60063V5.60063ZM93.0911 7.60308C93.18 7.75572 93.2438 7.98126 93.2027 8.17718C93.1959 8.21363 93.2005 8.22729 93.1845 8.28197C93.1663 8.33436 93.1458 8.39136 93.1207 8.44376C93.0706 8.56678 93.0182 8.61686 92.9658 8.68976C92.747 8.94492 92.4964 9.10669 92.2457 9.22971C91.7421 9.48487 91.2226 9.62383 90.7008 9.7423C89.6548 9.94733 88.5998 10.0065 87.62 9.95415C87.1369 9.9382 86.6493 9.88128 86.2095 9.81065C85.7651 9.74459 85.3481 9.64436 84.9699 9.53273C84.5893 9.43021 84.2521 9.28892 83.9604 9.14768C83.6687 9.01099 83.4341 8.83784 83.2609 8.68064C83.0854 8.52117 83.0034 8.34125 82.9692 8.22279C82.951 8.09977 82.9555 8.03596 82.9555 8.03596C82.9555 8.03596 82.9692 8.10431 83.0125 8.20911C83.0694 8.31162 83.1788 8.44148 83.3634 8.55311C83.728 8.78092 84.3341 8.95863 85.0747 9.0771C85.4438 9.13177 85.8495 9.17729 86.2778 9.20463C86.7131 9.23425 87.1551 9.23883 87.6314 9.23427C88.1031 9.23427 88.5862 9.19553 89.0738 9.1568C89.5614 9.11579 90.0559 9.04746 90.5344 8.94266C91.0129 8.8447 91.4937 8.71939 91.8948 8.52346C92.0976 8.43006 92.2753 8.31161 92.3847 8.19998C92.4075 8.17265 92.444 8.13619 92.4371 8.14075C92.4394 8.13847 92.4439 8.13847 92.4531 8.13847C92.4622 8.13847 92.4667 8.08605 92.4736 8.06327L92.4804 8.02228C92.4804 8.01773 92.4781 8.01316 92.4781 8.0086C92.4873 7.99037 92.4667 7.9653 92.4576 7.94024C92.4098 7.83089 92.2548 7.6988 92.0931 7.58718C91.9222 7.47782 91.7353 7.38214 91.5439 7.30241C91.1588 7.14294 90.7714 7.02216 90.4068 6.92648C89.6776 6.73967 89.0464 6.63719 88.6044 6.57113C88.1578 6.50962 87.9025 6.47313 87.9025 6.47313C87.9025 6.47313 87.9663 6.46633 88.0871 6.45494C88.2079 6.44355 88.3834 6.41617 88.6112 6.40933C89.0647 6.38427 89.7141 6.37061 90.4934 6.46857C90.8853 6.51641 91.3092 6.58706 91.7535 6.73059C91.9746 6.80121 92.2024 6.89233 92.4326 7.00852C92.6604 7.13837 92.9042 7.29325 93.0911 7.60308V7.60308ZM106.287 2.24486C107.005 2.2198 107.843 2.21753 108.741 2.25171C109.19 2.27677 109.655 2.2859 110.124 2.33146C110.594 2.37475 111.072 2.41578 111.548 2.47045C112.501 2.59348 113.453 2.7438 114.333 2.94883C114.777 3.03768 115.197 3.16296 115.598 3.27231C115.996 3.39078 116.37 3.50699 116.71 3.63912C117.051 3.75531 117.357 3.89197 117.626 4.01271C117.897 4.1289 118.125 4.25653 118.312 4.34993C118.676 4.55952 118.879 4.69165 118.879 4.69165C118.879 4.69165 118.647 4.63237 118.239 4.52758C117.833 4.43417 117.259 4.2998 116.562 4.17223C115.867 4.04009 115.053 3.90792 114.178 3.7849C113.745 3.712 113.287 3.67103 112.829 3.60041C112.369 3.54118 111.902 3.47739 111.432 3.42955C110.965 3.36576 110.496 3.31336 110.033 3.26097C109.571 3.2154 109.115 3.14929 108.675 3.10145C107.791 3.00121 106.966 2.89874 106.26 2.80078C105.551 2.70965 104.958 2.61394 104.544 2.54788C104.131 2.47725 103.894 2.42941 103.894 2.42941C103.894 2.42941 104.849 2.28815 106.287 2.24486V2.24486ZM132.089 65.3451C132.806 65.3178 133.645 65.3178 134.543 65.352C134.992 65.377 135.456 65.3861 135.926 65.4317C136.395 65.475 136.874 65.5137 137.352 65.5707C138.302 65.6937 139.255 65.8418 140.137 66.0491C140.579 66.1379 141 66.261 141.399 66.3703C141.798 66.4888 142.172 66.6072 142.511 66.7371C142.853 66.8555 143.158 66.9922 143.429 67.1107C143.698 67.2269 143.926 67.3567 144.115 67.4501C144.48 67.6597 144.68 67.7919 144.68 67.7919C144.68 67.7919 144.448 67.7326 144.04 67.6278C143.635 67.5344 143.06 67.3978 142.363 67.2702C141.668 67.1403 140.857 67.0059 139.982 66.8829C139.547 66.81 139.091 66.7713 138.633 66.6984C138.173 66.6414 137.705 66.5776 137.236 66.5298C136.769 66.466 136.297 66.4136 135.837 66.3612C135.372 66.3156 134.919 66.2496 134.477 66.2017C133.595 66.0992 132.77 65.999 132.061 65.8987C131.352 65.8099 130.762 65.7119 130.348 65.6481C129.933 65.5775 129.696 65.5297 129.696 65.5297C129.696 65.5297 130.653 65.3884 132.089 65.3451V65.3451ZM149.427 71.0086C149.427 68.1837 147.05 66.1562 142.365 64.9829C138.546 64.0261 132.932 63.5408 125.681 63.5408C124.5 63.5408 123.366 63.5545 122.274 63.5796V51.4074C122.274 50.1704 122.438 49.799 122.646 49.3297C122.88 48.7967 123.202 48.0676 123.202 46.7736C123.202 45.4819 122.88 44.7506 122.646 44.2176C122.438 43.7483 122.274 43.3769 122.274 42.1399V33.5763C122.274 32.3393 122.438 31.9702 122.646 31.4986C122.88 30.9656 123.202 30.2366 123.202 28.9426C123.202 27.6509 122.88 26.9196 122.646 26.3865C122.438 25.9172 122.274 25.5458 122.274 24.3088V11.5967C122.944 10.8927 123.623 9.82886 123.623 7.90837C123.623 5.08347 121.249 3.05592 116.564 1.88267C112.742 0.92585 107.13 0.440586 99.877 0.440586C92.6262 0.440586 87.0116 0.92585 83.1902 1.88267C78.5052 3.05592 76.1309 5.08347 76.1309 7.90837C76.1309 9.82886 76.8099 10.8927 77.4798 11.5967V24.3088C77.4798 25.5458 77.3181 25.9172 77.1107 26.3865C76.876 26.9196 76.5524 27.6509 76.5524 28.9426C76.5524 30.2366 76.876 30.9656 77.1107 31.4986C77.3181 31.9702 77.4798 32.3393 77.4798 33.5763V42.1399C77.4798 43.3769 77.3181 43.7483 77.1107 44.2176C76.876 44.7506 76.5524 45.4819 76.5524 46.7736C76.5524 48.0676 76.876 48.7967 77.1107 49.3297C77.3181 49.799 77.4798 50.1704 77.4798 51.4074V63.5659C76.5866 63.55 75.6637 63.5408 74.7135 63.5408C73.4283 63.5408 72.1979 63.5568 71.0152 63.5864V51.4074C71.0152 50.1704 71.1793 49.799 71.3866 49.3297C71.6213 48.7967 71.9426 48.0676 71.9426 46.7736C71.9426 45.4819 71.6213 44.7506 71.3866 44.2176C71.1793 43.7483 71.0152 43.3769 71.0152 42.1399V33.5763C71.0152 32.3393 71.1793 31.9702 71.3866 31.4986C71.6213 30.9656 71.9426 30.2366 71.9426 28.9426C71.9426 27.6509 71.6213 26.9196 71.3866 26.3865C71.1793 25.9172 71.0152 25.5458 71.0152 24.3088V11.5967C71.6852 10.8927 72.3665 9.82886 72.3665 7.90837C72.3665 5.08347 69.9898 3.05592 65.3048 1.88267C61.4858 0.92585 55.8711 0.440586 48.6203 0.440586C41.3673 0.440586 35.7526 0.92585 31.9335 1.88267C27.2485 3.05592 24.8719 5.08347 24.8719 7.90837C24.8719 9.82886 25.5532 10.8927 26.2231 11.5967V24.3088C26.2231 25.5458 26.059 25.9172 25.8517 26.3865C25.617 26.9196 25.2957 27.6509 25.2957 28.9426C25.2957 30.2366 25.617 30.9656 25.8517 31.4986C26.059 31.9702 26.2231 32.3393 26.2231 33.5763V42.1399C26.2231 43.3769 26.059 43.7483 25.8517 44.2176C25.617 44.7506 25.2957 45.4819 25.2957 46.7736C25.2957 48.0676 25.617 48.7967 25.8517 49.3297C26.059 49.799 26.2231 50.1704 26.2231 51.4074V63.5614C25.4187 63.5477 24.5961 63.5408 23.7462 63.5408C16.4954 63.5408 10.8807 64.0261 7.05936 64.9829C2.37438 66.1562 0 68.1837 0 71.0086C0 72.9268 0.679032 73.993 1.35124 74.697V87.409C1.35124 88.6461 1.18721 89.0174 0.979845 89.4867C0.745141 90.0198 0.42386 90.7488 0.42386 92.0428C0.42386 93.3345 0.745141 94.0658 0.979845 94.5989C1.18721 95.0682 1.35124 95.4395 1.35124 96.6766V105.24C1.35124 106.477 1.18721 106.849 0.979845 107.318C0.745141 107.851 0.42386 108.58 0.42386 109.874C0.42386 111.166 0.745141 111.897 0.979845 112.43C1.18721 112.899 1.35124 113.271 1.35124 114.508V127.659C0.640295 128.534 0 129.853 0 131.762C0 137.123 8.65443 140.196 23.7462 140.196C38.8379 140.196 47.4946 137.123 47.4946 131.762C47.4946 129.853 46.8543 128.534 46.1434 127.659V114.508C46.1434 113.271 46.3074 112.899 46.5148 112.43C46.7495 111.897 47.0708 111.166 47.0708 109.874C47.0708 108.58 46.7495 107.851 46.5148 107.318C46.3074 106.849 46.1434 106.477 46.1434 105.24V96.6766C46.1434 95.4395 46.3074 95.0682 46.5148 94.5989C46.7495 94.0658 47.0708 93.3345 47.0708 92.0428C47.0708 90.7488 46.7495 90.0198 46.5148 89.4867C46.3074 89.0174 46.1434 88.6461 46.1434 87.409V77.0662C46.95 77.0867 47.7726 77.0981 48.6203 77.0981C49.9009 77.0981 51.1314 77.0731 52.3163 77.0298V87.409C52.3163 88.6461 52.1522 89.0174 51.9472 89.4867C51.7125 90.0198 51.3889 90.7488 51.3889 92.0428C51.3889 93.3345 51.7125 94.0658 51.9472 94.5989C52.1522 95.0682 52.3163 95.4395 52.3163 96.6766V105.24C52.3163 106.477 52.1522 106.849 51.9472 107.318C51.7125 107.851 51.3889 108.58 51.3889 109.874C51.3889 111.166 51.7125 111.897 51.9472 112.43C52.1522 112.899 52.3163 113.271 52.3163 114.508V127.659C51.6054 128.534 50.9674 129.853 50.9674 131.762C50.9674 137.123 59.6218 140.196 74.7135 140.196C89.8053 140.196 98.4597 137.123 98.4597 131.762C98.4597 129.853 97.8194 128.534 97.1107 127.659V114.508C97.1107 113.271 97.2748 112.899 97.4798 112.43C97.7145 111.897 98.0358 111.166 98.0358 109.874C98.0358 108.58 97.7145 107.851 97.4798 107.318C97.2748 106.849 97.1107 106.477 97.1107 105.24V96.6766C97.1107 95.4395 97.2748 95.0682 97.4798 94.5989C97.7145 94.0658 98.0358 93.3345 98.0358 92.0428C98.0358 90.7488 97.7145 90.0198 97.4798 89.4867C97.2748 89.0174 97.1107 88.6461 97.1107 87.409V77.0617C98.0062 77.0845 98.9291 77.0981 99.877 77.0981C101.053 77.0981 102.185 77.0753 103.284 77.0389V87.409C103.284 88.6461 103.12 89.0174 102.912 89.4867C102.678 90.0198 102.356 90.7488 102.356 92.0428C102.356 93.3345 102.678 94.0658 102.912 94.5989C103.12 95.0682 103.284 95.4395 103.284 96.6766V105.24C103.284 106.477 103.12 106.849 102.912 107.318C102.678 107.851 102.356 108.58 102.356 109.874C102.356 111.166 102.678 111.897 102.912 112.43C103.12 112.899 103.284 113.271 103.284 114.508V127.659C102.573 128.534 101.932 129.853 101.932 131.762C101.932 137.123 110.589 140.196 125.681 140.196C140.77 140.196 149.427 137.123 149.427 131.762C149.427 129.853 148.787 128.534 148.076 127.659V114.508C148.076 113.271 148.24 112.899 148.447 112.43C148.682 111.897 149.003 111.166 149.003 109.874C149.003 108.58 148.682 107.851 148.447 107.318C148.24 106.849 148.076 106.477 148.076 105.24V96.6766C148.076 95.4395 148.24 95.0682 148.447 94.5989C148.682 94.0658 149.003 93.3345 149.003 92.0428C149.003 90.7488 148.682 90.0198 148.447 89.4867C148.24 89.0174 148.076 88.6461 148.076 87.409V74.697C148.746 73.993 149.427 72.9268 149.427 71.0086" fill="#FFEB85"/>
</svg>
