<svg width="274" height="247" viewBox="0 0 274 247" fill="none" xmlns="http://www.w3.org/2000/svg">
<path d="M180.818 63.1126C176.409 64.7575 171.245 66.621 165.694 68.562C162.914 69.5188 160.057 70.5462 157.129 71.5213C154.203 72.5077 151.231 73.5078 148.26 74.508C145.277 75.4784 142.297 76.4489 139.362 77.4058C136.431 78.374 133.524 79.2533 130.721 80.1441C125.111 81.9006 119.856 83.4861 115.335 84.7961C110.823 86.1288 107.025 87.1243 104.384 87.8761C101.731 88.6006 100.207 88.9765 100.207 88.9765C100.207 88.9765 101.656 88.3705 104.215 87.3704C106.783 86.3953 110.425 84.9282 114.841 83.3039C119.25 81.6591 124.414 79.7955 129.964 77.8568C132.744 76.9 135.602 75.868 138.532 74.8975C141.456 73.9133 144.429 72.9133 147.401 71.9132C150.381 70.9427 153.364 69.9721 156.297 69.0176C159.23 68.0517 162.137 67.17 164.94 66.2815C170.55 64.5251 175.805 62.9395 180.326 61.6296C184.837 60.2968 188.636 59.299 191.277 58.5472C193.927 57.8228 195.454 57.4423 195.454 57.4423C195.454 57.4423 194.002 58.0506 191.443 59.0507C188.875 60.0234 185.234 61.4883 180.818 63.1126" fill="#FFEB85"/>
<path d="M172.811 220.237H154.709V189.707H166.367L172.811 220.237ZM179.132 218.621C179.132 218.621 178.656 216.649 177.819 213.197C177.008 209.739 175.848 204.8 174.458 198.872C173.109 192.937 171.535 186.012 169.846 178.592C168.208 171.163 166.458 163.237 164.708 155.312C163.017 147.372 161.329 139.435 159.745 131.992C158.154 124.552 156.776 117.585 155.541 111.623C154.354 105.652 153.365 100.677 152.672 97.1936C152.002 93.7058 151.619 91.7124 151.619 91.7124C151.619 91.7124 152.095 93.6853 152.932 97.1367C153.743 100.595 154.903 105.534 156.295 111.462C157.637 117.399 159.269 124.31 160.905 131.742C162.543 139.171 164.293 147.097 166.043 155.022C167.732 162.962 169.422 170.899 171.006 178.341C172.542 185.793 173.978 192.748 175.208 198.71C176.395 204.681 177.386 209.657 178.079 213.14C178.749 216.628 179.132 218.621 179.132 218.621V218.621ZM83.1469 111.134L139.802 91.4595L105.574 173.808C103.35 172.147 100.994 170.423 98.5531 168.691C92.5556 164.433 87.4696 161.139 83.1469 158.581V111.134ZM173.964 225.706H186.734V239.382H82.3927L182.63 237.484L40.5857 234.792V225.706H173.964ZM154.709 134.478L156.812 144.44H154.709V134.478ZM146.46 95.3939L147.978 102.588H143.489L146.46 95.3939ZM151.724 212.416V220.237H140.214V212.416H151.724ZM151.724 189.707V197.615H140.214V189.707H151.724ZM140.214 110.516L142.281 105.511H148.595L150.484 114.467H140.214V110.516ZM126.21 144.44L137.231 117.745V144.44H126.21ZM112.045 178.747L124.576 148.4H137.231V185.745H120.8C119.125 184.363 116.024 181.843 112.045 178.747V178.747ZM50.9582 201.175V198.578C64.7055 195.963 76.7393 198.164 85.1522 200.902C86.0409 201.362 86.925 201.831 87.8023 202.305L50.9582 201.175ZM50.9582 211.402V203.7L88.2626 202.556C95.7048 206.609 102.55 211.001 106.23 213.557C107.155 214.197 108.247 214.532 109.352 214.532C109.628 214.532 109.903 214.505 110.177 214.461L110.318 214.91C86.3576 214.774 59.8178 212.297 50.9582 211.402V211.402ZM137.231 220.237H117.76L114.7 210.634L123.521 193.596C124.159 192.361 124.27 190.981 123.94 189.707H137.231V220.237ZM151.724 200.537V209.493H140.214V200.537H151.724ZM151.724 185.736H140.214V176.781H151.724V185.736ZM151.724 148.4V150.101H140.214V148.4H151.724ZM151.724 141.146V144.44H140.214V141.146H151.724ZM140.214 129.268H151.724V138.223H140.214V129.268ZM151.724 164.903V173.858H140.214V164.903H151.724ZM151.724 153.024V161.98H140.214V153.024H151.724ZM151.724 126.345H140.214V117.389H151.102L151.724 120.34V126.345ZM83.1469 164.969C94.2851 171.881 105.954 180.847 112.756 186.272L89.2265 172.063L117.389 193.539L109.352 209.062C109.352 209.062 102.215 204.112 93.082 198.981C94.1826 199.446 95.2536 199.897 96.2585 200.323C102.805 203.144 107.169 205.023 107.169 205.023C107.169 205.023 106.244 204.262 104.555 203.025C102.864 201.793 100.406 200.091 97.334 198.239C94.276 196.366 90.6096 194.329 86.5353 192.409C84.4868 191.475 82.3654 190.495 80.1345 189.664C77.9037 188.835 75.6067 188.051 73.2551 187.381C72.0839 187.046 70.8602 186.832 69.6708 186.554C68.4699 186.304 67.228 186.171 66.0226 185.982L65.797 185.948L65.4735 185.928L65.0382 185.905L64.1701 185.862C63.5822 185.852 63.0352 185.809 62.4245 185.827C61.1781 185.932 59.8975 185.93 58.7422 186.149C57.5778 186.36 56.4225 186.497 55.3447 186.866C54.8047 187.026 54.2692 187.185 53.7382 187.342C53.2255 187.541 52.7174 187.737 52.2184 187.93C50.2131 188.686 48.4631 189.7 46.9045 190.678C45.3663 191.698 44.0356 192.726 42.9441 193.73C41.8275 194.701 40.9548 195.653 40.2598 196.446C39.5534 197.23 39.0749 197.913 38.7422 198.364C38.4277 198.829 38.2591 199.077 38.2591 199.077C38.2591 199.077 39.1433 198.262 40.8135 197.045C41.643 196.432 42.6752 195.731 43.8852 194.986C45.0883 194.232 46.5103 193.5 48.0506 192.737C48.9325 192.35 49.8713 191.972 50.842 191.612C44.5939 195.459 40.3236 201.127 38.5098 203.848L22.6593 195.086L34.7363 205.419H20.8204C20.8204 205.419 17.8991 200.781 21.251 191.199C24.8172 181.016 44.423 155.223 60.2439 155.223C64.3888 155.223 70.3772 157.695 76.9512 161.328V169.324C76.2903 169.52 75.5817 169.842 74.8913 170.331C74.0937 170.883 73.2962 171.637 72.6741 172.614C72.0498 173.585 71.5826 174.767 71.4117 176.052C71.3821 176.394 71.3137 176.649 71.3297 177.077C71.3388 177.373 71.3023 177.542 71.3525 177.959C71.4208 178.726 71.5438 179.371 71.774 180.032C72.2001 181.353 72.9658 182.583 73.9524 183.593C74.9642 184.581 76.1924 185.349 77.514 185.775C78.8083 186.221 80.2712 186.315 81.4448 186.144C84.1473 185.798 86.1365 184.276 87.2212 182.661C87.784 181.868 88.135 181.052 88.3173 180.312C88.5337 179.583 88.552 178.92 88.5611 178.401C88.5406 177.872 88.4767 177.471 88.4107 177.202C88.3469 176.938 88.315 176.797 88.315 176.797C88.315 176.797 88.2648 176.933 88.176 177.191C88.1122 177.446 87.9367 177.804 87.7613 178.237C87.5904 178.574 87.3625 178.954 87.0981 179.344C85.4575 178.959 84.1587 178.018 83.1469 176.883V164.969ZM124.906 140.335C127.23 134.783 129.555 129.236 131.735 124.032C133.911 118.827 136.037 114.009 137.81 109.86C139.59 105.714 141.149 102.288 142.204 99.875C143.288 97.4738 143.906 96.1024 143.906 96.1024C143.906 96.1024 143.377 97.5126 142.45 99.9775C141.497 102.431 140.185 105.958 138.519 110.152C136.851 114.346 134.957 119.26 132.829 124.484C130.703 129.707 128.436 135.282 126.169 140.854C123.844 146.404 121.52 151.954 119.342 157.157C117.168 162.362 115.039 167.178 113.264 171.329C112.266 173.66 111.341 175.751 110.53 177.571C110.398 177.471 110.268 177.371 110.133 177.268C110.835 175.432 111.637 173.341 112.553 171.035C114.224 166.844 116.113 161.927 118.243 156.706C120.369 151.48 122.639 145.907 124.906 140.335V140.335ZM222.826 56.8384L115.504 94.1067L218.307 56.0183L70.5731 106.484L72.9453 92.4027L209.988 44.8143L85.6102 84.1648L212.394 40.8321C212.528 41.5794 212.799 42.2992 213.232 42.9349C213.299 43.0305 217.248 48.833 222.826 56.8384V56.8384ZM265.462 102.285C265.389 102.358 265.294 102.392 265.177 102.392C261.803 102.392 240.59 72.7399 227.707 54.2732C230.781 58.2144 234.142 62.4814 237.539 66.7234C243.521 74.2071 249.612 81.5997 254.315 87.0308C255.477 88.3999 256.582 89.621 257.546 90.7145C258.51 91.808 259.36 92.7535 260.08 93.5167C261.502 95.0521 262.315 95.9292 262.315 95.9292C262.315 95.9292 261.566 94.9952 260.258 93.364C259.597 92.5553 258.818 91.5506 257.936 90.391C257.052 89.2337 256.04 87.9398 254.982 86.4932C250.687 80.7545 245.152 72.9632 239.736 65.0922C232.863 55.1298 226.182 45.0513 222.204 38.996L223.327 13.6971L219.617 35.0456C219.068 34.2027 218.71 33.6491 218.571 33.4373L221.618 9.32755C222.058 9.40045 222.552 9.49615 223.111 9.62828C224.143 9.95634 225.398 10.3323 226.738 11.2002C227.435 11.5465 228.103 12.1411 228.855 12.6468C229.562 13.2528 230.32 13.8793 231.072 14.6038C232.567 16.0732 234.114 17.7955 235.648 19.7433C237.195 21.6797 238.704 23.8462 240.255 26.1039C241.737 28.4162 243.295 30.7901 244.747 33.3006C246.26 35.7701 247.663 38.3672 249.113 40.9392C250.537 43.5249 251.886 46.1562 253.258 48.7237C254.577 51.3208 255.844 53.87 256.974 56.3942C259.26 61.4289 261.112 66.2609 262.447 70.4846C263.81 74.7037 264.633 78.3168 265.125 80.8592C265.608 83.4062 265.783 84.8802 265.783 84.8802C265.783 84.8802 265.695 83.3994 265.357 80.8228C265.011 78.2485 264.393 74.5739 263.27 70.2499C262.172 65.9192 260.583 60.9437 258.571 55.7244C257.576 53.1114 256.439 50.4437 255.263 47.7623C254.037 45.1037 252.834 42.3813 251.549 39.693C250.238 37.0162 248.974 34.3143 247.581 31.7195C246.462 29.496 245.255 27.3615 244.07 25.2678C247.634 30.9769 251.708 38.4652 256.439 48.3318C272.269 81.3559 268.595 99.1528 265.462 102.285V102.285ZM165.53 185.745H154.709V148.4H157.649L165.53 185.745ZM9.57732 244.592C3.48184 244.759 0 244.854 0 244.854C0 244.854 3.48184 244.95 9.57732 245.116C15.6705 245.223 24.3774 245.49 34.8251 245.611C45.2706 245.72 57.4593 245.975 70.5184 246.018C83.5776 246.075 97.5072 246.135 111.437 246.196C125.364 246.135 139.294 246.073 152.353 246.018C165.412 245.966 177.601 245.718 188.046 245.606C198.494 245.485 207.201 245.223 213.294 245.114C219.389 244.948 222.871 244.854 222.871 244.854C222.871 244.854 219.389 244.759 213.294 244.595C207.474 244.49 199.25 244.248 189.425 244.121C191.077 243.178 192.205 241.421 192.205 239.382V225.706C192.205 222.686 189.755 220.237 186.734 220.237H181.443L152.565 87.0285L226.087 61.4972C228.93 65.5523 232.041 69.9446 235.188 74.321C241.768 83.47 247.23 90.7761 251.423 96.034C259.433 106.076 261.989 107.864 265.177 107.864C265.909 107.864 266.615 107.721 267.276 107.468L267.684 129.484L266.549 130.129C265.462 130.744 265.9 132.4 267.148 132.4H267.739L269.726 239.382L271.713 132.4H272.3C273.549 132.4 273.987 130.744 272.902 130.129L271.767 129.484L272.3 100.75C275.265 91.3934 274.242 72.8128 261.372 45.9671C242.463 6.52316 233.068 2.32226 222.751 0.928035L222.32 4.0195C222.315 4.0195 222.313 4.0195 222.311 4.0195L222.728 0.923474C222.484 0.89158 222.238 0.875642 221.994 0.875642C220.795 0.875642 219.622 1.26976 218.66 2.01016C217.503 2.89864 216.748 4.21313 216.566 5.65976L212.872 34.8862L71.8743 83.0782C69.9739 83.7275 68.5816 85.3655 68.2489 87.3452L64.6007 109.001C64.2794 110.906 64.9881 112.84 66.4647 114.088C67.4673 114.936 68.7229 115.38 69.9967 115.38C70.6005 115.38 71.2066 115.282 71.7922 115.077L76.9512 113.286V155.127C66.5649 149.753 62.1352 149.751 60.2439 149.751C40.3738 149.751 19.6537 179.205 16.0875 189.393C12.0657 200.881 15.4677 207.185 16.1901 208.333C17.1904 209.923 18.9405 210.889 20.8204 210.889H37.5254C39.4919 210.889 41.3148 209.821 42.2878 208.112C42.3175 208.062 43.4477 206.112 45.4871 203.636V220.237H40.5857C37.5619 220.237 35.1123 222.686 35.1123 225.706V239.382C35.1123 241.38 36.1924 243.107 37.7897 244.064C36.7917 244.075 35.7936 244.089 34.8251 244.098C24.3774 244.219 15.6705 244.485 9.57732 244.592" fill="#FFEB85"/>
</svg>
