<svg width="475" height="184" viewBox="0 0 475 184" fill="none" xmlns="http://www.w3.org/2000/svg">
<path d="M454.882 153.91C455.076 154.678 455.206 155.394 455.345 156.029C455.504 157.33 455.577 158.346 455.539 159.041C455.532 159.733 455.527 160.102 455.527 160.102C455.527 160.102 455.486 159.738 455.411 159.05C455.361 158.708 455.354 158.28 455.242 157.792C455.144 157.307 455.028 156.747 454.901 156.12C454.707 155.51 454.52 154.829 454.269 154.106C453.95 153.409 453.709 152.614 453.253 151.856C452.471 150.279 451.298 148.662 449.826 147.117C448.338 145.584 446.476 144.169 444.3 143.098C442.122 142.028 439.617 141.351 437.036 141.178C434.356 140.996 431.669 141.401 429.085 142.335C426.513 143.274 424.116 144.8 422.147 146.764C421.39 147.52 420.723 148.356 420.105 149.227H417.366C418.246 147.746 419.285 146.352 420.499 145.117C422.726 142.927 425.433 141.242 428.322 140.219C431.198 139.171 434.31 138.872 437.138 139.127C440.073 139.378 442.787 140.283 445.102 141.554C447.429 142.818 449.341 144.477 450.817 146.217C452.298 147.955 453.378 149.773 454.041 151.489C454.44 152.318 454.623 153.168 454.882 153.91V153.91ZM450.863 162.342C450.835 162.809 450.808 163.347 450.674 163.907C450.619 164.192 450.56 164.486 450.5 164.793C450.407 165.092 450.311 165.399 450.211 165.716C450.038 166.363 449.712 166.989 449.423 167.659C449.049 168.283 448.723 168.971 448.238 169.57C447.807 170.208 447.262 170.771 446.745 171.357C446.162 171.874 445.599 172.418 444.961 172.849C444.364 173.334 443.673 173.66 443.049 174.033C442.379 174.323 441.753 174.651 441.105 174.822C440.789 174.922 440.481 175.018 440.183 175.111C439.875 175.172 439.579 175.229 439.294 175.286C438.733 175.421 438.202 175.444 437.735 175.471C437.27 175.514 436.867 175.521 436.532 175.496C435.867 175.466 435.491 175.434 435.491 175.434C435.491 175.434 435.869 175.364 436.516 175.268C436.844 175.236 437.234 175.163 437.674 175.043C438.114 174.936 438.61 174.824 439.132 174.635C439.394 174.548 439.668 174.459 439.95 174.366C440.224 174.252 440.506 174.131 440.796 174.008C441.388 173.796 441.944 173.423 442.559 173.131C443.129 172.753 443.735 172.4 444.289 171.947C444.877 171.536 445.385 171.017 445.923 170.532C446.408 169.996 446.928 169.486 447.335 168.901C447.791 168.349 448.144 167.739 448.523 167.169C448.814 166.556 449.188 166.001 449.402 165.408C449.525 165.117 449.644 164.834 449.76 164.563C449.853 164.278 449.942 164.007 450.029 163.745C450.216 163.219 450.327 162.731 450.432 162.292C450.553 161.857 450.628 161.463 450.66 161.132C450.756 160.478 450.824 160.102 450.824 160.102C450.824 160.102 450.858 160.483 450.885 161.144C450.911 161.472 450.906 161.873 450.863 162.342V162.342ZM434.429 180.146C433.736 180.184 432.724 180.114 431.416 179.952C430.778 179.813 430.065 179.683 429.297 179.49C428.554 179.228 427.704 179.048 426.875 178.647C425.159 177.984 423.341 176.904 421.604 175.423C420.196 174.229 418.852 172.737 417.715 170.981H419.677C420.524 172.281 421.479 173.45 422.498 174.437C424.045 175.908 425.663 177.084 427.24 177.865C427.998 178.321 428.794 178.56 429.493 178.879C430.216 179.13 430.895 179.316 431.505 179.508C432.13 179.638 432.688 179.752 433.173 179.852C433.661 179.963 434.094 179.968 434.436 180.02C435.124 180.095 435.491 180.137 435.491 180.137C435.491 180.137 435.122 180.139 434.429 180.146V180.146ZM410.211 171.575C409.252 171.673 407.969 171.735 406.688 171.737C405.408 171.735 404.127 171.671 403.165 171.575C402.204 171.475 401.563 171.359 401.563 171.359C401.563 171.359 402.204 171.243 403.165 171.142C404.127 171.047 405.408 170.983 406.688 170.981C407.969 170.981 409.252 171.044 410.211 171.14C411.173 171.24 411.813 171.359 411.813 171.359C411.813 171.359 411.173 171.475 410.211 171.575ZM410.211 174.15C409.252 174.245 407.969 174.309 406.688 174.311C405.408 174.309 404.127 174.245 403.165 174.15C402.204 174.049 401.563 173.931 401.563 173.931C401.563 173.931 402.204 173.815 403.165 173.714C404.127 173.619 405.408 173.557 406.688 173.553C407.969 173.557 409.252 173.619 410.211 173.714C411.173 173.815 411.813 173.931 411.813 173.931C411.813 173.931 411.173 174.049 410.211 174.15ZM410.211 176.724C409.252 176.82 407.969 176.883 406.688 176.883C405.408 176.881 404.127 176.82 403.165 176.722C402.204 176.624 401.563 176.505 401.563 176.505C401.563 176.505 402.204 176.389 403.165 176.289C404.127 176.193 405.408 176.129 406.688 176.127C407.969 176.129 409.252 176.193 410.211 176.289C411.173 176.389 411.813 176.505 411.813 176.505C411.813 176.505 411.173 176.624 410.211 176.724ZM391.995 171.575C391.036 171.673 389.753 171.735 388.472 171.737C387.192 171.735 385.911 171.671 384.95 171.575C383.988 171.475 383.348 171.359 383.348 171.359C383.348 171.359 383.988 171.243 384.95 171.142C385.911 171.047 387.192 170.983 388.472 170.981C389.753 170.981 391.036 171.044 391.995 171.14C392.957 171.24 393.597 171.359 393.597 171.359C393.597 171.359 392.957 171.475 391.995 171.575ZM391.995 174.15C391.036 174.245 389.753 174.309 388.472 174.311C387.192 174.309 385.911 174.245 384.95 174.15C383.988 174.049 383.348 173.931 383.348 173.931C383.348 173.931 383.988 173.815 384.95 173.714C385.911 173.619 387.192 173.557 388.472 173.553C389.753 173.557 391.036 173.619 391.995 173.714C392.957 173.815 393.597 173.931 393.597 173.931C393.597 173.931 392.957 174.049 391.995 174.15ZM391.995 176.724C391.036 176.82 389.753 176.883 388.472 176.883C387.192 176.881 385.911 176.82 384.95 176.722C383.988 176.624 383.348 176.505 383.348 176.505C383.348 176.505 383.988 176.389 384.95 176.289C385.911 176.193 387.192 176.129 388.472 176.127C389.753 176.129 391.036 176.193 391.995 176.289C392.957 176.389 393.597 176.505 393.597 176.505C393.597 176.505 392.957 176.624 391.995 176.724ZM372.392 172.849C371.795 173.334 371.104 173.66 370.48 174.033C369.81 174.323 369.183 174.651 368.536 174.822C368.219 174.922 367.912 175.018 367.613 175.111C367.306 175.172 367.012 175.229 366.727 175.286C366.164 175.421 365.633 175.444 365.166 175.471C364.703 175.514 364.298 175.521 363.963 175.496C363.297 175.466 362.924 175.434 362.924 175.434C362.924 175.434 363.3 175.364 363.949 175.268C364.275 175.236 364.665 175.163 365.104 175.043C365.547 174.936 366.041 174.824 366.563 174.635C366.825 174.548 367.098 174.459 367.381 174.366C367.654 174.252 367.937 174.131 368.226 174.008C368.819 173.796 369.375 173.423 369.99 173.131C370.56 172.753 371.168 172.4 371.719 171.947C372.127 171.662 372.499 171.325 372.866 170.981H374.511C374.399 171.106 374.288 171.229 374.178 171.357C373.593 171.874 373.032 172.418 372.392 172.849V172.849ZM361.862 180.146C361.167 180.184 360.155 180.114 358.847 179.952C358.211 179.813 357.496 179.683 356.728 179.49C355.985 179.228 355.135 179.048 354.306 178.647C352.592 177.984 350.774 176.904 349.035 175.423C347.294 173.947 345.633 172.038 344.371 169.709C343.099 167.395 342.197 164.677 341.946 161.779C341.921 161.043 341.803 160.351 341.86 159.558C341.907 158.843 341.857 158.187 341.996 157.398C342.179 155.856 342.491 154.375 343.033 152.938C344.056 150.047 345.745 147.343 347.93 145.117C350.156 142.927 352.863 141.242 355.755 140.219C358.628 139.171 361.741 138.872 364.571 139.127C367.504 139.378 370.218 140.283 372.533 141.554C374.862 142.818 376.774 144.477 378.248 146.217C379.091 147.206 379.788 148.22 380.367 149.227H379.036C378.505 148.516 377.915 147.81 377.257 147.117C375.769 145.584 373.907 144.169 371.731 143.098C369.555 142.028 367.05 141.351 364.466 141.178C361.787 140.996 359.102 141.401 356.516 142.335C353.946 143.274 351.549 144.8 349.58 146.764C347.613 148.73 346.087 151.129 345.148 153.701C344.881 154.332 344.719 154.995 344.548 155.653C344.334 156.312 344.275 156.954 344.152 157.601C344.006 158.214 344.027 158.984 343.963 159.665C343.892 160.273 343.988 160.975 343.988 161.62C344.161 164.237 344.84 166.736 345.909 168.912C346.982 171.088 348.395 172.951 349.931 174.437C351.476 175.908 353.094 177.084 354.67 177.865C355.431 178.321 356.227 178.56 356.924 178.879C357.646 179.13 358.328 179.316 358.938 179.508C359.563 179.638 360.121 179.752 360.606 179.852C361.092 179.963 361.525 179.968 361.866 180.02C362.555 180.095 362.924 180.137 362.924 180.137C362.924 180.137 362.552 180.139 361.862 180.146V180.146ZM237.466 135.833C231.701 135.822 225.938 135.813 220.189 135.801V133.562C225.938 133.553 231.701 133.542 237.466 133.53C264.523 133.583 291.58 133.633 316.949 133.68C342.313 133.719 365.989 133.938 386.283 134.034C406.574 134.209 423.487 134.355 435.322 134.457C447.16 134.601 453.925 134.681 453.925 134.681C453.925 134.681 447.16 134.763 435.322 134.906C423.487 135.009 406.574 135.154 386.283 135.332C365.989 135.426 342.313 135.644 316.949 135.683C291.58 135.731 264.523 135.783 237.466 135.833ZM218.555 151.227C218.483 155.318 218.441 157.656 218.441 157.656C218.441 157.656 218.4 155.318 218.328 151.227C218.275 147.137 218.202 141.296 218.113 134.284C218.061 127.274 217.999 119.093 217.936 110.329C217.911 101.565 217.885 92.2158 217.858 82.8685C217.885 73.519 217.913 64.1717 217.936 55.4077C218.002 46.6436 218.063 38.4628 218.113 31.4529C218.202 24.4408 218.277 18.5974 218.328 14.5081C218.4 10.4165 218.441 8.08142 218.441 8.08142C218.441 8.08142 218.483 10.4165 218.553 14.5081C218.606 18.5974 218.681 24.4408 218.767 31.4529C218.82 38.4628 218.881 46.6436 218.945 55.4077C218.97 64.1717 218.998 73.519 219.023 82.8685C218.998 92.2158 218.972 101.565 218.947 110.329C218.881 119.093 218.822 127.274 218.77 134.284C218.681 141.296 218.606 147.137 218.555 151.227ZM202.122 156.405V147.459H216.691V156.405H202.122ZM200.043 134.284C199.991 127.274 199.932 119.093 199.866 110.329C199.843 101.565 199.816 92.2158 199.79 82.8685C199.816 73.519 199.843 64.1717 199.868 55.4077C199.932 46.6436 199.993 38.4628 200.046 31.4529C200.135 24.4408 200.207 18.5974 200.26 14.5081C200.331 10.4165 200.372 8.08142 200.372 8.08142C200.372 8.08142 200.413 10.4165 200.485 14.5081C200.536 18.5974 200.611 24.4408 200.7 31.4529C200.75 38.4628 200.811 46.6436 200.877 55.4077C200.902 64.1717 200.928 73.519 200.955 82.8685C200.928 92.2158 200.902 101.565 200.877 110.329C200.814 119.093 200.752 127.274 200.7 134.284C200.611 141.296 200.538 147.137 200.485 151.227C200.413 155.318 200.372 157.656 200.372 157.656C200.372 157.656 200.33 155.318 200.258 151.227C200.207 147.137 200.132 141.296 200.043 134.284ZM163.081 135.69C161.506 134.856 159.713 134.378 157.808 134.378C155.935 134.378 154.169 134.845 152.613 135.653C129.279 135.535 107.504 135.423 88.6522 135.328C68.3605 135.154 51.4481 135.006 39.6103 134.906C27.7726 134.763 21.0095 134.681 21.0095 134.681C21.0095 134.681 27.7726 134.601 39.6103 134.46C51.4481 134.357 68.3605 134.211 88.6522 134.036C108.946 133.933 132.622 133.813 157.986 133.683C171.154 133.658 184.781 133.633 198.624 133.605V135.76C186.551 135.735 174.661 135.713 163.081 135.69ZM167.568 143.675C167.645 144.313 167.677 144.812 167.659 145.156C167.654 145.495 167.652 145.677 167.652 145.677C167.652 145.677 167.631 145.497 167.593 145.158C167.574 144.818 167.463 144.335 167.337 143.72C167.164 143.119 166.939 142.39 166.524 141.629C166.139 140.857 165.56 140.066 164.842 139.303C164.115 138.547 163.202 137.849 162.131 137.332C161.057 136.813 159.829 136.492 158.564 136.405C157.25 136.316 155.937 136.519 154.67 136.975C153.412 137.435 152.237 138.184 151.273 139.143C150.311 140.107 149.564 141.28 149.103 142.54C148.864 143.164 148.711 143.827 148.614 144.449C148.543 144.75 148.552 145.128 148.52 145.463C148.486 145.759 148.531 146.103 148.531 146.42C148.677 148.999 149.901 151.279 151.432 152.71C152.196 153.427 152.986 154.006 153.759 154.391C154.52 154.806 155.249 155.031 155.851 155.204C156.459 155.327 156.947 155.441 157.288 155.46C157.628 155.498 157.808 155.519 157.808 155.519C157.808 155.519 157.626 155.521 157.286 155.523C156.947 155.544 156.448 155.512 155.805 155.432C155.176 155.314 154.404 155.152 153.57 154.797C152.727 154.473 151.829 153.945 150.979 153.211C149.277 151.776 147.725 149.384 147.476 146.502C147.465 146.14 147.406 145.8 147.433 145.408C147.456 145.055 147.431 144.734 147.499 144.347C147.59 143.586 147.743 142.855 148.01 142.146C148.513 140.722 149.345 139.389 150.42 138.291C151.519 137.214 152.852 136.385 154.276 135.881C155.693 135.364 157.227 135.218 158.619 135.346C161.531 135.594 163.901 137.148 165.344 138.847C166.077 139.699 166.608 140.595 166.932 141.44C167.287 142.274 167.449 143.046 167.568 143.675V143.675ZM154.508 142.841C153.85 143.606 153.435 144.588 153.435 145.677C153.435 145.871 153.469 146.058 153.494 146.244L150.457 148.083C150.209 147.324 150.07 146.518 150.07 145.677C150.07 144.675 150.266 143.72 150.614 142.841H154.508ZM160.722 145.078C160.618 144.709 160.362 144.212 159.913 143.768C159.476 143.319 158.774 142.984 158.034 142.955C157.263 142.916 156.468 143.203 155.903 143.773C155.62 144.053 155.402 144.395 155.265 144.761C155.194 144.941 155.149 145.137 155.117 145.313C155.094 145.392 155.094 145.518 155.085 145.618C155.071 145.698 155.085 145.805 155.083 145.896C155.115 146.652 155.45 147.343 155.898 147.784C156.341 148.233 156.842 148.486 157.209 148.591C157.576 148.698 157.808 148.721 157.808 148.721C157.808 148.721 157.589 148.762 157.181 148.725C156.792 148.673 156.19 148.536 155.634 148.074C155.085 147.63 154.561 146.876 154.47 145.944C154.447 145.702 154.447 145.479 154.47 145.251C154.497 144.998 154.545 144.761 154.631 144.531C154.793 144.069 155.06 143.636 155.409 143.278C156.115 142.572 157.163 142.226 158.065 142.34C159.016 142.431 159.759 142.955 160.205 143.504C160.67 144.06 160.804 144.661 160.857 145.051C160.893 145.454 160.85 145.677 160.85 145.677C160.85 145.677 160.83 145.449 160.722 145.078V145.078ZM165.546 145.677C165.546 146.518 165.407 147.324 165.159 148.083L162.122 146.244C162.147 146.058 162.179 145.871 162.179 145.677C162.179 144.588 161.766 143.606 161.107 142.841H165.002C165.35 143.72 165.546 144.675 165.546 145.677V145.677ZM157.808 153.414C155.639 153.414 153.679 152.514 152.273 151.072L155.295 149.243C156.006 149.746 156.869 150.047 157.808 150.047C158.747 150.047 159.61 149.746 160.321 149.243L163.343 151.072C161.937 152.514 159.977 153.414 157.808 153.414V153.414ZM127.337 146.217C128.819 147.955 129.899 149.773 130.562 151.489C130.961 152.318 131.143 153.168 131.403 153.91C131.596 154.678 131.726 155.394 131.865 156.029C132.025 157.33 132.098 158.346 132.057 159.041C132.052 159.733 132.047 160.102 132.047 160.102C132.047 160.102 132.006 159.738 131.931 159.05C131.881 158.708 131.874 158.28 131.763 157.792C131.662 157.307 131.548 156.747 131.421 156.12C131.227 155.51 131.04 154.829 130.79 154.106C130.471 153.409 130.229 152.614 129.773 151.856C128.992 150.279 127.818 148.662 126.346 147.117C124.858 145.584 122.997 144.169 120.82 143.098C118.642 142.028 116.138 141.351 113.556 141.178C110.876 140.996 108.19 141.401 105.606 142.335C103.033 143.274 100.636 144.8 98.667 146.764C97.9105 147.52 97.2428 148.356 96.6253 149.227H93.8863C94.7659 147.746 95.805 146.352 97.0195 145.117C99.2458 142.927 101.953 141.242 104.842 140.219C107.718 139.171 110.831 138.872 113.658 139.127C116.593 139.378 119.307 140.283 121.62 141.554C123.949 142.818 125.861 144.477 127.337 146.217V146.217ZM127.381 162.342C127.356 162.809 127.328 163.347 127.194 163.907C127.139 164.192 127.08 164.486 127.021 164.793C126.927 165.092 126.832 165.399 126.731 165.716C126.558 166.363 126.232 166.989 125.943 167.659C125.569 168.283 125.243 168.971 124.758 169.57C124.327 170.208 123.783 170.771 123.265 171.357C122.682 171.874 122.119 172.418 121.481 172.849C120.884 173.334 120.194 173.66 119.569 174.033C118.899 174.323 118.273 174.651 117.626 174.822C117.309 174.922 117.001 175.018 116.703 175.111C116.395 175.172 116.099 175.229 115.814 175.286C115.254 175.421 114.723 175.444 114.255 175.471C113.791 175.514 113.387 175.521 113.052 175.496C112.387 175.466 112.011 175.434 112.011 175.434C112.011 175.434 112.389 175.364 113.036 175.268C113.362 175.236 113.754 175.163 114.194 175.043C114.634 174.936 115.13 174.824 115.652 174.635C115.914 174.548 116.188 174.459 116.47 174.366C116.744 174.252 117.024 174.131 117.316 174.008C117.908 173.796 118.464 173.423 119.079 173.131C119.647 172.753 120.255 172.4 120.809 171.947C121.397 171.536 121.905 171.017 122.443 170.532C122.928 169.996 123.448 169.486 123.856 168.901C124.311 168.349 124.665 167.739 125.043 167.169C125.334 166.556 125.708 166.001 125.922 165.408C126.045 165.117 126.164 164.834 126.28 164.563C126.374 164.278 126.462 164.007 126.547 163.745C126.736 163.219 126.847 162.731 126.952 162.292C127.073 161.857 127.148 161.463 127.18 161.132C127.276 160.478 127.344 160.102 127.344 160.102C127.344 160.102 127.376 160.483 127.406 161.144C127.431 161.472 127.426 161.873 127.381 162.342V162.342ZM110.949 180.146C110.256 180.184 109.245 180.114 107.937 179.952C107.301 179.813 106.585 179.683 105.818 179.49C105.075 179.228 104.225 179.048 103.395 178.647C101.682 177.984 99.861 176.904 98.1224 175.423C96.7164 174.229 95.372 172.737 94.2349 170.981H96.1969C97.0446 172.281 97.9993 173.45 99.0179 174.437C100.565 175.908 102.183 177.084 103.76 177.865C104.519 178.321 105.314 178.56 106.014 178.879C106.734 179.13 107.415 179.316 108.026 179.508C108.65 179.638 109.208 179.752 109.694 179.852C110.181 179.963 110.614 179.968 110.956 180.02C111.644 180.095 112.011 180.137 112.011 180.137C112.011 180.137 111.642 180.139 110.949 180.146V180.146ZM86.7313 171.575C85.7719 171.673 84.489 171.735 83.2084 171.737C81.9278 171.735 80.6472 171.671 79.6856 171.575C78.724 171.475 78.0837 171.359 78.0837 171.359C78.0837 171.359 78.724 171.243 79.6856 171.142C80.6472 171.047 81.9278 170.983 83.2084 170.981C84.489 170.981 85.7719 171.044 86.7313 171.14C87.6929 171.24 88.3332 171.359 88.3332 171.359C88.3332 171.359 87.6929 171.475 86.7313 171.575ZM86.7313 174.15C85.7719 174.245 84.489 174.309 83.2084 174.311C81.9278 174.309 80.6472 174.245 79.6856 174.15C78.724 174.049 78.0837 173.931 78.0837 173.931C78.0837 173.931 78.724 173.815 79.6856 173.714C80.6472 173.619 81.9278 173.557 83.2084 173.553C84.489 173.557 85.7719 173.619 86.7313 173.714C87.6929 173.815 88.3332 173.931 88.3332 173.931C88.3332 173.931 87.6929 174.049 86.7313 174.15ZM86.7313 176.724C85.7719 176.82 84.489 176.883 83.2084 176.883C81.9278 176.881 80.6472 176.82 79.6856 176.722C78.724 176.624 78.0837 176.505 78.0837 176.505C78.0837 176.505 78.724 176.389 79.6856 176.289C80.6472 176.193 81.9278 176.129 83.2084 176.127C84.489 176.129 85.7719 176.193 86.7313 176.289C87.6929 176.389 88.3332 176.505 88.3332 176.505C88.3332 176.505 87.6929 176.624 86.7313 176.724ZM68.5155 171.575C67.5539 171.673 66.2732 171.735 64.9926 171.737C63.712 171.735 62.4314 171.671 61.4698 171.575C60.5082 171.475 59.8679 171.359 59.8679 171.359C59.8679 171.359 60.5082 171.243 61.4698 171.142C62.4314 171.047 63.712 170.983 64.9926 170.981C66.2732 170.981 67.5539 171.044 68.5155 171.14C69.4771 171.24 70.1174 171.359 70.1174 171.359C70.1174 171.359 69.4771 171.475 68.5155 171.575ZM68.5155 174.15C67.5539 174.245 66.2732 174.309 64.9926 174.311C63.712 174.309 62.4314 174.245 61.4698 174.15C60.5082 174.049 59.8679 173.931 59.8679 173.931C59.8679 173.931 60.5082 173.815 61.4698 173.714C62.4314 173.619 63.712 173.557 64.9926 173.553C66.2732 173.557 67.5539 173.619 68.5155 173.714C69.4771 173.815 70.1174 173.931 70.1174 173.931C70.1174 173.931 69.4771 174.049 68.5155 174.15ZM68.5155 176.724C67.5539 176.82 66.2732 176.883 64.9926 176.883C63.712 176.881 62.4314 176.82 61.4698 176.722C60.5082 176.624 59.8679 176.505 59.8679 176.505C59.8679 176.505 60.5082 176.389 61.4698 176.289C62.4314 176.193 63.712 176.129 64.9926 176.127C66.2732 176.129 67.5539 176.193 68.5155 176.289C69.4771 176.389 70.1174 176.505 70.1174 176.505C70.1174 176.505 69.4771 176.624 68.5155 176.724ZM48.9119 172.849C48.3149 173.334 47.6245 173.66 47.0001 174.033C46.3302 174.323 45.7036 174.651 45.0564 174.822C44.7397 174.922 44.4321 175.018 44.1335 175.111C43.8259 175.172 43.5297 175.229 43.2471 175.286C42.6843 175.421 42.1534 175.444 41.6862 175.471C41.2214 175.514 40.8181 175.521 40.4831 175.496C39.8177 175.466 39.4417 175.434 39.4417 175.434C39.4417 175.434 39.82 175.364 40.4694 175.268C40.7953 175.236 41.1849 175.163 41.6247 175.043C42.0668 174.936 42.5612 174.824 43.083 174.635C43.3451 174.548 43.6186 174.459 43.9011 174.366C44.1746 174.252 44.4571 174.131 44.7465 174.008C45.339 173.796 45.895 173.423 46.5102 173.131C47.0799 172.753 47.6883 172.4 48.2397 171.947C48.6476 171.662 49.0191 171.325 49.3859 170.981H51.0311C50.9195 171.106 50.8078 171.229 50.6984 171.357C50.1128 171.874 49.55 172.418 48.9119 172.849V172.849ZM38.3799 180.146C37.6871 180.184 36.6754 180.114 35.3675 179.952C34.7317 179.813 34.0162 179.683 33.2483 179.49C32.5054 179.228 31.6554 179.048 30.826 178.647C29.1124 177.984 27.2941 176.904 25.5554 175.423C23.8145 173.947 22.1534 172.038 20.891 169.709C19.6195 167.395 18.7171 164.677 18.4664 161.779C18.4413 161.043 18.3229 160.351 18.3798 159.558C18.4277 158.843 18.3776 158.187 18.5166 157.398C18.6989 155.856 19.011 154.375 19.5533 152.938C20.5765 150.047 22.265 147.343 24.4502 145.117C26.6765 142.927 29.3836 141.242 32.273 140.219C35.1487 139.171 38.2614 138.872 41.0915 139.127C44.0241 139.378 46.738 140.283 49.0532 141.554C51.382 142.818 53.2938 144.477 54.7681 146.217C55.6113 147.206 56.3085 148.22 56.8873 149.227H55.5566C55.0256 148.516 54.4355 147.81 53.777 147.117C52.289 145.584 50.4273 144.169 48.2511 143.098C46.0727 142.028 43.5684 141.351 40.9867 141.178C38.3069 140.996 35.6227 141.401 33.0364 142.335C30.466 143.274 28.0688 144.8 26.0977 146.764C24.1335 148.73 22.6068 151.129 21.668 153.701C21.4014 154.332 21.2396 154.995 21.0687 155.653C20.8545 156.312 20.7953 156.954 20.6722 157.601C20.5264 158.214 20.5469 158.984 20.4831 159.665C20.4124 160.273 20.5059 160.975 20.5082 161.62C20.6813 164.237 21.3604 166.736 22.4291 168.912C23.5023 171.088 24.9151 172.951 26.4509 174.437C27.9959 175.908 29.6138 177.084 31.1906 177.865C31.9494 178.321 32.7446 178.56 33.4442 178.879C34.1665 179.13 34.8479 179.316 35.4586 179.508C36.0829 179.638 36.639 179.752 37.1266 179.852C37.6119 179.963 38.0449 179.968 38.3867 180.02C39.0749 180.095 39.4417 180.137 39.4417 180.137C39.4417 180.137 39.0726 180.139 38.3799 180.146V180.146ZM106.973 143.985C107.306 143.93 107.627 143.877 107.934 143.827C108.541 143.702 109.112 143.693 109.614 143.682C110.111 143.647 110.546 143.672 110.904 143.72C111.615 143.791 112.011 143.85 112.011 143.85C112.011 143.85 111.61 143.953 110.929 144.096C110.587 144.149 110.179 144.258 109.719 144.397C109.256 144.527 108.739 144.666 108.196 144.88C107.925 144.98 107.643 145.085 107.351 145.192C107.069 145.32 106.777 145.454 106.476 145.591C105.863 145.83 105.291 146.235 104.658 146.547C104.07 146.948 103.448 147.331 102.873 147.805C102.286 148.217 101.777 148.737 101.242 149.227H98.749C99.1022 148.791 99.476 148.368 99.8474 147.944C100.481 147.386 101.092 146.8 101.784 146.338C102.429 145.814 103.186 145.479 103.862 145.085C104.587 144.777 105.271 144.442 105.972 144.272C106.317 144.174 106.649 144.078 106.973 143.985V143.985ZM78.0837 168.785C78.0837 168.785 78.724 168.668 79.6856 168.568C80.6472 168.472 81.9278 168.409 83.2084 168.406C84.489 168.409 85.7719 168.47 86.7313 168.568C87.6929 168.666 88.3332 168.785 88.3332 168.785C88.3332 168.785 87.6929 168.903 86.7313 169.003C85.7719 169.099 84.489 169.16 83.2084 169.163C81.9278 169.16 80.6472 169.097 79.6856 169.001C78.724 168.901 78.0837 168.785 78.0837 168.785ZM88.3332 166.21C88.3332 166.21 87.6929 166.329 86.7313 166.429C85.7719 166.525 84.489 166.588 83.2084 166.588C81.9278 166.586 80.6472 166.522 79.6856 166.427C78.724 166.329 78.0837 166.21 78.0837 166.21C78.0837 166.21 78.724 166.094 79.6856 165.994C80.6472 165.898 81.9278 165.834 83.2084 165.832C84.489 165.834 85.7719 165.896 86.7313 165.994C87.6929 166.094 88.3332 166.21 88.3332 166.21ZM86.7313 163.855C85.7719 163.95 84.489 164.012 83.2084 164.016C81.9278 164.012 80.6472 163.95 79.6856 163.855C78.724 163.754 78.0837 163.636 78.0837 163.636C78.0837 163.636 78.724 163.52 79.6856 163.419C80.6472 163.326 81.9278 163.26 83.2084 163.258C84.489 163.26 85.7719 163.324 86.7313 163.419C87.6929 163.52 88.3332 163.636 88.3332 163.636C88.3332 163.636 87.6929 163.754 86.7313 163.855ZM68.5155 163.855C67.5539 163.95 66.2732 164.012 64.9926 164.016C63.712 164.012 62.4314 163.95 61.4698 163.855C60.5082 163.754 59.8679 163.636 59.8679 163.636C59.8679 163.636 60.5082 163.52 61.4698 163.419C62.4314 163.326 63.712 163.26 64.9926 163.258C66.2732 163.26 67.5539 163.324 68.5155 163.419C69.4771 163.52 70.1174 163.636 70.1174 163.636C70.1174 163.636 69.4771 163.754 68.5155 163.855ZM61.4698 166.427C60.5082 166.329 59.8679 166.21 59.8679 166.21C59.8679 166.21 60.5082 166.094 61.4698 165.994C62.4314 165.898 63.712 165.834 64.9926 165.832C66.2732 165.834 67.5539 165.896 68.5155 165.994C69.4771 166.094 70.1174 166.21 70.1174 166.21C70.1174 166.21 69.4771 166.329 68.5155 166.429C67.5539 166.525 66.2732 166.588 64.9926 166.588C63.712 166.586 62.4314 166.522 61.4698 166.427ZM23.017 157.717C23.0284 157.214 23.0398 156.631 23.1651 156.027C23.2152 155.719 23.2676 155.4 23.3223 155.068C23.4157 154.744 23.5114 154.412 23.6094 154.068C23.7803 153.366 24.113 152.683 24.4206 151.958C24.8149 151.279 25.1544 150.527 25.6762 149.878C26.1365 149.188 26.7221 148.577 27.2804 147.944C27.9116 147.386 28.5223 146.8 29.215 146.338C29.8599 145.814 30.6164 145.479 31.2931 145.085C32.0178 144.777 32.7014 144.442 33.4032 144.272C33.7473 144.174 34.0823 144.078 34.4059 143.985C34.7363 143.93 35.0575 143.877 35.3652 143.827C35.9736 143.702 36.5455 143.693 37.0445 143.682C37.5436 143.647 37.9765 143.672 38.3343 143.72C39.0475 143.791 39.4417 143.85 39.4417 143.85C39.4417 143.85 39.0429 143.953 38.3593 144.096C38.0175 144.149 37.6096 144.258 37.1493 144.397C36.6868 144.527 36.1718 144.666 35.6272 144.88C35.356 144.98 35.0735 145.085 34.7818 145.192C34.4993 145.32 34.2076 145.454 33.9068 145.591C33.2938 145.83 32.7241 146.235 32.0884 146.547C31.5005 146.948 30.8784 147.331 30.3042 147.805C29.6958 148.231 29.1717 148.773 28.6157 149.279C28.1098 149.833 27.5652 150.361 27.1391 150.967C26.6651 151.539 26.2823 152.163 25.8813 152.751C25.5714 153.386 25.1612 153.956 24.9242 154.569C24.7875 154.87 24.6531 155.161 24.5255 155.444C24.4161 155.735 24.3136 156.018 24.2133 156.289C23.9968 156.836 23.8624 157.341 23.7325 157.799C23.5935 158.253 23.4841 158.667 23.4294 159.018C23.2858 159.711 23.1856 160.102 23.1856 160.102C23.1856 160.102 23.1286 159.702 23.0557 159C23.0079 158.649 22.9828 158.223 23.017 157.717V157.717ZM59.8679 168.785C59.8679 168.785 60.5082 168.668 61.4698 168.568C62.4314 168.472 63.712 168.409 64.9926 168.406C66.2732 168.409 67.5539 168.47 68.5155 168.568C69.4771 168.666 70.1174 168.785 70.1174 168.785C70.1174 168.785 69.4771 168.903 68.5155 169.003C67.5539 169.099 66.2732 169.16 64.9926 169.163C63.712 169.16 62.4314 169.097 61.4698 169.001C60.5082 168.901 59.8679 168.785 59.8679 168.785ZM96.2174 150.156C100.13 150.206 103.391 150.322 105.672 150.368C107.955 150.439 109.258 150.48 109.258 150.48C109.258 150.48 107.955 150.521 105.672 150.593C103.391 150.639 100.13 150.755 96.2174 150.805C92.3049 150.853 87.7407 150.963 82.8506 150.983C77.9606 151.006 72.7447 151.031 67.5265 151.058C62.3106 151.031 57.0947 151.006 52.2046 150.981C49.7596 150.953 47.3943 150.926 45.1544 150.901C44.0424 150.899 42.9167 150.83 41.9187 150.894C40.9069 150.972 39.9225 151.147 39.0384 151.491C37.2405 152.118 35.8118 153.22 34.7544 154.35C33.6971 155.501 33.0409 156.731 32.6558 157.788C32.2616 158.849 32.1043 159.729 32.0291 160.335C31.979 160.945 31.9517 161.269 31.9517 161.269C31.9517 161.269 31.9562 160.943 31.9676 160.333C32.0064 159.724 32.0907 158.813 32.4439 157.715C32.7834 156.617 33.3918 155.318 34.4309 154.07C35.4677 152.84 36.9124 151.598 38.8082 150.885C39.7379 150.493 40.7793 150.27 41.8594 150.154C42.9669 150.056 44.0219 150.095 45.1544 150.06C47.3943 150.035 49.7596 150.008 52.2046 149.981C57.0947 149.956 62.3106 149.928 67.5265 149.903C72.7447 149.928 77.9606 149.956 82.8506 149.978C87.7407 149.999 92.3049 150.108 96.2174 150.156V150.156ZM28.4129 80.62C28.2055 77.7359 28.0757 74.7652 28.0871 71.7466C28.16 68.7213 28.1212 65.648 28.3924 62.5771C28.561 59.5016 28.9962 56.4443 29.4041 53.4394C29.6889 51.9449 29.9715 50.4641 30.2495 48.9993C30.5868 47.5458 30.9809 46.1242 31.3364 44.7186C31.7215 43.3198 32.2137 41.9735 32.6512 40.6499C33.1184 39.3308 33.7063 38.0869 34.2053 36.8544C34.7636 35.6425 35.3879 34.4988 35.9599 33.3848C36.6321 32.3209 37.2519 31.2775 37.915 30.3207C39.2799 28.4298 40.6699 26.7964 42.0782 25.5343C42.4245 25.2154 42.7618 24.9078 43.0853 24.6094C43.434 24.3405 43.7712 24.0786 44.0925 23.8303C44.7237 23.3131 45.3526 22.9099 45.9246 22.5499C46.4783 22.1695 47.0184 21.8915 47.4878 21.6591C47.9503 21.4131 48.3445 21.2172 48.6818 21.0919C49.3426 20.8163 49.6935 20.6682 49.6935 20.6682C49.6935 20.6682 49.3608 20.855 48.7365 21.2058C48.4175 21.3698 48.0461 21.609 47.6222 21.9006C47.1916 22.1877 46.6971 22.502 46.1821 22.9212C45.6534 23.3199 45.0723 23.7642 44.5027 24.3224C44.211 24.5889 43.9056 24.8713 43.5912 25.1607C43.3018 25.4773 43.001 25.8032 42.6911 26.1403C41.4378 27.4776 40.2438 29.1702 39.0293 31.0543C38.4459 32.0134 37.9104 33.059 37.3294 34.1161C36.8463 35.2301 36.2789 36.3464 35.7981 37.5402C35.3674 38.7567 34.8548 39.9755 34.4605 41.2718C34.1051 42.5795 33.6448 43.8848 33.3144 45.254C33.0067 46.63 32.6581 48.0197 32.3687 49.4412C32.1248 50.8719 31.8765 52.3231 31.6281 53.7834C31.2544 56.7268 30.8556 59.718 30.7166 62.7388C30.4295 65.746 30.4364 68.7782 30.3361 71.7557C30.3247 74.7378 30.3179 77.6789 30.4637 80.5016C30.6916 86.1719 31.284 91.4412 32.1021 95.9041C32.9247 100.367 33.9501 104.028 34.8707 106.523C35.3287 107.769 35.6933 108.755 35.9827 109.407C36.263 110.065 36.4111 110.418 36.4111 110.418C36.4111 110.418 36.2242 110.086 35.8688 109.464C35.5133 108.842 35.0074 107.915 34.4514 106.693C33.8772 105.481 33.2619 103.971 32.6171 102.21C31.9927 100.447 31.3273 98.4329 30.7941 96.1866C30.2381 93.9472 29.7163 91.4982 29.3358 88.8806C28.9302 86.2699 28.5998 83.4973 28.4129 80.62V80.62ZM114.132 83.3994L113.782 76.0045H198.624V83.3994H114.132ZM45.4051 83.3994C45.2478 81.0141 45.1407 78.5469 45.0951 76.0045H110.24L109.892 83.3994H45.4051ZM198.624 22.6593V34.6606L67.4764 35.9067L198.624 37.1529V57.1755H112.893L112.011 38.5289L111.131 57.1755H45.9041C47.0024 46.6436 49.2743 35.2689 53.262 23.3268C54.7044 22.8848 56.2037 22.6593 57.7601 22.6593H198.624ZM202.122 31.3162V22.6593H216.691V31.3162H202.122ZM202.122 43.8256V37.1848L216.691 37.3237V43.8256H202.122ZM202.122 56.3349V47.3886H216.691V56.3349H202.122ZM202.122 81.3513V76.0045H216.691V81.3513H202.122ZM214.349 120.957C213 121.089 211.204 121.176 209.407 121.18C207.609 121.176 205.813 121.089 204.464 120.957C203.117 120.834 202.217 120.659 202.217 120.659C202.217 120.659 203.117 120.483 204.464 120.362C205.813 120.228 207.609 120.144 209.407 120.139C211.204 120.144 213 120.23 214.349 120.362C215.698 120.485 216.596 120.659 216.596 120.659C216.596 120.659 215.698 120.834 214.349 120.957ZM214.349 108.448C213 108.58 211.204 108.666 209.407 108.671C207.609 108.666 205.813 108.582 204.464 108.45C203.117 108.325 202.217 108.151 202.217 108.151C202.217 108.151 203.117 107.976 204.464 107.853C205.813 107.721 207.609 107.634 209.407 107.632C211.204 107.634 213 107.723 214.349 107.853C215.698 107.976 216.596 108.151 216.596 108.151C216.596 108.151 215.698 108.325 214.349 108.448V108.448ZM214.349 95.9383C213 96.0705 211.204 96.157 209.407 96.1616C207.609 96.1593 205.813 96.0727 204.464 95.9406C203.117 95.8176 202.217 95.6422 202.217 95.6422C202.217 95.6422 203.117 95.4667 204.464 95.3437C205.813 95.2116 207.609 95.125 209.407 95.1227C211.204 95.1273 213 95.2139 214.349 95.346C215.698 95.469 216.596 95.6422 216.596 95.6422C216.596 95.6422 215.698 95.8153 214.349 95.9383V95.9383ZM202.217 83.1328C202.217 83.1328 203.117 82.9597 204.464 82.8344C205.813 82.7023 207.609 82.618 209.407 82.6134C211.204 82.618 213 82.7045 214.349 82.8367C215.698 82.9597 216.596 83.1328 216.596 83.1328C216.596 83.1328 215.698 83.3059 214.349 83.4312C213 83.5611 211.204 83.6499 209.407 83.6522C207.609 83.6499 205.813 83.5634 204.464 83.4312C203.117 83.3082 202.217 83.1328 202.217 83.1328V83.1328ZM216.691 142.841V143.896H202.122V142.841H216.691ZM202.122 135.765V134.949H216.691V135.795C211.815 135.783 206.959 135.774 202.122 135.765ZM216.691 9.86289V14.5012C212.337 14.5012 207.438 14.5012 202.122 14.5012V9.86289H216.691ZM237.466 22.6593H417.175C417.879 22.6593 418.567 22.7207 419.248 22.8119C420.358 26.097 421.338 29.3411 422.199 32.5373L220.189 34.4555V22.6593H237.466ZM361.069 76.0045L360.736 83.3994H220.189V76.0045H361.069ZM361.914 57.1755H220.189V37.3579L362.744 38.7112L361.914 57.1755ZM426.777 57.1755H363.931L363.102 38.7157L423.858 39.292C425.237 45.4749 426.18 51.4505 426.777 57.1755ZM427.276 83.3994H365.111L364.779 76.0045H427.586C427.54 78.5469 427.433 81.0141 427.276 83.3994V83.3994ZM430.453 143.985C430.785 143.93 431.107 143.877 431.414 143.827C432.02 143.702 432.592 143.693 433.094 143.682C433.593 143.647 434.026 143.672 434.383 143.72C435.097 143.791 435.491 143.85 435.491 143.85C435.491 143.85 435.09 143.953 434.408 144.096C434.067 144.149 433.659 144.258 433.198 144.397C432.736 144.527 432.219 144.666 431.676 144.88C431.405 144.98 431.123 145.085 430.831 145.192C430.548 145.32 430.257 145.454 429.956 145.591C429.343 145.83 428.773 146.235 428.137 146.547C427.55 146.948 426.927 147.331 426.353 147.805C425.765 148.217 425.257 148.737 424.724 149.227H422.229C422.582 148.791 422.956 148.368 423.329 147.944C423.961 147.386 424.571 146.8 425.264 146.338C425.909 145.814 426.665 145.479 427.342 145.085C428.067 144.777 428.75 144.442 429.452 144.272C429.796 144.174 430.129 144.078 430.453 143.985V143.985ZM401.563 168.785C401.563 168.785 402.204 168.668 403.165 168.568C404.127 168.472 405.408 168.409 406.688 168.406C407.969 168.409 409.252 168.47 410.211 168.568C411.173 168.666 411.813 168.785 411.813 168.785C411.813 168.785 411.173 168.903 410.211 169.003C409.252 169.099 407.969 169.16 406.688 169.163C405.408 169.16 404.127 169.097 403.165 169.001C402.204 168.901 401.563 168.785 401.563 168.785ZM411.813 166.21C411.813 166.21 411.173 166.329 410.211 166.429C409.252 166.525 407.969 166.588 406.688 166.588C405.408 166.586 404.127 166.522 403.165 166.427C402.204 166.329 401.563 166.21 401.563 166.21C401.563 166.21 402.204 166.094 403.165 165.994C404.127 165.898 405.408 165.834 406.688 165.832C407.969 165.834 409.252 165.896 410.211 165.994C411.173 166.094 411.813 166.21 411.813 166.21ZM410.211 163.855C409.252 163.95 407.969 164.012 406.688 164.016C405.408 164.012 404.127 163.95 403.165 163.855C402.204 163.754 401.563 163.636 401.563 163.636C401.563 163.636 402.204 163.52 403.165 163.419C404.127 163.326 405.408 163.26 406.688 163.258C407.969 163.26 409.252 163.324 410.211 163.419C411.173 163.52 411.813 163.636 411.813 163.636C411.813 163.636 411.173 163.754 410.211 163.855ZM391.995 163.855C391.036 163.95 389.753 164.012 388.472 164.016C387.192 164.012 385.911 163.95 384.95 163.855C383.988 163.754 383.348 163.636 383.348 163.636C383.348 163.636 383.988 163.52 384.95 163.419C385.911 163.326 387.192 163.26 388.472 163.258C389.753 163.26 391.036 163.324 391.995 163.419C392.957 163.52 393.597 163.636 393.597 163.636C393.597 163.636 392.957 163.754 391.995 163.855ZM384.95 166.427C383.988 166.329 383.348 166.21 383.348 166.21C383.348 166.21 383.988 166.094 384.95 165.994C385.911 165.898 387.192 165.834 388.472 165.832C389.753 165.834 391.036 165.896 391.995 165.994C392.957 166.094 393.597 166.21 393.597 166.21C393.597 166.21 392.957 166.329 391.995 166.429C391.036 166.525 389.753 166.588 388.472 166.588C387.192 166.586 385.911 166.522 384.95 166.427ZM357.883 143.985C358.216 143.93 358.537 143.877 358.845 143.827C359.453 143.702 360.025 143.693 360.524 143.682C361.023 143.647 361.456 143.672 361.814 143.72C362.527 143.791 362.924 143.85 362.924 143.85C362.924 143.85 362.523 143.953 361.839 144.096C361.497 144.149 361.089 144.258 360.629 144.397C360.167 144.527 359.652 144.666 359.109 144.88C358.836 144.98 358.553 145.085 358.262 145.192C357.979 145.32 357.687 145.454 357.387 145.591C356.776 145.83 356.204 146.235 355.568 146.547C354.98 146.948 354.358 147.331 353.784 147.805C353.176 148.231 352.651 148.773 352.095 149.279C351.59 149.833 351.047 150.361 350.619 150.967C350.145 151.539 349.762 152.163 349.361 152.751C349.051 153.386 348.641 153.956 348.404 154.569C348.267 154.87 348.133 155.161 348.005 155.444C347.898 155.735 347.793 156.018 347.693 156.289C347.477 156.836 347.342 157.341 347.212 157.799C347.073 158.253 346.964 158.667 346.909 159.018C346.766 159.711 346.668 160.102 346.668 160.102C346.668 160.102 346.608 159.702 346.535 159C346.488 158.649 346.463 158.223 346.497 157.717C346.508 157.214 346.52 156.631 346.645 156.027C346.695 155.719 346.747 155.4 346.802 155.068C346.896 154.744 346.991 154.412 347.089 154.068C347.262 153.366 347.593 152.683 347.9 151.958C348.295 151.279 348.634 150.527 349.156 149.878C349.616 149.188 350.202 148.577 350.76 147.944C351.394 147.386 352.002 146.8 352.695 146.338C353.34 145.814 354.096 145.479 354.773 145.085C355.5 144.777 356.181 144.442 356.883 144.272C357.227 144.174 357.562 144.078 357.883 143.985V143.985ZM383.348 168.785C383.348 168.785 383.988 168.668 384.95 168.568C385.911 168.472 387.192 168.409 388.472 168.406C389.753 168.409 391.036 168.47 391.995 168.568C392.957 168.666 393.597 168.785 393.597 168.785C393.597 168.785 392.957 168.903 391.995 169.003C391.036 169.099 389.753 169.16 388.472 169.163C387.192 169.16 385.911 169.097 384.95 169.001C383.988 168.901 383.348 168.785 383.348 168.785ZM419.697 150.156C423.61 150.206 426.87 150.322 429.154 150.368C431.435 150.439 432.738 150.48 432.738 150.48C432.738 150.48 431.435 150.521 429.154 150.593C426.87 150.639 423.61 150.755 419.697 150.805C415.785 150.853 411.22 150.963 406.33 150.983C401.44 151.006 396.224 151.031 391.006 151.058C385.79 151.031 380.574 151.006 375.684 150.981C373.239 150.953 370.874 150.926 368.634 150.901C367.524 150.899 366.396 150.83 365.398 150.894C364.387 150.972 363.405 151.147 362.518 151.491C360.72 152.118 359.292 153.22 358.234 154.35C357.177 155.501 356.521 156.731 356.136 157.788C355.744 158.849 355.584 159.729 355.509 160.335C355.459 160.945 355.431 161.269 355.431 161.269C355.431 161.269 355.436 160.943 355.447 160.333C355.486 159.724 355.57 158.813 355.924 157.715C356.263 156.617 356.872 155.318 357.911 154.07C358.947 152.84 360.392 151.598 362.288 150.885C363.218 150.493 364.259 150.27 365.341 150.154C366.447 150.056 367.504 150.095 368.634 150.06C370.874 150.035 373.239 150.008 375.684 149.981C380.574 149.956 385.79 149.928 391.006 149.903C396.224 149.928 401.44 149.956 406.33 149.978C411.22 149.999 415.785 150.108 419.697 150.156V150.156ZM78.0335 13.426C78.0609 12.968 78.1611 12.2823 78.4528 11.4599C78.7672 10.6466 79.2982 9.70566 80.1254 8.80124C80.9457 7.89681 82.06 7.03576 83.4249 6.38649C84.7853 5.73038 86.3803 5.26782 88.1053 5.09468C89.8531 4.97166 91.5985 5.00133 93.4557 4.97855C97.1471 4.95804 101.085 4.93525 105.022 4.91247C108.96 4.93525 112.897 4.95804 116.589 4.97855C120.278 4.99449 123.723 5.08793 126.677 5.12894C132.583 5.24968 136.521 5.40915 136.521 5.40915C136.521 5.40915 132.583 5.57089 126.677 5.68936C123.723 5.73036 120.278 5.82603 116.589 5.84198C112.897 5.86248 108.96 5.88527 105.022 5.90805C101.085 5.88527 97.1471 5.86248 93.4557 5.84198C91.6236 5.8602 89.7961 5.75544 88.1623 5.81695C86.5171 5.92402 84.979 6.31358 83.6596 6.89451C82.3402 7.47772 81.2305 8.23634 80.3897 9.05875C79.5488 9.88117 78.9814 10.7582 78.6305 11.5328C78.3092 12.321 78.1452 12.9703 78.0882 13.4305C78.0404 13.8884 78.0153 14.1344 78.0153 14.1344C78.0153 14.1344 78.0221 13.8884 78.0335 13.426V13.426ZM328.723 13.426C328.748 12.968 328.848 12.2823 329.142 11.4599C329.454 10.6466 329.988 9.70566 330.813 8.80124C331.635 7.89681 332.749 7.03576 334.114 6.38649C335.472 5.73038 337.068 5.26782 338.795 5.09468C340.542 4.97166 342.286 5.00133 344.145 4.97855C347.834 4.95804 351.772 4.93525 355.709 4.91247C359.647 4.93525 363.585 4.95804 367.276 4.97855C370.967 4.99449 374.413 5.08793 377.366 5.12894C383.272 5.24968 387.21 5.40915 387.21 5.40915C387.21 5.40915 383.272 5.57089 377.366 5.68936C374.413 5.73036 370.967 5.82603 367.276 5.84198C363.585 5.86248 359.647 5.88527 355.709 5.90805C351.772 5.88527 347.834 5.86248 344.145 5.84198C342.311 5.8602 340.486 5.75544 338.852 5.81695C337.204 5.92402 335.668 6.31358 334.347 6.89451C333.03 7.47772 331.918 8.23634 331.079 9.05875C330.238 9.88117 329.671 10.7582 329.32 11.5328C328.996 12.321 328.835 12.9703 328.775 13.4305C328.728 13.8884 328.703 14.1344 328.703 14.1344C328.703 14.1344 328.709 13.8884 328.723 13.426V13.426ZM471.387 135.59C470.27 135.59 469.275 137.048 468.623 139.323H458.588V130.801H420.495C428.589 129.703 434.68 124.625 439.205 117.774C439.21 117.77 439.212 117.763 439.216 117.758C440.584 115.685 441.81 113.457 442.903 111.124C442.937 111.052 442.972 110.979 443.006 110.906C443.263 110.352 443.514 109.794 443.758 109.231C443.769 109.204 443.781 109.177 443.792 109.149C444.526 107.434 445.196 105.68 445.804 103.903C445.85 103.771 445.895 103.641 445.941 103.509C446.116 102.987 446.285 102.465 446.451 101.941C446.506 101.77 446.558 101.597 446.611 101.424C447.121 99.7701 447.584 98.1117 447.996 96.4623C448.039 96.2914 448.085 96.1183 448.126 95.9474C448.242 95.4736 448.352 95.0042 448.461 94.5327C448.516 94.2912 448.57 94.0497 448.625 93.8082C448.725 93.3526 448.826 92.8993 448.919 92.4459C448.967 92.2204 449.01 91.9971 449.056 91.7739C449.265 90.7396 449.461 89.7144 449.637 88.7075C449.641 88.6801 449.646 88.6505 449.653 88.6232C449.73 88.1721 449.801 87.7324 449.872 87.2882C449.908 87.0604 449.944 86.8326 449.981 86.6047C450.047 86.1765 450.109 85.7527 450.17 85.3312C450.2 85.1194 450.227 84.9143 450.257 84.7047C450.901 79.989 451.175 75.8131 451.175 72.774C451.175 72.3002 451.168 71.7967 451.154 71.2682C451.154 71.2295 451.152 71.1862 451.15 71.1475C451.136 70.6531 451.118 70.1428 451.093 69.6051C451.093 69.5846 451.091 69.5619 451.088 69.5414C450.245 52.2844 442.817 14.5012 417.175 14.5012C413.289 14.5012 406.889 14.5012 398.77 14.5012C398.28 8.54153 393.296 3.85538 387.21 3.85538H338.635C332.549 3.85538 327.565 8.54153 327.075 14.5012C281.894 14.5012 237.466 14.5012 237.466 14.5012C237.466 14.5012 230.867 14.5012 220.189 14.5012V0.520244H216.691V6.29983H202.122V0.520244H198.624V14.5012C183.646 14.5012 165.815 14.5012 147.859 14.5012C147.369 8.54153 142.386 3.85538 136.297 3.85538H87.7248C81.6384 3.85538 76.6549 8.54153 76.165 14.5012C68.0461 14.5012 61.6452 14.5012 57.7601 14.5012C32.1158 14.5012 24.6895 52.2844 23.8441 69.5414C23.8441 69.5619 23.8418 69.5846 23.8418 69.6051C23.8145 70.1428 23.7963 70.6531 23.7826 71.1475C23.7826 71.1862 23.7803 71.2295 23.7803 71.2682C23.7666 71.7967 23.7598 72.3002 23.7598 72.774C23.7598 75.5306 23.9808 79.2212 24.5049 83.3994V83.4016C24.5573 83.8254 24.6166 84.2582 24.6758 84.6911C24.7054 84.9052 24.7351 85.1194 24.7647 85.3381C24.8263 85.755 24.8878 86.1742 24.9539 86.5979C24.9881 86.8326 25.0268 87.0672 25.0655 87.3041C25.1362 87.7392 25.2045 88.1721 25.282 88.614C25.2957 88.6938 25.3116 88.7758 25.3253 88.8555C25.4916 89.8078 25.6739 90.7714 25.8721 91.7465C25.92 91.9834 25.9656 92.2158 26.0157 92.4527C26.1091 92.9015 26.2094 93.3526 26.3097 93.806C26.3644 94.0497 26.4191 94.2935 26.476 94.5372C26.5831 95.0065 26.6925 95.4736 26.8064 95.9429C26.8497 96.1206 26.8976 96.3005 26.9432 96.4782C27.3533 98.1208 27.8113 99.7679 28.3194 101.413C28.3741 101.593 28.4289 101.77 28.4858 101.948C28.6499 102.467 28.8185 102.985 28.9917 103.502C29.0373 103.638 29.0874 103.775 29.1329 103.914C29.7391 105.68 30.4045 107.425 31.1359 109.131C31.1496 109.165 31.1655 109.202 31.1792 109.236C31.4207 109.796 31.6714 110.35 31.9266 110.901C31.9608 110.976 31.9972 111.054 32.0337 111.131C33.1275 113.46 34.3512 115.685 35.7161 117.754C35.7207 117.763 35.7252 117.77 35.7297 117.777C40.2552 124.627 46.3461 129.703 54.44 130.801H16.3473V139.323H6.30966C5.66024 137.048 4.66443 135.59 3.54787 135.59C1.5882 135.59 0 140.062 0 145.577C0 151.092 1.5882 155.564 3.54787 155.564C4.66443 155.564 5.66024 154.104 6.30966 151.83H17.899C16.9101 154.403 16.3473 157.184 16.3473 160.102C16.3473 172.858 26.6879 183.196 39.4417 183.196C47.2758 183.196 54.1871 179.287 58.3616 173.325V176.154C58.3616 178.649 60.3851 180.67 62.8803 180.67H71.5643C73.385 180.67 74.9436 179.587 75.6591 178.038C76.3587 179.628 77.9424 180.743 79.7927 180.743H88.4767C90.9719 180.743 92.9954 178.722 92.9954 176.227V173.195C97.1608 179.232 104.12 183.196 112.011 183.196C124.767 183.196 135.108 172.858 135.108 160.102C135.108 153.227 132.084 147.069 127.312 142.841H146.882C146.645 143.748 146.506 144.695 146.506 145.677C146.506 151.908 151.576 156.977 157.808 156.977C164.04 156.977 169.11 151.908 169.11 145.677C169.11 144.695 168.971 143.748 168.737 142.841H198.624V165.217H202.122V159.966H216.691V165.217H220.189V142.841H347.62C342.851 147.069 339.827 153.227 339.827 160.102C339.827 172.858 350.168 183.196 362.924 183.196C370.756 183.196 377.667 179.287 381.841 173.325V176.154C381.841 178.649 383.865 180.67 386.36 180.67H395.044C396.865 180.67 398.423 179.587 399.139 178.038C399.838 179.628 401.422 180.743 403.272 180.743H411.956C414.452 180.743 416.475 178.722 416.475 176.227V173.195C420.641 179.232 427.6 183.196 435.491 183.196C448.247 183.196 458.588 172.858 458.588 160.102C458.588 157.184 458.025 154.403 457.036 151.83H468.623C469.275 154.104 470.27 155.564 471.387 155.564C473.347 155.564 474.935 151.092 474.935 145.577C474.935 140.062 473.347 135.59 471.387 135.59" fill="#FFEB85"/>
</svg>
