<svg width="255" height="380" viewBox="0 0 255 380" fill="none" xmlns="http://www.w3.org/2000/svg">
<path d="M154.39 306.145V298.891H179.362L165.316 331.569L154.39 306.145ZM180.864 375.038C178.088 374.997 175.272 374.957 172.405 374.922C166.554 374.869 160.51 374.77 154.39 374.745V364.29L165.316 338.866L180.864 375.038ZM100.187 374.812V350.254L105.084 338.866L115.477 363.044V374.713C113.839 374.719 112.191 374.724 110.562 374.731C107.071 374.735 103.609 374.771 100.187 374.812ZM89.5774 374.94L90.3088 373.236H97.1563V374.847C94.8867 374.876 92.608 374.906 90.384 374.926C90.1129 374.932 89.8485 374.936 89.5774 374.94ZM82.6114 295.508C80.515 297.985 77.5596 301.563 73.9342 305.785C70.302 310.004 66.1069 314.961 61.5268 320.199C56.9375 325.427 52.0406 331.006 47.146 336.583C42.1967 342.115 37.2337 347.63 32.5191 352.758C30.1493 355.326 27.8592 357.756 25.6489 360.073C23.4408 362.381 21.2533 364.532 18.9176 366.147C16.6025 367.789 14.1483 368.787 11.9289 369.323C10.8283 369.639 9.76188 369.755 8.79343 369.933C7.8136 370.024 6.91807 370.145 6.10458 370.184C4.47532 370.279 3.19927 370.284 2.32881 370.256C1.45835 370.247 0.993503 370.241 0.993503 370.241C0.993503 370.241 1.45835 370.218 2.32653 370.173C3.19699 370.149 4.4662 370.044 6.07723 369.885C6.88389 369.808 7.76574 369.646 8.72734 369.511C9.673 369.288 10.7166 369.129 11.7762 368.769C13.9159 368.131 16.2197 367.074 18.414 365.443C20.6175 363.823 22.698 361.666 24.8263 359.308C26.9409 356.939 29.199 354.417 31.5438 351.865C36.2037 346.712 41.1006 341.135 46.018 335.581C50.9628 330.049 55.9098 324.518 60.5446 319.333C65.2114 314.171 69.5659 309.355 73.2984 305.227C77.0628 301.126 80.1983 297.707 82.3927 295.314C84.6075 292.938 85.8722 291.578 85.8722 291.578C85.8722 291.578 84.6873 293.007 82.6114 295.508V295.508ZM120.918 124.401C121.761 124.337 122.962 124.2 124.405 124.114C127.29 123.922 131.134 123.797 134.98 123.79C138.824 123.795 142.671 123.92 145.555 124.111C146.998 124.198 148.199 124.335 149.04 124.401C149.883 124.48 150.361 124.549 150.361 124.549C150.361 124.549 149.883 124.615 149.04 124.695C148.199 124.761 146.998 124.897 145.555 124.984C142.671 125.175 138.824 125.301 134.98 125.305C131.134 125.301 127.29 125.173 124.405 124.982C122.962 124.895 121.761 124.758 120.918 124.695C120.078 124.615 119.597 124.549 119.597 124.549C119.597 124.549 120.078 124.48 120.918 124.401V124.401ZM120.918 121.464C121.761 121.4 122.962 121.264 124.405 121.177C127.29 120.986 131.134 120.858 134.98 120.854C138.824 120.858 142.671 120.984 145.555 121.175C146.998 121.261 148.199 121.398 149.04 121.464C149.883 121.544 150.361 121.612 150.361 121.612C150.361 121.612 149.883 121.678 149.04 121.758C148.199 121.824 146.998 121.961 145.555 122.045C142.671 122.239 138.824 122.364 134.98 122.369C131.134 122.364 127.29 122.236 124.405 122.045C122.962 121.959 121.761 121.822 120.918 121.758C120.078 121.678 119.597 121.612 119.597 121.612C119.597 121.612 120.078 121.544 120.918 121.464V121.464ZM122.992 112.989H129.823L133.159 118.487V118.489H122.992V112.989ZM122.992 108.727H127.235L128.443 110.716H122.992V108.727ZM122.992 101.738L125.856 106.453H122.992V101.738ZM127.351 17.061L133.226 28.1898L123.942 45.7817L127.351 17.061ZM128.759 4.01178C130.455 3.90699 132.717 3.81128 134.98 3.81584C137.243 3.81128 139.506 3.90471 141.201 4.01178C142.899 4.11885 144.029 4.26235 144.029 4.26235C144.029 4.26235 142.899 4.40589 141.201 4.51296C139.506 4.62004 137.243 4.71346 134.98 4.70663C132.717 4.71346 130.455 4.61776 128.759 4.51296C127.062 4.40361 125.931 4.26235 125.931 4.26235C125.931 4.26235 127.062 4.11885 128.759 4.01178V4.01178ZM129.931 2.31001C131.307 2.21433 133.144 2.12775 134.98 2.13231C136.817 2.12775 138.651 2.21205 140.027 2.30773C141.406 2.40569 142.324 2.53326 142.324 2.53326C142.324 2.53326 141.406 2.66312 140.027 2.76108C138.651 2.85676 136.817 2.94106 134.98 2.9365C133.144 2.94106 131.307 2.85448 129.931 2.7588C128.554 2.66312 127.636 2.53326 127.636 2.53326C127.636 2.53326 128.554 2.40569 129.931 2.31001V2.31001ZM128.714 12.646H141.151C141.251 12.646 141.344 12.6209 141.445 12.6164L134.932 24.9548L128.422 12.6164C128.52 12.6209 128.613 12.646 128.714 12.646V12.646ZM145.925 45.7839L136.639 28.1898L142.513 17.061L145.925 45.7839ZM144.011 106.453L146.873 101.738V106.453H144.011ZM146.873 110.716H141.422L142.63 108.727H146.873V110.716ZM136.498 112.989L134.932 115.568L133.369 112.989H136.498ZM139.084 108.727L137.876 110.716H131.988L130.781 108.727H139.084ZM144.15 100.382L140.465 106.453H129.4L125.715 100.382H144.15ZM123.983 52.1742L134.932 31.4271L145.881 52.1742H123.983ZM123.767 97.1745L134.932 78.9493L146.098 97.1745L145.988 97.3522H123.876L123.767 97.1745ZM133.164 76.0606L122.992 92.6615V59.4597L133.164 76.0606ZM134.932 73.1719L123.924 55.2041H145.941L134.932 73.1719ZM146.873 92.6615L136.701 76.0606L146.873 59.4597V92.6615ZM146.873 118.489H136.705V118.487L140.041 112.989H146.873V118.489ZM178.159 274.271C178.325 272.294 178.521 270.975 178.521 270.975C178.521 270.975 178.717 272.294 178.881 274.271C179.043 276.249 179.146 278.887 179.15 281.523C179.146 284.158 179.038 286.796 178.881 288.774C178.715 290.751 178.521 292.07 178.521 292.07C178.521 292.07 178.325 290.751 178.161 288.774C178.002 286.796 177.897 284.158 177.892 281.523C177.895 278.887 177.999 276.249 178.159 274.271V274.271ZM151.738 281.523C151.742 278.887 151.845 276.249 152.006 274.271C152.171 272.294 152.367 270.975 152.367 270.975C152.367 270.975 152.562 272.294 152.729 274.271C152.888 276.249 152.993 278.887 152.995 281.523C152.991 284.158 152.886 286.796 152.727 288.774C152.56 290.751 152.367 292.07 152.367 292.07C152.367 292.07 152.173 290.751 152.006 288.774C151.847 286.796 151.742 284.158 151.738 281.523V281.523ZM138.792 292.449L136.705 289.011L145.546 274.447V292.449H138.792ZM154.39 313.442L163.749 335.219L154.39 356.993V313.442ZM115.477 314.686V355.749L106.652 335.216L115.477 314.686ZM100.187 320.181V298.891H115.477V307.389L105.084 331.569L100.187 320.181ZM100.187 327.477L103.514 335.216L100.187 342.957V327.477ZM93.0774 366.794H97.1563V371.706H90.9673L93.0774 366.794ZM89.5751 366.794H89.9419L89.5751 367.648V366.794ZM97.1563 298.891V300.844H91.8765L91.038 298.891H97.1563ZM97.1563 333.054H89.5751V328.143H97.1563V333.054ZM97.1563 339.497H89.5751V334.585H97.1563V339.497ZM97.1563 350.013L96.1377 352.38H89.5751V347.468H97.1563V350.013ZM96.5046 358.823L97.1563 357.308V358.823H96.5046ZM89.5751 360.353H92.7105L90.6005 365.263H89.5751V360.353ZM89.5751 353.911H95.4792L93.3691 358.823H89.5751V353.911ZM89.5751 321.7H97.1563V326.612H89.5751V321.7ZM89.5751 315.26H94.9368L97.0469 320.169H89.5751V315.26ZM89.5751 308.817H92.1682L94.2783 313.729H89.5751V308.817ZM89.5751 302.787L91.5097 307.286H89.5751V302.787ZM97.1563 307.286H94.6451L92.5351 302.374H97.1563V307.286ZM97.1563 313.127L95.3037 308.817H97.1563V313.127ZM97.1563 365.263H93.736L95.846 360.353H97.1563V365.263ZM97.1563 345.937H89.5751V341.026H97.1563V345.937ZM97.3317 274.271C97.4958 272.294 97.6917 270.975 97.6917 270.975C97.6917 270.975 97.8877 272.294 98.054 274.271C98.2136 276.249 98.3184 278.887 98.3207 281.523C98.3161 284.158 98.2113 286.796 98.0518 288.774C97.8854 290.751 97.6917 292.07 97.6917 292.07C97.6917 292.07 97.4981 290.751 97.3317 288.774C97.1722 286.796 97.0674 284.158 97.0628 281.523C97.0674 278.887 97.1699 276.249 97.3317 274.271ZM104.86 281.523C104.856 284.158 104.751 286.796 104.589 288.774C104.425 290.751 104.232 292.07 104.232 292.07C104.232 292.07 104.036 290.751 103.872 288.774C103.712 286.796 103.607 284.158 103.6 281.523C103.605 278.887 103.71 276.249 103.869 274.271C104.036 272.294 104.232 270.975 104.232 270.975C104.232 270.975 104.425 272.294 104.592 274.271C104.751 276.249 104.856 278.887 104.86 281.523ZM111.398 281.523C111.393 284.158 111.289 286.796 111.129 288.774C110.963 290.751 110.769 292.07 110.769 292.07C110.769 292.07 110.575 290.751 110.409 288.774C110.25 286.796 110.145 284.158 110.14 281.523C110.145 278.887 110.247 276.249 110.407 274.271C110.573 272.294 110.769 270.975 110.769 270.975C110.769 270.975 110.965 272.294 111.131 274.271C111.291 276.249 111.393 278.887 111.398 281.523ZM136.562 275.417L137.765 271.909C138.694 271.752 139.745 271.193 140.226 270.063H144.66L136.094 284.174L136.562 275.417ZM124.32 274.447L133.159 289.011L131.072 292.449H124.32V274.447ZM140.492 258.459L145.695 267.031H140.492V258.459ZM129.641 270.063C130.122 271.193 131.17 271.752 132.1 271.909L133.303 275.417L133.77 284.174L125.205 270.063H129.641ZM133.795 156.324L126.663 144.574L126.715 142.166H133.795V156.324ZM142.527 145.685L136.069 156.324V142.166H142.463L142.527 145.685ZM141.244 251.367C141.796 250.353 142.418 249.202 142.418 246.822C142.418 243.671 141.575 241.657 140.34 240.391L144.088 234.217L144.25 243.439L144.423 233.665L146.873 229.631V263.129L140.624 252.836C140.757 252.298 140.978 251.859 141.244 251.367V251.367ZM132.663 270.442C132.494 270.439 131.952 270.394 131.51 270.063H134.932C134.932 272.487 134.932 274.517 134.932 275.495L133.198 270.448L132.663 270.442ZM124.53 175.336L122.992 177.869V144.369L123.899 145.861L124.53 175.336ZM126.057 172.818L126.542 150.214L133.159 161.118L126.057 172.818ZM142.981 171.458L136.705 161.118L142.627 151.363L142.981 171.458ZM145.448 175.522L145.97 145.852L146.873 144.369V177.869L145.448 175.522ZM145.198 189.759L146.873 187V220.498L144.717 216.948L145.198 189.759ZM144.617 222.696V222.626L144.66 222.696H144.617ZM144.562 225.726H145.695L144.53 227.649L144.562 225.726ZM136.069 238.484V225.726H143.938L143.988 228.542L137.744 238.825C137.195 238.652 136.632 238.543 136.069 238.484ZM129.525 240.391C128.29 241.657 127.447 243.671 127.447 246.822C127.447 249.202 128.069 250.353 128.62 251.367C128.887 251.859 129.108 252.298 129.24 252.836L122.992 263.129V229.631L129.525 240.391ZM133.795 238.484C133.232 238.543 132.67 238.652 132.12 238.825L124.17 225.726H133.795V238.484ZM132.945 240.183C133.545 240.037 134.189 239.937 134.932 239.937C135.363 239.937 135.757 239.976 136.14 240.024C136.29 240.236 136.432 240.484 136.566 240.769L134.932 243.459L132.945 240.183ZM130.238 251.191C130.145 251.004 130.049 250.822 129.953 250.644C129.466 249.745 128.962 248.817 128.962 246.822C128.962 244.546 129.418 242.871 130.341 241.737L133.159 246.38L130.238 251.191ZM137.585 246.38C137.585 246.84 137.541 247.259 137.487 247.667L136.705 246.38L137.532 245.015C137.564 245.455 137.585 245.906 137.585 246.38ZM133.795 222.696H125.205L133.795 208.542V222.696ZM124.847 190.052L125.266 209.715L125.66 191.392L133.159 203.749L122.992 220.498V187L124.847 190.052ZM133.795 180.915H125.884L125.927 178.874L133.795 165.913V180.915ZM143.147 180.915H136.069V165.913L143.088 177.473L143.147 180.915ZM136.069 198.956V183.947H143.202L143.256 187.114L136.069 198.956ZM143.86 221.379L143.885 222.696H136.069V208.542L143.86 221.379ZM136.705 203.749L143.357 192.789L143.755 215.365L136.705 203.749ZM125.82 183.947H133.795V198.956L125.781 185.751L125.82 183.947ZM124.715 183.947L124.717 183.997L124.685 183.947H124.715ZM134.932 255.661C134.932 257.306 134.932 262.359 134.932 267.031H130.89V255.962L134.932 249.3L136.227 251.43C135.575 252.781 134.932 254.03 134.932 255.661ZM124.17 267.031L129.372 258.459V267.031H124.17ZM116.678 281.523C116.682 278.887 116.785 276.249 116.947 274.271C117.111 272.294 117.307 270.975 117.307 270.975C117.307 270.975 117.503 272.294 117.669 274.271C117.828 276.249 117.933 278.887 117.936 281.523C117.931 284.158 117.826 286.796 117.667 288.774C117.5 290.751 117.307 292.07 117.307 292.07C117.307 292.07 117.113 290.751 116.947 288.774C116.787 286.796 116.682 284.158 116.678 281.523ZM91.7831 281.523C91.7785 284.158 91.6737 286.796 91.5142 288.774C91.3479 290.751 91.1542 292.07 91.1542 292.07C91.1542 292.07 90.9605 290.751 90.7942 288.774C90.6347 286.796 90.5299 284.158 90.5253 281.523C90.5299 278.887 90.6324 276.249 90.7919 274.271C90.9582 272.294 91.1542 270.975 91.1542 270.975C91.1542 270.975 91.3502 272.294 91.5165 274.271C91.676 276.249 91.7785 278.887 91.7831 281.523ZM90.5868 267.031L119.961 140.111V267.031H90.5868ZM159.535 281.523C159.531 284.158 159.424 286.796 159.266 288.774C159.1 290.751 158.906 292.07 158.906 292.07C158.906 292.07 158.713 290.751 158.546 288.774C158.387 286.796 158.282 284.158 158.277 281.523C158.28 278.887 158.384 276.249 158.544 274.271C158.71 272.294 158.906 270.975 158.906 270.975C158.906 270.975 159.1 272.294 159.266 274.271C159.428 276.249 159.531 278.887 159.535 281.523V281.523ZM166.073 281.523C166.068 284.158 165.963 286.796 165.804 288.774C165.638 290.751 165.444 292.07 165.444 292.07C165.444 292.07 165.25 290.751 165.084 288.774C164.924 286.796 164.819 284.158 164.815 281.523C164.819 278.887 164.922 276.249 165.082 274.271C165.248 272.294 165.444 270.975 165.444 270.975C165.444 270.975 165.64 272.294 165.806 274.271C165.966 276.249 166.068 278.887 166.073 281.523V281.523ZM172.61 281.523C172.606 284.158 172.501 286.796 172.341 288.774C172.175 290.751 171.981 292.07 171.981 292.07C171.981 292.07 171.788 290.751 171.624 288.774C171.462 286.796 171.357 284.158 171.352 281.523C171.357 278.887 171.462 276.249 171.621 274.271C171.788 272.294 171.981 270.975 171.981 270.975C171.981 270.975 172.177 272.294 172.344 274.271C172.503 276.249 172.608 278.887 172.61 281.523ZM149.903 267.031V139.71H150.19L179.656 267.031H149.903ZM186.984 284.527V296.52L183.069 292.089V280.096L186.984 284.527ZM232.476 336L238.289 342.577V354.571L232.476 347.994V336ZM225.148 327.708L230.958 334.285V346.279L225.148 339.7V327.708ZM217.817 319.415L223.63 325.992V337.984L217.817 331.407V319.415ZM210.489 311.123L216.302 317.7V329.692L210.489 323.115V311.123ZM203.158 302.828L208.974 309.407V321.399L203.158 314.82V302.828ZM194.315 304.812L188.502 298.235V286.243L194.315 292.82V304.812ZM195.83 294.535L201.643 301.112V313.105L195.83 306.528V294.535ZM245.617 362.864L239.804 356.287V344.295L245.617 350.872V362.864ZM247.132 352.587L252.43 358.581L253.567 357.576L183.069 277.807V269.635C183.069 268.836 182.7 268.129 182.133 267.653L152.382 139.097C152.986 138.605 153.378 137.865 153.378 137.026V121.17C153.378 119.69 152.177 118.489 150.696 118.489H149.903V112.989H152.414C153.043 112.989 153.551 112.481 153.551 111.853C153.551 111.226 153.043 110.716 152.414 110.716H149.903V108.727H152.414C153.043 108.727 153.551 108.219 153.551 107.59C153.551 106.961 153.043 106.453 152.414 106.453H149.903V54.2108C149.903 54.0764 149.885 53.9421 149.88 53.8076C149.883 53.7666 149.903 53.7302 149.903 53.6892C149.903 53.6596 149.89 53.6345 149.887 53.6049C149.885 53.5525 149.869 53.5024 149.86 53.4477C149.849 53.2973 149.851 53.1447 149.833 52.9943L145.193 13.9217C145.132 13.4 145.022 12.8943 144.888 12.4022C144.993 11.9512 144.908 11.4841 144.628 11.1264C145.426 10.2721 145.925 9.13533 145.925 7.87324V4.7727C145.925 2.13688 143.787 -6.83071e-05 141.151 -6.83071e-05H128.714C126.077 -6.83071e-05 123.94 2.13688 123.94 4.7727V7.87324C123.94 9.13533 124.439 10.2721 125.236 11.1264C124.956 11.4841 124.872 11.9512 124.977 12.4C124.842 12.8943 124.733 13.3978 124.671 13.9195L120.032 52.9989C120.014 53.147 120.016 53.2973 120.005 53.4477C119.998 53.5024 119.98 53.5525 119.977 53.6049C119.975 53.6345 119.961 53.6596 119.961 53.6892C119.961 53.7302 119.982 53.7666 119.984 53.8076C119.98 53.9421 119.961 54.0764 119.961 54.2108V106.453H117.45C116.821 106.453 116.313 106.961 116.313 107.59C116.313 108.219 116.821 108.727 117.45 108.727H119.961V110.716H117.45C116.821 110.716 116.313 111.226 116.313 111.853C116.313 112.481 116.821 112.989 117.45 112.989H119.961V118.489H119.168C117.687 118.489 116.486 119.69 116.486 121.17V137.026C116.486 138.008 117.02 138.86 117.808 139.327L88.1053 267.674C87.3146 268.259 86.7951 269.191 86.7951 270.253V287.496C86.7951 287.496 40.3646 340.356 30.131 351.346C19.8975 362.335 16.108 368.967 0 368.967V376.925C14.4013 376.925 20.8454 373.136 36.386 356.273C48.422 343.21 75.1145 312.884 86.5421 299.869V374.99C83.45 375.04 80.417 375.088 77.4456 375.136V355.225H59.8861V375.485C58.9017 375.51 57.9355 375.535 56.9785 375.56V355.225H39.4167V376.089C27.2029 376.516 19.7083 376.925 19.7083 376.925C19.7083 376.925 33.6698 377.686 54.6109 378.224C59.8451 378.364 65.5167 378.517 71.5165 378.615C77.514 378.713 83.8419 378.815 90.384 378.92C96.9284 378.98 103.692 379.107 110.562 379.116C117.434 379.144 124.414 379.171 131.396 379.196C138.375 379.171 145.355 379.146 152.227 379.119C159.098 379.119 165.861 378.984 172.405 378.927C185.494 378.768 197.708 378.524 208.181 378.23C229.119 377.69 243.081 376.925 243.081 376.925C243.081 376.925 236.566 376.567 225.772 376.169V366.076H208.21V375.62C208.201 375.62 208.19 375.62 208.181 375.62C207.239 375.592 206.271 375.567 205.305 375.542V366.076H187.743V375.154C186.515 375.132 185.273 375.111 184.022 375.088L166.884 335.219L180.884 302.648L182.245 362.805L183.676 299.643L251.296 376.154L254.704 373.145L247.132 364.579V352.587" fill="#FFEB85"/>
</svg>
