<svg width="73" height="111" viewBox="0 0 73 111" fill="none" xmlns="http://www.w3.org/2000/svg">
<path d="M41.627 105.874C42.6387 105.624 43.7006 105.341 44.7784 104.993C45.323 104.833 45.8608 104.624 46.4122 104.435C46.9546 104.221 47.506 104.013 48.0552 103.788C48.6021 103.553 49.1581 103.33 49.6958 103.063L50.5116 102.674L51.3114 102.252C52.3892 101.708 53.4283 101.093 54.4332 100.457C54.9345 100.138 55.4131 99.7918 55.903 99.4774C56.3861 99.1471 56.8418 98.7962 57.3021 98.4636C58.1976 97.7642 59.0635 97.0876 59.8451 96.395C60.2484 96.0624 60.6176 95.7139 60.9776 95.3744C61.3354 95.0395 61.7 94.7297 62.019 94.4017C62.6547 93.7456 63.2745 93.1715 63.7713 92.6133C64.2726 92.062 64.7397 91.6018 65.0838 91.1872C65.7925 90.3762 66.2117 89.9183 66.2117 89.9183C66.2117 89.9183 65.8973 90.4491 65.3208 91.3672C65.0405 91.8342 64.6531 92.365 64.2133 92.9801C63.7849 93.6066 63.238 94.2627 62.6501 94.9872C62.3585 95.3539 62.0212 95.7025 61.6885 96.083C61.3558 96.4611 60.9981 96.8393 60.6107 97.2129C59.861 97.9807 59.0248 98.7461 58.1247 99.4979C57.2155 100.241 56.2585 100.99 55.2262 101.669C54.1917 102.346 53.1207 103.002 52.0064 103.583L51.1679 104.009L50.3134 104.401C49.7482 104.669 49.1672 104.895 48.5952 105.129C47.4468 105.585 46.2847 105.95 45.1522 106.257C44.0219 106.583 42.9008 106.783 41.8435 106.97C40.7816 107.139 39.7721 107.25 38.8379 107.305C36.9694 107.426 35.4108 107.346 34.3307 107.23C33.7906 107.18 33.369 107.1 33.0842 107.055C32.7994 106.998 32.6467 106.968 32.6467 106.968C32.6467 106.968 33.2665 106.991 34.3398 106.934C35.413 106.881 36.9398 106.745 38.7422 106.451C39.6446 106.307 40.6107 106.1 41.627 105.874V105.874ZM47.5106 33.231C48.258 32.8004 50.0263 34.4658 51.4618 36.9512C52.8951 39.4367 53.4557 41.8014 52.7083 42.232C51.9631 42.6626 50.9058 40.2158 49.4703 37.7326C48.0347 35.2472 46.7654 33.6616 47.5106 33.231V33.231ZM3.55249 75.5363C3.55249 59.9583 18.6351 43.6126 36.0647 7.50385C36.0647 30.9665 8.4676 52.9052 11.4048 80.202C12.1067 86.7038 14.3739 92.0073 16.803 96.0101C15.9348 95.0418 15.0644 93.9894 14.2281 92.8503C13.7906 92.2716 13.3964 91.6519 12.9771 91.0345C12.592 90.3967 12.1773 89.7611 11.8264 89.0868C11.0836 87.7586 10.4409 86.3484 9.91456 84.8904C8.82762 81.9835 8.28988 78.8738 8.17367 75.919C8.0734 72.9597 8.39239 70.1712 8.82762 67.8065C9.27424 65.4441 9.81203 63.4963 10.2108 62.1431C10.409 61.4665 10.5776 60.9356 10.6938 60.5757C10.8101 60.2134 10.8716 60.0221 10.8716 60.0221C10.8716 60.0221 10.7918 60.2066 10.6414 60.5552C10.4911 60.9038 10.2723 61.414 10.008 62.0724C9.47936 63.3869 8.75018 65.28 8.06658 67.6288C7.39436 69.9753 6.78596 72.7934 6.58999 75.8962C6.40998 78.9922 6.65604 82.3707 7.52422 85.6285C7.94122 87.2597 8.49036 88.8612 9.15574 90.383C9.46792 91.1553 9.84848 91.8843 10.2017 92.6202C10.5868 93.3332 10.9559 94.0531 11.3684 94.7252C11.7216 95.3175 12.0816 95.887 12.4485 96.4406C6.90216 90.6564 3.55249 83.1385 3.55249 75.5363V75.5363ZM0 75.7049C0 88.7451 8.78208 101.74 21.9643 107.335C22.183 107.537 22.3038 107.651 22.3038 107.651L22.4154 107.517C26.5832 109.221 31.1747 110.196 36.0647 110.196C56.7096 110.196 72.1318 92.987 72.1318 75.7049C72.1318 58.4229 55.4017 40.8378 36.0647 0.781024C16.7301 40.8378 0 58.4229 0 75.7049" fill="#FFEB85"/>
</svg>
