<svg width="1141" height="1126" viewBox="0 0 1141 1126" fill="none" xmlns="http://www.w3.org/2000/svg">
<path d="M1098.8 915.107C1091.94 915.868 1083.97 916.91 1075.4 917.742C1066.83 918.634 1057.69 919.407 1048.53 920.193C1039.38 920.89 1030.22 921.596 1021.63 922.096C1013.04 922.647 1005 922.908 998.113 923.261C991.234 923.61 985.476 923.622 981.457 923.761C977.43 923.799 975.129 923.825 975.129 923.825C975.129 923.825 977.404 923.479 981.385 922.87C985.372 922.357 991.057 921.44 997.903 920.672C1004.75 919.919 1012.73 918.882 1021.3 918.044C1029.86 917.151 1039.01 916.372 1048.16 915.586C1057.32 914.89 1066.47 914.175 1075.07 913.678C1083.66 913.12 1091.7 912.864 1098.58 912.511C1105.46 912.157 1111.22 912.157 1115.24 912.011C1119.27 911.973 1121.57 911.952 1121.57 911.952C1121.57 911.952 1119.29 912.301 1115.31 912.91C1111.33 913.422 1105.64 914.347 1098.8 915.107ZM1012.75 1040.33C961.135 1040.33 940.853 1013.23 934.637 1001.91H938.807C954.479 1001.91 967.234 989.161 967.234 973.493V940.26L1108.76 929.051C1104.15 955.785 1083.95 1040.33 1012.75 1040.33V1040.33ZM861.573 1005L859.069 1001.91H861.573V1005ZM836.36 1070.89H861.573V1101.97L836.36 1070.89ZM796.74 1070.89H821.908L796.74 1101.92V1070.89ZM737.041 1037.48V1001.91H780.281C775.061 1009.57 762.169 1025.05 737.041 1037.48ZM722.923 1119.09V1113.42H734.176V1119.09H722.923ZM722.923 1059.72V1054.06H734.176V1059.72H722.923ZM722.923 1068.21V1062.54H734.176V1068.21H722.923ZM722.923 1076.68V1071.02H734.176V1076.68H722.923ZM722.923 1085.17V1079.5H734.176V1085.17H722.923ZM722.923 1093.65V1087.98H734.176V1093.65H722.923ZM722.923 1102.13V1096.46H734.176V1102.13H722.923ZM722.923 1104.94H734.176V1110.6H722.923V1104.94ZM730.989 1045.58H734.176V1051.25H722.923V1048.72C725.729 1047.71 728.398 1046.66 730.989 1045.58V1045.58ZM648.201 1055.76C644.489 1055.76 640.857 1055.67 637.263 1055.53L639.499 1001.91H720.057V1044.62C701.421 1051.19 677.827 1055.76 648.201 1055.76V1055.76ZM617.269 1054.06V1001.91H630.64L632.87 1055.32C627.525 1055.03 622.325 1054.62 617.269 1054.06ZM578.161 1070.89H603.374V1101.97L578.161 1070.89ZM538.541 1070.89H563.715L538.541 1101.92V1070.89ZM458.107 1083C442.841 1083 430.356 1076.87 420.225 1067.96C468.225 1062.8 499.839 1047.4 519.918 1032.45C510.167 1055.19 491.426 1083 458.107 1083V1083ZM359.07 1064.05V1001.91H378.703C380.506 1009.04 389.523 1041.37 409.962 1064.23C402.159 1064.81 393.969 1065.14 385.313 1065.14C376.106 1065.14 367.398 1064.73 359.07 1064.05V1064.05ZM319.968 1070.89H345.175V1101.96L319.968 1070.89ZM280.341 1070.89H305.515L280.341 1101.92V1070.89ZM282.407 1050.89L280.341 1053.43V1050.03C281.017 1050.32 281.725 1050.6 282.407 1050.89V1050.89ZM220.806 1001.91H266.453V1038.17C242.675 1025.28 228.19 1010.79 220.806 1001.91ZM139.455 1022.25C74.2932 1022.25 48.3913 953.805 41.3027 929.779L162.675 939.395V973.493C162.675 987.963 173.553 999.919 187.56 1001.67C182.635 1007.9 168.189 1022.25 139.455 1022.25V1022.25ZM17.8336 912.91C13.8532 912.301 11.5778 911.952 11.5778 911.952C11.5778 911.952 13.8795 911.973 17.9058 912.011C21.9255 912.157 27.6829 912.157 34.5682 912.511C41.447 912.864 49.4865 913.12 58.0767 913.678C66.6735 914.175 75.8343 914.89 84.9885 915.586C94.1361 916.372 103.284 917.151 111.848 918.044C120.418 918.882 128.399 919.919 135.245 920.672C142.091 921.44 147.776 922.357 151.763 922.87C155.743 923.479 158.019 923.825 158.019 923.825C158.019 923.825 155.717 923.799 151.691 923.761C147.671 923.622 141.914 923.61 135.035 923.261C128.156 922.908 120.117 922.647 111.52 922.096C102.923 921.596 93.7689 920.89 84.6147 920.193C75.4671 919.407 66.3129 918.634 57.7489 917.742C49.1783 916.91 41.2043 915.868 34.3583 915.107C27.5058 914.347 21.8271 913.422 17.8336 912.91V912.91ZM226.17 886.425H191.108C175.429 886.425 162.675 899.176 162.675 914.851V916.175L27.86 905.496L226.17 825.816V886.425ZM202.754 804.666L153.101 782.271H176.898L226.17 804.494V804.666H202.754ZM105.369 782.271H130.589L180.242 804.666H153.802L105.369 782.271ZM76.2539 765.456C80.4704 765.271 86.49 764.813 93.7163 764.603C100.949 764.398 109.382 764.006 118.412 763.868C127.448 763.671 137.087 763.638 146.727 763.591C156.36 763.645 165.999 763.678 175.029 763.876C184.065 764.019 192.498 764.406 199.724 764.608C206.957 764.818 212.977 765.271 217.193 765.461C221.41 765.743 223.816 765.907 223.816 765.907C223.816 765.907 221.41 766.07 217.193 766.352C212.977 766.544 206.957 766.995 199.724 767.205C192.498 767.407 184.065 767.797 175.029 767.94C165.999 768.137 156.36 768.168 146.727 768.221C137.087 768.176 127.448 768.142 118.412 767.945C109.382 767.809 100.949 767.415 93.7163 767.212C86.49 767.003 80.4704 766.544 76.2539 766.36C72.0375 766.07 69.6243 765.907 69.6243 765.907C69.6243 765.907 72.0375 765.743 76.2539 765.456V765.456ZM280.341 731.495H305.515L297.83 740.969H280.341V731.495ZM305.515 343.601L280.341 374.624V343.601H305.515ZM345.175 374.676L319.968 343.601H345.175V374.676ZM327.653 740.969L319.968 731.495H345.175V740.969H327.653ZM385.601 466.007L390.874 577.969H385.313V466.007H385.601ZM400.526 577.969H395.51L390.238 466.007H390.847L400.526 577.969ZM529.229 406.859L525.039 410.216L525.268 406.859H529.229ZM531.452 316.958H540.252L539.721 331.322L535.511 335.098H530.206L531.452 316.958ZM547.4 125.617L547.098 133.753H544.042L544.606 125.617H547.4ZM560.495 47.3987H552.757L560.495 34.2279V47.3987ZM577.505 47.3987H569.761V34.2279L577.505 47.3987ZM586.207 133.753H583.164L582.863 125.617H585.643L586.207 133.753ZM594.574 335.098L590.548 331.486L590.004 316.958H598.804L600.05 335.098H594.574ZM605.223 410.36L600.856 406.859H604.987L605.223 410.36ZM796.74 731.495H821.908L814.222 740.969H796.74V731.495ZM821.908 343.601L796.74 374.624V343.601H821.908ZM861.573 374.683L836.36 343.601H861.573V374.683ZM226.17 783.608V794.34L199.409 782.271H223.206L226.17 783.608ZM305.974 693.366C305.935 705.763 305.896 716.279 305.869 724.611H280.623L305.974 693.366ZM280.341 683.008H305.515L280.341 714.03V683.008ZM280.341 634.519H305.515L280.341 665.542V634.519ZM280.341 586.038H305.515L280.341 617.054V586.038ZM280.341 537.55H305.515L280.341 568.574V537.55ZM280.341 489.064H305.515L280.341 520.085V489.064ZM280.341 440.577H305.515L280.341 471.599V440.577ZM280.341 392.089H305.515L280.341 423.112V392.089ZM308.578 362.391C308.499 369.884 308.414 377.515 308.335 385.212H280.623L308.715 350.583C308.676 354.491 308.63 358.424 308.578 362.391ZM317.148 385.212C317.063 377.515 316.984 369.884 316.906 362.391C316.853 358.424 316.807 354.491 316.761 350.583L344.86 385.212H317.148ZM344.86 724.611H319.614C319.588 716.279 319.548 705.763 319.509 693.366L344.86 724.611ZM306.099 658.141C306.079 664.403 306.053 670.395 306.033 676.124H280.623L306.197 644.609C306.164 649.224 306.125 653.762 306.099 658.141V658.141ZM306.315 627.636H280.623L306.545 595.696C306.466 606.715 306.387 617.402 306.315 627.636V627.636ZM306.663 579.155H280.623L306.892 546.782C306.814 557.777 306.735 568.599 306.663 579.155ZM307.004 530.667H280.623L307.24 497.861C307.161 508.889 307.083 519.849 307.004 530.667ZM307.469 465.358C307.43 470.97 307.391 476.575 307.351 482.18H280.623L307.646 448.876C307.594 454.37 307.535 459.857 307.469 465.358ZM307.81 433.699H280.623L308.178 399.74C308.06 410.95 307.935 422.266 307.81 433.699ZM345.175 423.164L319.968 392.089H345.175V423.164ZM317.666 433.699C317.548 422.266 317.424 410.95 317.306 399.74L344.86 433.699H317.666ZM319.968 440.577H345.175V471.645L319.968 440.577ZM319.968 489.064H345.175V520.131L319.968 489.064ZM318.473 530.667C318.394 519.849 318.322 508.889 318.243 497.861L344.86 530.667H318.473ZM319.968 537.55H345.175V568.619L319.968 537.55ZM318.82 579.155C318.742 568.599 318.67 557.777 318.591 546.782L344.86 579.155H318.82ZM319.968 586.038H345.175V617.108L319.968 586.038ZM319.168 627.636C319.096 617.402 319.017 606.715 318.938 595.696L344.86 627.636H319.168ZM319.968 634.519H345.175V665.596L319.968 634.519ZM345.175 683.008V714.081L319.968 683.008H345.175ZM318.007 465.358C317.948 459.857 317.889 454.37 317.83 448.876L344.86 482.18H318.125C318.086 476.575 318.047 470.97 318.007 465.358V465.358ZM319.384 658.141C319.352 653.762 319.319 649.224 319.286 644.609L344.86 676.124H319.443C319.424 670.395 319.404 664.403 319.384 658.141V658.141ZM397.215 712.593H385.313V587.224H391.313L397.215 712.593ZM401.51 803.872L385.313 761.75V721.859H397.647L401.51 803.872ZM417.759 846.124L406.789 817.593L402.277 721.859H412.966L417.759 777.315V846.124ZM861.108 750.226C865.987 750.226 872.446 751.543 876.302 761.784H756.084L758.071 750.226H861.108ZM822.393 693.346C822.347 705.751 822.308 716.271 822.281 724.611H797.015L822.393 693.346ZM796.74 683.008H821.908L796.74 714.03V683.008ZM796.74 634.519H821.908L796.74 665.542V634.519ZM796.74 586.038H821.908L796.74 617.054V586.038ZM796.74 537.55H821.908L796.74 568.574V537.55ZM796.74 489.064H821.908L796.74 520.085V489.064ZM796.74 440.577H821.908L796.74 471.599V440.577ZM796.74 392.089H821.908L796.74 423.112V392.089ZM824.99 362.391C824.911 369.884 824.826 377.515 824.747 385.212H797.015L825.134 350.564C825.088 354.471 825.042 358.411 824.99 362.391V362.391ZM833.56 385.212C833.481 377.515 833.396 369.884 833.318 362.391C833.265 358.431 833.219 354.504 833.18 350.61L861.246 385.212H833.56ZM844.045 740.969L836.36 731.495H861.573V740.969H844.045ZM861.246 724.611H836.026C835.999 716.286 835.96 705.776 835.921 693.392L861.246 724.611ZM822.511 658.141C822.491 664.403 822.472 670.395 822.452 676.124H797.015L822.609 644.583C822.576 649.206 822.544 653.754 822.511 658.141V658.141ZM822.727 627.636H797.015L822.957 595.67C822.878 606.703 822.799 617.397 822.727 627.636ZM823.075 579.155H797.015L823.304 546.757C823.226 557.763 823.147 568.594 823.075 579.155V579.155ZM823.422 530.667H797.015L823.652 497.836C823.58 508.868 823.501 519.845 823.422 530.667ZM823.888 465.358C823.849 470.97 823.809 476.575 823.763 482.18H797.015L824.065 448.85C824.006 454.35 823.947 459.844 823.888 465.358ZM824.229 433.699H797.015L824.59 399.714C824.472 410.931 824.347 422.259 824.229 433.699ZM861.573 423.171L836.36 392.089H861.573V423.171ZM861.573 683.008V714.081L836.36 683.008H861.573ZM861.246 627.636H835.58C835.508 617.415 835.429 606.736 835.35 595.722L861.246 627.636ZM861.246 579.155H835.232C835.16 568.607 835.082 557.797 835.003 546.809L861.246 579.155ZM861.246 530.667H834.891C834.813 519.857 834.734 508.902 834.655 497.887L861.246 530.667ZM834.085 433.699C833.96 422.279 833.842 410.97 833.717 399.766L861.246 433.699H834.085ZM861.573 471.652L836.36 440.577H861.573V471.652ZM861.573 520.139L836.36 489.064H861.573V520.139ZM861.573 568.627L836.36 537.55H861.573V568.627ZM861.573 617.108L836.36 586.038H861.573V617.108ZM861.573 665.596L836.36 634.519H861.573V665.596ZM834.419 465.358C834.36 459.864 834.301 454.383 834.242 448.903L861.246 482.18H834.544C834.504 476.575 834.465 470.97 834.419 465.358ZM835.796 658.141C835.764 653.767 835.737 649.237 835.698 644.635L861.246 676.124H835.862C835.842 670.395 835.823 664.403 835.796 658.141V658.141ZM683.985 837.786C683.985 845.497 683.985 852.89 683.985 859.761H585.184V850.275H573.426V859.761H564.574V862.791H568.351V873.077H564.574V877.705H683.985C683.985 880.067 683.985 882.227 683.985 884.3L441.897 890.914L514.875 892.909C508.442 892.935 501.976 892.968 495.589 892.994C472.317 893.032 449.412 893.55 427.248 893.793C427.169 893.793 427.097 893.793 427.025 893.793V837.786H683.985ZM675.539 862.791H682.044V873.077H675.539V862.791ZM666.063 862.791H672.575V873.077H666.063V862.791ZM656.588 862.791H663.099V873.077H656.588V862.791ZM647.112 862.791H653.624V873.077H647.112V862.791ZM637.637 862.791H644.148V873.077H637.637V862.791ZM628.161 862.791H634.673V873.077H628.161V862.791ZM618.686 862.791H625.197V873.077H618.686V862.791ZM609.217 862.791H615.722V873.077H609.217V862.791ZM599.735 862.791H606.246V873.077H599.735V862.791ZM590.259 862.791H596.771V873.077H590.259V862.791ZM585.184 862.791H587.295V873.077H585.184V862.791ZM573.426 862.791V873.077H571.315V862.791H573.426ZM877.725 766.411C878.911 771.349 879.62 777.748 879.62 786.092C879.62 810.6 879.62 859.715 879.62 883.349L738.779 888.305L844.491 892.029L733.467 893.191L755.284 766.411H877.725ZM564.954 777.766V773.138H561.21V762.951H564.954V759.947H556.784V750.226H545.033V759.947H427.025V715.492H683.939C683.959 716.908 683.985 718.33 683.985 719.805C683.985 730.505 683.985 756.623 683.985 785.818C682.726 785.764 681.316 785.705 679.729 785.641C672.929 785.451 663.224 784.99 651.578 784.788C639.925 784.598 626.338 784.158 611.774 784.078C597.217 783.981 581.682 783.884 566.154 783.779C550.619 783.884 535.092 783.989 520.527 784.086C505.97 784.171 492.376 784.603 480.73 784.795C469.078 785.006 459.373 785.456 452.579 785.641C445.779 785.928 441.897 786.092 441.897 786.092C441.897 786.092 445.779 786.25 452.579 786.537C459.373 786.722 469.078 787.175 480.73 787.39C492.376 787.582 505.97 788.007 520.527 788.092C535.092 788.191 550.619 788.296 566.154 788.401C581.682 788.296 597.217 788.197 611.774 788.099C626.338 788.02 639.925 787.582 651.578 787.39C663.224 787.188 672.929 786.729 679.729 786.537C681.316 786.473 682.726 786.414 683.985 786.36C683.985 801.736 683.985 817.908 683.985 833.158H427.025V777.766H564.954ZM436.041 773.138H429.582V762.951H436.041V773.138ZM445.445 773.138H438.986V762.951H445.445V773.138ZM454.848 773.138H448.396V762.951H454.848V773.138ZM464.245 773.138H457.792V762.951H464.245V773.138ZM473.648 773.138H467.196V762.951H473.648V773.138ZM483.052 773.138H476.599V762.951H483.052V773.138ZM492.448 773.138H485.996V762.951H492.448V773.138ZM501.852 773.138H495.399V762.951H501.852V773.138ZM511.255 773.138H504.803V762.951H511.255V773.138ZM520.659 773.138H514.206V762.951H520.659V773.138ZM530.062 773.138H523.609V762.951H530.062V773.138ZM539.465 773.138H533.006V762.951H539.465V773.138ZM545.033 773.138H542.41V762.951H545.033V773.138ZM556.784 773.138V762.951H558.266V773.138H556.784ZM509.931 630.056H528.56L528.082 642.958L508.245 654.548L509.931 630.056ZM512.318 595.271H529.859L529.373 608.303L510.639 619.697L512.318 595.271ZM514.711 560.478H531.157L530.665 573.654L513.039 584.825L514.711 560.478ZM517.104 525.691H532.455L531.964 539.021L515.432 549.948L517.104 525.691ZM519.491 490.9H533.76L533.255 504.379L517.832 515.045L519.491 490.9ZM536.705 412.065H532.042L536.849 408.21L536.705 412.065ZM593.558 412.065L593.42 408.354L598.043 412.065H593.558ZM527.603 655.585H520.232L527.773 651.185L527.603 655.585ZM560.495 632.056V655.585H536.869L537.242 645.646L560.495 632.056ZM550.154 630.056L537.551 637.423L537.826 630.056H550.154ZM550.816 595.271L538.855 602.541L539.124 595.271H550.816ZM551.465 560.478L540.154 567.644L540.423 560.478H551.465ZM552.108 525.691L541.459 532.734L541.721 525.691H552.108ZM552.738 490.9L542.764 497.803L543.026 490.9H552.738ZM543.78 470.648L560.495 458.527V481.643H543.367L543.78 470.648ZM534.259 477.552L534.101 481.643H528.613L534.259 477.552ZM521.885 456.114H535.059L534.547 469.75L520.232 480.128L521.885 456.114ZM553.964 421.322L545.38 427.865L545.623 421.322H553.964ZM560.495 406.859V412.065H545.97L546.16 406.859H560.495ZM569.761 412.065V406.859H584.102L584.292 412.065H569.761ZM584.889 428.002L576.121 421.322H584.64L584.889 428.002ZM594.423 435.266L593.905 421.322H605.978L607.63 445.323L594.423 435.266ZM595.722 469.881L595.204 456.114H608.371L610.03 480.259L595.722 469.881ZM597.013 504.502L596.502 490.9H610.764L612.43 515.176L597.013 504.502ZM598.305 539.138L597.8 525.691H613.158L614.83 550.066L598.305 539.138ZM599.597 573.772L599.105 560.478H615.551L617.23 584.942L599.597 573.772ZM600.896 608.413L600.404 595.271H617.938L619.63 619.801L600.896 608.413ZM602.187 643.063L601.702 630.056H620.332L622.024 654.653L602.187 643.063ZM553.354 456.114L544.069 462.847L544.324 456.114H553.354ZM576.731 456.114H585.938L586.194 462.972L576.731 456.114ZM577.348 490.9H587.236L587.499 497.928L577.348 490.9ZM577.977 525.691H588.535L588.803 532.851L577.977 525.691ZM578.62 560.478H589.84L590.108 567.761L578.62 560.478ZM579.276 595.271H591.138L591.413 602.651L579.276 595.271ZM579.931 630.056H592.436L592.718 637.528L579.931 630.056ZM593.394 655.585H569.761V632.153L593.027 645.751L593.394 655.585ZM602.653 655.585L602.496 651.291L609.853 655.585H602.653ZM601.197 616.537L608.2 620.798H601.355L601.197 616.537ZM592.089 620.798H569.761V597.427L591.715 610.775L592.089 620.798ZM599.899 581.803L606.535 586.006H600.056L599.899 581.803ZM590.79 586.006H569.761V562.707L590.41 575.792L590.79 586.006ZM598.6 547.077L604.863 551.221H598.758L598.6 547.077ZM589.492 551.221H569.761V527.998L589.105 540.798L589.492 551.221ZM597.308 512.369L603.171 516.436H597.459L597.308 512.369ZM588.194 516.436H569.761V493.319L587.794 505.795L588.194 516.436ZM596.01 477.683L601.479 481.643H596.161L596.01 477.683ZM586.895 481.643H569.761V458.645L586.489 470.773L586.895 481.643ZM594.712 443.009L599.768 446.857H594.856L594.712 443.009ZM585.59 446.857H569.761V423.997L585.177 435.745L585.59 446.857ZM535.4 446.857H530.318L535.551 442.871L535.4 446.857ZM545.092 435.601L560.495 423.865V446.857H544.665L545.092 435.601ZM524.278 421.322H536.357L535.839 435.129L522.639 445.185L524.278 421.322ZM532.803 516.436H526.914L532.96 512.246L532.803 516.436ZM542.469 505.67L560.495 493.201V516.436H542.069L542.469 505.67ZM531.505 551.221H525.223L531.662 546.959L531.505 551.221ZM541.164 540.677L560.495 527.888V551.221H540.77L541.164 540.677ZM530.206 586.006H523.55L530.364 581.693L530.206 586.006ZM539.859 575.68L560.495 562.601V586.006H539.472L539.859 575.68ZM528.908 620.798H521.885L529.072 616.432L528.908 620.798ZM538.547 610.67L560.495 597.322V620.798H538.173L538.547 610.67ZM560.495 320.053V335.098H548.842L549.02 330.358L560.495 320.053ZM555.721 316.958L549.308 322.721L549.518 316.958H555.721ZM550.331 295.225L560.495 285.516V307.701H549.865L550.331 295.225ZM540.724 304.404L540.6 307.701H537.275L540.724 304.404ZM533.846 282.166H541.557L541.013 296.746L532.265 305.092L533.846 282.166ZM536.233 247.38H542.856L542.298 262.184L534.685 269.952L536.233 247.38ZM538.626 212.588H544.154L543.59 227.66L537.105 234.754L538.626 212.588ZM558.403 143.01L555.898 146.216L556.016 143.01H558.403ZM560.495 125.617V133.753H556.364L556.665 125.617H560.495ZM569.761 133.753V125.617H573.597L573.898 133.753H569.761ZM574.371 146.452L571.682 143.01H574.246L574.371 146.452ZM588.305 164.278L584.102 158.902L583.512 143.01H586.843L588.305 164.278ZM586.679 227.857L586.108 212.588H591.623L593.164 234.944L586.679 227.857ZM589.545 304.581L592.81 307.701H589.663L589.545 304.581ZM569.761 307.701V285.68L579.938 295.402L580.397 307.701H569.761ZM574.371 316.958H580.744L580.961 322.878L574.371 316.958ZM556.272 282.166L550.62 287.568L550.823 282.166H556.272ZM556.823 247.38L551.931 252.369L552.121 247.38H556.823ZM557.367 212.588L553.249 217.092L553.42 212.588H557.367ZM554.279 189.564L560.495 182.234V203.331H553.767L554.279 189.564ZM544.587 200.991L544.502 203.331H542.6L544.587 200.991ZM541.019 177.802H545.452L544.882 193.15L539.531 199.457L541.019 177.802ZM545.8 168.545H544.41L545.872 166.677L545.8 168.545ZM557.898 177.802L554.574 181.723L554.718 177.802H557.898ZM560.495 168.545H555.065L555.597 154.227L560.495 147.96V168.545ZM575.197 168.545H569.761V148.176L574.672 154.463L575.197 168.545ZM584.463 168.545L584.403 166.906L585.682 168.545H584.463ZM585.387 193.36L584.81 177.802H589.236L590.738 199.66L585.387 193.36ZM585.682 201.214L587.479 203.331H585.761L585.682 201.214ZM572.2 177.802H575.544L575.695 181.926L572.2 177.802ZM569.761 203.331V182.437L575.99 189.787L576.495 203.331H569.761ZM572.718 212.588H576.843L577.02 217.295L572.718 212.588ZM577.794 238.123H569.761V216.784L577.308 225.038L577.794 238.123ZM587.059 238.123L586.968 235.599L589.276 238.123H587.059ZM587.964 262.374L587.407 247.38H594.017L595.584 270.136L587.964 262.374ZM588.705 282.166H596.41L597.997 305.269L589.256 296.917L588.705 282.166ZM579.439 282.166L579.649 287.745L573.813 282.166H579.439ZM573.262 247.38H578.141L578.338 252.553L573.262 247.38ZM588.253 270.064L591.046 272.909H588.364L588.253 270.064ZM579.099 272.909H569.761V251.209L578.62 260.243L579.099 272.909ZM543.203 238.123H540.816L543.301 235.403L543.203 238.123ZM552.961 224.835L560.495 216.594V238.123H552.469L552.961 224.835ZM541.898 272.909H539.039L542.016 269.874L541.898 272.909ZM551.649 260.053L560.495 251.032V272.909H551.164L551.649 260.053ZM581.42 335.098H569.761V320.203L581.249 330.522L581.42 335.098ZM589.971 62.3528L542.954 65.1914L589.971 68.0367V85.2067L542.954 88.0519L589.971 90.8972V95.1388H540.292V61.7693C540.292 58.9437 542.58 56.6556 545.406 56.6556H584.856C587.682 56.6556 589.971 58.9437 589.971 61.7693V62.3528ZM534.554 115.875V104.881C534.554 104.619 534.77 104.396 535.032 104.396H595.23C595.492 104.396 595.709 104.619 595.709 104.881V107.208L537.806 110.381L595.709 113.548V115.875C595.709 116.137 595.492 116.354 595.23 116.354H535.032C534.77 116.354 534.554 116.137 534.554 115.875V115.875ZM543.406 143.01H546.751L546.167 158.666L541.964 164.048L543.406 143.01ZM506.383 389.159V352.799C506.383 348.138 510.16 344.362 514.823 344.362H615.44C619.02 344.362 622.056 346.598 623.289 349.738L513.229 354.196L623.879 358.68V384.628L513.229 389.113L622.62 393.544C621.138 395.97 618.489 397.603 615.44 397.603H514.823C510.16 397.603 506.383 393.82 506.383 389.159V389.159ZM446.192 670.584H656.267C668.778 670.584 675.834 676.216 679.696 686.101C672.903 685.919 663.211 685.458 651.578 685.25C639.925 685.066 626.338 684.626 611.774 684.549C597.217 684.449 581.682 684.344 566.154 684.247C550.619 684.352 535.092 684.457 520.527 684.549C505.97 684.639 492.376 685.066 480.73 685.256C469.078 685.466 459.373 685.919 452.579 686.109C445.779 686.391 441.897 686.554 441.897 686.554C441.897 686.554 445.779 686.718 452.579 687.007C459.373 687.189 469.078 687.643 480.73 687.852C492.376 688.042 505.97 688.467 520.527 688.559C535.092 688.66 550.619 688.764 566.154 688.869C581.682 688.764 597.217 688.66 611.774 688.559C626.338 688.488 639.925 688.05 651.578 687.858C663.224 687.655 672.929 687.197 679.729 687.007C679.847 687 679.946 687 680.064 686.992C682.372 693.366 683.434 701.444 683.801 710.862H427.025V689.748C427.025 679.166 435.602 670.584 446.192 670.584V670.584ZM412.166 712.593H401.844L395.943 587.224H401.326L412.166 712.593ZM254.597 750.226H358.106V761.784H237.016C239.967 754.992 246.721 750.226 254.597 750.226V750.226ZM191.108 992.657C180.517 992.657 171.94 984.075 171.94 973.493V914.851C171.94 904.262 180.517 895.688 191.108 895.688H235.429V769.389C235.429 768.372 235.58 767.389 235.731 766.411H358.113L358.139 888.935L242.931 893.432L316.315 896.305C312.866 896.415 309.417 896.528 306.073 896.633C270.61 897.721 241.049 899.058 220.367 900.092C210.019 900.554 201.895 901.129 196.353 901.425C190.812 901.752 187.855 901.923 187.855 901.923C187.855 901.923 190.812 902.1 196.353 902.428C201.895 902.723 210.019 903.294 220.367 903.757C241.049 904.787 270.61 906.131 306.073 907.22C323.804 907.791 343.017 908.418 363.332 908.812C383.654 909.258 405.077 909.834 427.248 910.057C449.412 910.301 472.317 910.818 495.589 910.858C518.862 910.963 542.508 911.069 566.154 911.179C589.794 911.074 613.44 910.969 636.712 910.864C659.985 910.858 682.89 910.313 705.06 910.078C727.225 909.855 748.654 909.304 768.969 908.838C789.291 908.439 808.498 907.829 826.229 907.24C857.934 906.269 884.866 905.089 905.01 904.106L954.971 904.63C956.847 907.594 957.975 911.081 957.975 914.851V973.493C957.975 984.075 949.391 992.657 938.807 992.657H191.108ZM797.015 1015.53L808.065 1001.91H850.203L861.246 1015.53H797.015ZM836.36 1022.41H861.573V1053.48L836.36 1022.41ZM796.74 1022.41H821.908L796.74 1053.43V1022.41ZM799.199 1001.91L796.74 1004.94V1001.91H799.199ZM734.176 1008.84H722.923V1003.17H734.176V1008.84ZM734.176 1017.33H722.923V1011.66H734.176V1017.33ZM734.176 1025.8H722.923V1020.14H734.176V1025.8ZM734.176 1034.29H722.923V1028.62H734.176V1034.29ZM603.374 1005L600.869 1001.91H603.374V1005ZM602.181 1052.01L578.161 1022.41H603.374V1052.19C602.981 1052.13 602.574 1052.08 602.181 1052.01V1052.01ZM548.069 1041.69L538.541 1053.43V1037.61C541.603 1038.99 544.764 1040.36 548.069 1041.69ZM570.934 1024.43L591.695 1050.01C579.367 1047.44 568.095 1044.16 557.905 1040.49L570.934 1024.43ZM538.541 1022.41H563.708L551.111 1037.94C546.705 1036.19 542.508 1034.4 538.541 1032.57V1022.41ZM524.652 1019.9C524.206 1021.25 523.721 1022.65 523.203 1024.09C523.039 1024.22 522.888 1024.36 522.724 1024.49C506.435 1015.37 495.616 1006.61 490.33 1001.91H524.652V1019.9ZM538.541 1004.94V1001.91H541L538.541 1004.94ZM538.823 1015.53L540.252 1013.76C541.951 1011.8 543.433 1009.97 544.678 1008.31L549.865 1001.91H592.004L603.053 1015.53H538.823ZM345.175 1004.99L342.676 1001.91H345.175V1004.99ZM312.742 1024.43L343.529 1062.37C323.837 1059.68 306.814 1055.21 292.178 1049.78L312.742 1024.43ZM280.341 1022.41H305.515L285.436 1047.15C283.712 1046.44 282 1045.73 280.341 1044.99V1022.41ZM282.8 1001.91L280.341 1004.94V1001.91H282.8ZM280.623 1015.53L291.673 1001.91H333.811L344.86 1015.53H280.623ZM345.175 1053.48L319.968 1022.41H345.175V1053.48ZM280.623 1064.01L289.102 1053.56C299.941 1057.67 312.086 1061.26 325.614 1064.01H280.623ZM415.753 1063.73C395.339 1042.72 385.851 1010.9 383.483 1001.91H483.543C485.635 1004 497.504 1015.38 518.849 1027.59C498.986 1042.83 466.52 1059 415.753 1063.73V1063.73ZM538.823 1064.01L554.829 1044.29C567.085 1048.79 580.915 1052.75 596.246 1055.63L603.053 1064.01H538.823ZM725.008 1042.76H722.923V1037.1H734.176V1038.84C731.271 1040.19 728.228 1041.51 725.008 1042.76ZM797.015 1064.01L829.134 1024.43L861.246 1064.01H797.015ZM1112.98 905.496L967.234 917.041V914.851C967.234 899.176 954.479 886.425 938.807 886.425H903.738V821.421L1112.98 905.496ZM1138.82 882.819C1138.82 879.895 1136.44 877.521 1133.52 877.521H1121.37C1118.44 877.521 1116.07 879.895 1116.07 882.819V901.744L903.738 816.433V769.389C903.738 753.773 891.069 741.06 875.462 740.976V318.899H861.573V336.724H833.036C832.806 313.562 832.636 291.875 832.196 272.575C831.888 259.43 831.822 247.38 831.377 236.701C830.996 226.021 830.662 216.705 830.393 209.041C829.698 193.707 829.154 184.942 829.154 184.942C829.154 184.942 828.609 193.707 827.914 209.041C827.645 216.705 827.311 226.021 826.931 236.701C826.485 247.38 826.419 259.43 826.111 272.575C825.672 291.875 825.501 313.562 825.278 336.724H796.74V318.899H782.845V740.969H762.563L758.071 582.597L753.54 742.254C751.684 743.309 750.156 744.922 749.382 747.02L714.464 841.497V689.748C714.464 674.766 702.805 662.482 688.083 661.424L683.532 501.009L678.981 661.327H672.214L667.762 590.641L663.316 661.327H631.768L614.266 406.859H615.44C625.197 406.859 633.138 398.92 633.138 389.159V352.799C633.138 343.038 625.197 335.098 615.44 335.098H609.328L594.922 125.617H595.23C600.6 125.617 604.974 121.251 604.974 115.875V104.881C604.974 100.941 602.607 97.558 599.23 96.0239V61.7693C599.23 55.1347 594.692 49.5949 588.568 47.9428L569.761 15.95V0.196093L565.131 8.07631L560.495 0.202656V15.95L541.695 47.9428C535.57 49.5949 531.026 55.1347 531.026 61.7693V96.0239C527.655 97.558 525.288 100.941 525.288 104.881V115.875C525.288 121.251 529.655 125.617 535.032 125.617H535.328L520.927 335.098H514.823C505.058 335.098 497.117 343.038 497.117 352.799V389.159C497.117 398.92 505.058 406.859 514.823 406.859H515.99L498.494 661.327H446.192C433.156 661.327 422.166 670.157 418.828 682.136L399.182 454.934C398.959 452.384 396.749 450.45 394.172 450.718C391.621 450.941 389.739 453.184 389.956 455.727L390.047 456.75H385.313V455.334C385.313 452.771 383.241 450.699 380.677 450.699C378.119 450.699 376.047 452.771 376.047 455.334V742.523C374.565 741.545 372.814 740.969 370.952 740.969H359.07V318.899H345.175V336.724H316.624C316.394 313.562 316.224 291.875 315.784 272.575C315.47 259.43 315.411 247.38 314.965 236.701C314.584 226.021 314.25 216.705 313.981 209.041C313.286 193.707 312.742 184.942 312.742 184.942C312.742 184.942 312.191 193.707 311.502 209.041C311.227 216.705 310.899 226.021 310.519 236.701C310.073 247.38 310.007 259.43 309.699 272.575C309.26 291.875 309.089 313.562 308.86 336.724H280.341V318.899H266.453V740.969H254.597C254.393 740.969 254.19 740.994 253.98 741.001L249.488 582.597L244.944 742.692C237.488 745.394 231.469 751.105 228.393 758.374H31.9059L64.6145 773.5L60.2996 876.532H69.5654L65.2637 773.799L151.783 813.811H226.17V820.825L24.7714 901.744V882.819C24.7714 879.895 22.4042 877.521 19.4795 877.521H7.322C4.39738 877.521 2.03026 879.895 2.03026 882.819V909.363C0.941724 910.963 0.200707 912.831 0.0367707 914.902C-0.468153 921.269 4.28597 926.849 10.6664 927.353L12.1877 927.471L16.3779 1038.54L20.5485 928.132L36.3781 929.392C43.0077 952.691 69.6243 1026.88 139.455 1026.88C175.245 1026.88 190.327 1006.27 193.121 1001.91H203.127L207.613 1115.94L212.098 1001.91H214.885C221.869 1010.92 237.928 1028.42 266.453 1043.42V1125.2H280.341V1112.84L312.742 1072.91L345.175 1112.89V1125.2H359.07V1068.7C367.411 1069.37 376.119 1069.77 385.313 1069.77C395.497 1069.77 405.038 1069.3 414.08 1068.52C425.438 1079.64 439.904 1087.63 458.107 1087.63C494.553 1087.63 514.534 1057.13 524.652 1033.02V1125.2H538.541V1112.84L570.934 1072.92L603.374 1112.9V1125.2H617.269V1058.72C622.384 1059.27 627.656 1059.68 633.06 1059.96L635.073 1108.23L637.073 1060.16C640.725 1060.3 644.424 1060.38 648.201 1060.38C677.657 1060.38 701.238 1056.05 720.057 1049.69V1125.2H722.923V1121.9H734.176V1125.2H737.041V1042.89C762.635 1030.82 776.471 1015.45 782.845 1006.5V1125.2H796.74V1112.84L829.134 1072.92L861.573 1112.9V1125.2H875.462V1001.91H929.489C934.873 1012.43 956.119 1044.95 1012.75 1044.95C1088.54 1044.95 1109.12 954.947 1113.5 928.67L1125.06 927.758L1129.26 1043.52L1133.5 926.526C1138.11 924.705 1141.22 920.088 1140.8 914.902C1140.64 912.831 1139.9 910.963 1138.82 909.363V882.819" fill="#FFEB85"/>
<path d="M911.941 980.272C932.63 979.696 944.453 979.368 944.453 979.368C944.453 979.368 932.63 979.045 911.941 978.469C891.253 978.095 861.698 977.178 826.229 976.767C790.766 976.385 749.389 975.506 705.06 975.355C660.726 975.158 613.44 974.956 566.154 974.746C518.862 974.956 471.576 975.166 427.248 975.363C382.913 975.539 341.535 976.392 306.073 976.779C270.61 977.197 241.049 978.103 220.367 978.477C199.678 979.045 187.855 979.368 187.855 979.368C187.855 979.368 199.678 979.696 220.367 980.267C241.049 980.638 270.61 981.545 306.073 981.965C341.535 982.351 382.913 983.202 427.248 983.381C471.576 983.575 518.862 983.786 566.154 983.996C613.44 983.786 660.726 983.583 705.06 983.386C749.389 983.235 790.766 982.357 826.229 981.978C861.698 981.563 891.253 980.646 911.941 980.272" fill="#FFEB85"/>
<path d="M220.367 930.939C199.678 931.51 187.855 931.83 187.855 931.83C187.855 931.83 199.678 932.158 220.367 932.729C241.049 933.103 270.61 934.007 306.073 934.427C341.535 934.813 382.913 935.666 427.248 935.843C471.576 936.04 518.862 936.25 566.154 936.46C613.44 936.25 660.726 936.045 705.06 935.85C749.389 935.7 790.766 934.821 826.229 934.44C861.698 934.027 891.253 933.108 911.941 932.736C932.63 932.165 944.453 931.83 944.453 931.83C944.453 931.83 932.63 931.51 911.941 930.933C891.253 930.56 861.698 929.641 826.229 929.228C790.766 928.847 749.389 927.968 705.06 927.819C660.726 927.623 613.44 927.418 566.154 927.208C518.862 927.418 471.576 927.627 427.248 927.825C382.913 928.002 341.535 928.855 306.073 929.241C270.61 929.661 241.049 930.565 220.367 930.939" fill="#FFEB85"/>
<path d="M805.402 822.477C805.402 817.652 806.865 813.168 809.35 809.419L823.645 823.711L810.432 836.92C807.323 832.907 805.402 827.931 805.402 822.477V822.477ZM843.599 803.762L829.153 818.202L814.707 803.762C818.72 800.653 823.691 798.732 829.153 798.732C834.609 798.732 839.586 800.653 843.599 803.762ZM852.904 822.477C852.904 827.931 850.983 832.907 847.875 836.92L834.662 823.711L848.957 809.419C851.442 813.168 852.904 817.652 852.904 822.477ZM829.153 846.229C824.32 846.229 819.842 844.762 816.084 842.278L829.153 829.217L842.222 842.278C838.465 844.762 833.98 846.229 829.153 846.229ZM829.153 854.025C846.55 854.025 860.701 839.87 860.701 822.477C860.701 805.085 846.55 790.936 829.153 790.936C811.763 790.936 797.605 805.085 797.605 822.477C797.605 839.87 811.763 854.025 829.153 854.025" fill="#FFEB85"/>
<path d="M333.037 836.92L319.817 823.711L334.112 809.411C336.597 813.168 338.066 817.652 338.066 822.477C338.066 827.931 336.138 832.907 333.037 836.92V836.92ZM314.309 846.229C309.482 846.229 304.997 844.762 301.246 842.278L314.309 829.217L327.378 842.278C323.627 844.762 319.142 846.229 314.309 846.229ZM290.558 822.477C290.558 817.652 292.027 813.168 294.505 809.419L308.8 823.711L295.587 836.92C292.485 832.907 290.558 827.931 290.558 822.477V822.477ZM328.755 803.762L314.309 818.202L299.863 803.762C303.882 800.653 308.853 798.732 314.309 798.732C319.771 798.732 324.742 800.653 328.755 803.762ZM314.309 790.936C296.918 790.936 282.761 805.085 282.761 822.477C282.761 839.87 296.918 854.025 314.309 854.025C331.706 854.025 345.856 839.87 345.856 822.477C345.856 805.085 331.706 790.936 314.309 790.936Z" fill="#FFEB85"/>
<path d="M444.776 816.413C447.956 816.413 450.533 813.836 450.533 810.658V803.833C450.533 800.653 447.956 798.084 444.776 798.084C441.602 798.084 439.025 800.653 439.025 803.833V810.658C439.025 813.836 441.602 816.413 444.776 816.413" fill="#FFEB85"/>
<path d="M464.652 816.413C467.826 816.413 470.403 813.836 470.403 810.658V803.833C470.403 800.653 467.826 798.084 464.652 798.084C461.471 798.084 458.901 800.653 458.901 803.833V810.658C458.901 813.836 461.471 816.413 464.652 816.413" fill="#FFEB85"/>
<path d="M484.527 816.413C487.701 816.413 490.278 813.836 490.278 810.658V803.833C490.278 800.653 487.701 798.084 484.527 798.084C481.346 798.084 478.77 800.653 478.77 803.833V810.658C478.77 813.836 481.346 816.413 484.527 816.413" fill="#FFEB85"/>
<path d="M504.396 816.413C507.577 816.413 510.154 813.836 510.154 810.658V803.833C510.154 800.653 507.577 798.084 504.396 798.084C501.223 798.084 498.646 800.653 498.646 803.833V810.658C498.646 813.836 501.223 816.413 504.396 816.413" fill="#FFEB85"/>
<path d="M524.272 816.413C527.445 816.413 530.023 813.836 530.023 810.658V803.833C530.023 800.653 527.445 798.084 524.272 798.084C521.091 798.084 518.514 800.653 518.514 803.833V810.658C518.514 813.836 521.091 816.413 524.272 816.413" fill="#FFEB85"/>
<path d="M585.984 764.099C589.158 764.099 591.735 761.522 591.735 758.349V751.517C591.735 748.344 589.158 745.768 585.984 745.768C582.804 745.768 580.227 748.344 580.227 751.517V758.349C580.227 761.522 582.804 764.099 585.984 764.099Z" fill="#FFEB85"/>
<path d="M605.853 764.099C609.034 764.099 611.611 761.522 611.611 758.349V751.517C611.611 748.344 609.034 745.768 605.853 745.768C602.68 745.768 600.103 748.344 600.103 751.517V758.349C600.103 761.522 602.68 764.099 605.853 764.099Z" fill="#FFEB85"/>
<path d="M625.729 764.099C628.902 764.099 631.48 761.522 631.48 758.349V751.517C631.48 748.344 628.902 745.768 625.729 745.768C622.548 745.768 619.971 748.344 619.971 751.517V758.349C619.971 761.522 622.548 764.099 625.729 764.099Z" fill="#FFEB85"/>
<path d="M645.598 764.099C648.778 764.099 651.355 761.522 651.355 758.349V751.517C651.355 748.344 648.778 745.768 645.598 745.768C642.424 745.768 639.847 748.344 639.847 751.517V758.349C639.847 761.522 642.424 764.099 645.598 764.099Z" fill="#FFEB85"/>
<path d="M665.474 764.099C668.647 764.099 671.224 761.522 671.224 758.349V751.517C671.224 748.344 668.647 745.768 665.474 745.768C662.293 745.768 659.723 748.344 659.723 751.517V758.349C659.723 761.522 662.293 764.099 665.474 764.099Z" fill="#FFEB85"/>
</svg>
