<svg width="215" height="227" viewBox="0 0 215 227" fill="none" xmlns="http://www.w3.org/2000/svg">
<path d="M182.381 218.293C182.381 219.806 181.498 221.034 180.409 221.034H179.737L177.236 136.441L174.736 221.034H174.065C172.974 221.034 172.091 219.806 172.091 218.293V131.73C172.091 130.215 172.974 128.987 174.065 128.987H177.236H180.409C181.498 128.987 182.381 130.215 182.381 131.73V218.293ZM166.929 218.293C166.929 219.71 165.846 220.865 164.463 221.006L161.963 136.441L159.463 221.002C158.098 220.847 157.033 219.699 157.033 218.293V217.951V206.984V199.097V180.71V169.741V155.008V143.467V132.5V131.73C157.033 130.215 158.261 128.987 159.776 128.987H164.185C165.7 128.987 166.929 130.215 166.929 131.73V218.293ZM57.3827 218.293C57.3827 219.69 56.3316 220.831 54.9785 221L52.4792 136.441L49.9788 221.009C48.5841 220.879 47.4873 219.722 47.4873 218.293V131.73C47.4873 130.215 48.7158 128.987 50.2309 128.987H54.6403C56.1554 128.987 57.3827 130.215 57.3827 131.73V155.008V199.097V218.293ZM42.3247 218.293C42.3247 219.806 41.4408 221.034 40.3514 221.034H39.707L37.2057 136.441L34.7055 221.034H34.0075C32.9181 221.034 32.0351 219.806 32.0351 218.293V131.73C32.0351 130.215 32.9181 128.987 34.0075 128.987H37.1799H40.3514C41.4408 128.987 42.3247 130.215 42.3247 131.73V218.293ZM87.069 131.138C87.069 129.058 86.7992 127.144 86.371 125.404C86.3897 125.427 86.4075 125.447 86.4262 125.47C87.0307 126.317 87.7125 127.199 88.2849 128.206C88.8723 129.208 89.4837 130.249 89.975 131.386C90.5376 132.489 90.9942 133.667 91.4286 134.863C91.9173 136.038 92.2512 137.271 92.608 138.478C92.9979 139.681 93.2729 140.895 93.5186 142.078C93.7651 143.258 94.0687 144.397 94.2013 145.499C94.3697 146.602 94.528 147.643 94.6748 148.604C94.8466 149.566 94.884 150.459 94.9669 151.247C95.038 152.038 95.1004 152.726 95.1519 153.293C95.2542 154.432 95.313 155.081 95.313 155.081C95.313 155.081 95.3354 154.43 95.3737 153.291C95.3932 152.719 95.4163 152.024 95.4431 151.229C95.4582 150.432 95.5311 149.529 95.4796 148.547C95.452 147.563 95.4226 146.497 95.3923 145.369C95.396 144.237 95.234 143.055 95.1314 141.82C95.0309 140.585 94.9036 139.31 94.6579 138.025C94.4462 136.733 94.2566 135.412 93.9014 134.12C93.6022 132.812 93.2729 131.509 92.8208 130.254C92.4435 128.974 91.9253 127.759 91.4153 126.577C90.9204 125.392 90.2858 124.299 89.7116 123.249C89.0681 122.235 88.4663 121.26 87.7827 120.431C87.4142 119.923 87.0218 119.478 86.6335 119.057H101.685V120.508C101.685 121.021 102.1 121.433 102.612 121.433H103.514V122.898C103.514 123.502 104.006 123.994 104.612 123.994H109.731C110.337 123.994 110.829 123.502 110.829 122.898V121.433H111.731C112.242 121.433 112.657 121.021 112.657 120.508V119.057H128.661C128.273 119.478 127.88 119.923 127.513 120.431C126.828 121.26 126.227 122.235 125.582 123.249C125.009 124.299 124.374 125.392 123.88 126.577C123.369 127.759 122.851 128.974 122.474 130.254C122.022 131.509 121.693 132.812 121.393 134.12C121.039 135.412 120.85 136.733 120.637 138.025C120.391 139.31 120.264 140.585 120.163 141.82C120.061 143.055 119.899 144.237 119.902 145.369C119.872 146.497 119.843 147.563 119.816 148.547C119.764 149.529 119.836 150.432 119.853 151.229C119.879 152.024 119.902 152.719 119.921 153.291C119.959 154.43 119.982 155.081 119.982 155.081C119.982 155.081 120.04 154.432 120.143 153.293C120.194 152.726 120.257 152.038 120.328 151.247C120.411 150.459 120.448 149.566 120.621 148.604C120.767 147.643 120.925 146.602 121.093 145.499C121.226 144.397 121.529 143.258 121.776 142.078C122.022 140.895 122.297 139.681 122.687 138.478C123.044 137.271 123.377 136.038 123.866 134.863C124.3 133.667 124.758 132.489 125.32 131.386C125.811 130.249 126.423 129.208 127.01 128.206C127.22 127.837 127.452 127.5 127.683 127.158C127.473 128.411 127.347 129.735 127.347 131.138C127.347 140.467 140.142 151.573 151.819 154.35V169.741H151.355L150.635 157.769L149.89 170.16C149.791 170.308 149.719 170.475 149.719 170.666V171.568H148.257C147.651 171.568 147.159 172.06 147.159 172.666V177.785C147.159 178.391 147.651 178.881 148.257 178.881H149.365L148.653 190.718C145.237 191.885 137.944 193.926 128.581 194.095L126.364 143.467L124.032 196.703C107.977 200.018 95.3773 197.961 90.4041 196.817L88.0666 143.467L85.8494 194.09C76.4063 193.906 69.0815 191.814 65.7508 190.664L65.0423 178.881H66.2234C66.8295 178.881 67.321 178.391 67.321 177.785V172.666C67.321 172.06 66.8295 171.568 66.2234 171.568H64.7609V170.666C64.7609 170.425 64.6629 170.208 64.5107 170.044L63.7719 157.769L63.0519 169.741H62.6069V154.348C74.2815 151.568 87.069 140.465 87.069 131.138V131.138ZM64.0568 113.942C62.0344 113.942 60.3949 112.304 60.3949 110.281V104.568H154.021V106.144L68.9881 108.657L153.901 111.165C153.504 112.758 152.076 113.942 150.359 113.942H134.446H79.9702H64.0568ZM64.0568 93.0699H150.359C151.921 93.0699 153.244 94.0518 153.771 95.4279L68.9881 97.9315L154.021 100.447V101.816H60.3949V96.7309C60.3949 94.7102 62.0344 93.0699 64.0568 93.0699V93.0699ZM99.6863 63.6772H114.73C115.833 69.4318 119.046 79.7929 128.346 88.1241H112.657V86.2856C112.657 85.7753 112.242 85.3607 111.731 85.3607H110.829V83.8981C110.829 83.2921 110.337 82.8001 109.731 82.8001H104.612C104.006 82.8001 103.514 83.2921 103.514 83.8981V85.3607H102.612C102.1 85.3607 101.685 85.7753 101.685 86.2856V88.1241H86.0702C95.37 79.7929 98.5834 69.4318 99.6863 63.6772V63.6772ZM93.3076 55.1137V45.6525C93.3076 44.2446 94.0073 43.003 95.0729 42.2421H107.208H119.343C119.353 42.2512 119.361 42.258 119.37 42.2649L95.7458 43.7844L121.085 45.4156C121.09 45.4953 121.108 45.5705 121.108 45.6525V55.1137C121.108 57.4283 119.23 59.3077 116.913 59.3077H114.158H100.258H97.5029C95.1859 59.3077 93.3076 57.4283 93.3076 55.1137ZM102.557 8.12219C102.557 5.74608 104.483 5.54114 106.859 5.54114H107.208H107.558C108.754 5.54114 109.833 5.59582 110.613 5.94893L103.364 7.22461L111.859 8.71687V10.6305C110.336 10.6305 108.793 10.6305 107.208 10.6305C105.623 10.6305 104.081 10.6305 102.557 10.6305V8.12219ZM124.817 31.7877C126.075 31.4801 127.533 31.0723 129.114 30.7238C130.695 30.3729 132.38 29.9993 134.066 29.6257C135.762 29.2999 137.458 28.9742 139.048 28.6712C140.637 28.3613 142.137 28.1586 143.415 27.9422C145.978 27.548 147.706 27.3772 147.706 27.3772C147.706 27.3772 146.051 27.9034 143.542 28.5573C142.283 28.8648 140.825 29.2749 139.244 29.6211C137.664 29.972 135.978 30.3456 134.292 30.7192C132.596 31.0427 130.901 31.3685 129.311 31.6737C127.721 31.979 126.221 32.1841 124.943 32.4005C122.38 32.7924 120.653 32.9678 120.653 32.9678C120.653 32.9678 122.307 32.4438 124.817 31.7877V31.7877ZM107.208 14.0705C121.967 14.0705 133.673 14.148 142.318 14.8451C139.993 14.9157 137.63 14.9863 135.24 15.0592C120.763 15.4966 106.286 15.934 106.286 15.934C106.286 15.934 120.763 16.3715 135.24 16.8089C138.859 16.9182 142.478 17.0275 145.871 17.13C147.501 17.2166 149.068 17.3533 150.503 17.6745C151.955 17.9411 153.25 18.4194 154.418 18.8819C155.557 19.4081 156.576 19.9322 157.379 20.5291C158.196 21.1032 158.848 21.6705 159.327 22.1762C159.82 22.6728 160.143 23.1011 160.343 23.379C160.381 23.4337 160.388 23.4474 160.415 23.4861C160.179 25.9898 158.513 27.6301 156.016 28.6871C155.759 28.4753 155.413 28.2133 155.034 27.933C154.576 27.6346 154.089 27.3362 153.517 27.0355C151.242 25.8417 147.98 24.8644 144.119 24.1992C136.39 22.8573 126.214 22.5612 116.073 22.5612C105.932 22.568 95.8196 22.8642 88.235 23.0783C80.6513 23.3062 75.5963 23.4588 75.5963 23.4588C75.5963 23.4588 80.6513 23.6159 88.2341 23.8506C95.8141 24.0989 105.926 24.4202 115.998 25.0285C117.329 25.1082 118.66 25.197 119.985 25.2904C116.047 25.2904 112.252 25.2904 107.54 25.2904C105.638 25.2904 103.894 25.2904 102.221 25.2904L102.557 32.8174L98.8692 25.2904C92.0206 25.2904 85.7542 25.2904 74.5565 25.2904C74.1855 25.2904 73.8346 25.2995 73.4741 25.3063L92.4469 32.8174L66.1112 25.9215C62.0773 26.5844 59.4559 27.6779 58.6084 28.7714C55.7956 27.6323 53.9417 25.8166 53.9417 22.8869C53.9417 14.501 71.8471 14.0705 107.208 14.0705ZM214.416 146.335L187.544 144.267V131.73C187.544 127.297 184.41 123.825 180.409 123.825H177.236H174.065C172.232 123.825 170.601 124.577 169.35 125.793C167.96 124.584 166.168 123.825 164.185 123.825H159.776C155.417 123.825 151.871 127.37 151.871 131.73V132.5H150.645C150.134 132.5 149.719 132.913 149.719 133.425V134.327H148.257C147.651 134.327 147.159 134.817 147.159 135.423V140.542C147.159 141.148 147.651 141.64 148.257 141.64H149.719V142.542C149.719 143.053 150.134 143.467 150.645 143.467H151.871V149.076C142.303 146.37 132.51 137.148 132.51 131.138C132.51 125.333 135.123 121.135 136.728 119.105H139.6V120.508C139.6 121.021 140.014 121.433 140.525 121.433H141.428V122.898C141.428 123.502 141.92 123.994 142.526 123.994H147.645C148.252 123.994 148.742 123.502 148.742 122.898V121.433H149.646C150.156 121.433 150.571 121.021 150.571 120.508V119.082C155.338 118.968 159.184 115.075 159.184 110.281V96.7309C159.184 91.94 155.338 88.0467 150.571 87.9305V86.2856C150.571 85.7753 150.156 85.3607 149.646 85.3607H148.742V83.8981C148.742 83.2921 148.252 82.8001 147.645 82.8001H142.526C141.92 82.8001 141.428 83.2921 141.428 83.8981V85.3607H140.525C140.014 85.3607 139.6 85.7753 139.6 86.2856V87.9099H136.559C125.305 80.6677 121.387 70.0584 120.03 63.9347C123.662 62.6498 126.272 59.1802 126.272 55.1137V45.6525C126.272 43.6751 125.646 41.848 124.595 40.3376C125.361 39.4218 125.841 38.2599 125.841 36.975V36.1549C127.171 35.3484 130.131 34.0704 135.521 34.0704L137.498 34.0772C138.218 34.0795 138.957 34.0818 139.707 34.0818C148.168 34.0818 163.917 34.0817 163.917 22.8869C163.917 11.7741 147.361 10.7353 117.022 10.6396V8.12219C117.022 5.79392 116.1 0.381032 107.558 0.381032H107.208H106.859C98.3173 0.381032 97.3942 5.79392 97.3942 8.12219V10.6396C67.0548 10.7353 50.4995 11.7741 50.4995 22.8869C50.4995 34.0817 66.2482 34.0818 74.7087 34.0818C75.4591 34.0818 76.1981 34.0795 76.9181 34.0772L78.8949 34.0704C84.2856 34.0704 87.2451 35.3484 88.575 36.1549V36.975C88.575 38.2599 89.0546 39.4218 89.8212 40.3376C88.7707 41.848 88.1441 43.6751 88.1441 45.6525V55.1137C88.1441 59.1802 90.7538 62.6498 94.3874 63.937C93.0318 70.0492 89.1162 80.6631 77.8572 87.9099H74.7427V86.2856C74.7427 85.7753 74.3286 85.3607 73.8168 85.3607H72.9143V83.8981C72.9143 83.2921 72.423 82.8001 71.8168 82.8001H66.6978C66.0916 82.8001 65.6004 83.2921 65.6004 83.8981V85.3607H64.6978C64.1869 85.3607 63.7719 85.7753 63.7719 86.2856V87.9373C59.0403 88.0922 55.2323 91.9651 55.2323 96.7309V110.281C55.2323 115.05 59.0403 118.92 63.7719 119.075V120.508C63.7719 121.021 64.1869 121.433 64.6978 121.433H65.6004V122.898C65.6004 123.502 66.0916 123.994 66.6978 123.994H71.8168C72.423 123.994 72.9143 123.502 72.9143 122.898V121.433H73.8168C74.3286 121.433 74.7427 121.021 74.7427 120.508V119.105H77.6906C79.2841 121.121 81.9062 125.322 81.9062 131.138C81.9062 137.148 72.1133 146.37 62.5453 149.076V143.467H63.8353C64.3471 143.467 64.7609 143.053 64.7609 142.542V141.64H66.2234C66.8295 141.64 67.321 141.148 67.321 140.542V135.423C67.321 134.817 66.8295 134.327 66.2234 134.327H64.7609V133.425C64.7609 132.913 64.3471 132.5 63.8353 132.5H62.5453V131.73C62.5453 127.37 58.9992 123.825 54.6403 123.825H50.2309C48.2484 123.825 46.4558 124.584 45.0662 125.793C43.8157 124.577 42.1841 123.825 40.3514 123.825H37.1799H34.0075C30.0066 123.825 26.8725 127.297 26.8725 131.73V144.267L0 146.335L26.8725 148.402V202.048L0 204.116L26.8725 206.185V218.293C26.8725 222.724 30.0066 226.196 34.0075 226.196H37.1799H40.3514C42.1841 226.196 43.8157 225.442 45.0662 224.228C46.4558 225.437 48.2475 226.196 50.2309 226.196H54.6403C58.9992 226.196 62.5453 222.651 62.5453 218.293V217.951H63.8353C64.3471 217.951 64.7609 217.537 64.7609 217.026V216.124H66.2234C66.8295 216.124 67.321 215.632 67.321 215.026V209.907C67.321 209.304 66.8295 208.811 66.2234 208.811H64.7609V207.909C64.7609 207.397 64.3471 206.984 63.8353 206.984H62.5453V204.26H85.8255C86.3416 206.722 87.3511 209.518 89.3165 211.497C91.0396 213.233 93.2285 214.151 95.6469 214.151H107.208H118.704C124.224 214.151 127.418 209.709 128.616 204.26H151.871V206.984H150.645C150.134 206.984 149.719 207.397 149.719 207.909V208.811H148.257C147.651 208.811 147.159 209.304 147.159 209.907V215.026C147.159 215.632 147.651 216.124 148.257 216.124H149.719V217.026C149.719 217.537 150.134 217.951 150.645 217.951H151.871V218.293C151.871 222.651 155.417 226.196 159.776 226.196H164.185C166.168 226.196 167.96 225.437 169.35 224.228C170.601 225.442 172.232 226.196 174.065 226.196H177.236H180.409C184.41 226.196 187.544 222.724 187.544 218.293V206.185L214.416 204.116L187.544 202.048V148.402L214.416 146.335" fill="#FFEB85"/>
<path d="M125.933 87.1559C114.819 77.8018 113.599 64.8254 113.599 64.8254H109.584C109.584 79.5218 115.715 87.1559 115.715 87.1559H125.933" fill="#FFEB85"/>
<path d="M117.024 57.9431C119.202 57.9431 119.981 56.4737 119.981 54.7537C119.981 53.0314 119.981 46.5273 119.981 46.5273L112.094 45.8279C112.381 53.642 109.584 57.9431 109.584 57.9431C109.584 57.9431 114.845 57.9431 117.024 57.9431" fill="#FFEB85"/>
<path d="M131.362 173.145C131.533 174.462 131.749 175.553 131.865 176.318C132 177.084 132.1 177.521 132.1 177.521C132.1 177.521 132.15 177.075 132.198 176.3C132.229 175.525 132.321 174.416 132.344 173.09C132.414 170.436 132.36 166.907 132.17 163.385C131.967 159.863 131.629 156.35 131.262 153.721C131.092 152.404 130.874 151.313 130.757 150.548C130.623 149.782 130.522 149.347 130.522 149.347C130.522 149.347 130.471 149.791 130.423 150.566C130.393 151.341 130.297 152.45 130.276 153.776C130.205 156.43 130.261 159.959 130.452 163.481C130.656 167.003 130.997 170.516 131.362 173.145Z" fill="#FFEB85"/>
<path d="M82.3452 176.3C82.3923 177.075 82.4441 177.521 82.4441 177.521C82.4441 177.521 82.5436 177.084 82.6772 176.318C82.7948 175.553 83.011 174.462 83.181 173.145C83.547 170.516 83.8878 167.003 84.0906 163.481C84.283 159.959 84.3381 156.43 84.2679 153.776C84.2456 152.45 84.1513 151.341 84.12 150.566C84.0729 149.791 84.0214 149.347 84.0214 149.347C84.0214 149.347 83.9197 149.782 83.7862 150.548C83.6698 151.313 83.4517 152.404 83.2815 153.721C82.9148 156.35 82.5767 159.863 82.3737 163.385C82.1822 166.907 82.1298 170.436 82.1991 173.09C82.2214 174.416 82.3149 175.525 82.3452 176.3" fill="#FFEB85"/>
</svg>
