<svg width="131" height="207" viewBox="0 0 131 207" fill="none" xmlns="http://www.w3.org/2000/svg">
<path d="M2.10609 110.076C1.95114 109.921 1.80075 109.712 1.65263 109.473C1.54098 109.217 1.45439 108.93 1.39742 108.637C1.38831 108.336 1.41111 108.04 1.4658 107.766C1.55694 107.5 1.65948 107.263 1.77797 107.076C2.07192 106.727 2.31118 106.579 2.31118 106.579C2.31118 106.579 2.24283 106.862 2.27018 107.254C2.24283 107.436 2.24511 107.65 2.26562 107.869C2.25878 108.085 2.277 108.313 2.31802 108.536C2.32714 108.762 2.35676 108.99 2.40917 109.199C2.4388 109.418 2.47981 109.627 2.54589 109.798C2.60741 110.188 2.73501 110.45 2.73501 110.45C2.73501 110.45 2.47068 110.354 2.10609 110.076V110.076ZM8.82139 93.6713C6.91186 93.808 3.72396 102.622 2.0514 104.591C1.16272 105.632 0.112251 106.762 0.00743155 108.461C-0.14524 110.978 2.08787 112.521 3.62598 111.557C5.16182 110.591 6.06418 108.206 6.85261 105.98C7.60913 103.848 11.8953 93.4526 8.82139 93.6713" fill="#FFEB85"/>
<path d="M1.84853 69.0149C1.89182 68.762 1.9602 68.4704 2.03996 68.1583C2.15389 67.8576 2.28833 67.5432 2.43873 67.2334C2.62558 66.9463 2.82381 66.6684 3.02205 66.4156C3.24764 66.1832 3.46185 65.9758 3.65553 65.8073C4.09532 65.5157 4.39839 65.3562 4.39839 65.3562C4.39839 65.3562 4.24344 65.6661 4.06115 66.1376C3.94038 66.3472 3.81277 66.6024 3.68516 66.8735C3.53249 67.1286 3.38436 67.4065 3.24536 67.689C3.07446 67.9533 2.91496 68.2244 2.77369 68.4864C2.60734 68.737 2.45694 68.9785 2.34073 69.1903C2.03083 69.5913 1.84853 69.8852 1.84853 69.8852C1.84853 69.8852 1.82802 69.5434 1.84853 69.0149V69.0149ZM3.97228 69.081C4.79944 68.0809 5.63342 66.9145 6.1484 65.6501C6.66338 64.3857 6.74543 63.0462 6.13703 62.8366C5.7337 62.6976 5.0911 63.3993 4.55788 64.0121C3.6692 65.0304 2.72356 65.5726 1.92374 66.7504C0.905169 68.2563 0.248908 70.4661 0.898332 71.0357C1.52953 71.5893 2.90129 70.3727 3.97228 69.081Z" fill="#FFEB85"/>
<path d="M2.04016 87.3449C1.94445 87.5522 1.85557 87.8006 1.96494 88.0056C2.14268 88.3428 2.64855 88.2448 2.99491 88.083C4.72899 87.2697 6.22153 86.035 7.69584 84.8116C7.9784 84.5793 8.28374 84.299 8.29742 83.9323C8.31792 83.3787 7.65482 83.0415 7.09883 83.062C4.70393 83.1417 2.99037 85.2946 2.04016 87.3449" fill="#FFEB85"/>
<path d="M7.03724 51.6099C7.0851 51.4413 7.14663 51.2636 7.21727 51.0882C7.32893 50.9332 7.44742 50.7851 7.56591 50.6553C7.71175 50.5459 7.84845 50.4525 7.97378 50.3819C8.27229 50.2885 8.46598 50.2634 8.46598 50.2634C8.46598 50.2634 8.40219 50.4548 8.35889 50.735C8.30876 50.8489 8.26091 50.9856 8.21533 51.1314C8.14925 51.2567 8.08544 51.3957 8.03075 51.5369C7.9396 51.6577 7.85758 51.7852 7.78466 51.9083C7.68668 52.0222 7.59553 52.1361 7.52489 52.2386C7.31297 52.4277 7.18308 52.5826 7.18308 52.5826C7.18308 52.5826 7.10334 52.4026 7.02359 52.1019C7.01675 51.9584 7.02357 51.7921 7.03724 51.6099V51.6099ZM6.63391 53.5759C6.88001 53.5394 7.10106 53.4096 7.30842 53.2751C8.13331 52.7398 8.8693 52.07 9.47999 51.3C10.7925 49.6506 8.85792 48.1858 7.50439 49.4775C6.91876 50.0379 5.02288 53.8083 6.63391 53.5759" fill="#FFEB85"/>
<path d="M17.2732 26.3471C18.0593 26.5726 18.7839 25.8777 19.3103 25.2513C21.8807 22.1871 24.4488 19.1231 27.0191 16.0567C27.3655 15.6443 27.7187 15.216 27.8736 14.6989C28.024 14.184 27.8918 13.1702 27.1991 13.0745C26.6386 12.9971 26.495 13.5325 26.2466 13.9334C25.4673 15.1909 24.3849 16.1728 23.257 17.1228C20.9897 19.0319 18.3966 20.7428 16.8881 23.3718C16.6009 23.873 16.3526 24.4243 16.3663 25.003C16.3777 25.5816 16.7172 26.1853 17.2732 26.3471" fill="#FFEB85"/>
<path d="M113.399 63.4699C112.802 63.2876 112.237 62.9642 111.729 62.5951C111.248 62.1941 110.822 61.7613 110.426 61.3763C110.054 60.9685 109.699 60.6086 109.366 60.3329C108.751 59.711 108.183 59.4626 108.183 59.4626C108.183 59.4626 108.801 59.4968 109.66 59.9023C110.068 60.1278 110.512 60.4377 110.966 60.7794C111.399 61.1439 111.838 61.5312 112.299 61.8615C112.729 62.2238 113.192 62.529 113.655 62.7044C114.106 62.9118 114.587 62.9915 114.992 62.9687C115.838 63.012 116.337 62.5723 116.337 62.5723C116.337 62.5723 116.261 62.7021 116.07 62.8981C115.879 63.0871 115.546 63.3378 115.072 63.4858C114.596 63.602 114.01 63.6202 113.399 63.4699V63.4699ZM95.0514 68.7119C95.6552 69.2701 96.1884 69.5047 96.1884 69.5047C96.1884 69.5047 95.6119 69.4842 94.7779 69.1562C94.3814 68.9603 93.9394 68.6869 93.5064 68.336C93.094 67.9647 92.7021 67.5228 92.3511 67.0466C92.039 66.55 91.7746 66.0328 91.5536 65.5407C91.3622 65.0327 91.2118 64.5588 91.0887 64.151C90.9247 63.3081 90.8176 62.7477 90.8176 62.7477C90.8176 62.7477 91.1184 63.2307 91.5695 63.9529C91.7678 64.3219 92.0025 64.7479 92.2759 65.1831C92.5198 65.6341 92.8023 66.0966 93.1191 66.5249C93.4016 66.976 93.7252 67.3997 94.0693 67.7597C94.3883 68.1424 94.7301 68.4659 95.0514 68.7119ZM54.1877 8.44573C41.336 8.91047 39.7864 21.9916 32.3534 24.7026C24.9203 27.4113 17.248 34.0567 17.248 34.0567C24.3051 26.8099 31.0409 20.9414 37.1591 12.8858C44.476 3.24926 58.6631 0.540524 70.0177 4.72549C79.3626 8.17233 67.0418 7.98099 54.1877 8.44573ZM45.9298 110.311C45.8751 110.639 45.8455 111.026 45.8272 111.436C45.7862 111.842 45.768 112.275 45.7771 112.708C45.7498 113.138 45.7475 113.573 45.7703 113.979C45.7703 114.389 45.7817 114.776 45.8204 115.106C45.8181 115.788 45.8819 116.252 45.8819 116.252C45.8819 116.252 45.6221 115.867 45.3122 115.225C45.1869 114.895 45.0753 114.5 44.9704 114.068C44.9044 113.63 44.8634 113.161 44.8497 112.687C44.8839 112.213 44.9477 111.744 45.0342 111.311C45.1573 110.885 45.2872 110.496 45.4262 110.172C45.7657 109.543 46.0414 109.172 46.0414 109.172C46.0414 109.172 45.9571 109.632 45.9298 110.311ZM15.5982 115.102C15.1949 114.774 14.7642 114.332 14.3859 113.792C14.0327 113.238 13.7365 112.601 13.5223 111.935C13.3514 111.261 13.258 110.578 13.2101 109.942C13.1965 109.302 13.2238 108.714 13.2557 108.213C13.413 107.22 13.5201 106.557 13.5201 106.557C13.5201 106.557 13.6226 107.215 13.7776 108.204C13.8277 108.696 13.8983 109.263 14.0122 109.858C14.0943 110.455 14.2219 111.081 14.4156 111.678C14.5682 112.282 14.7961 112.869 15.0787 113.382C15.3316 113.91 15.6461 114.366 15.9582 114.724C16.537 115.494 17.1431 115.833 17.1431 115.833C17.1431 115.833 16.4687 115.708 15.5982 115.102V115.102ZM25.8819 53.7764C25.3487 54.7013 24.7289 55.7834 24.0613 56.9407C23.3685 58.0798 22.6302 59.2963 21.8919 60.5128C21.1149 61.7089 20.3629 62.9026 19.8981 64.0941C19.3922 65.2764 19.2487 66.477 19.4993 67.4658C19.693 68.4682 20.2057 69.2131 20.666 69.6118C21.1354 70.0082 21.4886 70.1221 21.4886 70.1221C21.4886 70.1221 21.1263 70.0652 20.5794 69.7257C20.0462 69.384 19.374 68.6755 18.998 67.6048C18.6311 66.5317 18.6904 65.1307 19.1438 63.8162C19.6155 62.4994 20.3607 61.2442 21.0967 60.0322C21.8737 58.8339 22.6507 57.6356 23.3799 56.5124C24.1341 55.4075 24.8383 54.3755 25.4421 53.4916C26.7114 51.7671 27.5567 50.6166 27.5567 50.6166C27.5567 50.6166 26.8868 51.8787 25.8819 53.7764V53.7764ZM116.603 64.3561C119.645 62.0757 116.296 57.0706 113.919 54.1044C107.972 46.6868 102.026 39.2714 96.0791 31.8537C87.7801 21.5018 83.5235 7.2793 71.1161 2.56809C58.7109 -2.14541 43.1088 0.946047 35.0833 11.5144C28.3771 20.3468 20.9896 26.7825 13.2512 34.7287C11.9637 36.0501 10.6443 37.4215 9.96985 39.1393C9.29536 40.857 9.42526 43.028 10.7765 44.2856C12.1278 45.5454 14.0145 44.7298 15.3704 43.4791C17.1523 41.8365 19.5973 40.4538 21.8851 39.0208C21.7096 39.5015 21.6367 39.9184 21.8008 40.1507C22.7351 41.4857 27.0964 38.4604 28.1127 37.9979C28.6163 37.7678 29.1382 37.5764 29.6691 37.4078C30.3299 38.2303 30.7036 39.3488 30.6558 40.415C30.5692 42.3378 29.5232 44.0669 28.5092 45.7026C24.893 51.5415 21.2744 57.3781 17.6558 63.217C15.7463 66.2994 18.3554 70.8443 21.4977 72.6508C24.6423 74.4574 29.0265 73.7011 31.3804 70.9422C31.9068 76.2389 26.9301 79.8179 23.1429 83.5564C16.6806 89.9352 12.6542 98.7197 12.0366 107.778C11.8976 109.846 11.9455 112.004 12.8319 113.879C13.7206 115.751 15.6392 117.268 17.7083 117.118C20.0303 116.95 21.7028 114.895 23.0381 112.988C27.2127 107.012 33.1259 101.472 34.3427 94.2865C34.803 91.5732 34.4452 88.4795 35.6666 86.0145C36.888 83.5518 40.3744 82.0391 42.4844 83.8024C44.1524 85.1943 45.0502 87.6502 45.2439 91.2884C45.4535 95.2456 45.6791 99.2619 45.9115 103.301C45.7361 104.124 45.613 104.932 45.4558 105.536C44.4988 109.199 43.6374 113.008 44.3119 116.799C44.5307 118.043 45.3328 119.542 46.5769 119.335C46.684 119.317 46.7683 119.255 46.864 119.216C47.4702 128.985 48.1059 138.651 48.728 147.789C48.5343 148.543 48.3383 149.299 48.1424 150.053C47.6547 151.944 46.5131 154.416 46.5131 156.357C46.3354 157.045 46.1576 157.758 46.2807 158.455C46.4037 159.155 46.9187 159.838 47.6251 159.918C48.3064 159.995 48.9217 159.51 49.3706 158.993C49.4162 158.94 49.4481 158.881 49.4914 158.829C50.9315 179.348 52.1939 195.769 52.6883 202.1C52.3693 202.054 52.0572 202.007 51.7518 201.934C51.1548 201.765 50.5418 201.665 49.9904 201.471C49.4412 201.312 48.867 201.084 48.2996 200.899C47.1808 200.492 46.0688 200.293 45.3191 200.385C44.5671 200.457 44.2094 200.678 44.2094 200.678C44.2094 200.678 44.6172 200.79 45.1687 201.127C45.7292 201.453 46.3627 202.038 47.1876 202.795C47.6069 203.171 48.0558 203.631 48.687 204.018C49.2817 204.444 49.9517 204.831 50.69 205.141C51.4283 205.435 52.2007 205.74 53.0279 205.893C53.8482 206.046 54.6913 206.157 55.539 206.196C56.3866 206.189 57.2343 206.137 58.0547 206.009C58.8818 205.909 59.668 205.656 60.4108 205.394C61.8965 204.859 63.184 204.102 64.1091 203.25C65.0639 202.437 65.6632 201.576 66.0186 200.959C66.3513 200.314 66.4926 199.943 66.4926 199.943C66.4926 199.943 66.1189 200.116 65.5014 200.4C64.877 200.669 64.0157 201.022 62.9994 201.339C61.9854 201.667 60.7982 201.922 59.5472 202.118C58.9935 202.232 58.4033 202.248 57.8199 202.303C58.7428 193.117 61.7849 162.26 62.1221 151.313C62.3454 144.089 62.6189 138.371 62.931 133.685C63.1589 134.188 63.3891 134.699 63.6124 135.195C64.5535 137.275 66.2215 139.688 68.4614 139.246C70.8199 138.781 71.3417 135.653 71.1161 133.263C70.3687 125.354 67.2697 117.66 67.7436 109.73C68.049 104.627 69.8241 99.7312 70.6193 94.6806C70.9839 92.3705 71.0819 89.9398 70.7857 87.6092C71.0523 87.2561 71.353 86.9668 71.688 86.805C72.9117 86.2127 74.3586 86.6387 75.6529 87.0579C76.9472 87.4748 78.417 87.8644 79.611 87.2128C81.3519 86.2606 81.3884 83.8047 81.1127 81.8386C80.265 75.8198 78.6676 69.9079 76.3639 64.2832C75.3066 61.6975 74.0738 59.048 74.2083 56.255C74.2834 54.6922 74.983 53.102 76.0608 51.9949C77.0976 52.758 78.1572 53.4871 78.8545 54.2935C80.4405 56.1252 82.5232 60.039 84.6993 56.1297C84.8041 55.9406 84.8543 55.7265 84.9431 55.5283C85.0685 55.7698 85.1961 56.0112 85.3146 56.2481C87.0669 59.7907 88.8192 63.3332 90.5738 66.8758C91.1571 68.0558 91.7678 69.2701 92.775 70.1198C93.7799 70.9719 95.2952 71.3637 96.4345 70.703C98.0866 69.7416 98.0228 67.3701 97.7038 65.4861C96.9176 60.8546 95.8649 56.2664 94.5501 51.7534C99.0755 52.1703 102.669 54.7287 105.367 58.3874C108.063 62.0461 112.966 67.0831 116.603 64.3561" fill="#FFEB85"/>
<path d="M76.0902 116.87C76.0264 117.439 75.9626 118.009 75.9033 118.542C75.8099 119.073 75.7256 119.569 75.6527 119.993C75.4317 120.838 75.2835 121.401 75.2835 121.401C75.2835 121.401 75.222 120.822 75.1309 119.954C75.1218 119.524 75.1104 119.02 75.099 118.483C75.1195 117.945 75.1423 117.373 75.1628 116.801C75.2288 116.232 75.2904 115.662 75.3519 115.129C75.4431 114.598 75.5296 114.104 75.6026 113.678C75.8236 112.835 75.9694 112.27 75.9694 112.27C75.9694 112.27 76.031 112.849 76.1221 113.717C76.1312 114.15 76.1426 114.651 76.154 115.191C76.1335 115.726 76.1107 116.298 76.0902 116.87V116.87ZM79.8569 95.4779C73.2532 94.774 76.0606 103.634 75.3952 107.857C74.9349 110.801 74.6045 113.749 74.4108 116.697C74.3447 117.701 73.7819 124.057 74.2103 124.679C75.7188 126.871 79.3373 118.266 79.0343 114.628C78.7289 110.988 77.5167 107.32 78.7153 103.723C79.1824 102.324 80.0004 100.984 80.4425 99.5831C80.8823 98.1798 81.7573 95.6807 79.8569 95.4779Z" fill="#FFEB85"/>
<path d="M95.3934 93.0357C95.0972 92.6575 94.7918 92.1837 94.4865 91.6597C94.2199 91.1175 93.9761 90.5183 93.771 89.9055C93.6183 89.2767 93.5067 88.6389 93.4429 88.0397C93.4224 87.4337 93.4292 86.871 93.477 86.3926C93.6343 85.4381 93.8348 84.8389 93.8348 84.8389C93.8348 84.8389 93.8416 85.4768 93.9989 86.3926C94.033 86.8505 94.1219 87.379 94.2404 87.9326C94.3384 88.4908 94.4819 89.0763 94.6642 89.6481C94.8146 90.229 95.006 90.8008 95.2202 91.3248C95.4162 91.8556 95.619 92.3522 95.8355 92.7577C96.191 93.6166 96.5237 94.1611 96.5237 94.1611C96.5237 94.1611 96.036 93.7602 95.3934 93.0357V93.0357ZM104.212 104.631C100.539 99.7494 97.9296 93.587 96.747 86.9986C96.2662 84.3126 94.1926 80.3373 92.5314 84.3673C91.6062 86.6136 92.1827 89.2426 93.2013 91.1676C96.2023 96.822 98.9277 102.583 101.614 108.523C102.008 109.391 102.416 110.281 103.029 110.912C103.642 111.541 104.52 111.862 105.237 111.445C106.213 110.876 106.484 109.176 106.124 107.889C105.764 106.6 104.955 105.618 104.212 104.631" fill="#FFEB85"/>
<path d="M100.119 82.0232C100.158 81.6723 100.219 81.4559 100.219 81.4559C100.219 81.4559 100.365 81.6313 100.609 81.8455C100.693 81.9662 100.802 82.0983 100.923 82.2305C101.017 82.3763 101.124 82.5243 101.238 82.6656C101.32 82.8273 101.411 82.9845 101.504 83.1303C101.577 83.2944 101.652 83.447 101.725 83.5746C101.821 83.8844 101.921 84.0894 101.921 84.0894C101.921 84.0894 101.7 84.0553 101.363 83.9505C101.219 83.8707 101.058 83.7682 100.887 83.6452C100.741 83.5039 100.595 83.34 100.458 83.1691C100.358 82.9732 100.269 82.7727 100.199 82.5813C100.16 82.3763 100.13 82.1872 100.119 82.0232V82.0232ZM101.133 85.1807C102.186 85.429 103.031 84.2056 103.106 83.128C103.27 80.7929 101.509 79.7222 99.6813 78.9386L98.002 78.0888C98.2731 80.0936 98.8906 82.0505 99.8181 83.8503C100.112 84.4221 100.506 85.0326 101.133 85.1807" fill="#FFEB85"/>
<path d="M80.1583 65.0896C80.0239 64.978 79.8758 64.839 79.7185 64.6795C79.5932 64.5041 79.4679 64.3059 79.3517 64.1032C79.2765 63.8822 79.2127 63.6589 79.1648 63.4471C79.1489 63.2238 79.142 63.021 79.1489 62.8456C79.2309 62.4834 79.3129 62.2602 79.3129 62.2602C79.3129 62.2602 79.4383 62.4652 79.657 62.734C79.7299 62.8775 79.8256 63.037 79.9304 63.1987C80.0079 63.3719 80.0991 63.5496 80.1971 63.7227C80.2609 63.9118 80.3338 64.0986 80.4135 64.2717C80.4659 64.4585 80.5206 64.634 80.5799 64.782C80.6368 65.1238 80.7052 65.3561 80.7052 65.3561C80.7052 65.3561 80.4842 65.2696 80.1583 65.0896V65.0896ZM79.477 60.6973L78.226 59.7588C78.1576 61.4378 78.3787 63.1281 78.8777 64.7319C79.0372 65.2422 79.2719 65.7981 79.7618 66.01C80.5867 66.3677 81.4549 65.4883 81.6714 64.6157C82.1431 62.7294 80.8556 61.5995 79.477 60.6973" fill="#FFEB85"/>
<path d="M117.28 73.7034C117.07 73.6191 116.833 73.5029 116.578 73.3685C116.348 73.2045 116.109 73.0176 115.878 72.8171C115.682 72.5848 115.5 72.3433 115.341 72.1087C115.211 71.8512 115.099 71.612 115.017 71.4001C114.915 70.9422 114.887 70.6415 114.887 70.6415C114.887 70.6415 115.106 70.8557 115.459 71.1245C115.6 71.2771 115.78 71.4434 115.974 71.6143C116.147 71.8011 116.341 71.9902 116.542 72.1656C116.715 72.3706 116.902 72.5666 117.084 72.742C117.25 72.9379 117.414 73.1201 117.567 73.2659C117.827 73.6236 118.039 73.8469 118.039 73.8469C118.039 73.8469 117.738 73.815 117.28 73.7034V73.7034ZM117.583 70.826C116.343 69.6983 115.104 68.573 113.864 67.4476C113.864 67.4476 113.714 68.0877 113.691 68.3064C113.541 69.8419 113.809 72.3137 115.334 73.7922C115.847 74.2911 116.51 74.6715 117.223 74.6943C117.938 74.7171 118.688 74.3162 118.93 73.6441C119.306 72.6007 118.405 71.571 117.583 70.826Z" fill="#FFEB85"/>
<path d="M128.826 99.8041C128.471 99.8405 128.054 99.8269 127.602 99.7859C127.16 99.7016 126.695 99.5649 126.247 99.3872C125.818 99.1617 125.415 98.8974 125.062 98.6172C124.736 98.3005 124.456 97.993 124.25 97.6991C123.886 97.0749 123.754 96.6306 123.754 96.6306C123.754 96.6306 124.077 96.9769 124.633 97.346C124.877 97.5601 125.196 97.7697 125.54 97.9702C125.873 98.1866 126.247 98.3825 126.634 98.5443C127.008 98.7334 127.402 98.8905 127.782 98.9999C128.158 99.132 128.525 99.2368 128.847 99.2824C129.489 99.4646 129.961 99.4851 129.961 99.4851C129.961 99.4851 129.539 99.672 128.826 99.8041V99.8041ZM128.24 95.5576C125.85 93.6941 123.227 90.9785 120.541 89.7552C120.023 92.4138 123.314 98.4486 125.278 100.23C126.044 100.932 127.003 101.481 128.042 101.533C129.079 101.586 130.182 101.055 130.592 100.098C130.954 99.2528 130.717 98.2458 130.212 97.4758C129.708 96.7035 128.967 96.1249 128.24 95.5576Z" fill="#FFEB85"/>
<path d="M38.6974 101.353C38.5721 101.255 38.4354 101.13 38.2895 100.991C38.1756 100.832 38.0617 100.654 37.9546 100.472C37.8885 100.271 37.8315 100.068 37.7882 99.877C37.7791 99.6765 37.7768 99.4897 37.7837 99.3325C37.8703 99.0022 37.9523 98.7994 37.9523 98.7994C37.9523 98.7994 38.0776 98.9817 38.2918 99.2163C38.3625 99.3416 38.4536 99.4829 38.5539 99.6264C38.6245 99.779 38.7088 99.9385 38.8 100.091C38.8546 100.26 38.9185 100.428 38.9868 100.583C39.0278 100.752 39.0734 100.914 39.1213 101.048C39.1554 101.365 39.2078 101.581 39.2078 101.581C39.2078 101.581 39.0028 101.508 38.6974 101.353ZM38.4764 93.931C37.3461 95.0382 36.9246 99.0295 37.2778 100.538C37.4123 101.128 37.6925 101.709 38.1733 102.08C38.6541 102.449 39.3605 102.558 39.8755 102.235C40.3289 101.95 40.55 101.385 40.5637 100.85C40.5773 100.31 40.4133 99.7859 40.2515 99.2733C39.7205 97.5852 39.3605 95.4095 38.4764 93.931" fill="#FFEB85"/>
<path d="M95.4823 28.5319C96.984 30.6802 98.7203 32.6758 100.744 34.3503C101.906 35.3139 103.159 36.1682 104.495 36.8744C102.052 33.8194 99.6113 30.7644 97.1686 27.7094C96.4007 26.748 95.6327 25.7867 94.817 24.8663C94.2245 24.1965 93.3313 22.8912 92.4813 22.6269C92.2398 23.3901 92.9758 24.4608 93.3358 25.1009C93.9944 26.2788 94.7076 27.427 95.4823 28.5319Z" fill="#FFEB85"/>
<path d="M104.592 60.1506C104.706 61.62 105.524 63.1236 106.725 64.347C106.939 64.5634 107.293 64.8026 107.648 64.7001C107.994 64.5998 107.997 64.2695 107.921 64.0166C107.482 62.57 106.313 61.0801 104.592 60.1506" fill="#FFEB85"/>
</svg>
