<svg width="241" height="343" viewBox="0 0 241 343" fill="none" xmlns="http://www.w3.org/2000/svg">
<path d="M218.046 236.633C212.597 238.663 204.672 241.299 194.995 243.926C190.146 245.204 184.873 246.543 179.242 247.714C173.621 248.942 167.644 250.011 161.439 250.988C158.328 251.421 155.172 251.936 151.957 252.28C150.351 252.471 148.735 252.662 147.11 252.854C145.483 253.004 143.847 253.157 142.202 253.307C136.23 253.872 130.146 254.173 124.05 254.376L123.469 218.173L202.735 219.224L206.146 229.011C206.447 229.867 207.252 230.405 208.111 230.405C208.341 230.405 208.571 230.368 208.797 230.289C209.884 229.911 210.455 228.724 210.077 227.639L207.163 219.283L212.88 219.36L219.096 236.241C218.748 236.371 218.417 236.499 218.046 236.633V236.633ZM194.995 250.865C190.146 252.141 184.873 253.48 179.242 254.651C173.621 255.879 167.644 256.948 161.439 257.927C158.328 258.36 155.172 258.873 151.957 259.219C150.351 259.408 148.735 259.599 147.11 259.793C145.483 259.943 143.847 260.094 142.202 260.244C136.266 260.807 130.221 261.105 124.162 261.308L124.109 258.098C130.28 258.1 136.446 258.007 142.514 257.64C144.187 257.542 145.852 257.444 147.509 257.349C149.163 257.21 150.809 257.071 152.445 256.932C155.719 256.692 158.939 256.28 162.113 255.947C168.448 255.168 174.562 254.287 180.322 253.232C186.094 252.234 191.51 251.052 196.501 249.917C201.063 248.842 205.235 247.755 208.988 246.705C204.902 248.031 200.213 249.448 194.995 250.865V250.865ZM124.221 265.035C130.353 265.037 136.483 264.942 142.514 264.577C144.187 264.479 145.852 264.381 147.509 264.286C149.163 264.147 150.809 264.008 152.445 263.871C155.719 263.629 158.939 263.217 162.113 262.884C168.448 262.105 174.562 261.224 180.322 260.169C185.83 259.217 191.002 258.098 195.801 257.011C165.625 266.368 135.159 268.026 124.273 268.297L124.221 265.035ZM194.475 262.666C192.335 263.383 189.708 264.156 186.702 265.097C183.67 265.914 180.263 266.951 176.478 267.776C172.714 268.694 168.601 269.541 164.232 270.352C162.043 270.721 159.793 271.104 157.494 271.494C155.188 271.831 152.832 272.195 150.426 272.482C145.618 273.086 140.634 273.626 135.555 273.986C130.48 274.328 125.294 274.599 120.128 274.608C114.901 274.596 109.758 274.325 104.67 273.984C99.5906 273.619 94.6072 273.084 89.7991 272.48C84.9888 271.888 80.3654 271.125 75.9926 270.348C75.9311 270.336 75.8741 270.325 75.8148 270.314C74.7461 270.14 73.6752 269.958 72.5996 269.78C70.7903 269.487 68.9788 269.168 67.1786 268.799C63.5555 268.136 59.9734 267.306 56.4346 266.514C52.9186 265.648 49.4163 264.775 46.1076 263.848C39.447 262.007 33.2946 260.016 28.1152 258.062C22.9289 256.118 18.7247 254.189 15.8741 252.665C13.0075 251.163 11.5172 250.052 11.5172 250.052C11.5172 250.052 12.9391 251.25 15.7259 252.924C18.4968 254.619 22.603 256.806 27.7004 259.064C32.7933 261.338 38.8592 263.7 45.4651 265.951C48.7828 267.095 52.1894 268.156 55.6963 269.243C59.2215 270.252 62.8013 271.305 66.4244 272.188C68.2268 272.669 70.0407 273.097 71.8522 273.503C73.6638 273.915 75.4662 274.35 77.2664 274.701C80.8599 275.469 84.4146 276.118 87.86 276.738C91.3122 277.31 94.655 277.845 97.8361 278.28C101.017 278.718 104.03 279.098 106.819 279.397C112.269 279.996 116.843 280.349 120.112 280.549V328.156C119.623 327.987 119.11 327.807 118.574 327.618C114.236 326.092 108.468 323.98 102.758 321.715C97.0453 319.453 91.4011 317.013 87.222 315.047C85.1415 314.049 83.4029 313.218 82.2134 312.587C81.0103 311.97 80.3244 311.619 80.3244 311.619C80.3244 311.619 80.9556 312.063 82.0584 312.842C83.1545 313.637 84.761 314.706 86.6933 315.995C90.5739 318.537 95.8627 321.772 101.252 324.841C102.172 325.365 103.091 325.882 104.007 326.392C102.724 325.802 101.4 325.194 100.03 324.561C97.4669 323.319 94.7279 322.069 91.957 320.656C89.1702 319.276 86.29 317.84 83.4097 316.303C80.4998 314.81 77.5945 313.211 74.696 311.594C71.7679 310.019 68.9446 308.281 66.1168 306.636C63.2912 304.992 60.6251 303.199 57.975 301.556C55.3659 299.859 52.9232 298.105 50.5579 296.501C48.2473 294.829 46.1304 293.154 44.1343 291.655C42.1632 290.129 40.493 288.571 38.9366 287.268C37.3575 285.985 36.1316 284.714 35.1084 283.677C33.0462 281.611 31.8704 280.431 31.8704 280.431C31.8704 280.431 32.9687 281.686 34.892 283.882C35.8513 284.987 36.9997 286.347 38.4945 287.732C39.9689 289.138 41.5525 290.819 43.4325 292.482C45.3352 294.116 47.3586 295.943 49.5781 297.777C51.8476 299.542 54.1993 301.474 56.7172 303.354C59.2693 305.178 61.8488 307.165 64.5855 309.006C65.9299 309.91 67.2743 310.837 68.6301 311.758C51.6175 301.839 34.9125 290.225 26.5611 279.094C15.5664 264.436 8.83293 254.553 6.49272 244.536C11.7246 249.065 21.3953 253.745 38.4034 259.492C44.1708 261.44 49.9837 263.096 55.71 264.509C56.6648 264.709 57.6423 264.917 58.6609 265.131C60.3768 265.502 62.1792 265.892 64.0773 266.222C67.8554 266.965 71.9753 267.623 76.3298 268.311C80.6935 268.949 85.3033 269.537 90.084 270.058C94.8624 270.587 99.8162 270.965 104.85 271.314C109.877 271.621 115.026 271.856 120.097 271.835C125.23 271.851 130.335 271.621 135.375 271.311C140.406 270.958 145.363 270.585 150.141 270.056C154.919 269.534 159.531 268.942 163.895 268.309C168.25 267.621 172.367 266.958 176.145 266.22C178.043 265.887 179.848 265.502 181.562 265.128C183.282 264.764 184.911 264.42 186.443 264.096C189.48 263.345 192.149 262.734 194.32 262.149C198.666 260.955 201.147 260.274 201.147 260.274C201.147 260.274 198.723 261.144 194.475 262.666V262.666ZM164.991 295.549C164.722 296.435 164.191 297.278 163.537 298.057C162.886 298.845 162.104 299.59 161.209 300.23C159.447 301.565 157.344 302.577 155.136 303.376C154.582 303.575 154.047 303.716 153.502 303.887C152.91 304.032 152.379 304.185 151.811 304.301C150.692 304.54 149.576 304.7 148.489 304.777C147.402 304.878 146.342 304.853 145.344 304.773C144.344 304.686 143.405 304.534 142.555 304.304C141.705 304.08 140.951 303.764 140.34 303.381C139.718 303.021 139.251 302.581 138.93 302.183C138.613 301.779 138.431 301.401 138.372 301.148C138.294 300.893 138.253 300.756 138.253 300.756C138.253 300.756 138.317 300.882 138.44 301.121C138.547 301.372 138.798 301.668 139.13 302.003C139.479 302.331 139.958 302.675 140.577 302.925C141.186 303.196 141.922 303.388 142.728 303.545C144.355 303.841 146.311 303.83 148.368 303.565C149.4 303.456 150.453 303.228 151.517 302.996C152.044 302.882 152.593 302.713 153.096 302.586C153.63 302.41 154.19 302.251 154.703 302.06C155.731 301.704 156.767 301.287 157.74 300.807C158.709 300.319 159.659 299.822 160.5 299.235C162.188 298.091 163.663 296.754 164.257 295.284C164.551 294.56 164.62 293.84 164.506 293.218C164.365 292.585 164.034 292.097 163.711 291.74C163.382 291.389 163.077 291.143 162.863 290.988C162.642 290.84 162.526 290.758 162.526 290.758C162.526 290.758 162.656 290.817 162.902 290.924C163.141 291.042 163.503 291.213 163.897 291.546C164.287 291.869 164.736 292.359 164.998 293.061C165.251 293.774 165.285 294.669 164.991 295.549V295.549ZM115.462 121.489L116.348 92.2942L120.848 92.4217L120.384 121.379L115.462 121.489ZM114.509 152.87L115.393 123.744L120.343 123.853L119.878 152.772L114.509 152.87ZM119.333 186.696L118.868 215.57L112.602 215.654L113.484 186.605L119.333 186.696ZM113.554 184.259L114.439 155.18L119.839 155.278L119.374 184.17L113.554 184.259ZM10.8336 213.884C20.8781 188.562 71.9365 80.4045 77.6173 68.3872H157.301L164.797 88.7539L161.673 88.8405L156.195 73.1372C155.819 72.0505 154.635 71.4765 153.545 71.8569C152.461 72.2351 151.886 73.422 152.267 74.5064L155.879 84.8628H124.964C124.387 84.8628 123.922 85.3299 123.922 85.904C123.922 86.4781 124.387 86.9451 124.964 86.9451H156.603L157.307 88.9635L121.407 89.9818L121.147 73.8206L120.887 89.9955L116.414 90.1231L116.906 73.8867C116.941 72.7362 116.038 71.7772 114.89 71.743C113.734 71.6633 112.782 72.6087 112.745 73.7568L112.413 84.7535H80.4337C79.8595 84.7535 79.3924 85.2205 79.3924 85.7946C79.3924 86.3687 79.8595 86.8358 80.4337 86.8358H112.349L112.244 90.2416L78.0115 91.2098L112.187 92.178L111.488 115.183H71.0843C70.3665 115.183 69.7832 115.766 69.7832 116.484C69.7832 117.201 70.3665 117.784 71.0843 117.784H111.408L111.294 121.58L64.2779 122.616L111.23 123.653L110.565 145.61H61.7348C60.8735 145.61 60.174 146.309 60.174 147.17C60.174 148.031 60.8735 148.731 61.7348 148.731H110.469L110.341 152.943L50.5465 154.025L110.275 155.105L109.64 176.039H52.3854C51.3805 176.039 50.5648 176.852 50.5648 177.859C50.5648 178.864 51.3805 179.68 52.3854 179.68H109.53L109.389 184.322L36.8129 185.432L109.321 186.544L108.717 206.466H43.0383C41.8875 206.466 40.9555 207.398 40.9555 208.546C40.9555 209.696 41.8875 210.628 43.0383 210.628H108.589L108.436 215.709L23.0815 216.841L108.368 217.973L107.965 231.23C107.928 232.378 108.833 233.339 109.981 233.373C110.002 233.376 110.025 233.376 110.045 233.376C111.166 233.376 112.091 232.485 112.126 231.357L112.529 218.028L118.83 218.112L118.244 254.467C116.211 254.483 114.183 254.496 112.158 254.458C108.817 254.339 105.479 254.369 102.179 254.132C98.882 253.92 95.5961 253.813 92.3718 253.464C89.1452 253.154 85.9459 252.922 82.8241 252.471C76.5623 251.737 70.542 250.737 64.8589 249.664C62.0243 249.077 59.267 248.507 56.601 247.956C53.9554 247.304 51.401 246.675 48.9469 246.069C46.4791 245.514 44.1822 244.734 41.9604 244.124C39.7547 243.456 37.6264 242.935 35.6918 242.24C31.8066 240.905 28.3726 239.852 25.6177 238.786C20.1033 236.668 16.9519 235.456 16.9519 235.456C16.9519 235.456 20.0623 236.772 25.506 239.08C28.2268 240.242 31.6243 241.408 35.4753 242.88C37.3917 243.643 39.5063 244.236 41.6938 244.983C43.9019 245.668 46.1851 246.53 48.6415 247.172C51.0843 247.862 53.6318 248.582 56.266 249.327C58.9275 249.972 61.6802 250.639 64.508 251.325C70.1888 252.599 76.2182 253.813 82.5073 254.767C85.6383 255.326 88.8535 255.672 92.1029 256.093C95.3477 256.553 98.6541 256.777 101.981 257.103C105.308 257.453 108.678 257.54 112.055 257.775C114.092 257.882 116.138 257.939 118.187 257.991L118.132 261.404C116.138 261.422 114.145 261.433 112.158 261.397C108.817 261.278 105.479 261.306 102.179 261.069C98.882 260.857 95.5961 260.75 92.3718 260.401C89.1452 260.091 85.9459 259.859 82.8241 259.41C76.5623 258.674 70.542 257.674 64.8589 256.601C62.0243 256.016 59.267 255.444 56.601 254.893C53.9554 254.241 51.401 253.612 48.9469 253.009C46.4791 252.451 44.1822 251.671 41.9604 251.063C39.7547 250.393 37.6264 249.872 35.6918 249.179C31.8066 247.842 28.3726 246.792 25.6177 245.725C20.1033 243.604 16.9519 242.392 16.9519 242.392C16.9519 242.392 20.0623 243.712 25.506 246.017C28.2268 247.179 31.6243 248.345 35.4753 249.819C37.3917 250.58 39.5063 251.175 41.6938 251.92C43.9019 252.605 46.1851 253.469 48.6415 254.109C51.0843 254.799 53.6318 255.519 56.266 256.264C58.9275 256.909 61.6802 257.576 64.508 258.262C70.1888 259.536 76.2182 260.75 82.5073 261.704C85.6383 262.263 88.8535 262.609 92.1029 263.03C95.3477 263.49 98.6541 263.714 101.981 264.039C105.308 264.39 108.678 264.479 112.055 264.712C114.056 264.819 116.066 264.873 118.075 264.923L118.021 268.336C109.211 268.222 73.6546 266.965 39.7501 255.506C14.9124 247.111 7.15808 241.705 5.56984 235.941C5.65871 229.53 7.39509 222.554 10.8336 213.884V213.884ZM78.1391 45.1706H85.4127V36.73H78.9503L91.0912 25.8906H97.337V18.8374C97.337 18.8374 100.183 18.7031 104.453 18.6051C106.588 18.5687 109.081 18.4912 111.75 18.4775C114.418 18.4593 117.264 18.441 120.112 18.4228C122.959 18.441 125.807 18.4593 128.475 18.4775C131.144 18.5254 133.636 18.5687 135.772 18.6051C140.042 18.7053 142.888 18.8374 142.888 18.8374V25.8906H149.134L158.012 33.8163L87.4954 34.5111L159.586 35.2219L161.275 36.73H155.377V45.1706H162.086V48.5992L87.4954 49.31L162.086 50.0231V56.8256H155.377V62.9129L87.4954 63.5895L151.369 64.2251H85.4127V56.8256H78.1391V45.1706ZM166.625 93.718L176.355 120.145L172.618 120.229L163.341 93.6246L166.625 93.718ZM187.915 151.542L183.567 151.622L174.3 125.045L178.189 125.129L187.915 151.542ZM199.474 182.944L194.516 183.019L185.253 156.458L189.754 156.54L199.474 182.944ZM191.777 187.803L198.285 206.466H133.52C132.372 206.466 131.44 207.398 131.44 208.546C131.44 209.696 132.372 210.628 133.52 210.628H199.737L201.079 214.478L123.426 215.508L122.963 186.751L191.777 187.803ZM180.819 156.379L187.682 176.064H131.381C130.376 176.064 129.56 176.88 129.56 177.887C129.56 178.891 130.376 179.707 131.381 179.707H188.954L190.132 183.088L122.92 184.115L122.457 155.324L180.819 156.379ZM169.856 124.947L177.082 145.664H129.243C128.382 145.664 127.682 146.364 127.682 147.225C127.682 148.086 128.382 148.786 129.243 148.786H178.169L179.187 151.699L122.416 152.727L121.951 123.89L169.856 124.947ZM127.103 117.866H167.386L168.245 120.325L121.913 121.347L121.448 92.4377L158.889 93.4993L166.479 115.265H127.103C126.383 115.265 125.802 115.846 125.802 116.566C125.802 117.283 126.383 117.866 127.103 117.866V117.866ZM211.034 214.346L205.467 214.421L196.209 187.872L201.318 187.949L211.034 214.346ZM166.249 66.0362V40.2293C166.249 38.646 165.574 37.1401 164.394 36.0876L152.83 24.526C151.814 23.617 150.496 23.1158 149.134 23.1158H148.439V21.6123C148.439 18.5481 145.955 16.0627 142.888 16.0627H120.112H97.337C94.2699 16.0627 91.7861 18.5481 91.7861 21.6123V23.1158H91.0912C89.7285 23.1158 88.4114 23.617 87.3951 24.526L75.8308 36.0876C74.6505 37.1401 73.976 38.646 73.976 40.2293V66.0362C67.844 79.0103 15.8285 186.238 5.67468 211.84C-5.91699 241.062 0.584081 253.715 22.1222 282.424C40.6297 307.097 96.8357 333.357 113.621 340.818C115.68 341.734 117.863 342.196 120.112 342.196C122.359 342.196 124.545 341.734 126.604 340.818C143.389 333.357 199.595 307.097 218.103 282.424C239.641 253.715 246.142 241.062 234.55 211.84C224.396 186.238 172.381 79.0103 166.249 66.0362" fill="#FFEB85"/>
<path d="M86.9232 303.237C94.2469 305.329 100.983 304.217 101.972 300.756C102.961 297.296 97.8267 292.796 90.5053 290.705C83.1816 288.614 76.4459 289.726 75.4569 293.186C74.468 296.647 79.6018 301.146 86.9232 303.237Z" fill="#FFEB85"/>
<path d="M126.467 2.37092H132.018V15.55H133.406V2.37092H138.957C139.34 2.37092 139.65 2.06113 139.65 1.67613C139.65 1.2934 139.34 0.983559 138.957 0.983559H126.467C126.082 0.983559 125.772 1.2934 125.772 1.67613C125.772 2.06113 126.082 2.37092 126.467 2.37092" fill="#FFEB85"/>
<path d="M99.2601 6.73356H102.847V15.55H104.234V6.73356H107.823C108.206 6.73356 108.516 6.42383 108.516 6.0411C108.516 5.65837 108.206 5.3462 107.823 5.3462H99.2601C98.8773 5.3462 98.5674 5.65837 98.5674 6.0411C98.5674 6.42383 98.8773 6.73356 99.2601 6.73356Z" fill="#FFEB85"/>
<path d="M149.45 52.5064H144.825V56.8258H149.45V52.5064Z" fill="#FFEB85"/>
<path d="M135.836 52.5064H131.208V56.8258H135.836V52.5064Z" fill="#FFEB85"/>
<path d="M122.218 52.5064H117.592V56.8258H122.218V52.5064Z" fill="#FFEB85"/>
<path d="M108.6 52.5064H103.975V56.8258H108.6V52.5064Z" fill="#FFEB85"/>
<path d="M94.9831 52.5064H90.3574V56.8258H94.9831V52.5064Z" fill="#FFEB85"/>
<path d="M149.45 38.7895H144.825V43.1089H149.45V38.7895Z" fill="#FFEB85"/>
<path d="M135.836 38.7895H131.208V43.1089H135.836V38.7895Z" fill="#FFEB85"/>
<path d="M122.218 38.7895H117.592V43.1089H122.218V38.7895Z" fill="#FFEB85"/>
<path d="M108.6 38.7895H103.975V43.1089H108.6V38.7895Z" fill="#FFEB85"/>
<path d="M94.9831 38.7895H90.3574V43.1089H94.9831V38.7895Z" fill="#FFEB85"/>
<path d="M106.167 19.1065C105.574 19.0928 105.002 19.0814 104.453 19.0723C102.466 19.0267 100.807 18.972 99.5791 18.9288V25.9409H106.167V19.1065Z" fill="#FFEB85"/>
<path d="M114.826 19.2204C113.787 19.2135 112.748 19.2067 111.75 19.1998C110.535 19.193 109.364 19.1725 108.241 19.1497V25.9409H114.826V19.2204Z" fill="#FFEB85"/>
<path d="M123.487 19.2318C122.366 19.2386 121.243 19.2477 120.112 19.2545C119.037 19.2477 117.966 19.2409 116.899 19.2318V25.9409H123.487V19.2318" fill="#FFEB85"/>
<path d="M132.146 19.1361C130.975 19.1566 129.747 19.1771 128.475 19.1998C127.53 19.2044 126.543 19.2113 125.561 19.2181V25.9409H132.146V19.1361" fill="#FFEB85"/>
<path d="M140.807 18.9219C139.568 18.9675 137.841 19.0221 135.771 19.0723C135.275 19.0814 134.753 19.0905 134.22 19.0996V25.9409H140.807V18.9219" fill="#FFEB85"/>
<path d="M26.1165 194.939C29.0766 188.346 32.5288 180.657 36.2293 172.415C39.8844 164.156 43.7832 155.344 47.682 146.535C51.5239 137.698 55.3657 128.863 58.9683 120.58C62.5254 112.278 65.8477 104.528 68.6938 97.885C71.4988 91.2259 73.8367 85.6763 75.4751 81.7921C77.0884 77.8965 78.0113 75.6707 78.0113 75.6707C78.0113 75.6707 76.9996 77.8577 75.2268 81.6827C73.4767 85.5192 70.977 90.9981 67.9782 97.5729C65.0182 104.166 61.566 111.857 57.8654 120.097C54.2104 128.355 50.3116 137.167 46.4128 145.977C42.5709 154.814 38.7291 163.648 35.1288 171.934C31.5695 180.236 28.2494 187.984 25.4033 194.627C22.5983 201.286 20.258 206.835 18.622 210.722C17.0064 214.615 16.0835 216.841 16.0835 216.841C16.0835 216.841 17.0952 214.654 18.868 210.829C20.6181 206.992 23.1178 201.514 26.1165 194.939" fill="#FFEB85"/>
</svg>
