<svg width="97" height="98" viewBox="0 0 97 98" fill="none" xmlns="http://www.w3.org/2000/svg">
<path fill-rule="evenodd" clip-rule="evenodd" d="M0.667 0.66301C0.3 1.02901 0 1.89701 0 2.59101C0 3.56801 6.16 3.92501 27.297 4.17401C50.395 4.44701 54.973 4.74501 57.061 6.11501C58.811 7.26301 62.578 14.494 70.014 30.982L80.5 54.23L85.686 57.56C92.956 62.227 93.386 63.368 91.542 73.089C90.698 77.536 89.755 81.584 89.445 82.085C89.135 82.586 86.693 82.996 84.019 82.996C79.351 82.996 79.109 82.856 78.005 79.512C74.737 69.608 60.734 69.396 54.278 79.152L51.734 82.996H38.867C26.667 82.996 26 83.1 26 84.996C26 86.893 26.667 86.996 39 86.996C51.54 86.996 52 87.07 52 89.096C52 90.251 53.53 92.726 55.4 94.596C58.248 97.444 59.522 97.996 63.252 97.996C68.458 97.996 73.462 95.069 76.5 90.247C78.383 87.259 78.855 87.071 84.576 87.035C92.378 86.985 94.333 85.063 95.884 75.914C98.224 62.114 97.088 58.582 88.741 53.69C84.675 51.307 84.038 50.23 75.229 30.843C64.327 6.84701 63.047 4.60501 58.759 1.99101C55.719 0.13701 53.678 0.00301001 28.417 1.00086e-05C13.521 -0.00198999 1.033 0.29601 0.667 0.66301ZM14.38 20.448C13.205 23.51 15.134 23.996 28.452 23.996C38.858 23.996 41.902 23.693 42.315 22.618C43.438 19.691 40.647 18.996 27.769 18.996C17.473 18.996 14.827 19.283 14.38 20.448ZM54.549 22.246C53.495 25.644 50.68 43.926 50.743 46.968C50.794 49.426 51.588 51.105 53.463 52.718C55.767 54.7 57.21 54.996 64.556 54.996C72.174 54.996 73 54.811 73 53.103C73 50.578 71.13 49.996 63.025 49.996C57.705 49.996 56.08 49.646 55.6 48.397C55.263 47.517 55.904 41.422 57.025 34.852C58.146 28.282 58.797 22.477 58.472 21.951C57.623 20.578 55.006 20.774 54.549 22.246ZM26 40.889C26 43.165 27.873 43.996 33 43.996C38.127 43.996 40 43.165 40 40.889C40 39.212 39.201 38.996 33 38.996C26.799 38.996 26 39.212 26 40.889ZM71.365 78.069C75.097 81.004 74.876 85.1 70.75 89.459C64.865 95.675 57 94.067 57 86.647C57 82.598 59.367 79.179 63.378 77.433C67.582 75.603 68.304 75.661 71.365 78.069ZM0 84.996C0 86.774 0.667 86.996 6 86.996C11.333 86.996 12 86.774 12 84.996C12 83.218 11.333 82.996 6 82.996C0.667 82.996 0 83.218 0 84.996Z" fill="#FFD200"/>
</svg>
