<svg width="98" height="98" viewBox="0 0 98 98" fill="none" xmlns="http://www.w3.org/2000/svg">
<path fill-rule="evenodd" clip-rule="evenodd" d="M10.5 1.3828C6.773 3.0468 2.469 7.56179 1.064 11.2808C0.406 13.0208 0 24.5898 0 41.5708C0 66.9668 0.15 69.3388 1.977 72.9218C5.626 80.0738 12.259 82.9618 25 82.9448C33.13 82.9348 35.634 82.0608 34.677 79.5668C34.175 78.2578 32.368 77.9658 24.781 77.9638C14.401 77.9628 10.117 76.4748 6.571 71.6428C4.716 69.1148 4.463 67.1098 4.147 52.3928L3.794 35.9658H48.897H94V39.4658C94 42.2988 94.381 42.9658 96 42.9658C97.908 42.9658 98 42.2988 98 28.5308C98 13.0578 97.373 10.0708 93.186 5.5928C88.028 0.0747952 87.132 -0.0372042 48.782 0.00479579C21.534 0.0347958 12.817 0.348796 10.5 1.3828ZM86.733 6.2328C89.434 7.7088 93 12.3648 93 14.4158C93 14.7188 73.2 14.9658 49 14.9658C24.8 14.9658 5 14.7188 5 14.4158C5 12.7038 8.336 7.8568 10.202 6.8578C14.924 4.3308 18.626 4.0938 50.5 4.2768C79.938 4.4458 83.849 4.6568 86.733 6.2328ZM93.802 25.7158L94.105 30.9658H49.052H4V26.1328C4 23.4738 4.305 20.9948 4.677 20.6218C5.049 20.2498 25.187 20.0628 49.427 20.2058L93.5 20.4658L93.802 25.7158ZM59.882 49.7588C44.707 57.6858 41.277 77.7668 53.029 89.8768C58.325 95.3338 62.34 97.1858 70.072 97.7388C80.849 98.5098 90.159 93.1158 94.633 83.5068C99.16 73.7858 96.86 60.7758 89.376 53.7748C81.614 46.5128 69.305 44.8358 59.882 49.7588ZM77.603 52.4408C82.722 53.9608 88.117 58.3568 90.486 62.9398C94.595 70.8838 92.659 81.3308 85.956 87.3868C80.923 91.9338 77.927 93.1078 71.35 93.1078C59.643 93.1098 51 84.3468 51 72.4758C51 62.9938 56.777 55.0768 65.728 52.2928C70.802 50.7148 71.834 50.7278 77.603 52.4408ZM12.38 63.4178C11.212 66.4628 13.137 66.9658 25.952 66.9658C35.933 66.9658 38.904 66.6598 39.315 65.5878C40.429 62.6838 37.645 61.9658 25.269 61.9658C15.411 61.9658 12.825 62.2568 12.38 63.4178ZM77.009 70.4568L70.576 76.9468L67.354 73.8238C65.358 71.8898 63.536 70.9298 62.566 71.3018C59.921 72.3168 60.798 74.5258 65.607 78.9578L70.215 83.2048L78.107 75.3588C85.426 68.0838 87.816 63.9658 84.721 63.9658C84.018 63.9658 80.547 66.8868 77.009 70.4568Z" fill="#FFD200"/>
</svg>
