<svg width="101" height="99" viewBox="0 0 101 99" fill="none" xmlns="http://www.w3.org/2000/svg">
<path fill-rule="evenodd" clip-rule="evenodd" d="M23.94 8.37495L0 16.9921V48.7264V80.4595L24.9871 89.3174L49.9741 98.1751L74.1271 89.621C87.4112 84.9162 98.6971 80.452 99.2061 79.701C99.7151 78.9501 100.131 65.0107 100.131 48.7252C100.131 32.4397 99.7151 18.5079 99.2061 17.767C98.6971 17.0248 92.7045 14.4733 85.8904 12.097L73.5021 7.77519L55.6504 13.9253C45.8325 17.3071 34.7974 21.1854 31.1283 22.5424L24.4553 25.0095L24.8283 32.7723C25.1105 38.6666 25.6549 40.5352 27.09 40.5352C28.3966 40.5352 29.174 38.785 29.61 34.869L30.24 29.2015L38.43 26.2581C42.9345 24.6403 52.639 21.1816 59.9962 18.5734L73.3723 13.832L80.669 16.5549L87.9656 19.2777L78.0028 22.807C72.5231 24.7486 63.3629 28.0259 57.645 30.0898L47.25 33.8433V62.0749C47.25 77.6019 46.7687 90.3052 46.1815 90.3052C45.5931 90.3052 36.3838 87.1867 25.7166 83.3752C15.0482 79.5637 6.174 76.4452 5.99508 76.4452C5.81616 76.4452 5.67 64.0292 5.67 48.8525V21.261L14.805 17.9925C19.8286 16.1945 30.177 12.5216 37.8 9.83025C48.7166 5.97591 51.66 4.43871 51.66 2.59281C51.66 1.30383 50.8095 0.139589 49.77 0.00350874C48.7305 -0.131311 37.107 3.63609 23.94 8.37495ZM93.87 49.8088V76.0911L73.9872 83.1988C63.0517 87.1073 53.6848 90.3052 53.172 90.3052C52.6592 90.3052 52.3921 78.5569 52.5798 64.198L52.92 38.092L72.45 30.9189C83.1915 26.9738 92.4059 23.6965 92.925 23.6361C93.4441 23.5756 93.87 35.3528 93.87 49.8088Z" fill="#FFD200"/>
</svg>
