<svg width="506" height="176" viewBox="0 0 506 176" fill="none" xmlns="http://www.w3.org/2000/svg">
<path d="M190.992 154.96C187.216 154.96 183.76 154.288 180.624 152.944C177.552 151.536 174.864 149.648 172.56 147.28C170.32 144.848 168.56 142.064 167.28 138.928C166.064 135.792 165.456 132.464 165.456 128.944C165.456 124.208 166.544 119.888 168.72 115.984C170.896 112.08 173.904 108.944 177.744 106.576C181.648 104.208 186.096 103.024 191.088 103.024C196.144 103.024 200.528 104.24 204.24 106.672C208.016 109.04 210.928 112.176 212.976 116.08C215.088 119.92 216.144 124.08 216.144 128.56C216.144 129.2 216.112 129.84 216.048 130.48C216.048 131.056 216.016 131.504 215.952 131.824H174.384C174.64 135.088 175.536 138 177.072 140.56C178.672 143.056 180.72 145.04 183.216 146.512C185.712 147.92 188.4 148.624 191.28 148.624C194.352 148.624 197.232 147.856 199.92 146.32C202.672 144.784 204.56 142.768 205.584 140.272L212.88 142.288C211.792 144.72 210.16 146.896 207.984 148.816C205.872 150.736 203.344 152.24 200.4 153.328C197.52 154.416 194.384 154.96 190.992 154.96ZM174.096 125.968H208.272C208.016 122.704 207.088 119.824 205.488 117.328C203.888 114.832 201.84 112.88 199.344 111.472C196.848 110.064 194.096 109.36 191.088 109.36C188.144 109.36 185.424 110.064 182.928 111.472C180.432 112.88 178.384 114.832 176.784 117.328C175.248 119.824 174.352 122.704 174.096 125.968ZM269.023 154H260.575V125.968C260.575 120.656 259.743 116.784 258.079 114.352C256.479 111.856 254.015 110.608 250.687 110.608C248.383 110.608 246.079 111.184 243.775 112.336C241.535 113.488 239.519 115.056 237.727 117.04C235.999 118.96 234.751 121.2 233.983 123.76V154H225.535V103.888H233.215V114.64C234.559 112.272 236.287 110.224 238.399 108.496C240.511 106.768 242.911 105.424 245.599 104.464C248.287 103.504 251.103 103.024 254.047 103.024C256.927 103.024 259.327 103.568 261.247 104.656C263.231 105.68 264.767 107.152 265.855 109.072C267.007 110.928 267.807 113.136 268.255 115.696C268.767 118.256 269.023 121.04 269.023 124.048V154ZM278.896 129.04C278.896 124.304 279.856 119.984 281.776 116.08C283.76 112.112 286.448 108.944 289.84 106.576C293.296 104.208 297.232 103.024 301.648 103.024C305.68 103.024 309.296 104.08 312.496 106.192C315.696 108.304 318.192 110.864 319.984 113.872V83.92H328.432V144.4C328.432 145.424 328.624 146.192 329.008 146.704C329.456 147.152 330.16 147.408 331.12 147.472V154C329.52 154.256 328.272 154.384 327.376 154.384C325.712 154.384 324.24 153.808 322.96 152.656C321.744 151.504 321.136 150.224 321.136 148.816V144.592C319.152 147.792 316.496 150.32 313.168 152.176C309.84 154.032 306.384 154.96 302.8 154.96C299.344 154.96 296.144 154.288 293.2 152.944C290.32 151.536 287.792 149.616 285.616 147.184C283.504 144.752 281.84 142 280.624 138.928C279.472 135.792 278.896 132.496 278.896 129.04ZM319.984 136.432V122.032C319.216 119.856 317.968 117.904 316.24 116.176C314.512 114.384 312.56 112.976 310.384 111.952C308.272 110.864 306.16 110.32 304.048 110.32C301.552 110.32 299.28 110.864 297.232 111.952C295.248 112.976 293.52 114.384 292.048 116.176C290.64 117.904 289.552 119.888 288.784 122.128C288.016 124.368 287.632 126.704 287.632 129.136C287.632 131.632 288.048 134 288.88 136.24C289.776 138.48 290.992 140.464 292.528 142.192C294.128 143.92 295.952 145.264 298 146.224C300.112 147.184 302.384 147.664 304.816 147.664C306.352 147.664 307.92 147.376 309.52 146.8C311.184 146.224 312.752 145.424 314.224 144.4C315.696 143.376 316.944 142.192 317.968 140.848C318.992 139.44 319.664 137.968 319.984 136.432ZM362.503 154.576C359.111 154.576 355.975 153.904 353.095 152.56C350.279 151.152 347.847 149.264 345.799 146.896C343.751 144.464 342.151 141.712 340.999 138.64C339.911 135.568 339.367 132.368 339.367 129.04C339.367 125.52 339.911 122.192 340.999 119.056C342.151 115.92 343.751 113.168 345.799 110.8C347.911 108.368 350.375 106.48 353.191 105.136C356.007 103.728 359.143 103.024 362.599 103.024C366.759 103.024 370.375 104.048 373.447 106.096C376.583 108.144 379.207 110.736 381.319 113.872V103.888H388.807V153.424C388.807 158.16 387.655 162.16 385.351 165.424C383.111 168.688 380.039 171.152 376.135 172.816C372.295 174.544 368.007 175.408 363.271 175.408C357.639 175.408 353.031 174.416 349.447 172.432C345.863 170.448 342.887 167.76 340.519 164.368L345.415 160.048C347.399 162.992 349.959 165.2 353.095 166.672C356.295 168.144 359.687 168.88 363.271 168.88C366.343 168.88 369.159 168.304 371.719 167.152C374.343 166.064 376.423 164.368 377.959 162.064C379.559 159.76 380.359 156.88 380.359 153.424V144.592C378.503 147.664 375.943 150.096 372.679 151.888C369.479 153.68 366.087 154.576 362.503 154.576ZM365.095 147.664C366.887 147.664 368.615 147.344 370.279 146.704C371.943 146.064 373.479 145.232 374.887 144.208C376.295 143.12 377.479 141.904 378.439 140.56C379.399 139.216 380.039 137.84 380.359 136.432V122.032C379.463 119.728 378.183 117.712 376.519 115.984C374.855 114.192 372.967 112.816 370.855 111.856C368.743 110.832 366.567 110.32 364.327 110.32C361.767 110.32 359.463 110.864 357.415 111.952C355.431 113.04 353.735 114.512 352.327 116.368C350.919 118.16 349.831 120.176 349.063 122.416C348.295 124.656 347.911 126.928 347.911 129.232C347.911 131.728 348.359 134.096 349.255 136.336C350.151 138.512 351.367 140.464 352.903 142.192C354.439 143.92 356.263 145.264 358.375 146.224C360.487 147.184 362.727 147.664 365.095 147.664ZM424.617 154.96C420.841 154.96 417.385 154.288 414.249 152.944C411.177 151.536 408.489 149.648 406.185 147.28C403.945 144.848 402.185 142.064 400.905 138.928C399.689 135.792 399.081 132.464 399.081 128.944C399.081 124.208 400.169 119.888 402.345 115.984C404.521 112.08 407.529 108.944 411.369 106.576C415.273 104.208 419.721 103.024 424.713 103.024C429.769 103.024 434.153 104.24 437.865 106.672C441.641 109.04 444.553 112.176 446.601 116.08C448.713 119.92 449.769 124.08 449.769 128.56C449.769 129.2 449.737 129.84 449.673 130.48C449.673 131.056 449.641 131.504 449.577 131.824H408.009C408.265 135.088 409.161 138 410.697 140.56C412.297 143.056 414.345 145.04 416.841 146.512C419.337 147.92 422.025 148.624 424.905 148.624C427.977 148.624 430.857 147.856 433.545 146.32C436.297 144.784 438.185 142.768 439.209 140.272L446.505 142.288C445.417 144.72 443.785 146.896 441.609 148.816C439.497 150.736 436.969 152.24 434.025 153.328C431.145 154.416 428.009 154.96 424.617 154.96ZM407.721 125.968H441.897C441.641 122.704 440.713 119.824 439.113 117.328C437.513 114.832 435.465 112.88 432.969 111.472C430.473 110.064 427.721 109.36 424.713 109.36C421.769 109.36 419.049 110.064 416.553 111.472C414.057 112.88 412.009 114.832 410.409 117.328C408.873 119.824 407.977 122.704 407.721 125.968ZM502.648 154H494.2V125.968C494.2 120.656 493.368 116.784 491.704 114.352C490.104 111.856 487.64 110.608 484.312 110.608C482.008 110.608 479.704 111.184 477.4 112.336C475.16 113.488 473.144 115.056 471.352 117.04C469.624 118.96 468.376 121.2 467.608 123.76V154H459.16V103.888H466.84V114.64C468.184 112.272 469.912 110.224 472.024 108.496C474.136 106.768 476.536 105.424 479.224 104.464C481.912 103.504 484.728 103.024 487.672 103.024C490.552 103.024 492.952 103.568 494.872 104.656C496.856 105.68 498.392 107.152 499.48 109.072C500.632 110.928 501.432 113.136 501.88 115.696C502.392 118.256 502.648 121.04 502.648 124.048V154Z" fill="black"/>
<path d="M386.936 90.16C385.336 90.16 383.885 89.84 382.584 89.2C381.283 88.56 380.152 87.696 379.192 86.608C378.253 85.4987 377.528 84.2613 377.016 82.896C376.504 81.5093 376.248 80.0907 376.248 78.64C376.248 77.1253 376.515 75.6853 377.048 74.32C377.603 72.9333 378.36 71.7067 379.32 70.64C380.301 69.552 381.443 68.6987 382.744 68.08C384.045 67.44 385.464 67.12 387 67.12C388.6 67.12 390.051 67.4507 391.352 68.112C392.653 68.7733 393.773 69.6587 394.712 70.768C395.651 71.8773 396.376 73.1147 396.888 74.48C397.4 75.8453 397.656 77.2427 397.656 78.672C397.656 80.1867 397.389 81.6373 396.856 83.024C396.323 84.3893 395.565 85.616 394.584 86.704C393.624 87.7707 392.493 88.6133 391.192 89.232C389.891 89.8507 388.472 90.16 386.936 90.16ZM379.16 78.64C379.16 79.792 379.341 80.912 379.704 82C380.088 83.0667 380.621 84.016 381.304 84.848C381.987 85.68 382.808 86.3413 383.768 86.832C384.728 87.3227 385.795 87.568 386.968 87.568C388.184 87.568 389.272 87.312 390.232 86.8C391.192 86.288 392.003 85.6053 392.664 84.752C393.347 83.8987 393.859 82.9387 394.2 81.872C394.563 80.8053 394.744 79.728 394.744 78.64C394.744 77.488 394.552 76.3787 394.168 75.312C393.805 74.2453 393.272 73.296 392.568 72.464C391.885 71.6107 391.064 70.9493 390.104 70.48C389.165 69.9893 388.12 69.744 386.968 69.744C385.752 69.744 384.664 70 383.704 70.512C382.744 71.0027 381.923 71.6747 381.24 72.528C380.579 73.3813 380.067 74.3413 379.704 75.408C379.341 76.4533 379.16 77.5307 379.16 78.64ZM401.658 90V67.28H411.13C412.132 67.28 413.05 67.4933 413.882 67.92C414.714 68.3253 415.439 68.88 416.058 69.584C416.676 70.2667 417.156 71.0453 417.498 71.92C417.839 72.7733 418.01 73.648 418.01 74.544C418.01 75.7813 417.732 76.9653 417.178 78.096C416.623 79.2053 415.844 80.112 414.842 80.816C413.839 81.4987 412.666 81.84 411.322 81.84H404.538V90H401.658ZM404.538 79.28H411.162C411.951 79.28 412.634 79.0667 413.21 78.64C413.807 78.2133 414.266 77.6373 414.586 76.912C414.927 76.1867 415.097 75.3973 415.097 74.544C415.097 73.648 414.906 72.848 414.522 72.144C414.138 71.4187 413.636 70.8533 413.018 70.448C412.399 70.0427 411.716 69.84 410.97 69.84H404.538V79.28ZM437.979 69.84H430.139V90H427.259V69.84H419.419V67.28H437.979V69.84ZM448.376 90V67.28H451.256V87.44H463.928V90H448.376ZM467.064 90V67.28H469.944V87.44H482.616V90H467.064ZM483.592 78.48C483.592 77.0933 483.826 75.7387 484.296 74.416C484.786 73.072 485.49 71.856 486.408 70.768C487.346 69.6587 488.488 68.784 489.832 68.144C491.176 67.4827 492.701 67.152 494.408 67.152C496.434 67.152 498.173 67.6213 499.624 68.56C501.074 69.4773 502.152 70.6613 502.856 72.112L500.584 73.584C500.136 72.624 499.56 71.8667 498.856 71.312C498.173 70.736 497.426 70.3307 496.616 70.096C495.826 69.8613 495.048 69.744 494.28 69.744C493.021 69.744 491.901 70 490.92 70.512C489.96 71.024 489.149 71.7067 488.488 72.56C487.826 73.4133 487.325 74.3733 486.984 75.44C486.664 76.4853 486.504 77.5413 486.504 78.608C486.504 79.7813 486.696 80.912 487.08 82C487.485 83.088 488.04 84.048 488.744 84.88C489.448 85.712 490.28 86.3733 491.24 86.864C492.2 87.3547 493.245 87.6 494.376 87.6C495.165 87.6 495.976 87.4613 496.808 87.184C497.64 86.9067 498.418 86.48 499.144 85.904C499.869 85.3067 500.445 84.5387 500.872 83.6L503.272 84.912C502.802 86.0427 502.077 87.0027 501.096 87.792C500.114 88.5813 499.016 89.1787 497.8 89.584C496.605 89.9893 495.421 90.192 494.248 90.192C492.69 90.192 491.261 89.8613 489.96 89.2C488.658 88.5173 487.528 87.6213 486.568 86.512C485.629 85.3813 484.893 84.1227 484.36 82.736C483.848 81.328 483.592 79.9093 483.592 78.48Z" fill="black"/>
<path d="M115.804 4.01231H4V25.2943H19.0692C21.196 25.2943 21.9859 25.8011 22.9581 27.3212C23.9303 28.8414 23.3208 30.7705 23.4442 31.6283V125.624C23.4442 128.664 22.472 130.184 22.472 130.184C22.472 130.184 21.4998 132.211 19.0692 132.718H4V154H120.665C128.785 153.824 134.762 149.141 139.137 145.386C147.401 138.292 151.332 131.636 153.234 121.064C157.124 99.4405 145.943 83.5666 125.526 74.4457C144.13 64.7552 148.373 56.7107 148.373 37.4555C148.373 18.7071 133.79 3.5056 115.804 4.01231Z" stroke="black" stroke-width="6.5"/>
<path d="M41.2321 91.6562C41.2321 87.2195 42.9808 81.9497 45.7836 76.3416C48.5814 70.7436 52.4042 64.8575 56.4972 59.2012C62.3637 51.0942 68.7521 43.502 73.4506 37.9182C75.1187 35.9357 76.5739 34.2064 77.717 32.7971C78.4861 33.7501 79.3883 34.8511 80.3944 36.0789C85.0523 41.7632 91.9379 50.1661 98.1637 59.192C102.065 64.8477 105.697 70.7339 108.352 76.3323C111.011 81.94 112.668 87.2135 112.668 91.6562C112.668 109.583 96.6282 125.694 77.7175 125.694C68.5467 125.694 59.4173 121.844 52.5803 115.649C45.7447 109.455 41.2321 100.948 41.2321 91.6562Z" fill="black" stroke="black"/>
</svg>
