<?xml version="1.0" encoding="UTF-8"?> <svg xmlns="http://www.w3.org/2000/svg" width="264" height="394" viewBox="0 0 264 394" fill="none"> <path d="M131.929 374.48L132.183 388.43L46.4166 383.586L50.2511 366.639H64.5793L67.6056 347.876H71.9957L106.723 148.49L115.165 148.499C115.076 148.515 114.99 148.529 114.902 148.545C111.308 149.164 107.715 149.784 107.715 149.784C107.715 149.784 111.312 150.374 114.908 150.964C116.034 151.156 117.147 151.342 118.163 151.513L125.789 347.876H128.331H142.072L145.27 327.293H149.555C151.143 330.895 153.934 336.069 158.744 343.648C159.146 344.281 159.82 344.691 160.567 344.76C160.64 344.769 160.716 344.771 160.789 344.771C161.459 344.771 162.101 344.493 162.563 343.997C162.563 343.997 168.599 337.511 175.789 329.783C175.744 330.35 175.695 330.929 175.598 331.53C175.093 334.695 174.036 337.773 172.501 340.588C171.733 341.994 170.846 343.336 169.847 344.589C169.571 344.935 169.028 345.714 168.437 346.434L132.571 349.318L71.1884 349.865L132.616 352.228H132.634L132.72 352.225L221.811 349.293L132.223 355.615L132.233 367.831L61.6525 367.922L132.615 370.434L132.669 370.437L132.771 370.428L243.865 361.135L131.929 374.48ZM51.6575 82.852L60.4893 69.5226L151.622 144.041L72.8527 83.0662L175.93 168.882L177.503 175.14L55.6995 83.7838L132.896 147.44L112.003 131.764L51.6575 82.852ZM45.068 88.9415C43.5039 95.5254 41.9401 102.109 40.4742 108.283C38.9787 114.45 37.4629 120.18 36.2247 125.105C34.9821 130.028 33.8097 134.101 33.0523 136.965C32.2468 139.819 31.7858 141.448 31.7858 141.448C31.7858 141.448 32.0814 139.781 32.5975 136.86C33.1637 133.953 33.8811 129.775 34.9056 124.802C35.9355 119.831 37.066 114.013 38.4054 107.809C39.7291 101.599 41.2032 94.9991 42.7137 88.3902C44.2785 81.804 45.8362 75.2179 47.3832 69.0601C48.8964 62.8977 50.4514 57.1773 51.7118 52.2587C52.3473 49.7801 52.9712 47.5862 53.4082 45.5632C53.8765 43.5516 54.2851 41.7997 54.6216 40.3577C55.3239 37.4758 55.7252 35.8287 55.7252 35.8287C55.7252 35.8287 55.493 37.5077 55.0863 40.4442C54.8673 41.9113 54.602 43.6906 54.2985 45.7318C54.0376 47.7776 53.5748 50.1081 53.0425 52.5708C51.9886 57.5372 50.8429 63.3533 49.4634 69.5476C48.1176 75.751 46.5893 82.3463 45.068 88.9415V88.9415ZM22.4521 137.364L5.65208 138.35C5.65208 138.35 3.83624 124.428 5.65208 81.1525C7.46878 37.8744 26.8411 9.57981 26.8411 9.57981L40.7661 5.03947C40.7661 5.03947 18.8194 54.7441 22.4521 137.364ZM14.1277 201.926V146.636L19.6144 146.522V201.926H14.1277ZM21.7471 204.519C20.4172 204.719 18.6442 204.849 16.8702 204.854C15.0962 204.847 13.323 204.717 11.9932 204.517C10.6625 204.309 9.77595 204.068 9.77595 204.068C9.77595 204.068 10.6625 203.824 11.9932 203.619C13.323 203.419 15.0962 203.286 16.8702 203.282C18.6442 203.286 20.4172 203.416 21.7471 203.617C23.0778 203.824 23.9642 204.068 23.9642 204.068C23.9642 204.068 23.0778 204.312 21.7471 204.519V204.519ZM180.768 188.135L181.159 190.871L162.669 193.889L165.806 185.057L179.786 184.227L180.768 188.135ZM187.319 194.85C185.485 195.215 183.617 195.58 181.745 195.939C168.116 198.539 154.432 200.942 154.432 200.942C154.432 200.942 168.27 199.785 182.106 198.425C185.572 198.081 189.011 197.732 192.293 197.336C195.543 196.942 198.537 196.436 200.86 196.454C202.015 196.466 202.847 196.625 203.611 196.917C204.387 197.215 205.162 197.625 205.834 197.969C206.589 198.354 207.143 198.637 207.507 198.821C207.974 199.96 208.258 201.159 208.413 202.307C207.852 202.065 207.204 201.817 206.419 201.598C204.984 201.195 203.34 201.166 201.801 201.293C198.686 201.566 195.453 202.273 191.881 202.824C188.321 203.414 184.523 204.045 180.725 204.674C165.536 207.198 150.346 209.72 150.346 209.72C150.346 209.72 165.694 208.396 181.042 207.075C182.759 206.927 184.471 206.779 186.167 206.633L148.271 211.556L145.046 201.626L160.789 199.181L181.827 195.55C181.827 195.55 183.773 195.233 187.319 194.85V194.85ZM154.039 308.596C155.986 305.899 158.199 302.707 160.713 299.395C163.232 296.089 165.919 292.56 168.606 289.034C171.385 285.578 174.162 282.122 176.765 278.88C179.374 275.645 181.927 272.72 184.064 270.171C188.395 265.12 191.417 261.865 191.417 261.865C191.417 261.865 188.845 265.485 184.859 270.809C182.84 273.449 180.55 276.581 177.997 279.857C175.456 283.143 172.745 286.646 170.035 290.152C167.286 293.624 164.538 297.098 161.961 300.356C159.403 303.628 156.919 306.607 154.855 309.211C152.755 311.79 151.005 313.939 149.779 315.442C148.534 316.932 147.823 317.784 147.823 317.784C147.823 317.784 150.205 314.037 154.039 308.596V308.596ZM181.071 232.169H175.319C173.684 232.169 172.159 232.994 171.264 234.363L166.42 241.778C166.04 242.359 165.79 243.017 165.686 243.705C165.656 243.908 165.138 247.458 165.366 252.141H161.71L150.778 218.883L198.301 213.522L195.944 254.811L185.354 234.75C184.516 233.162 182.867 232.169 181.071 232.169V232.169ZM172.1 251.834C172.112 253.376 172.23 255.181 172.477 257.103C172.739 259.065 173.068 261.026 173.575 263.093C174.127 265.407 174.865 267.653 175.651 269.713C172.78 263.591 171.298 258.696 170.613 255.992C169.662 249.875 170.476 244.425 170.476 244.425L175.319 237.01H180.637L175.878 244.004L171.233 244.546L175.289 245.744C175.249 247.597 175.25 252.048 176.001 256.894C176.646 261.063 179.786 267.863 181.875 272.059C181.753 271.893 181.648 271.763 181.52 271.585C179.817 269.225 177.782 265.851 176.219 262.218C175.438 260.445 174.744 258.479 174.2 256.732C173.647 254.944 173.235 253.237 172.967 251.754C172.407 248.788 172.533 246.742 172.533 246.742C172.533 246.742 172.056 248.742 172.1 251.834V251.834ZM131.566 160.434L161.35 183.134L157.192 194.839L143.569 196.953L131.566 160.434ZM129.684 207.339L131.993 209.857L154.511 271.998L138.71 217.174L142.055 220.817L162.982 283.947L155.187 284.138L148.364 265.849L129.684 207.339ZM135.778 274.52L137.481 247.688L143.344 266.052C140.828 268.704 138.303 271.54 135.778 274.52ZM131.714 262.09L131.129 227.793L133.432 235.005L131.714 262.09ZM136.977 325.172L140.158 328.649L137.923 343.033H133.093L132.881 330.587L136.977 325.172ZM211.488 340.684C211.488 340.684 211.18 339.315 210.865 337.249C210.552 335.182 210.199 332.421 209.981 329.649C209.749 326.878 209.653 324.097 209.626 322.008C209.602 319.919 209.682 318.518 209.682 318.518C209.682 318.518 209.988 319.887 210.303 321.953C210.614 324.019 210.969 326.781 211.188 329.551C211.421 332.323 211.52 335.103 211.545 337.194C211.569 339.283 211.488 340.684 211.488 340.684V340.684ZM209.004 255.559C209.689 255.559 210.411 255.572 211.19 255.572C217.143 255.572 231.674 286.138 239.544 301.27C247.415 316.401 246.405 326.288 240.551 326.288C237.872 326.288 235.771 326.288 234.251 326.288L239.569 308.605L230.274 324.992L210.403 303.455C209.199 302.001 208.045 300.864 206.917 300.03C207.35 300.206 207.784 300.386 208.196 300.621C210.337 301.846 212.201 303.557 213.911 305.229C215.613 306.926 217.162 308.624 218.599 310.186C224.327 316.486 228.595 320.256 228.595 320.256C228.595 320.256 227.686 319.169 226.095 317.267C224.48 315.385 222.331 312.576 219.643 309.287C218.3 307.637 216.851 305.842 215.211 303.997C213.561 302.17 211.721 300.238 209.27 298.759C206.863 297.253 203.623 296.536 200.623 297.135C197.521 297.768 195.001 299.488 192.701 301.252C188.151 304.899 184.326 309.134 180.775 313.098C177.239 317.078 174.084 320.898 171.287 324.09C168.508 327.302 166.192 329.977 164.571 331.852C162.935 333.718 162 334.784 162 334.784C162 334.784 163.082 333.866 164.903 332.175C166.704 330.467 169.317 328.059 172.278 325.001C175.221 321.937 178.654 318.363 182.332 314.531C185.686 311.052 189.216 307.302 193.1 304.074C185.985 311.715 167.499 331.583 161.172 338.383C156.85 331.296 152.758 323.539 152.487 321.247C166.323 302.429 186.952 275.579 195.384 264.646L193.981 289.223C193.604 289.676 193.141 289.988 192.593 290.143C192.189 289.173 191.892 288.259 191.724 287.587C191.505 286.722 191.417 286.202 191.417 286.202C191.417 286.202 191.301 286.712 191.246 287.63C191.196 288.544 191.196 289.888 191.639 291.471C191.856 292.262 192.192 293.114 192.765 293.946C193.356 294.77 194.095 295.631 195.577 295.987C195.952 296.035 195.904 296.089 196.496 296.069C196.843 296.067 197.177 295.998 197.508 295.902C198.15 295.697 198.751 295.358 199.2 294.927C200.151 294.087 200.748 293.052 201.211 292.009C201.642 290.947 201.907 289.856 202.063 288.779C202.148 288.248 202.178 287.692 202.194 287.143C202.189 286.674 202.189 286.129 202.144 285.612C201.996 283.569 201.417 281.694 200.59 280.265C200.248 279.659 199.845 279.16 199.429 278.737L200.585 258.479C203.648 255.812 205.938 255.559 209.004 255.559V255.559ZM260.196 356.41C259.676 354.232 257.728 352.695 255.486 352.695H227.435V346.061C227.435 343.386 225.266 341.217 222.591 341.217H214.261L211.694 315.547C216.815 321.662 225.122 331.175 227.235 331.175C228.568 331.175 229.883 331.152 231.642 331.13H240.551C243.776 331.13 246.583 329.548 248.258 326.792C251.687 321.144 250.076 311.027 243.839 299.035C242.698 296.839 241.415 294.315 240.036 291.608C224.436 260.935 218.081 250.729 211.19 250.729L210.067 250.722L209.004 250.718C205.96 250.718 203.452 251.062 200.934 252.36L203.182 212.971L209.009 212.315C211.209 212.066 212.96 210.358 213.263 208.166C213.397 207.203 214.427 198.6 209.69 193.165C208.044 191.276 205.037 189.023 200.059 189.023C199.751 189.023 199.44 189.032 199.119 189.05C193.695 189.346 189.345 189.75 186.273 190.091C188.91 187.392 191.434 182.204 188.934 172.682C185.752 160.562 184.215 155.926 184.152 155.735C183.872 154.894 183.368 154.149 182.694 153.577L57.4832 47.1716L58.1999 39.7015C58.2479 39.2003 58.2176 38.6923 58.1089 38.2003L51.5507 8.38834C51.2952 7.22876 50.6241 6.20361 49.6628 5.5065L43.609 1.11878C42.7716 0.512789 41.7746 0.196115 40.7661 0.196115C40.2623 0.196115 39.7557 0.275861 39.2644 0.435332L25.3405 4.97567C24.3247 5.306 23.4481 5.96438 22.8445 6.84375C22.0221 8.04661 2.66664 36.7923 0.813431 80.9497C-0.999718 124.146 0.773371 138.391 0.849912 138.977C1.06443 140.624 2.10854 142.045 3.61551 142.745L9.28462 145.369V202.348C8.79238 202.715 8.45236 203.271 8.45236 203.931V205.897C8.45236 207.004 9.35048 207.904 10.4578 207.904H13.3328L16.8515 381.741L20.3691 207.904H23.1712C24.2785 207.904 25.1767 207.004 25.1767 205.897V203.931C25.1767 203.321 24.8882 202.792 24.4576 202.425V146.422L29.3647 146.319C31.5338 146.273 33.4085 144.79 33.9522 142.692L46.9078 92.6412L98.3954 133.928C98.8183 137.161 99.8294 143.578 101.726 148.953L67.9226 343.033H67.6056C65.2289 343.033 63.2032 344.757 62.8249 347.104L60.4544 361.796H50.2511C47.9875 361.796 46.0267 363.363 45.5272 365.571L41.6926 382.518C41.3784 383.907 41.6917 385.363 42.5489 386.502C43.4062 387.639 44.7208 388.341 46.1431 388.42L131.91 393.264C132.002 393.268 132.092 393.271 132.183 393.271C132.393 393.271 132.602 393.257 132.811 393.23L259.544 376.688C260.905 376.508 262.126 375.763 262.905 374.631C263.685 373.501 263.947 372.095 263.628 370.76L260.196 356.41" fill="#FFEB85"></path> <path d="M95.584 301.069H113.952L114.03 304.231C110.435 309.843 106.912 315.711 103.544 321.693C102.684 323.22 102.717 325.092 103.629 326.587L113.65 343.033H88.5547L95.584 301.069ZM102.352 260.669H112.949L113.831 296.228H96.3959L102.352 260.669ZM109.476 218.147H111.895L112.829 255.825H103.164L109.476 218.147ZM111.584 205.567L111.776 213.306H110.287L111.584 205.567ZM119.956 347.876L119.759 339.905L118.909 305.598L115.61 172.55L115.534 165.911H109.491L78.0488 347.876H82.8322H119.956" fill="#FFEB85"></path> <path d="M19.4083 38.5645C20.2753 35.2635 21.1601 32.1561 22.0351 29.3016C25.5653 17.8903 29.0145 10.5842 29.0145 10.5842C29.0145 10.5842 27.7959 12.1949 25.9889 15.2362C25.0997 16.7626 24.036 18.6307 22.9279 20.8359C21.825 23.0389 20.6171 25.5494 19.4502 28.3561C18.2814 31.1582 17.0576 34.2223 15.9734 37.5348C14.8768 40.8404 13.7312 44.3465 12.8589 48.053C11.8985 51.7368 11.068 55.5891 10.3773 59.5281C10.0693 61.5032 9.75864 63.4966 9.4471 65.4968C9.21656 67.5084 8.98514 69.5269 8.75369 71.5453C8.40211 75.5822 8.18849 79.6874 8.0514 83.6218C7.88941 87.5653 7.86981 91.4586 7.79683 95.2244C7.68378 102.754 7.72295 109.784 7.88763 115.814C8.02025 121.845 8.29618 126.87 8.55253 130.385C8.80977 133.901 9.06612 135.903 9.06612 135.903C9.06612 135.903 9.71502 127.895 10.6879 115.885C11.1534 109.884 11.6386 102.884 12.0774 95.3816C12.2865 91.6318 12.566 87.7589 12.7325 83.8132C12.9185 79.8606 13.2069 75.9535 13.5656 72.0009C13.7632 70.0326 13.9608 68.062 14.1576 66.1006C14.4344 64.1505 14.7094 62.2049 14.9827 60.2776C15.6147 56.4343 16.1773 52.6321 16.9899 49.0076C17.7314 45.3671 18.5494 41.8655 19.4083 38.5645" fill="#FFEB85"></path> <path d="M32.7068 13.7305C31.109 16.8995 28.9932 21.5241 26.9075 27.2537C25.8707 30.1196 24.7706 33.2407 23.811 36.6032C23.291 38.2754 22.8212 40.0091 22.3529 41.7837C21.8561 43.5539 21.4059 45.3764 21.0142 47.2445C20.1562 50.967 19.405 54.8421 18.7507 58.8015C18.4712 60.7881 18.19 62.7905 17.9076 64.8021C17.6887 66.8206 17.4697 68.8482 17.2509 70.8735C16.8565 74.924 16.715 79.027 16.5404 83.0023C16.3802 86.964 16.349 90.8779 16.2975 94.6665C16.2004 102.241 16.2895 109.313 16.5236 115.377C16.7248 121.439 17.0978 126.49 17.4467 130.019C17.7964 133.55 18.1551 135.548 18.1551 135.548C18.1551 135.548 18.2166 133.523 18.4292 129.998C18.6519 126.479 18.9688 121.451 19.3489 115.414C19.7477 109.383 20.1891 102.351 20.5985 94.8145C20.8032 91.0442 21.0151 87.1463 21.2295 83.1892C21.4451 79.2366 21.6852 75.2817 22.0573 71.3063C22.2444 69.322 22.4313 67.3378 22.6163 65.3603C22.8656 63.3897 23.114 61.4282 23.3605 59.4804C23.9363 55.6007 24.4429 51.7643 25.1541 48.0897C25.8279 44.4104 26.4999 40.8497 27.2646 37.5008C28.0141 34.1474 28.7672 30.9807 29.5182 28.0715C32.5304 16.4324 35.3931 8.84392 35.3931 8.84392C35.3931 8.84392 34.3098 10.5594 32.7068 13.7305" fill="#FFEB85"></path> </svg> 