<?xml version="1.0" encoding="UTF-8"?> <svg xmlns="http://www.w3.org/2000/svg" width="528" height="215" viewBox="0 0 528 215" fill="none"> <path d="M500.822 170.603C500.61 172.025 500.255 173.455 499.694 174.825C499.106 176.174 498.345 177.494 497.21 178.502C496.67 179.026 495.987 179.411 495.274 179.67C494.574 179.935 493.699 179.926 493.061 179.807C491.511 179.459 490.472 178.463 489.718 177.437C488.966 176.403 488.453 175.317 488.096 174.287C487.74 173.258 487.503 172.287 487.383 171.417C487.244 170.549 487.175 169.785 487.155 169.159C487.111 168.532 487.139 168.038 487.146 167.703C487.155 167.371 487.159 167.19 487.159 167.19C487.159 167.19 487.187 167.908 487.355 169.141C487.51 170.371 487.857 172.129 488.638 174.08C489.03 175.053 489.575 176.062 490.313 176.976C491.024 177.889 492.081 178.673 493.17 178.918C493.193 178.923 493.214 178.918 493.234 178.923C493.323 178.885 493.398 178.857 493.496 178.814C493.724 178.65 494.002 178.531 494.255 178.308C495.321 177.506 496.31 175.968 496.992 174.305C497.365 173.483 497.612 172.604 497.867 171.788C498.081 170.959 498.291 170.179 498.414 169.496C498.518 168.817 498.667 168.243 498.705 167.831C498.771 167.423 498.822 167.19 498.822 167.19C498.822 167.19 499.002 168.116 498.979 169.556C498.942 170.266 498.897 171.105 498.735 171.989C498.626 172.425 498.557 172.888 498.405 173.339C498.266 173.792 498.115 174.251 497.926 174.697C497.545 175.586 497.076 176.451 496.479 177.16C496.212 177.534 495.864 177.83 495.554 178.115C495.217 178.379 494.898 178.62 494.563 178.788C494.456 178.852 494.351 178.896 494.244 178.943C495.091 178.839 495.889 178.431 496.563 177.789C497.53 176.912 498.218 175.686 498.746 174.423C499.286 173.16 499.649 171.809 499.872 170.455C500.1 169.127 500.18 167.733 500.139 166.434C500.082 163.812 499.601 161.37 498.771 159.44C498.354 158.479 497.862 157.65 497.343 156.98C496.83 156.294 496.233 155.839 495.716 155.518C495.182 155.217 494.724 155.064 494.392 155.007C494.059 154.959 493.884 154.932 493.884 154.932C493.872 154.976 494.626 154.802 495.809 155.339C496.969 155.875 498.343 157.226 499.296 159.199C500.239 161.167 500.929 163.673 501.032 166.403C501.096 167.776 501.039 169.159 500.822 170.603V170.603ZM470.233 172.595C470.021 174.016 469.666 175.447 469.105 176.815C468.517 178.165 467.756 179.486 466.621 180.493C466.081 181.017 465.396 181.402 464.685 181.662C463.985 181.926 463.11 181.917 462.472 181.798C460.922 181.449 459.883 180.454 459.129 179.429C458.375 178.394 457.864 177.308 457.504 176.281C457.151 175.248 456.914 174.278 456.793 173.408C456.654 172.539 456.586 171.777 456.566 171.15C456.522 170.524 456.547 170.032 456.556 169.696C456.566 169.362 456.57 169.182 456.57 169.182C456.57 169.182 456.598 169.899 456.764 171.132C456.919 172.362 457.265 174.121 458.047 176.073C458.441 177.043 458.983 178.053 459.722 178.966C460.428 179.87 461.472 180.643 462.547 180.898C462.625 180.866 462.688 180.843 462.773 180.807C462.998 180.643 463.276 180.523 463.532 180.299C464.598 179.498 465.587 177.96 466.268 176.297C466.642 175.474 466.888 174.597 467.143 173.779C467.357 172.95 467.567 172.171 467.688 171.488C467.795 170.809 467.941 170.235 467.982 169.822C468.048 169.414 468.098 169.182 468.098 169.182C468.098 169.182 468.278 170.107 468.255 171.546C468.219 172.259 468.173 173.096 468.011 173.982C467.902 174.417 467.834 174.879 467.681 175.33C467.542 175.784 467.392 176.241 467.203 176.688C466.82 177.576 466.353 178.445 465.756 179.151C465.489 179.527 465.14 179.823 464.83 180.105C464.493 180.37 464.174 180.611 463.839 180.78C463.712 180.855 463.584 180.912 463.459 180.964C464.379 180.905 465.247 180.472 465.974 179.782C466.94 178.902 467.629 177.677 468.155 176.417C468.697 175.15 469.06 173.8 469.283 172.449C469.511 171.118 469.591 169.724 469.55 168.426C469.493 165.806 469.01 163.361 468.182 161.432C467.765 160.47 467.273 159.641 466.754 158.971C466.241 158.285 465.644 157.829 465.127 157.508C464.593 157.207 464.133 157.055 463.803 157.001C463.47 156.95 463.295 156.925 463.295 156.925C463.283 156.966 464.037 156.795 465.22 157.331C466.38 157.866 467.754 159.217 468.706 161.19C469.648 163.158 470.34 165.664 470.443 168.393C470.507 169.767 470.45 171.15 470.233 172.595V172.595ZM436.47 174.31C436.258 175.732 435.903 177.162 435.342 178.531C434.754 179.88 433.993 181.201 432.858 182.208C432.318 182.733 431.635 183.117 430.921 183.377C430.222 183.641 429.347 183.632 428.709 183.514C427.159 183.165 426.12 182.169 425.366 181.144C424.612 180.11 424.101 179.023 423.743 177.996C423.388 176.964 423.151 175.993 423.03 175.123C422.891 174.255 422.823 173.492 422.802 172.865C422.759 172.239 422.786 171.747 422.793 171.41C422.802 171.077 422.807 170.898 422.807 170.898C422.807 170.898 422.834 171.615 423.001 172.847C423.156 174.077 423.502 175.837 424.283 177.789C424.678 178.759 425.222 179.768 425.961 180.682C426.544 181.431 427.362 182.074 428.237 182.425C428.36 182.375 428.472 182.331 428.611 182.27C428.839 182.106 429.117 181.985 429.37 181.764C430.436 180.962 431.427 179.425 432.106 177.759C432.482 176.939 432.726 176.059 432.981 175.244C433.198 174.415 433.405 173.633 433.528 172.95C433.635 172.273 433.781 171.697 433.822 171.286C433.886 170.879 433.936 170.647 433.936 170.647C433.936 170.647 434.118 171.571 434.093 173.011C434.057 173.722 434.011 174.558 433.849 175.444C433.742 175.879 433.674 176.344 433.521 176.793C433.382 177.249 433.232 177.706 433.04 178.153C432.66 179.041 432.193 179.907 431.596 180.615C431.329 180.989 430.978 181.285 430.668 181.57C430.331 181.834 430.014 182.076 429.677 182.245C429.365 182.429 429.055 182.538 428.77 182.609C428.786 182.614 428.802 182.623 428.818 182.628C430.06 182.876 431.259 182.404 432.211 181.497C433.177 180.618 433.865 179.393 434.392 178.132C434.934 176.866 435.296 175.515 435.52 174.162C435.748 172.834 435.827 171.44 435.786 170.141C435.729 167.519 435.246 165.077 434.419 163.147C434.002 162.185 433.51 161.356 432.99 160.687C432.478 160.001 431.881 159.545 431.363 159.224C430.83 158.923 430.37 158.771 430.039 158.714C429.707 158.666 429.531 158.641 429.531 158.641C429.52 158.682 430.274 158.511 431.457 159.046C432.617 159.582 433.991 160.932 434.945 162.905C435.887 164.874 436.577 167.38 436.68 170.109C436.743 171.482 436.686 172.865 436.47 174.31V174.31ZM399.104 172.508L382.725 172.608C377.263 172.621 371.803 172.554 366.343 172.531C360.884 172.526 355.424 172.396 349.964 172.296C347.234 172.255 344.502 172.192 341.775 172.095C339.042 172.011 336.313 171.936 333.583 171.811C336.313 171.685 339.042 171.61 341.775 171.526C344.502 171.432 347.234 171.368 349.964 171.326C355.424 171.228 360.884 171.095 366.343 171.093C371.803 171.067 377.263 171 382.725 171.013L398.418 171.111C398.461 166.48 398.58 161.848 398.655 157.217C398.687 154.784 398.778 152.351 398.849 149.917C398.91 147.824 398.981 145.733 399.07 143.639C392.04 143.585 385.106 143.53 378.457 143.475C367.736 143.332 357.73 143.198 349.153 143.081C340.576 142.913 333.43 142.771 328.426 142.674C323.424 142.545 320.565 142.472 320.565 142.472C320.565 142.472 323.424 142.425 328.426 142.343C333.43 142.291 340.578 142.215 349.155 142.124C357.732 142.088 367.74 142.044 378.461 141.996C389.183 142.011 400.619 142.024 412.054 142.037C423.491 142.129 434.927 142.218 445.648 142.304C456.37 142.448 466.375 142.582 474.952 142.698C483.529 142.866 490.675 143.008 495.679 143.106C500.681 143.233 503.541 143.309 503.541 143.309C503.541 143.309 500.681 143.354 495.679 143.439C490.675 143.491 483.527 143.566 474.95 143.658C466.373 143.696 456.365 143.737 445.644 143.785C434.923 143.772 423.486 143.757 412.052 143.744C407.731 143.708 403.422 143.674 399.141 143.639C399.227 145.733 399.298 147.826 399.359 149.917C399.432 152.351 399.521 154.784 399.555 157.217C399.633 162.08 399.763 166.947 399.801 171.811L399.806 172.503L399.104 172.508ZM292.45 180.65C292.398 181.541 292.3 182.432 292.134 183.306C291.799 185.063 291.236 186.817 290.381 188.455C289.508 190.077 288.31 191.576 286.76 192.665C285.263 193.797 283.153 194.217 281.462 193.948C279.523 193.606 278.108 192.581 277.001 191.428C275.905 190.266 275.16 188.97 274.61 187.74C274.045 186.512 273.726 185.318 273.528 184.254C273.318 183.192 273.225 182.256 273.186 181.486C273.132 180.716 273.163 180.113 273.184 179.702C273.2 179.292 273.209 179.073 273.209 179.073C273.209 179.073 273.234 179.292 273.277 179.7C273.309 180.108 273.389 180.7 273.517 181.449C273.77 182.937 274.285 185.072 275.476 187.321C276.067 188.438 276.841 189.587 277.878 190.544C278.812 191.43 280.075 192.111 281.298 192.375C281.547 192.246 281.802 192.089 282.08 191.936C282.401 191.683 282.761 191.455 283.092 191.134C283.445 190.849 283.746 190.46 284.094 190.113C284.402 189.719 284.716 189.316 285.006 188.874C285.32 188.455 285.557 187.965 285.826 187.502C286.334 186.55 286.758 185.548 287.109 184.58C287.464 183.609 287.724 182.673 287.959 181.86C288.146 181.051 288.344 180.358 288.437 179.855C288.551 179.356 288.633 179.073 288.633 179.073C288.633 179.073 288.695 179.361 288.777 179.864C288.873 180.363 288.921 181.094 288.925 181.992C288.902 182.873 288.811 183.912 288.549 185.001C288.31 186.097 287.87 187.22 287.332 188.304C287.016 188.824 286.724 189.357 286.348 189.829C286.015 190.329 285.569 190.738 285.177 191.154C284.63 191.656 284.049 192.034 283.468 192.348C284.295 192.175 285.083 191.842 285.819 191.312C287.077 190.407 288.114 189.107 288.875 187.651C289.654 186.202 290.19 184.605 290.516 182.992C290.673 182.176 290.787 181.375 290.867 180.586C290.924 179.734 290.967 178.941 290.937 178.16C290.862 175.005 290.156 172.05 288.923 169.833C287.738 167.596 286.113 166.092 284.739 165.505C284.404 165.331 284.092 165.227 283.812 165.147C283.536 165.049 283.29 164.99 283.085 164.972C282.679 164.91 282.463 164.876 282.463 164.876C282.463 164.876 282.682 164.878 283.092 164.878C283.299 164.867 283.547 164.89 283.848 164.949C284.154 164.983 284.498 165.056 284.862 165.197C286.339 165.668 288.333 167.022 289.748 169.348C291.197 171.633 292.243 174.713 292.434 178.096C292.496 178.95 292.478 179.823 292.45 180.65V180.65ZM141.772 187.366C141.679 188.51 141.497 189.633 141.222 190.743C140.662 192.961 139.713 195.134 138.357 197.057C136.987 198.957 135.217 200.629 133.106 201.684C131.023 202.755 128.574 203.135 126.426 202.874C124.112 202.62 122.167 201.618 120.57 200.394C118.979 199.157 117.777 197.675 116.871 196.212C115.958 194.745 115.422 193.253 115.014 191.934C114.655 190.594 114.448 189.409 114.351 188.428C114.248 187.445 114.244 186.673 114.27 186.147C114.279 185.623 114.284 185.343 114.284 185.343C114.284 185.343 114.311 185.621 114.362 186.145C114.39 186.667 114.508 187.425 114.679 188.38C115.019 190.284 115.862 192.974 117.679 195.69C118.606 197.028 119.803 198.347 121.307 199.39C122.77 200.41 124.598 201.174 126.444 201.361C126.859 201.249 127.295 201.028 127.772 200.828C128.258 200.627 128.735 200.296 129.256 200.016C129.744 199.666 130.268 199.326 130.753 198.891C131.274 198.504 131.703 197.977 132.195 197.51C132.637 196.991 133.097 196.474 133.476 195.889C133.913 195.349 134.238 194.727 134.598 194.144C134.893 193.522 135.26 192.945 135.493 192.326C135.767 191.724 135.994 191.127 136.198 190.551C136.426 189.982 136.544 189.414 136.718 188.901C136.877 188.384 136.96 187.906 137.077 187.477C137.192 187.051 137.255 186.66 137.314 186.343C137.446 185.707 137.52 185.343 137.52 185.343C137.52 185.343 137.567 185.712 137.646 186.357C137.677 186.678 137.735 187.065 137.715 187.526C137.704 187.978 137.737 188.512 137.664 189.07C137.586 189.626 137.572 190.25 137.402 190.879C137.267 191.514 137.124 192.191 136.867 192.859C136.657 193.542 136.35 194.218 136.03 194.902C135.653 195.553 135.309 196.247 134.843 196.861C134.408 197.499 133.879 198.066 133.369 198.629C132.818 199.156 132.262 199.661 131.654 200.062C131.083 200.514 130.438 200.812 129.853 201.119C129.853 201.119 129.851 201.119 129.85 201.119C130.705 200.917 131.545 200.625 132.355 200.217C134.183 199.287 135.745 197.789 136.967 196.069C138.203 194.348 139.093 192.368 139.627 190.332C139.884 189.304 140.073 188.277 140.189 187.273C140.257 186.766 140.257 186.208 140.295 185.684C140.338 185.208 140.282 184.673 140.282 184.177C140.115 180.137 138.805 176.422 136.848 173.816C135.867 172.519 134.787 171.473 133.721 170.68C132.642 169.902 131.576 169.403 130.665 169.093C129.752 168.808 129.007 168.621 128.48 168.583C127.96 168.521 127.682 168.487 127.682 168.487C127.682 168.487 127.961 168.49 128.486 168.491C129.005 168.475 129.789 168.548 130.756 168.776C132.668 169.23 135.395 170.526 137.602 173.226C139.795 175.884 141.487 179.752 141.78 184.092C141.795 184.641 141.868 185.161 141.836 185.747C141.812 186.284 141.829 186.801 141.772 187.366V187.366ZM200.917 33.9417C210.112 40.801 215.654 56.1145 216.947 78.2328C219.222 117.215 207.231 133.371 199.17 139.771C200.418 138.383 201.582 136.853 202.628 135.203C204.689 131.972 206.33 128.318 207.632 124.457C208.915 120.589 209.961 116.525 210.631 112.351C211.041 110.273 211.24 108.155 211.548 106.045C211.728 103.924 211.998 101.798 212.103 99.6688C212.215 97.559 212.381 95.3786 212.393 93.283C212.433 91.1729 212.515 89.0862 212.449 86.97C212.425 84.8672 212.396 82.783 212.251 80.7326C212.194 79.7074 212.136 78.6868 212.079 77.6749C211.981 76.6659 211.884 75.6637 211.788 74.6707C211.421 70.6928 210.767 66.8796 210.043 63.2959C209.212 59.7301 208.354 56.3742 207.226 53.3832C206.171 50.3692 204.951 47.704 203.743 45.4142C202.517 43.1342 201.325 41.2128 200.216 39.7232C199.694 38.9579 199.169 38.3155 198.714 37.7576C198.269 37.1905 197.875 36.7233 197.533 36.3629C196.867 35.627 196.511 35.2354 196.511 35.2354C196.511 35.2354 196.852 35.6412 197.489 36.3996C197.817 36.7714 198.192 37.2539 198.614 37.8348C199.046 38.4089 199.544 39.0648 200.035 39.8487C201.08 41.3705 202.193 43.3229 203.321 45.6286C204.431 47.9407 205.538 50.6218 206.468 53.6386C207.47 56.6323 208.191 59.9809 208.877 63.5237C209.457 67.0888 209.959 70.868 210.173 74.8024C210.23 75.7865 210.289 76.778 210.347 77.7756C210.365 78.7757 210.385 79.7822 210.403 80.7957C210.47 82.824 210.42 84.8716 210.365 86.9317C210.354 88.982 210.193 91.0866 210.073 93.1896C209.981 95.3057 209.742 97.3401 209.552 99.4499C209.369 101.539 209.025 103.608 208.772 105.676C208.392 107.722 208.121 109.781 207.647 111.777C206.845 115.8 205.688 119.661 204.337 123.268C202.971 126.87 201.313 130.198 199.349 133.032C197.558 135.627 195.507 137.764 193.363 139.407V31.4587C194.628 31.5815 196.021 31.723 197.541 31.884C198.662 32.4358 199.793 33.1033 200.917 33.9417V33.9417ZM71.2846 90.1184C71.2898 85.0158 71.4304 79.9148 71.6478 76.0875C71.743 74.1759 71.8987 72.5812 71.9716 71.4651C72.0625 70.3483 72.1382 69.7112 72.1382 69.7112C72.1382 69.7112 72.2138 70.3483 72.3038 71.4651C72.3777 72.5812 72.5324 74.1759 72.6276 76.0875C72.845 79.9148 72.9856 85.0158 72.9909 90.1184C72.9847 95.2194 72.8423 100.32 72.626 104.147C72.5299 106.061 72.3767 107.653 72.3029 108.77C72.2129 109.886 72.1382 110.524 72.1382 110.524C72.1382 110.524 72.0634 109.886 71.9725 108.77C71.8996 107.653 71.7465 106.061 71.6503 104.147C71.4341 100.32 71.2907 95.2194 71.2846 90.1184V90.1184ZM11.5251 110.524V78.7187L47.9495 77.3359V100.844C31.5056 100.844 37.9597 107.143 28.8922 108.833C19.8245 110.524 11.5251 110.524 11.5251 110.524ZM64.5802 185.491C64.5766 186.289 63.8504 186.912 62.9861 186.858L54.263 186.321C53.4573 186.27 52.8272 185.649 52.83 184.903L52.8398 182.493C52.8432 181.696 53.5705 181.072 54.4339 181.123L63.157 181.662C63.9634 181.712 64.5937 182.335 64.59 183.079L64.5802 185.491ZM7.07016 181.399V179.274C7.07016 178.572 7.61935 178.026 8.27447 178.074L14.8898 178.575C15.5004 178.622 15.9802 179.174 15.9802 179.829V181.953C15.9802 182.657 15.4319 183.204 14.7767 183.153L8.16054 182.652C7.54992 182.607 7.07016 182.055 7.07016 181.399V181.399ZM304.985 156.324C308.187 165.072 304.985 181.076 304.985 181.076C304.985 154.618 295.381 150.563 290.472 150.563C285.562 150.563 278.521 150.563 272.758 150.563C266.995 150.563 261.658 157.39 261.658 166.567C261.658 170.544 261.658 175.645 261.658 180.149L154.733 185.277C154.733 180.285 154.733 174.613 154.733 169.979C154.733 159.098 147.263 150.563 138.94 150.563C130.617 150.563 122.506 150.563 115.036 150.563C107.566 150.563 97.322 165.072 97.322 175.529C97.322 176.363 97.322 177.226 97.322 178.103C90.6721 178.75 78.1714 179.814 67.8693 179.814C55.1405 179.814 17.197 177.053 6.82983 176.278V120.236L65.5753 117.682L69.6129 117.591L72.1382 175.33L74.668 117.479L111.251 116.672C112.536 116.672 113.697 116.076 114.577 115.124C114.599 117.217 114.669 119.283 114.707 121.286C114.826 125.926 115.01 130.259 115.23 133.973C115.636 141.4 116.21 146.35 116.21 146.35C116.21 146.35 116.784 141.4 117.19 133.973C117.411 130.259 117.594 125.926 117.714 121.286C117.757 118.965 117.858 116.565 117.859 114.128C117.878 111.692 117.897 109.217 117.916 106.74C117.897 104.266 117.877 101.79 117.857 99.3522C117.85 96.9146 117.754 94.5173 117.71 92.1963C117.588 87.5555 117.406 83.2226 117.186 79.509C116.782 72.0827 116.21 67.1295 116.21 67.1295C116.21 63.8743 113.99 61.2339 111.251 61.2339C111.251 61.2339 86.2305 61.0018 77.8296 61.2339C59.0419 61.7554 17.6723 66.6402 6.82983 67.9501C6.82983 64.5284 6.82983 61.1467 6.82983 57.9582C6.82983 57.5729 6.8672 57.1948 6.92061 56.8166C10.0084 56.2994 14.6655 55.5315 20.3764 54.6407C30.9393 53.005 45.0494 50.9005 59.2103 49.4873C62.7502 49.1508 66.2938 48.8474 69.7768 48.69C73.2454 48.5127 76.7302 48.494 80.0691 48.4006C86.7618 48.2503 93.0086 48.1115 98.3626 47.9912C109.072 47.752 116.21 47.5926 116.21 47.5926C116.21 47.5926 109.072 47.4306 98.3626 47.1914C93.0086 47.0702 86.7618 46.9315 80.0691 46.7811C76.716 46.7242 73.2837 46.5854 69.7269 46.6057C66.1851 46.6102 62.6014 46.7563 59.0207 46.9342C44.7067 47.7154 30.4738 49.1937 19.8068 50.3576C15.8128 50.7973 12.3191 51.203 9.50995 51.5377C19.942 39.3272 58.021 32.5497 71.5728 30.4807C74.1436 30.2119 76.7498 29.8934 79.3659 29.6701C82.0949 29.4965 84.8259 29.2072 87.5211 29.1343C90.2154 29.0204 92.8696 28.9065 95.4414 28.9181C98.0138 28.8655 100.498 28.9368 102.858 28.9892C105.215 29.0596 107.443 29.1824 109.5 29.3122C113.612 29.5899 117.026 29.9984 119.413 30.3169C121.795 30.6632 123.147 30.9302 123.147 30.9302C123.147 30.9302 121.813 30.5839 119.45 30.1007C117.082 29.6423 113.687 29.0345 109.578 28.5176C107.524 28.2666 105.293 28.0112 102.929 27.8039C100.563 27.6125 98.0653 27.3945 95.476 27.2983C92.8867 27.1364 90.2084 27.0938 87.4837 27.0528C85.2584 26.9817 83.0045 27.0502 80.7445 27.0892C108.959 10.1687 142.598 7.22304 162.441 7.22304C166.9 7.22304 170.656 7.36907 173.501 7.53811C173.218 7.63789 172.951 7.73131 172.657 7.8336C167.16 9.7682 159.895 12.5154 152.797 15.6595C149.239 17.2043 145.74 18.8879 142.501 20.5395C140.871 21.3369 139.35 22.2322 137.882 23.0109C136.419 23.8064 135.09 24.6582 133.837 25.3895C132.583 26.1201 131.505 26.9158 130.515 27.5512C129.522 28.1848 128.702 28.8067 128.034 29.3257C126.689 30.3463 125.921 30.9302 125.921 30.9302C125.921 30.9302 126.735 30.413 128.158 29.5063C128.863 29.0461 129.726 28.4989 130.765 27.9524C131.802 27.4009 132.926 26.7085 134.229 26.0891C135.531 25.4669 136.909 24.7354 138.42 24.0707C139.939 23.4184 141.503 22.6648 143.182 22.0089C146.513 20.6464 150.097 19.2751 153.733 18.0424C160.983 15.5276 168.364 13.4151 173.926 11.9646C176.103 11.388 177.988 10.925 179.491 10.5612V42.0494L129.621 44.4619L179.491 46.8745V129.875C179.491 132.061 178.643 134.034 177.29 135.544L129.621 137.777L161.136 139.256V151.202H243.281C243.135 151.751 243.005 152.303 242.871 152.852C241.996 157.158 241.918 161.432 241.977 164.61C242.057 167.79 242.237 169.89 242.237 169.89C242.237 169.89 242.378 167.78 242.777 164.653C243.187 161.538 243.926 157.376 245.332 153.562C245.721 152.631 246.077 151.69 246.555 150.847C246.968 149.965 247.524 149.216 248.02 148.492C248.298 148.163 248.574 147.84 248.841 147.523C249.114 147.22 249.433 146.997 249.707 146.739C249.973 146.469 250.279 146.288 250.573 146.123C250.871 145.965 251.115 145.737 251.411 145.648C251.985 145.462 252.505 145.184 252.911 145.188C253.337 145.134 253.578 145.006 254.134 145.035C255.059 145.029 255.588 145.022 255.588 145.022L255.586 145.015C263.554 145.015 280.066 145.015 287.697 145.015C295.807 145.015 301.784 147.576 304.985 156.324V156.324ZM521.864 107.207L521.827 109.178C521.738 111.793 521.538 114.365 521.242 116.848C520.672 121.808 519.621 126.414 518.202 130.186C517.484 132.07 516.7 133.754 515.841 135.157C515.021 136.579 514.109 137.695 513.33 138.57C512.503 139.42 511.815 140.026 511.3 140.361C510.798 140.721 510.529 140.914 510.529 140.914C510.529 140.914 510.755 140.673 511.179 140.224C511.635 139.798 512.154 139.053 512.804 138.154C513.414 137.201 514.082 136.01 514.693 134.57C515.322 133.142 515.843 131.449 516.356 129.599C516.698 128.212 517.003 126.699 517.274 125.132L220.04 113.627C222.198 104.316 223.285 92.6332 222.425 77.9125C221.2 56.9232 216.395 41.8858 208.132 33.0782C278.341 41.3384 484.172 70.6377 494.435 71.613C494.435 71.613 494.763 71.636 495.378 71.6726C495.998 71.7045 496.919 71.7385 498.056 72.0187C498.635 72.121 499.27 72.2599 499.936 72.4966C500.606 72.7199 501.36 72.9158 502.094 73.2787C503.607 73.9141 505.27 74.773 506.929 75.9442C507.761 76.5269 508.636 77.1329 509.449 77.8708C509.862 78.2328 510.283 78.6005 510.712 78.9741C511.104 79.3835 511.505 79.7965 511.91 80.2173C513.551 81.8876 515.032 83.8785 516.397 86.0453C517.666 88.2594 518.915 90.6196 519.733 93.1868C520.166 94.463 520.578 95.7568 520.843 97.0943C520.989 97.7618 521.169 98.4159 521.285 99.0968L521.572 101.167C521.793 102.584 521.779 103.858 521.839 105.17L521.873 106.147L521.864 107.207ZM488.394 149.859C485.965 149.927 482.495 150.095 478.329 150.171C474.166 150.241 469.308 150.403 464.101 150.432C458.897 150.466 453.344 150.506 447.793 150.545C442.24 150.506 436.686 150.466 431.482 150.43C426.277 150.399 421.419 150.241 417.254 150.171C413.091 150.093 409.62 149.924 407.191 149.856C404.762 149.752 403.372 149.692 403.372 149.692C403.372 149.692 404.762 149.631 407.191 149.526C409.62 149.457 413.091 149.291 417.254 149.213C421.419 149.143 426.277 148.986 431.482 148.952C436.686 148.915 442.24 148.877 447.793 148.84C453.344 148.877 458.897 148.915 464.101 148.952C469.308 148.979 474.166 149.14 478.329 149.212C482.495 149.286 485.965 149.457 488.394 149.526C490.823 149.631 492.211 149.692 492.211 149.692C492.211 149.692 490.823 149.752 488.394 149.859V149.859ZM495.082 64.8177C493.514 64.6673 486.776 63.772 476.497 62.3705C475.918 57.8737 470.951 54.1992 464.461 53.6297L429.515 50.5606C424.516 50.1236 419.881 51.6176 417.001 54.1603C409.379 53.1057 401.775 52.053 394.219 51.0098C393.64 46.3619 388.517 42.5595 381.813 41.9722L345.797 38.8103C340.608 38.3547 335.798 39.9218 332.833 42.5736C323.753 41.334 314.886 40.1264 306.293 38.9625C305.509 34.3171 300.319 30.5563 293.562 29.9638L256.445 26.704C251.108 26.2367 246.161 27.843 243.105 30.5652C212.903 26.663 192.004 24.2096 186.321 24.1089V8.02769C186.321 4.57652 183.744 1.66755 180.317 1.25019C180.029 1.21625 173.165 0.393144 162.441 0.393144C142.476 0.393144 104.687 3.38664 73.9602 23.2316C69.1991 23.89 54.6422 26.0747 39.8672 29.9938C12.6681 37.211 0 46.0958 0 57.9582V103.858V194.945C0 198.458 2.66765 201.399 6.1658 201.741L62.9362 207.288C63.1579 207.309 63.3794 207.32 63.6011 207.32H95.767C99.008 210.448 102.973 212.432 107.372 212.752L126.623 214.15C135.587 214.802 143.797 208.42 148.027 198.706C148.284 200.14 148.979 201.468 150.056 202.481C151.326 203.673 153 204.334 154.733 204.334C154.873 204.334 155.014 204.329 155.155 204.32L259.778 197.847C261.219 199.946 263.16 201.58 265.785 201.755C273.41 202.265 282.647 202.199 282.647 202.199L282.661 202.139C290.632 201.65 297.308 194.802 299.728 185.402C300.843 186.753 302.449 187.688 304.311 187.869C304.539 187.892 304.767 187.904 304.99 187.904C308.21 187.904 311.037 185.633 311.682 182.416C312.047 180.584 315.15 164.233 311.397 153.977C310.896 152.606 310.327 151.328 309.693 150.136H331.427V174.052H339.722C341.358 183.308 346.207 190.023 351.938 190.023H362.039C367.647 190.023 372.4 183.587 374.134 174.641C375.868 183.587 380.622 190.023 386.227 190.023H396.331C400.998 190.023 405.07 185.555 407.307 178.902C409.358 186.644 413.763 192.013 418.883 192.013H428.984C434.825 192.013 439.74 185.037 441.28 175.508C443.119 183.493 447.519 189.123 452.66 189.123H462.365C467.49 189.123 471.881 183.527 473.729 175.578C475.622 182.707 479.683 187.651 484.402 187.651H493.724C500.248 187.651 505.539 178.219 505.539 166.584C505.539 159.926 503.803 153.998 501.096 150.136H503.541C512.469 150.136 527.444 144.443 527.444 106.323C527.444 83.3393 510.712 66.3046 495.082 64.8177" fill="#FFEB85"></path> <path d="M44.763 131.638C43.337 131.62 41.8622 131.544 40.3649 131.569C38.8678 131.576 37.3466 131.583 35.8262 131.592C34.3061 131.638 32.7858 131.686 31.2884 131.731C29.7923 131.763 28.3209 131.886 26.8958 131.955C24.0466 132.125 21.3887 132.355 19.1118 132.615C14.5571 133.101 11.5254 133.725 11.5254 133.725C11.5254 133.725 14.5767 134.242 19.1456 134.566C21.4306 134.745 24.0946 134.882 26.9485 134.953C28.3751 134.973 29.8501 135.042 31.3463 135.023C32.8436 135.017 34.3647 135.01 35.8859 135.002C37.4063 134.957 38.9266 134.912 40.4228 134.866C41.9201 134.839 43.3914 134.711 44.8165 134.643C47.6658 134.474 50.3237 134.244 52.6005 133.984C57.1552 133.497 60.1869 132.87 60.1869 132.87C60.1869 132.87 57.1346 132.349 52.5657 132.023C50.2808 131.842 47.6168 131.706 44.763 131.638" fill="#FFEB85"></path> <path d="M44.6001 140.702C43.1823 140.669 41.7162 140.575 40.2279 140.582C38.7388 140.571 37.2265 140.559 35.7141 140.548C34.202 140.575 32.6896 140.603 31.2014 140.629C29.712 140.645 28.248 140.748 26.83 140.8C23.9951 140.937 21.3495 141.133 19.0824 141.365C14.5473 141.794 11.5254 142.379 11.5254 142.379C11.5254 142.379 14.5527 142.935 19.0922 143.316C21.362 143.523 24.0092 143.692 26.845 143.798C28.263 143.835 29.7291 143.924 31.2173 143.922C32.7065 143.935 34.2188 143.947 35.7312 143.958C37.2433 143.931 38.7557 143.903 40.2439 143.876C41.733 143.87 43.1973 143.76 44.6153 143.71C47.4502 143.575 50.0958 143.378 52.3629 143.145C56.8979 142.716 59.9199 142.126 59.9199 142.126C59.9199 142.126 56.8926 141.568 52.3531 141.186C50.0833 140.976 47.4361 140.807 44.6001 140.702" fill="#FFEB85"></path> <path d="M44.4365 149.77C43.0264 149.715 41.5703 149.603 40.0899 149.592C38.6096 149.562 37.1055 149.533 35.602 149.503C34.0978 149.512 32.5934 149.521 31.1132 149.53C29.633 149.526 28.1748 149.612 26.765 149.647C23.9433 149.747 21.3103 149.911 19.0531 150.116C14.5375 150.487 11.5254 151.036 11.5254 151.036C11.5254 151.036 14.5295 151.629 19.0379 152.066C21.2925 152.301 23.9228 152.503 26.7418 152.645C28.1518 152.699 29.6079 152.804 31.0884 152.823C32.5695 152.852 34.0728 152.884 35.5772 152.914C37.0804 152.905 38.5848 152.898 40.0659 152.889C41.5462 152.898 43.0034 152.809 44.4141 152.775C47.2349 152.674 49.8679 152.51 52.1261 152.308C56.6406 151.934 59.6528 151.38 59.6528 151.38C59.6528 151.38 56.6495 150.786 52.1402 150.346C49.8857 150.109 47.2554 149.909 44.4365 149.77" fill="#FFEB85"></path> <path d="M44.2726 158.834C42.8714 158.764 41.4243 158.634 39.952 158.604C38.4807 158.557 36.9852 158.508 35.4899 158.459C33.9937 158.45 32.4973 158.44 31.025 158.431C29.5528 158.409 28.1019 158.475 26.6992 158.492C23.8916 158.559 21.2711 158.688 19.0228 158.864C14.5286 159.18 11.5254 159.693 11.5254 159.693C11.5254 159.693 14.5055 160.322 18.9845 160.814C21.2233 161.078 23.8374 161.313 26.6386 161.489C28.0406 161.562 29.4869 161.686 30.9592 161.723C32.4314 161.771 33.9269 161.821 35.4213 161.869C36.9177 161.88 38.4139 161.889 39.8871 161.901C41.3593 161.928 42.8102 161.855 44.2129 161.839C47.0196 161.775 49.6407 161.645 51.8884 161.468C56.3834 161.151 59.3858 160.636 59.3858 160.636C59.3858 160.636 56.4066 160.003 51.9276 159.509C49.6881 159.244 47.0747 159.009 44.2726 158.834" fill="#FFEB85"></path> <path d="M44.1088 167.901C42.7158 167.812 41.2782 167.665 39.8139 167.617C38.3508 167.551 36.8642 167.482 35.3778 167.414C33.8893 167.387 32.402 167.359 30.9368 167.33C29.4728 167.291 28.029 167.339 26.6333 167.339C23.8401 167.368 21.2322 167.466 18.9934 167.615C14.5189 167.874 11.5254 168.348 11.5254 168.348C11.5254 168.348 14.4815 169.016 18.9302 169.565C21.1546 169.856 23.751 170.123 26.5362 170.334C27.9283 170.426 29.3668 170.567 30.8302 170.622C32.2936 170.69 33.7809 170.756 35.2673 170.825C36.7557 170.854 38.243 170.883 39.7082 170.911C41.1716 170.959 42.616 170.904 44.0117 170.906C46.804 170.876 49.4129 170.778 51.6508 170.631C56.1261 170.369 59.1196 169.89 59.1196 169.89C59.1196 169.89 56.1635 169.22 51.7148 168.669C49.4903 168.377 46.894 168.109 44.1088 167.901" fill="#FFEB85"></path> <path d="M242.424 177.44C237.81 177.57 232.421 177.647 226.656 177.864C220.888 178.078 214.738 178.306 208.586 178.534C202.439 178.839 196.291 179.144 190.528 179.429C184.764 179.709 179.39 180.103 174.781 180.372C170.172 180.65 166.337 180.985 163.649 181.17C160.963 181.392 159.429 181.52 159.429 181.52C159.429 181.52 160.969 181.513 163.664 181.502C166.357 181.454 170.208 181.456 174.823 181.334C179.438 181.204 184.825 181.131 190.592 180.91C196.359 180.695 202.509 180.465 208.66 180.238C214.808 179.933 220.956 179.627 226.719 179.34C232.482 179.057 237.855 178.668 242.465 178.397C247.073 178.119 250.91 177.786 253.596 177.602C256.283 177.379 257.817 177.253 257.817 177.253C257.817 177.253 256.278 177.26 253.583 177.271C250.889 177.319 247.038 177.319 242.424 177.44" fill="#FFEB85"></path> <path d="M109.411 146.339C108.918 146.382 108.314 146.535 107.601 146.665C106.93 146.881 106.154 147.127 105.373 147.519C104.605 147.934 103.749 148.369 102.966 148.993C102.124 149.551 101.361 150.278 100.552 151.014C99.8222 151.818 98.9829 152.59 98.3251 153.524C97.6066 154.415 96.9606 155.376 96.3401 156.353C95.7322 157.34 95.2035 158.372 94.6933 159.388C94.2226 160.423 93.7659 161.445 93.4321 162.477C93.0422 163.488 92.7751 164.5 92.5473 165.466C92.267 166.416 92.1681 167.355 92.0257 168.202C91.8557 169.047 91.8762 169.849 91.8254 170.544C91.7702 171.239 91.7871 171.847 91.8156 172.348C91.8593 173.346 91.9083 173.909 91.9083 173.909C91.9083 173.909 92.0106 173.344 92.1469 172.367C92.203 171.876 92.2866 171.286 92.4566 170.622C92.6266 169.954 92.7343 169.195 92.988 168.396C93.2309 167.594 93.4312 166.712 93.7711 165.819C94.0722 164.912 94.4228 163.971 94.8357 163.017C95.1946 162.042 95.7233 161.106 96.1729 160.115C96.6774 159.154 97.2008 158.178 97.7928 157.249C98.3677 156.306 98.9659 155.38 99.6317 154.526C100.251 153.631 100.972 152.85 101.631 152.055C102.364 151.339 103.014 150.571 103.754 149.988C104.447 149.341 105.182 148.849 105.855 148.369C106.542 147.926 107.218 147.576 107.81 147.262C108.427 147.04 108.965 146.792 109.443 146.666C110.419 146.482 110.975 146.35 110.975 146.35C110.975 146.35 110.405 146.332 109.411 146.339" fill="#FFEB85"></path> <path d="M161.984 77.9437C161.94 80.067 161.844 82.2633 161.837 84.4962C161.817 86.7287 161.797 88.9955 161.778 91.2621C161.797 93.5286 161.816 95.796 161.835 98.0279C161.836 100.261 161.937 102.457 161.98 104.582C162.099 108.833 162.283 112.799 162.503 116.201C162.909 123.001 163.483 127.535 163.483 127.535C163.483 127.535 164.058 123.001 164.464 116.201C164.685 112.799 164.868 108.833 164.988 104.582C165.03 102.457 165.132 100.261 165.133 98.0279C165.151 95.796 165.171 93.5286 165.189 91.2621C165.17 88.9955 165.151 86.7287 165.131 84.4962C165.124 82.2633 165.027 80.067 164.983 77.9437C164.862 73.6927 164.68 69.7246 164.46 66.3233C164.055 59.5228 163.483 54.9895 163.483 54.9895C163.483 54.9895 162.913 59.5228 162.508 66.3233C162.288 69.7246 162.105 73.6927 161.984 77.9437" fill="#FFEB85"></path> <path d="M138.075 105.122C138.194 109.273 138.377 113.146 138.598 116.468C139.004 123.108 139.578 127.535 139.578 127.535C139.578 127.535 140.153 123.108 140.559 116.468C140.779 113.146 140.962 109.273 141.082 105.122C141.125 103.047 141.226 100.901 141.227 98.723C141.246 96.5428 141.265 94.3287 141.285 92.1164C141.265 89.9022 141.245 87.6881 141.226 85.5097C141.218 83.3295 141.123 81.1856 141.078 79.1104C140.957 74.9598 140.775 71.0845 140.554 67.765C140.15 61.1219 139.578 56.6954 139.578 56.6954C139.578 56.6954 139.008 61.1219 138.603 67.765C138.383 71.0845 138.2 74.9598 138.079 79.1104C138.034 81.1856 137.939 83.3295 137.932 85.5097C137.912 87.6881 137.892 89.9022 137.872 92.1164C137.892 94.3287 137.911 96.5428 137.93 98.723C137.931 100.901 138.031 103.047 138.075 105.122Z" fill="#FFEB85"></path> <path d="M173.341 155.396C176.896 155.472 181.044 155.615 185.488 155.668C189.931 155.741 194.671 155.754 199.41 155.773C204.151 155.754 208.891 155.743 213.334 155.671C217.778 155.62 221.924 155.474 225.479 155.399C229.035 155.323 231.997 155.155 234.071 155.085C236.144 154.98 237.329 154.919 237.329 154.919C237.329 154.919 236.144 154.859 234.071 154.752C231.997 154.684 229.035 154.515 225.479 154.438C221.924 154.365 217.778 154.219 213.334 154.167C208.891 154.096 204.151 154.085 199.41 154.066C194.671 154.085 189.931 154.098 185.488 154.168C181.044 154.224 176.896 154.365 173.341 154.44C169.786 154.517 166.824 154.686 164.751 154.754C162.677 154.859 161.492 154.919 161.492 154.919C161.492 154.919 162.677 154.98 164.751 155.085C166.824 155.153 169.786 155.319 173.341 155.396" fill="#FFEB85"></path> <path d="M518.558 109.104L518.564 107.187V106.293L518.514 105.316C518.453 104.268 518.405 103.204 518.282 102.206L225.235 78.7437C225.235 78.7437 226.943 95.5289 223.812 111.178L517.199 123.197C517.199 123.197 517.847 120.133 518.311 115.91C518.464 113.697 518.491 111.419 518.558 109.104" fill="#FFEB85"></path> <path d="M274.551 77.3271C287.822 78.5908 303.29 80.2158 319.888 81.685C336.486 83.1612 354.189 84.7354 371.892 86.3114C389.609 87.7337 407.323 89.1548 423.932 90.4877C440.54 91.8359 456.064 92.8247 469.358 93.809C482.654 94.7816 493.751 95.3787 501.51 95.8983C509.276 96.3426 513.713 96.598 513.713 96.598C513.713 96.598 509.297 96.1013 501.567 95.2354C493.829 94.4426 482.791 93.1691 469.52 91.8929C456.249 90.631 440.781 88.998 424.183 87.5377C407.585 86.0615 389.882 84.4873 372.179 82.9129C354.462 81.4908 336.745 80.0716 320.136 78.7393C303.529 77.4 288.007 76.4015 274.713 75.42C261.417 74.4491 250.32 73.8458 242.561 73.3287C234.795 72.8819 230.356 72.6266 230.356 72.6266C230.356 72.6266 234.774 73.1214 242.504 73.9873C250.24 74.7801 261.28 76.0483 274.551 77.3271" fill="#FFEB85"></path> <path d="M174.663 162.862C174.446 164.503 174.304 166.688 174.298 168.874C174.303 171.059 174.444 173.246 174.661 174.884C174.864 176.525 175.151 177.617 175.151 177.617C175.151 177.617 175.438 176.525 175.641 174.884C175.858 173.246 175.999 171.059 176.004 168.874C175.998 166.688 175.855 164.503 175.639 162.862C175.436 161.224 175.151 160.131 175.151 160.131C175.151 160.131 174.866 161.224 174.663 162.862" fill="#FFEB85"></path> <path d="M203.617 162.623C203.402 164.118 203.259 166.111 203.252 168.104C203.258 170.098 203.399 172.091 203.616 173.588C203.819 175.082 204.106 176.08 204.106 176.08C204.106 176.08 204.393 175.082 204.597 173.588C204.813 172.091 204.953 170.098 204.959 168.104C204.953 166.111 204.81 164.118 204.594 162.623C204.392 161.127 204.106 160.131 204.106 160.131C204.106 160.131 203.821 161.127 203.617 162.623" fill="#FFEB85"></path> <path d="M229.654 162.422C229.44 163.799 229.296 165.63 229.29 167.464C229.296 169.298 229.435 171.132 229.654 172.506C229.857 173.881 230.144 174.797 230.144 174.797C230.144 174.797 230.431 173.881 230.634 172.506C230.85 171.132 230.992 169.298 230.996 167.464C230.989 165.63 230.848 163.799 230.632 162.422C230.429 161.046 230.144 160.131 230.144 160.131C230.144 160.131 229.857 161.046 229.654 162.422Z" fill="#FFEB85"></path> <path d="M105.798 124.708C106.879 124.662 107.955 124.482 108.758 124.234C109.562 124.002 110.092 123.696 110.092 123.696C110.092 123.696 109.541 123.427 108.722 123.257C107.904 123.067 106.817 122.967 105.735 123.004C104.654 123.049 103.579 123.232 102.775 123.477C101.972 123.71 101.441 124.015 101.441 124.015C101.441 124.015 101.992 124.282 102.811 124.453C103.63 124.64 104.717 124.742 105.798 124.708Z" fill="#FFEB85"></path> </svg> 