<?xml version="1.0" encoding="UTF-8"?> <svg xmlns="http://www.w3.org/2000/svg" width="85" height="98" viewBox="0 0 85 98" fill="none"> <path fill-rule="evenodd" clip-rule="evenodd" d="M25.4745 1.17949C10.3605 6.17949 -0.084485 20.3255 0.000514987 35.6775C0.072515 48.6365 11.1505 67.6775 25.9145 80.2175C30.7095 84.2905 31.9145 84.8385 36.0735 84.8385C40.1835 84.8385 41.5065 84.2555 46.3435 80.3155C58.7825 70.1835 70.5155 50.9075 71.6265 38.7805C72.9815 24.0055 64.8335 9.85849 51.0825 3.11049C44.6445 -0.0485077 32.0555 -0.998507 25.4745 1.17949ZM49.6825 7.96449C57.0515 11.4755 62.1425 16.9995 64.9665 24.5465C70.0675 38.1815 64.9435 53.7615 49.9885 70.0825C42.8465 77.8765 37.8485 81.2745 34.6915 80.4825C28.6445 78.9645 15.4295 63.8155 8.76351 50.7585C5.78051 44.9155 5.48552 43.5295 5.48052 35.3385C5.47552 27.2395 5.76951 25.8065 8.42051 21.0195C14.6955 9.69149 26.7365 3.32849 39.4745 4.60649C41.6745 4.82649 46.2685 6.33849 49.6825 7.96449ZM34.6625 23.4845C34.2835 23.8625 33.9745 26.5715 33.9745 29.5055V34.8385H28.4435C24.2935 34.8385 22.7585 35.2385 22.2975 36.4395C21.4315 38.6955 23.7045 39.8055 29.2245 39.8235L33.9745 39.8385V45.3385C33.9745 50.1715 34.2165 50.8385 35.9745 50.8385C37.7325 50.8385 37.9745 50.1715 37.9745 45.3385V39.8385L42.7245 39.8235C48.2445 39.8055 50.5175 38.6955 49.6515 36.4395C49.1915 35.2405 47.6595 34.8385 43.5555 34.8385H38.0745L37.7745 29.1675C37.4975 23.9225 36.3385 21.8075 34.6625 23.4845ZM9.97451 95.8385C9.97451 97.7875 10.6415 97.8385 35.9745 97.8385C61.3075 97.8385 61.9745 97.7875 61.9745 95.8385C61.9745 93.8895 61.3075 93.8385 35.9745 93.8385C10.6415 93.8385 9.97451 93.8895 9.97451 95.8385ZM72.9745 95.8885C72.9745 97.7515 73.4975 97.9115 78.7145 97.6385C83.2425 97.4015 84.5255 96.9685 84.7885 95.5885C85.0755 94.0775 84.2925 93.8385 79.0475 93.8385C73.5915 93.8385 72.9745 94.0465 72.9745 95.8885Z" fill="#FFD200"></path> </svg> 